<svg xmlns="http://www.w3.org/2000/svg" fill="none" viewBox="0 0 24 24" stroke-width="1.5" stroke="currentColor" aria-hidden="true" data-slot="icon">
  <path fill="color(display-p3 .7686 .8941 .3373)" d="M15 13a2 2 0 1 1-4 0 2 2 0 0 1 4 0"/>
  <path fill="#000" d="M19.53 2.47a.75.75 0 1 0-1.06 1.06zm1.94 4.06a.75.75 0 1 0 1.06-1.06zm-15.94-3a.75.75 0 0 0-1.06-1.06zM1.47 5.47a.75.75 0 0 0 1.06 1.06zm5.06 14.06a.75.75 0 1 0-1.06-1.06zm-3.06.94a.75.75 0 1 0 1.06 1.06zm15.06-2a.75.75 0 1 0-1.06 1.06zm.94 3.06a.75.75 0 1 0 1.06-1.06zM12.25 10a.75.75 0 0 0-1.5 0zm-.75 4h-.75a.75.75 0 0 0 .281.586zm2.031 2.586a.75.75 0 0 0 .938-1.172zM18.47 3.53l3 3 1.06-1.06-3-3zm-14-1.06-3 3 1.06 1.06 3-3zm1 16-2 2 1.06 1.06 2-2zm12 1.06 2 2 1.06-1.06-2-2zM19.25 13A7.25 7.25 0 0 1 12 20.25v1.5A8.75 8.75 0 0 0 20.75 13zM12 20.25A7.25 7.25 0 0 1 4.75 13h-1.5A8.75 8.75 0 0 0 12 21.75zM4.75 13A7.25 7.25 0 0 1 12 5.75v-1.5A8.75 8.75 0 0 0 3.25 13zM12 5.75A7.25 7.25 0 0 1 19.25 13h1.5A8.75 8.75 0 0 0 12 4.25zM10.75 10v4h1.5v-4zm.281 4.586 2.5 2 .938-1.172-2.5-2z"/>
</svg>
