<svg xmlns="http://www.w3.org/2000/svg" fill="none" viewBox="0 0 24 24" stroke-width="1.5" stroke="currentColor" aria-hidden="true" data-slot="icon">
  <path fill="color(display-p3 .7686 .8941 .3373)" d="M14 10.955a2 2 0 1 0-4 0 2 2 0 0 0 4 0"/>
  <path fill="#000" d="M7.75 19.116a.75.75 0 1 1-.773 1.286zM6.518 4.907l-.457-.594zm5.424-1.862-.005-.75zm8.707 6.51-.72.208zm-.252 5.73.7.27zm-3.267 5.051a.75.75 0 0 1-.79-1.275zm-4.38.619a.75.75 0 0 1-1.5 0zM12 8.227l-.53-.53a.75.75 0 0 1 1.06 0zm-3.288 4.348a.75.75 0 1 1-1.06-1.06zm7.637-1.06a.75.75 0 0 1-1.061 1.06l1.06-1.06Zm-9.372 8.887a9.75 9.75 0 0 1-4.027-4.73l1.392-.558a8.25 8.25 0 0 0 3.408 4.002zm-4.027-4.73a9.75 9.75 0 0 1-.354-6.203l1.447.396a8.25 8.25 0 0 0 .299 5.249zm-.354-6.203a9.75 9.75 0 0 1 3.465-5.156l.914 1.19a8.25 8.25 0 0 0-2.932 4.362L2.596 9.47Zm3.465-5.156a9.75 9.75 0 0 1 5.876-2.018l.01 1.5a8.25 8.25 0 0 0-4.972 1.707zm5.876-2.018a9.75 9.75 0 0 1 5.902 1.942l-.899 1.201a8.25 8.25 0 0 0-4.993-1.643zm5.902 1.942a9.75 9.75 0 0 1 3.53 5.111l-1.44.415a8.25 8.25 0 0 0-2.989-4.325zm3.53 5.111a9.75 9.75 0 0 1-.273 6.207l-1.399-.54a8.25 8.25 0 0 0 .231-5.252l1.442-.415Zm-.273 6.207a9.75 9.75 0 0 1-3.966 4.781l-.79-1.275a8.25 8.25 0 0 0 3.357-4.046l1.4.54Zm-9.846 5.4V8.227h1.5v12.728zm1.28-12.198-3.818 3.819-1.06-1.061 3.818-3.819zm0-1.06 3.819 3.818-1.061 1.06-3.818-3.818z"/>
</svg>
