<svg xmlns="http://www.w3.org/2000/svg" fill="none" viewBox="0 0 24 24" stroke-width="1.5" stroke="currentColor" aria-hidden="true" data-slot="icon">
  <circle cx="11" cy="13" r="2" fill="color(display-p3 .7686 .8941 .3373)"/>
  <path fill="#000" d="M15.23 9.83a.75.75 0 0 0-1.06-1.06zM9.3 14.7h-.75c0 .414.336.75.75.75zm.75-5.4a.75.75 0 0 0-1.5 0zm4.65 6.15a.75.75 0 0 0 0-1.5zm-.53-6.68-5.4 5.4 1.06 1.06 5.4-5.4zm-4.12 5.93V9.3h-1.5v5.4zm-.75.75h5.4v-1.5H9.3zM20.25 12A8.25 8.25 0 0 1 12 20.25v1.5A9.75 9.75 0 0 0 21.75 12zM12 20.25A8.25 8.25 0 0 1 3.75 12h-1.5A9.75 9.75 0 0 0 12 21.75zM3.75 12A8.25 8.25 0 0 1 12 3.75v-1.5A9.75 9.75 0 0 0 2.25 12zM12 3.75A8.25 8.25 0 0 1 20.25 12h1.5A9.75 9.75 0 0 0 12 2.25z"/>
</svg>
