<svg xmlns="http://www.w3.org/2000/svg" fill="none" viewBox="0 0 24 24" stroke-width="1.5" stroke="currentColor" aria-hidden="true" data-slot="icon">
  <path fill="color(display-p3 .7686 .8941 .3373)" d="M10.955 14a2 2 0 1 1 0-4 2 2 0 0 1 0 4"/>
  <path fill="#000" d="M19.116 7.75a.75.75 0 0 0 1.286-.773zM4.907 6.518l-.595-.457zm-1.862 5.424-.75-.005zm6.51 8.707.208-.72zm5.73-.252.27.7zm5.051-3.267a.75.75 0 0 0-1.275-.79zm.619-4.38a.75.75 0 0 0 0-1.5zM8.227 12l-.53-.53a.75.75 0 0 0 0 1.06zm4.348-3.288a.75.75 0 1 0-1.06-1.06zm-1.06 7.637a.75.75 0 0 0 1.06-1.061l-1.06 1.06Zm8.887-9.372a9.75 9.75 0 0 0-4.73-4.027l-.558 1.392a8.25 8.25 0 0 1 4.002 3.408zm-4.73-4.027a9.75 9.75 0 0 0-6.203-.354l.396 1.447a8.25 8.25 0 0 1 5.249.299zm-6.203-.354a9.75 9.75 0 0 0-5.157 3.465l1.19.914a8.25 8.25 0 0 1 4.363-2.932L9.47 2.596ZM4.312 6.061a9.75 9.75 0 0 0-2.017 5.876l1.5.01a8.25 8.25 0 0 1 1.707-4.972zm-2.017 5.876a9.75 9.75 0 0 0 1.942 5.902l1.2-.899a8.25 8.25 0 0 1-1.642-4.993zm1.942 5.902a9.75 9.75 0 0 0 5.111 3.53l.415-1.44a8.25 8.25 0 0 1-4.325-2.989zm5.111 3.53a9.75 9.75 0 0 0 6.207-.273l-.54-1.399a8.25 8.25 0 0 1-5.252.231l-.415 1.442Zm6.207-.273a9.75 9.75 0 0 0 4.781-3.966l-1.275-.79a8.25 8.25 0 0 1-4.046 3.357l.54 1.4Zm5.4-9.846H8.227v1.5h12.728zM8.757 12.53l3.818-3.818-1.06-1.06-3.819 3.818zm-1.06 0 3.818 3.819 1.06-1.061-3.818-3.818z"/>
</svg>
