<svg xmlns="http://www.w3.org/2000/svg" fill="none" viewBox="0 0 24 24" stroke-width="1.5" stroke="currentColor" aria-hidden="true" data-slot="icon">
  <path fill="color(display-p3 .7686 .8941 .3373)" d="M13.937 7.5a2 2 0 1 1-4 0 2 2 0 0 1 4 0"/>
  <path stroke-linecap="square" stroke-linejoin="round" d="M5 8.963v8m4.5-8v8m5-8v8m4.5-8v8M3 5.766v2.197a1 1 0 0 0 1 1h16a1 1 0 0 0 1-1V5.766a1 1 0 0 0-.783-.977L12.65 3.11a3 3 0 0 0-1.302 0L3.782 4.79A1 1 0 0 0 3 5.766Zm1 11.197h16a1 1 0 0 1 1 1v2a1 1 0 0 1-1 1H4a1 1 0 0 1-1-1v-2a1 1 0 0 1 1-1Z"/>
</svg>
