<svg xmlns="http://www.w3.org/2000/svg" fill="none" viewBox="0 0 24 24" stroke-width="1.5" stroke="currentColor" aria-hidden="true" data-slot="icon">
  <path fill="color(display-p3 .7686 .8941 .3373)" d="M14 8a2 2 0 1 1-4 0 2 2 0 0 1 4 0"/>
  <path stroke-linejoin="round" d="M20.1 18.3a2.7 2.7 0 0 0-2.7-2.7H6.6a2.7 2.7 0 0 0-2.7 2.7m16.2 0a2.7 2.7 0 0 1-2.7 2.7H6.6a2.7 2.7 0 0 1-2.7-2.7m16.2 0v-.535a2.7 2.7 0 0 0-.972-2.075l-3.457-2.88a2.7 2.7 0 0 1-.971-2.075V6.6M3.9 18.3v-.535a2.7 2.7 0 0 1 .971-2.075l3.457-2.88a2.7 2.7 0 0 0 .972-2.075V6.6m0 0h5.4m-5.4 0a.9.9 0 0 1-.9-.9V3.9a.9.9 0 0 1 .9-.9h5.4a.9.9 0 0 1 .9.9v1.8a.9.9 0 0 1-.9.9"/>
</svg>
