<svg xmlns="http://www.w3.org/2000/svg" fill="none" viewBox="0 0 24 24" stroke-width="1.5" stroke="currentColor" aria-hidden="true" data-slot="icon">
  <circle cx="14" cy="13" r="2" fill="color(display-p3 .7686 .8941 .3373)"/>
  <path fill="#000" d="M12.75 9a.75.75 0 0 0-1.5 0zM12 14h-.75c0 .25.125.485.334.624zm2.584 2.624a.75.75 0 1 0 .832-1.248zM14 3.75a.75.75 0 0 0 0-1.5zm-4-1.5a.75.75 0 0 0 0 1.5zm8.53.22a.75.75 0 1 0-1.06 1.06zm.94 3.06a.75.75 0 1 0 1.06-1.06zm-12.94-2a.75.75 0 0 0-1.06-1.06zm-3.06.94a.75.75 0 0 0 1.06 1.06zM19.25 13A7.25 7.25 0 0 1 12 20.25v1.5A8.75 8.75 0 0 0 20.75 13zM12 20.25A7.25 7.25 0 0 1 4.75 13h-1.5A8.75 8.75 0 0 0 12 21.75zM4.75 13A7.25 7.25 0 0 1 12 5.75v-1.5A8.75 8.75 0 0 0 3.25 13zM12 5.75A7.25 7.25 0 0 1 19.25 13h1.5A8.75 8.75 0 0 0 12 4.25zM11.25 9v5h1.5V9zm.334 5.624 3 2 .832-1.248-3-2zM12.75 5V3h-1.5v2zm4.72-1.47 2 2 1.06-1.06-2-2zm-12-1.06-2 2 1.06 1.06 2-2zM12 3.75h2v-1.5h-2zm0-1.5h-2v1.5h2z"/>
</svg>
