<svg xmlns="http://www.w3.org/2000/svg" fill="none" viewBox="0 0 24 24" stroke-width="1.5" stroke="currentColor" aria-hidden="true" data-slot="icon">
  <path fill="#000" d="M12 11.25a.75.75 0 0 0 0 1.5zm.01 1.5a.75.75 0 0 0 0-1.5zm-.01 0h.01v-1.5H12zm-.25-.75a.25.25 0 0 1 .25-.25v1.5c.69 0 1.25-.56 1.25-1.25zm.25-.25a.25.25 0 0 1 .25.25h-1.5c0 .69.56 1.25 1.25 1.25zm.25.25a.25.25 0 0 1-.25.25v-1.5c-.69 0-1.25.56-1.25 1.25zm-.25.25a.25.25 0 0 1-.25-.25h1.5c0-.69-.56-1.25-1.25-1.25zm-6-7.5h12v-1.5H6zM19.25 6v12h1.5V6zM18 19.25H6v1.5h12zM4.75 18V6h-1.5v12zM6 19.25c-.69 0-1.25-.56-1.25-1.25h-1.5A2.75 2.75 0 0 0 6 20.75zM19.25 18c0 .69-.56 1.25-1.25 1.25v1.5A2.75 2.75 0 0 0 20.75 18zM18 4.75c.69 0 1.25.56 1.25 1.25h1.5A2.75 2.75 0 0 0 18 3.25zM6 3.25A2.75 2.75 0 0 0 3.25 6h1.5c0-.69.56-1.25 1.25-1.25z"/>
</svg>
