<svg xmlns="http://www.w3.org/2000/svg" fill="none" viewBox="0 0 24 24" stroke-width="1.5" stroke="currentColor" aria-hidden="true" data-slot="icon">
  <path fill="color(display-p3 .7686 .8941 .3373)" d="M16.5 15.5a2 2 0 1 1-4 0 2 2 0 0 1 4 0"/>
  <path fill="#000" d="M15.64 9.656a.75.75 0 0 0 0-1.5zm-.011-1.5a.75.75 0 0 0 0 1.5zm-7.004 1.5a.75.75 0 0 0 0-1.5zm-.011-1.5a.75.75 0 1 0 0 1.5zM16.5 13.8h.75a.75.75 0 0 0-.75-.75zM12 18.3v-.75zm-4.5-4.5v-.75a.75.75 0 0 0-.75.75zm8.14-5.644h-.011v1.5h.011zm.188.75a.19.19 0 0 1-.188.188v-1.5c-.725 0-1.312.587-1.312 1.312zm-.188.188a.187.187 0 0 1-.187-.188h1.5c0-.725-.588-1.312-1.313-1.312zm-.187-.188c0-.103.084-.187.187-.187v1.5c.725 0 1.313-.588 1.313-1.313zm.187-.187c.104 0 .188.084.188.187h-1.5c0 .725.587 1.313 1.312 1.313zm-7.015-.563h-.011v1.5h.011zm.188.75a.19.19 0 0 1-.188.188v-1.5c-.725 0-1.312.587-1.312 1.312zm-.188.188a.187.187 0 0 1-.187-.188h1.5c0-.725-.588-1.312-1.313-1.312zm-.187-.188c0-.103.083-.187.187-.187v1.5c.725 0 1.313-.588 1.313-1.313zm.187-.187c.104 0 .188.084.188.187h-1.5c0 .725.587 1.313 1.312 1.313zM20.25 12A8.25 8.25 0 0 1 12 20.25v1.5A9.75 9.75 0 0 0 21.75 12zM12 20.25A8.25 8.25 0 0 1 3.75 12h-1.5A9.75 9.75 0 0 0 12 21.75zM3.75 12A8.25 8.25 0 0 1 12 3.75v-1.5A9.75 9.75 0 0 0 2.25 12zM12 3.75A8.25 8.25 0 0 1 20.25 12h1.5A9.75 9.75 0 0 0 12 2.25zm3.75 10.05c0 .492-.097.98-.286 1.435l1.386.574c.264-.637.4-1.32.4-2.009zm-.286 1.435a3.8 3.8 0 0 1-.812 1.217l1.06 1.06a5.3 5.3 0 0 0 1.138-1.703zm-.812 1.217a3.8 3.8 0 0 1-1.217.813l.574 1.385a5.3 5.3 0 0 0 1.703-1.138zm-1.217.813A3.8 3.8 0 0 1 12 17.55v1.5c.69 0 1.372-.136 2.01-.4zM12 17.55a3.8 3.8 0 0 1-1.435-.285L9.99 18.65c.637.264 1.32.4 2.009.4zm-1.435-.285a3.8 3.8 0 0 1-1.217-.813l-1.06 1.06A5.3 5.3 0 0 0 9.99 18.65zm-1.217-.813a3.8 3.8 0 0 1-.813-1.217l-1.385.574a5.3 5.3 0 0 0 1.138 1.703zm-.813-1.217A3.8 3.8 0 0 1 8.25 13.8h-1.5c0 .69.136 1.372.4 2.01zM7.5 14.55h9v-1.5h-9z"/>
</svg>
