<svg xmlns="http://www.w3.org/2000/svg" fill="none" viewBox="0 0 24 24" stroke-width="1.5" stroke="currentColor" aria-hidden="true" data-slot="icon">
  <path fill="color(display-p3 .7686 .8941 .3373)" d="M10.287 12a2 2 0 1 1-4 0 2 2 0 0 1 4 0m11 0a2 2 0 1 1-4 0 2 2 0 0 1 4 0"/>
  <path stroke-linejoin="round" d="M2.537 16.881V7.119a1 1 0 0 1 1.635-.772l5.927 4.881a1 1 0 0 1 0 1.544l-5.927 4.88a1 1 0 0 1-1.635-.771Zm11 0V7.119a1 1 0 0 1 1.635-.772l5.927 4.881a1 1 0 0 1 0 1.544l-5.927 4.88a1 1 0 0 1-1.635-.771Z"/>
</svg>
