<svg xmlns="http://www.w3.org/2000/svg" fill="none" viewBox="0 0 24 24" stroke-width="1.5" stroke="currentColor" aria-hidden="true" data-slot="icon">
  <path fill="color(display-p3 .7686 .8941 .3373)" d="M14 13a2 2 0 1 1-4 0 2 2 0 0 1 4 0"/>
  <path fill="#000" d="M10.416 12.624c.277-.184 1.514-.644 3.306.072l.556-1.392c-2.208-.884-3.97-.41-4.694.072zM9.25 12A3.25 3.25 0 0 1 6 15.25v1.5A4.75 4.75 0 0 0 10.75 12zM6 15.25A3.25 3.25 0 0 1 2.75 12h-1.5A4.75 4.75 0 0 0 6 16.75zM2.75 12A3.25 3.25 0 0 1 6 8.75v-1.5A4.75 4.75 0 0 0 1.25 12zM6 8.75A3.25 3.25 0 0 1 9.25 12h1.5A4.75 4.75 0 0 0 6 7.25zM21.25 12A3.25 3.25 0 0 1 18 15.25v1.5A4.75 4.75 0 0 0 22.75 12zM18 15.25A3.25 3.25 0 0 1 14.75 12h-1.5A4.75 4.75 0 0 0 18 16.75zM14.75 12A3.25 3.25 0 0 1 18 8.75v-1.5A4.75 4.75 0 0 0 13.25 12zM18 8.75A3.25 3.25 0 0 1 21.25 12h1.5A4.75 4.75 0 0 0 18 7.25z"/>
</svg>
