<svg xmlns="http://www.w3.org/2000/svg" fill="none" viewBox="0 0 24 24" stroke-width="1.5" stroke="currentColor" aria-hidden="true" data-slot="icon">
  <circle cx="16" cy="14.5" r="2" fill="color(display-p3 .7686 .8941 .3373)"/>
  <path fill="#000" d="M13 4.25a.75.75 0 0 0 0-1.5zm7.625 10.95.468-.586zm-3.959-3.167.469-.586zm-1.297.04-.505-.554zM18.53 3.03a.75.75 0 0 0-1.06-1.06zM15 5.5l-.53-.53a.75.75 0 0 0 0 1.06zm2.47 3.53a.75.75 0 1 0 1.06-1.06zM21 6.25a.75.75 0 0 0 0-1.5zm-8-3.5H6v1.5h7zM2.25 6.5v13h1.5v-13zm19.5 12v-2.52h-1.5v2.52zm-.657-3.886-3.958-3.167-.937 1.172 3.958 3.166.937-1.17ZM5 22.25h13v-1.5H5zm9.864-10.731L4.495 20.945l1.01 1.11 10.368-9.426zm2.27-.072a1.75 1.75 0 0 0-2.27.072l1.01 1.11a.25.25 0 0 1 .324-.01l.937-1.172Zm4.616 4.534a1.75 1.75 0 0 0-.657-1.367l-.937 1.171a.25.25 0 0 1 .094.196zm-1.5 2.519A2.25 2.25 0 0 1 18 20.75v1.5a3.75 3.75 0 0 0 3.75-3.75zm-18 1A2.75 2.75 0 0 0 5 22.25v-1.5c-.69 0-1.25-.56-1.25-1.25zM6 2.75A3.75 3.75 0 0 0 2.25 6.5h1.5A2.25 2.25 0 0 1 6 4.25zM10.25 9a1.75 1.75 0 0 1-1.75 1.75v1.5A3.25 3.25 0 0 0 11.75 9zM8.5 10.75A1.75 1.75 0 0 1 6.75 9h-1.5a3.25 3.25 0 0 0 3.25 3.25zM6.75 9c0-.966.784-1.75 1.75-1.75v-1.5A3.25 3.25 0 0 0 5.25 9zM8.5 7.25c.966 0 1.75.784 1.75 1.75h1.5A3.25 3.25 0 0 0 8.5 5.75zm8.97-5.28-3 3 1.06 1.06 3-3zm-3 4.06 3 3 1.06-1.06-3-3zm.53.22h6v-1.5h-6z"/>
</svg>
