<svg xmlns="http://www.w3.org/2000/svg" fill="none" viewBox="0 0 24 24" stroke-width="1.5" stroke="currentColor" aria-hidden="true" data-slot="icon">
  <path fill="color(display-p3 .7686 .8941 .3373)" d="M15.403 9.796a2 2 0 1 1-4 0 2 2 0 0 1 4 0"/>
  <path fill="#000" d="m6 15-.658-.36A.75.75 0 0 0 6 15.75zm3-5.5.45-.6a.75.75 0 0 0-1.108.24zm2 1.5-.45.6a.75.75 0 0 0 1.06-.164zm2.5-3.5.643-.386a.75.75 0 0 0-1.253-.05zM18 15v.75a.75.75 0 0 0 .643-1.136zM6 3.75h12v-1.5H6zM20.25 6v12h1.5V6zM18 20.25H6v1.5h12zM3.75 18V6h-1.5v12zM6 20.25A2.25 2.25 0 0 1 3.75 18h-1.5A3.75 3.75 0 0 0 6 21.75zM20.25 18A2.25 2.25 0 0 1 18 20.25v1.5A3.75 3.75 0 0 0 21.75 18zM18 3.75A2.25 2.25 0 0 1 20.25 6h1.5A3.75 3.75 0 0 0 18 2.25zM6 2.25A3.75 3.75 0 0 0 2.25 6h1.5A2.25 2.25 0 0 1 6 3.75zm.658 13.11 3-5.5-1.316-.72-3 5.5zM8.55 10.1l2 1.5.9-1.2-2-1.5zm3.06 1.336 2.5-3.5-1.22-.872-2.5 3.5zm1.247-3.55 4.5 7.5 1.286-.772-4.5-7.5zM18 14.25H6v1.5h12z"/>
</svg>
