<svg xmlns="http://www.w3.org/2000/svg" fill="none" viewBox="0 0 24 24" stroke-width="1.5" stroke="currentColor" aria-hidden="true" data-slot="icon">
  <path fill="color(display-p3 .7686 .8941 .3373)" d="M14 12.5a2 2 0 1 1-4 0 2 2 0 0 1 4 0"/>
  <path stroke-linecap="round" stroke-linejoin="round" d="m22 12-3.17-6.342A3 3 0 0 0 16.145 4H7.854a3 3 0 0 0-2.683 1.658L2 12m20 0h-3.882c-.685 0-1.312.387-1.618 1s-.933 1-1.618 1H9.118A1.81 1.81 0 0 1 7.5 13c-.306-.613-.933-1-1.618-1H2m20 0v5a3 3 0 0 1-3 3H5a3 3 0 0 1-3-3v-5"/>
</svg>
