<svg xmlns="http://www.w3.org/2000/svg" fill="none" viewBox="0 0 24 24" stroke-width="1.5" stroke="currentColor" aria-hidden="true" data-slot="icon">
  <path fill="color(display-p3 .7686 .8941 .3373)" d="M13.937 15.5a2 2 0 1 1-4 0 2 2 0 0 1 4 0"/>
  <path stroke-linecap="round" stroke-linejoin="round" d="M3 16V6a2 2 0 0 1 2-2h14a2 2 0 0 1 2 2v10M3 16h5.586a1 1 0 0 1 .707.293l.414.414a1 1 0 0 0 .707.293h3.172a1 1 0 0 0 .707-.293l.414-.414a1 1 0 0 1 .707-.293H21M3 16a1 1 0 0 0-1 1v2a1 1 0 0 0 1 1h18a1 1 0 0 0 1-1v-2a1 1 0 0 0-1-1"/>
</svg>
