<svg xmlns="http://www.w3.org/2000/svg" fill="none" viewBox="0 0 24 24" stroke-width="1.5" stroke="currentColor" aria-hidden="true" data-slot="icon">
  <circle cx="12" cy="8" r="2" fill="color(display-p3 .7686 .8941 .3373)"/>
  <path fill="#000" d="M15.655 11.58a.75.75 0 1 0-.278 1.475zm-6.894 1.45a.75.75 0 0 0-.266-1.477zm2.489 3.414a.75.75 0 1 0 1.5 0zm4.127-3.39c1.852.35 3.284.96 4.111 1.663l.971-1.144c-1.104-.937-2.822-1.618-4.804-1.992zm4.111 1.663c.408.346.622.674.71.955.084.266.07.535-.066.825l1.359.635a2.6 2.6 0 0 0 .138-1.91c-.195-.622-.612-1.175-1.17-1.649l-.97 1.144Zm.644 1.78c-.295.631-1.177 1.352-2.736 1.91l.506 1.413c1.682-.603 3.037-1.507 3.589-2.688zm-2.736 1.91c-1.524.547-3.458.85-5.471.843l-.006 1.5c2.152.008 4.265-.314 5.983-.93l-.506-1.412Zm-5.471.843c-2.013-.008-3.934-.326-5.434-.883l-.522 1.406c1.697.63 3.799.969 5.95.977zm-5.434-.883c-1.536-.57-2.378-1.294-2.643-1.915l-1.38.59c.512 1.196 1.842 2.115 3.501 2.731zm-2.643-1.915a1.08 1.08 0 0 1-.032-.823c.101-.286.332-.617.757-.963l-.947-1.164c-.572.467-1.006 1.011-1.224 1.627-.223.63-.2 1.287.066 1.912zm.725-1.787c.86-.7 2.322-1.3 4.188-1.635l-.266-1.477c-1.995.359-3.734 1.025-4.869 1.95zm6.677-5.332v7.111h1.5v-7.11h-1.5Zm2.7-2.666c0 1.05-.864 1.916-1.95 1.916v1.5c1.897 0 3.45-1.52 3.45-3.416zM12 8.583c-1.086 0-1.95-.867-1.95-1.916h-1.5c0 1.895 1.553 3.416 3.45 3.416zm-1.95-1.916c0-1.05.864-1.917 1.95-1.917v-1.5c-1.897 0-3.45 1.52-3.45 3.417zM12 4.75c1.086 0 1.95.867 1.95 1.917h1.5c0-1.896-1.553-3.417-3.45-3.417z"/>
</svg>
