<svg xmlns="http://www.w3.org/2000/svg" fill="none" viewBox="0 0 24 24" stroke-width="1.5" stroke="currentColor" aria-hidden="true" data-slot="icon">
  <path fill="color(display-p3 .7686 .8941 .3373)" d="M7 19a2 2 0 1 1-4 0 2 2 0 0 1 4 0"/>
  <path fill="#000" d="M7.53 11.25a.75.75 0 0 0 0 1.5zm.01 1.5a.75.75 0 0 0 0-1.5zm5.019-1.5a.75.75 0 0 0 0 1.5zm.011 1.5a.75.75 0 0 0 0-1.5zm5.018-1.5a.75.75 0 0 0 0 1.5zm.011 1.5a.75.75 0 0 0 0-1.5zM4.47 16.063l.697.278a.75.75 0 0 0-.027-.616zm-.754-6.016-.733-.163zm8.987-7.045.017-.75zm5.662 2.17.489-.568zM15.757 20.39l.271.7zm-6.062.162-.315.68a1 1 0 0 0 .081.032zM2.5 21l-.697-.278a.75.75 0 0 0 .82 1.018zm6-1 .314-.68a.75.75 0 0 0-.437-.06zm-.97-7.25h.01v-1.5h-.01zM7.337 12a.19.19 0 0 1 .191-.188v1.5A1.31 1.31 0 0 0 8.84 12h-1.5Zm.191-.188A.19.19 0 0 1 7.72 12h-1.5c0 .72.58 1.313 1.308 1.313v-1.5ZM7.72 12a.19.19 0 0 1-.192.188v-1.5A1.31 1.31 0 0 0 6.221 12h1.5Zm-.192.188A.19.19 0 0 1 7.34 12h1.5a1.31 1.31 0 0 0-1.31-1.313v1.5Zm5.03.562h.011v-1.5h-.011zm-.191-.75a.19.19 0 0 1 .19-.188v1.5A1.31 1.31 0 0 0 13.869 12h-1.5Zm.19-.188a.19.19 0 0 1 .192.188h-1.5c0 .72.581 1.313 1.309 1.313v-1.5Zm.192.188a.19.19 0 0 1-.191.188v-1.5A1.31 1.31 0 0 0 11.25 12zm-.191.188a.19.19 0 0 1-.191-.188h1.5a1.31 1.31 0 0 0-1.31-1.313v1.5Zm5.03.562h.01v-1.5h-.01zm-.192-.75a.19.19 0 0 1 .191-.188v1.5A1.31 1.31 0 0 0 18.898 12h-1.5Zm.191-.188a.19.19 0 0 1 .191.188h-1.5c0 .72.582 1.313 1.31 1.313v-1.5Zm.191.188a.19.19 0 0 1-.19.188v-1.5A1.31 1.31 0 0 0 16.278 12zm-.19.188a.19.19 0 0 1-.192-.188h1.5a1.31 1.31 0 0 0-1.309-1.313v1.5Zm-12.45 3.537a8.25 8.25 0 0 1-.692-5.516l-1.465-.325a9.75 9.75 0 0 0 .818 6.518zm-.692-5.516A8.25 8.25 0 0 1 7.41 5.507l-.926-1.18a9.75 9.75 0 0 0-3.503 5.557zM7.41 5.507a8.25 8.25 0 0 1 5.274-1.755l.034-1.5a9.75 9.75 0 0 0-6.234 2.074l.926 1.18Zm5.274-1.755a8.25 8.25 0 0 1 5.19 1.99l.978-1.138a9.75 9.75 0 0 0-6.134-2.352zm5.19 1.99a8.25 8.25 0 0 1 2.75 4.83l1.478-.26a9.75 9.75 0 0 0-3.25-5.708zm2.75 4.83a8.25 8.25 0 0 1-.938 5.48l1.306.736a9.75 9.75 0 0 0 1.11-6.475l-1.478.26Zm-.938 5.48a8.25 8.25 0 0 1-4.202 3.639l.543 1.398a9.75 9.75 0 0 0 4.965-4.301l-1.306-.737Zm-4.202 3.639a8.25 8.25 0 0 1-5.556.148l-.468 1.425a9.75 9.75 0 0 0 6.567-.175zM3.773 15.786l-1.97 4.936 1.394.556 1.97-4.937zm-1.15 5.954 6-1-.246-1.48-6 1zm5.563-1.06 1.194.553.63-1.362-1.196-.552-.628 1.362Z"/>
</svg>
