<svg xmlns="http://www.w3.org/2000/svg" fill="none" viewBox="0 0 24 24" stroke-width="1.5" stroke="currentColor" aria-hidden="true" data-slot="icon">
  <circle cx="16.75" cy="18.75" r="2" fill="color(display-p3 .7686 .8941 .3373)"/>
  <path d="m8.52 5.02-.617-.617a2.34 2.34 0 0 0-3.306 0l-.79.79a2.7 2.7 0 0 0-.726 2.514 17.14 17.14 0 0 0 11.49 12.526l1.304.417a3 3 0 0 0 3.172-.882l.62-.708a2.38 2.38 0 0 0-.243-3.375l-.509-.436a1.657 1.657 0 0 0-2.25.086 1.66 1.66 0 0 1-2.024.25l-1.517-.91a13 13 0 0 1-3.962-3.693L8.088 9.447a1.56 1.56 0 0 1 .303-2.11c.725-.58.785-1.661.128-2.318Z"/>
</svg>
