<svg xmlns="http://www.w3.org/2000/svg" fill="none" viewBox="0 0 24 24" stroke-width="1.5" stroke="currentColor" aria-hidden="true" data-slot="icon">
  <circle cx="12" cy="15" r="2" fill="color(display-p3 .7686 .8941 .3373)"/>
  <path fill="#000" d="M17.52 21.576a.75.75 0 0 0 .96-1.152zM11.25 21a.75.75 0 0 0 1.5 0zm5.5-10a.75.75 0 0 0-1.5 0zm-1.5 1a.75.75 0 0 0 1.5 0zM22 3.75a.75.75 0 0 0 0-1.5zM2 2.25a.75.75 0 0 0 0 1.5zM8.75 7a.75.75 0 0 0-1.5 0zm-1.5 5a.75.75 0 0 0 1.5 0zm5.5-3a.75.75 0 0 0-1.5 0zm-1.5 3a.75.75 0 0 0 1.5 0zm-5.73 8.424a.75.75 0 0 0 .96 1.152zm12.96 0-6-5-.96 1.152 6 5zM11.25 16v5h1.5v-5zm4-5v1h1.5v-1zm-13-8v10h1.5V3zm19.5 10V3h-1.5v10zM21 3.75h1v-1.5h-1zm0-1.5H3v1.5h18zM2 3.75h1v-1.5H2zm16 13A3.75 3.75 0 0 0 21.75 13h-1.5A2.25 2.25 0 0 1 18 15.25zM2.25 13A3.75 3.75 0 0 0 6 16.75v-1.5A2.25 2.25 0 0 1 3.75 13zm5-6v5h1.5V7zm4 2v3h1.5V9zm.27 6.424-6 5 .96 1.152 6-5zM6 16.75h6v-1.5H6zm6 0h6v-1.5h-6z"/>
</svg>
