<svg xmlns="http://www.w3.org/2000/svg" fill="none" viewBox="0 0 24 24" stroke-width="1.5" stroke="currentColor" aria-hidden="true" data-slot="icon">
  <path fill="color(display-p3 .7686 .8941 .3373)" d="M15.626 4.982a2 2 0 1 1-4 0 2 2 0 0 1 4 0"/>
  <path stroke-linejoin="round" d="M14.824 6.306c0-.304.163-.58.351-.822.194-.248.306-.543.306-.86 0-.887-.882-1.607-1.97-1.607-1.09 0-1.971.72-1.971 1.607 0 .317.112.612.305.86.188.243.351.518.351.822v.834a.38.38 0 0 1-.383.377q-2.476-.001-4.878-.274a41 41 0 0 1 .28 4.774v.027l-.862.005c-.31.001-.593-.157-.841-.34a1.46 1.46 0 0 0-.88-.294c-.907.005-1.638.872-1.632 1.937s.746 1.925 1.653 1.92c.323-.002.624-.113.877-.304.246-.185.527-.346.838-.348a.696.696 0 0 1 .71.742 40 40 0 0 1-.794 5.303 43.5 43.5 0 0 0 5.529.352.38.38 0 0 0 .383-.377v-.834c0-.304-.162-.58-.35-.822a1.4 1.4 0 0 1-.306-.86c0-.887.882-1.607 1.97-1.607s1.971.72 1.971 1.608c0 .316-.112.61-.306.86-.188.242-.35.517-.35.821v.072a.96.96 0 0 0 1.053.95 43 43 0 0 0 4.3-.625 41 41 0 0 0 .7-4.91.7.7 0 0 0-.716-.747c-.31.002-.591.163-.837.349-.253.19-.554.302-.877.303-.907.005-1.648-.854-1.653-1.92s.724-1.932 1.631-1.937c.323-.002.625.107.88.294.249.184.53.341.842.34.476-.003.862-.382.852-.848a41 41 0 0 0-.35-4.52q-2.342.491-4.772.72a.96.96 0 0 1-1.054-.949z"/>
</svg>
