<svg xmlns="http://www.w3.org/2000/svg" fill="none" viewBox="0 0 24 24" stroke-width="1.5" stroke="currentColor" aria-hidden="true" data-slot="icon">
  <circle cx="5.5" cy="18" r="2" fill="color(display-p3 .7686 .8941 .3373)"/>
  <path fill="#000" d="M5.329 14.003a.75.75 0 0 0 .699 1.327zm14.205-5.784a.75.75 0 1 0-.7-1.327zm-.7 8.89a.75.75 0 1 0 .7-1.328zM6.029 8.668a.75.75 0 1 0-.699 1.328zM16.57 11.25a.75.75 0 0 0 0 1.5zm.009 1.5a.75.75 0 0 0 0-1.5zm3.912-1.5a.75.75 0 0 0 0 1.5zm.009 1.5a.75.75 0 0 0 0-1.5zM7.978 6.667c0 1.072-.848 1.916-1.864 1.916v1.5c1.872 0 3.364-1.544 3.364-3.416zM6.114 8.583c-1.015 0-1.864-.844-1.864-1.916h-1.5c0 1.872 1.492 3.416 3.364 3.416zM4.25 6.667c0-1.073.849-1.917 1.864-1.917v-1.5c-1.872 0-3.364 1.544-3.364 3.417zM6.114 4.75c1.016 0 1.864.844 1.864 1.917h1.5c0-1.873-1.492-3.417-3.364-3.417zm1.864 12.583c0 1.073-.848 1.917-1.864 1.917v1.5c1.872 0 3.364-1.544 3.364-3.417zM6.114 19.25c-1.015 0-1.864-.844-1.864-1.917h-1.5c0 1.873 1.492 3.417 3.364 3.417zM4.25 17.333c0-1.072.849-1.916 1.864-1.916v-1.5c-1.872 0-3.364 1.543-3.364 3.416zm1.864-1.916c1.016 0 1.864.844 1.864 1.916h1.5c0-1.872-1.492-3.416-3.364-3.416zm-.086-.087 13.506-7.11-.7-1.328L5.33 14.003l.699 1.327Zm13.506.45L6.028 8.67l-.699 1.327 13.506 7.111.699-1.327Zm-2.964-3.03h.009v-1.5h-.009zm3.921 0h.009v-1.5h-.009z"/>
</svg>
