<svg xmlns="http://www.w3.org/2000/svg" fill="none" viewBox="0 0 24 24" stroke-width="1.5" stroke="currentColor" aria-hidden="true" data-slot="icon">
  <circle cx="12" cy="13" r="2" fill="color(display-p3 .7686 .8941 .3373)"/>
  <path fill="#000" d="m18.9 4.08.576-.48zM21 6.6h.75a.75.75 0 0 0-.174-.48zm-18 0-.576-.48a.75.75 0 0 0-.174.48zm2.1-2.52.577.48zM17.75 10a.75.75 0 0 0-1.5 0zM12 15v-.75zm-4.25-5a.75.75 0 0 0-1.5 0zm-.345-6.25h9.19v-1.5h-9.19zm10.918.81 2.1 2.52 1.153-.96-2.1-2.52zM20.25 6.6V18h1.5V6.6zM18 20.25H6v1.5h12zM3.75 18V6.6h-1.5V18zM3.576 7.08l2.1-2.52-1.152-.96-2.1 2.52zM3 7.35h18v-1.5H3zm3 12.9A2.25 2.25 0 0 1 3.75 18h-1.5A3.75 3.75 0 0 0 6 21.75zM20.25 18A2.25 2.25 0 0 1 18 20.25v1.5A3.75 3.75 0 0 0 21.75 18zM16.595 3.75a2.25 2.25 0 0 1 1.728.81l1.153-.96a3.75 3.75 0 0 0-2.881-1.35zm-9.19-1.5a3.75 3.75 0 0 0-2.88 1.35l1.152.96a2.25 2.25 0 0 1 1.728-.81zM16.25 10c0 .558-.11 1.11-.323 1.626l1.385.574a5.8 5.8 0 0 0 .438-2.2zm-.323 1.626a4.3 4.3 0 0 1-.922 1.38l1.06 1.06a5.8 5.8 0 0 0 1.247-1.866l-1.386-.574Zm-.922 1.38a4.3 4.3 0 0 1-1.379.92l.574 1.386a5.8 5.8 0 0 0 1.866-1.246zm-1.379.92A4.3 4.3 0 0 1 12 14.25v1.5a5.8 5.8 0 0 0 2.2-.438zM12 14.25a4.3 4.3 0 0 1-1.626-.323L9.8 15.312a5.8 5.8 0 0 0 2.2.438zm-1.626-.323a4.3 4.3 0 0 1-1.38-.922l-1.06 1.06A5.8 5.8 0 0 0 9.8 15.313l.574-1.385Zm-1.38-.922a4.3 4.3 0 0 1-.92-1.379l-1.386.574a5.8 5.8 0 0 0 1.246 1.866zm-.92-1.379A4.3 4.3 0 0 1 7.75 10h-1.5c0 .755.149 1.503.438 2.2z"/>
</svg>
