<svg xmlns="http://www.w3.org/2000/svg" fill="none" viewBox="0 0 24 24" stroke-width="1.5" stroke="currentColor" aria-hidden="true" data-slot="icon">
  <path fill="color(display-p3 .7686 .8941 .3373)" d="M6.403 4.577a1.826 1.826 0 1 1-3.653 0 1.826 1.826 0 0 1 3.653 0"/>
  <path fill="#000" d="m4.009 12.228.53-.53zm8.22 8.22-.531.53zm3.874 0-.53-.53zm4.345-4.345.53.53zm0-3.875.53-.53zm-8.22-8.219-.53.53zm-4.11 3.36a.75.75 0 0 0 0 1.5zm.01 1.5a.75.75 0 1 0 0-1.5zm-5.671-4.75v6.172h1.5V4.12h-1.5Zm1.022 8.64 8.219 8.219 1.06-1.06-8.219-8.22zm13.154 8.219 4.345-4.345-1.06-1.06-4.345 4.344 1.06 1.06Zm4.345-9.28-8.22-8.22-1.06 1.061 8.22 8.22zM10.29 2.457H4.12v1.5h6.17zm2.468 1.022a3.5 3.5 0 0 0-2.468-1.022v1.5c.528 0 1.034.21 1.407.582zm8.219 13.154a3.49 3.49 0 0 0 0-4.935l-1.06 1.06a1.99 1.99 0 0 1 0 2.815zm-9.28 4.345a3.49 3.49 0 0 0 4.935 0l-1.06-1.06a1.99 1.99 0 0 1-2.814 0zM2.457 10.29a3.5 3.5 0 0 0 1.022 2.468l1.06-1.061a2 2 0 0 1-.582-1.407zm1.5-6.171c0-.09.073-.163.163-.163v-1.5c-.919 0-1.663.744-1.663 1.663zm4.162 4.749h.009v-1.5h-.01zm-.294-.75c0-.162.132-.294.294-.294v1.5c.666 0 1.206-.54 1.206-1.206zm.294-.294c.162 0 .293.132.293.294h-1.5c0 .666.54 1.206 1.207 1.206zm.293.294a.293.293 0 0 1-.293.293v-1.5c-.667 0-1.207.54-1.207 1.207zm-.293.293a.293.293 0 0 1-.294-.293h1.5c0-.667-.54-1.207-1.206-1.207z"/>
</svg>
