<svg xmlns="http://www.w3.org/2000/svg" fill="none" viewBox="0 0 24 24" stroke-width="1.5" stroke="currentColor" aria-hidden="true" data-slot="icon">
  <path fill="color(display-p3 .7686 .8941 .3373)" d="M8.224 12a2 2 0 1 1-4 0 2 2 0 0 1 4 0"/>
  <path stroke-linecap="round" stroke-linejoin="round" d="M18.672 8c.833 1.167 2 4.4 0 8m-14-7v6a1 1 0 0 0 1 1h2.616a1 1 0 0 1 .67.257l3.045 2.74c.643.58 1.669.123 1.669-.742V5.745c0-.865-1.026-1.322-1.67-.743L8.958 7.743a1 1 0 0 1-.67.257H5.672a1 1 0 0 0-1 1"/>
</svg>
