<svg xmlns="http://www.w3.org/2000/svg" viewBox="0 0 24 24" fill="currentColor" aria-hidden="true" data-slot="icon">
  <path fill-rule="evenodd" d="M4.94 5.175c2.254-1.92 5.254-1.356 7.054.741 1.8-2.097 4.761-2.64 7.054-.74s2.572 5.13.802 7.401c-1.472 1.888-5.927 5.87-7.387 7.16-.164.144-.245.216-.34.245a.46.46 0 0 1-.258 0c-.095-.029-.177-.101-.34-.245-1.46-1.29-5.915-5.272-7.387-7.16-1.77-2.27-1.453-5.481.801-7.402Zm3.642 5.734h1.257l.49-2.293a.78.78 0 0 1 1.52-.019l1.012 4.203.605-1.608a.44.44 0 0 1 .409-.283h1.604a.582.582 0 1 1 0 1.164h-1.284l-.462 1.726a.81.81 0 0 1-1.566 0l-1.084-4.054-.537 2.011a.43.43 0 0 1-.412.317H8.582a.582.582 0 0 1 0-1.164" clip-rule="evenodd"/>
</svg>
