<svg xmlns="http://www.w3.org/2000/svg" viewBox="0 0 24 24" fill="currentColor" aria-hidden="true" data-slot="icon">
  <path fill-rule="evenodd" d="M6.412 3.496a.75.75 0 0 0-1.06-1.06L2.587 5.197a.75.75 0 0 0 1.061 1.06l2.763-2.762Zm10.711 16.28a8.46 8.46 0 0 1-5.004 1.629c-1.9 0-3.653-.623-5.068-1.676l-1.836 1.836a.75.75 0 0 1-1.06-1.06l1.774-1.775a8.5 8.5 0 1 1 12.327.057l1.717 1.717a.75.75 0 1 1-1.06 1.06zm.465-17.34a.75.75 0 0 0 0 1.06l2.763 2.763a.75.75 0 1 0 1.061-1.06l-2.763-2.764a.75.75 0 0 0-1.06 0Zm-5.03 7.219v3.657c0 .06.02.119.056.167l1.073 1.431a.713.713 0 0 1-1.126.873l-1.442-1.802a.28.28 0 0 1-.061-.174V9.655a.75.75 0 0 1 1.5 0" clip-rule="evenodd"/>
</svg>
