<svg xmlns="http://www.w3.org/2000/svg" viewBox="0 0 24 24" fill="currentColor" aria-hidden="true" data-slot="icon">
  <path d="M5.803 3.207a.71.71 0 0 1 0 1.002L3.204 6.817a.704.704 0 0 1-.997 0 .71.71 0 0 1 0-1.001l2.599-2.609a.704.704 0 0 1 .997 0"/>
  <path fill-rule="evenodd" d="M18.073 18.125a8.48 8.48 0 0 0 2.451-5.979c0-4.692-3.79-8.495-8.465-8.495s-8.465 3.803-8.465 8.495c0 2.257.877 4.309 2.308 5.83l-1.81 1.815a.71.71 0 0 0 0 1.002.704.704 0 0 0 .998 0l1.863-1.87a8.4 8.4 0 0 0 5.106 1.719 8.4 8.4 0 0 0 4.938-1.595l1.74 1.746a.704.704 0 0 0 .998 0 .71.71 0 0 0 0-1.002zM8.845 11.14c-.42 0-.76.342-.76.764 0 .421.34.763.76.763h6.591c.42 0 .76-.342.76-.763a.76.76 0 0 0-.76-.764h-6.59Z" clip-rule="evenodd"/>
  <path d="M18.197 4.209a.71.71 0 0 1 0-1.002.704.704 0 0 1 .998 0l2.598 2.609a.71.71 0 0 1 0 1 .704.704 0 0 1-.997 0l-2.6-2.607Z"/>
</svg>
