<svg xmlns="http://www.w3.org/2000/svg" viewBox="0 0 24 24" fill="currentColor" aria-hidden="true" data-slot="icon">
  <path fill-rule="evenodd" d="M2.872 7.537c-.329.13-.706-.033-.781-.378a4 4 0 0 1 4.905-4.723c.342.088.49.47.348.795-.141.324-.52.464-.867.402a2.72 2.72 0 0 0-3.17 3.052c.048.35-.106.723-.435.852M21 12.31c0 2.47-.995 4.707-2.606 6.334l1.766 1.765a.75.75 0 0 1-1.06 1.061l-1.85-1.85A8.96 8.96 0 0 1 12 21.31a8.96 8.96 0 0 1-5.428-1.82L4.59 21.47a.75.75 0 1 1-1.06-1.06l1.923-1.924A9 9 0 1 1 21 12.31m.909-5.152c-.075.346-.452.508-.781.379-.33-.13-.483-.502-.435-.852a2.72 2.72 0 0 0-3.17-3.052c-.348.062-.726-.078-.867-.402s.006-.707.349-.795a4 4 0 0 1 4.904 4.723ZM12.5 9.06v3.658q.001.092.056.166l1.073 1.432a.713.713 0 0 1-1.126.872l-1.442-1.802a.28.28 0 0 1-.061-.173V9.06a.75.75 0 0 1 1.5 0" clip-rule="evenodd"/>
</svg>
