<svg xmlns="http://www.w3.org/2000/svg" viewBox="0 0 24 24" fill="currentColor" aria-hidden="true" data-slot="icon">
  <path fill-rule="evenodd" d="M5.333 2h13.334A3.333 3.333 0 0 1 22 5.333v8.89a3.333 3.333 0 0 1-3.333 3.333H17c-1.05 0-2.037.493-2.667 1.333L12.4 21.467a.5.5 0 0 1-.8 0l-1.933-2.578A3.33 3.33 0 0 0 7 17.556H5.333A3.333 3.333 0 0 1 2 14.222V5.333A3.333 3.333 0 0 1 5.333 2m4.15 7.482 1.23 1.23a.237.237 0 0 0 .343-.009l4.282-4.758a.781.781 0 1 1 1.157 1.05l-5.325 5.81a.437.437 0 0 1-.601.04l-2.36-1.968a.946.946 0 1 1 1.273-1.395Z" clip-rule="evenodd"/>
</svg>
