<svg xmlns="http://www.w3.org/2000/svg" viewBox="0 0 24 24" fill="currentColor" aria-hidden="true" data-slot="icon">
  <path fill-rule="evenodd" d="M5.333 2h13.334A3.333 3.333 0 0 1 22 5.333v8.89a3.333 3.333 0 0 1-3.333 3.333H17c-1.05 0-2.037.493-2.667 1.333L12 22l-2.333-3.111A3.33 3.33 0 0 0 7 17.556H5.333A3.333 3.333 0 0 1 2 14.222V5.333A3.333 3.333 0 0 1 5.333 2m5.834 3.889c0-.307.248-.556.555-.556h.556c.307 0 .555.25.555.556V7a.556.556 0 0 1-.555.556h-.556A.556.556 0 0 1 11.167 7zm0 3.611a.833.833 0 1 1 1.666 0v6.111a.833.833 0 1 1-1.666 0z" clip-rule="evenodd"/>
</svg>
