<svg xmlns="http://www.w3.org/2000/svg" viewBox="0 0 24 24" fill="currentColor" aria-hidden="true" data-slot="icon">
  <path fill-rule="evenodd" d="M5 2.167h14a3 3 0 0 1 3 3v9.555a3 3 0 0 1-3 3h-2.167a3 3 0 0 0-2.4 1.2L12.4 21.633a.5.5 0 0 1-.8 0l-2.033-2.71a3 3 0 0 0-2.4-1.2H5a3 3 0 0 1-3-3V5.166a3 3 0 0 1 3-3Zm6.167 4.166a.833.833 0 1 1 1.666 0v6.111a.833.833 0 0 1-1.666 0zm0 8.611c0-.306.248-.555.555-.555h.556c.307 0 .555.249.555.555v1.111a.556.556 0 0 1-.555.556h-.556a.556.556 0 0 1-.555-.556z" clip-rule="evenodd"/>
</svg>
