<svg xmlns="http://www.w3.org/2000/svg" viewBox="0 0 24 24" fill="currentColor" aria-hidden="true" data-slot="icon">
  <path fill-rule="evenodd" d="M5.333 2h13.334A3.333 3.333 0 0 1 22 5.333v8.89a3.333 3.333 0 0 1-3.333 3.333H17c-1.05 0-2.037.493-2.667 1.333L12 22l-2.333-3.111A3.33 3.33 0 0 0 7 17.556H5.333A3.333 3.333 0 0 1 2 14.222V5.333A3.333 3.333 0 0 1 5.333 2M12 15.056a.833.833 0 0 1-.833-.834v-2.778H8.389a.833.833 0 1 1 0-1.666h2.778V7a.833.833 0 1 1 1.666 0v2.778h2.778a.833.833 0 0 1 0 1.666h-2.778v2.778c0 .46-.373.834-.833.834" clip-rule="evenodd"/>
</svg>
