<svg xmlns="http://www.w3.org/2000/svg" viewBox="0 0 24 24" fill="currentColor" aria-hidden="true" data-slot="icon">
  <path d="M13.616 12.116a1.5 1.5 0 1 1-3 0 1.5 1.5 0 0 1 3 0"/>
  <path fill-rule="evenodd" d="M12 18.966c-3.593 2.406-7.02 3.16-8.574 1.608C1.873 19.02 2.628 15.593 5.034 12 2.628 8.407 1.873 4.98 3.426 3.426 4.98 1.873 8.407 2.628 12 5.034c3.593-2.406 7.02-3.161 8.574-1.608 1.553 1.554.798 4.981-1.608 8.574 2.406 3.593 3.16 7.02 1.608 8.574-1.554 1.553-4.981.798-8.574-1.608m-1.393-1.01c-2.51 1.539-4.955 2.303-5.91 1.347-.956-.955-.192-3.4 1.347-5.91A27 27 0 0 0 8.19 15.81c.79.79 1.603 1.508 2.418 2.146Zm2.785 0c2.511 1.539 4.956 2.303 5.911 1.348.956-.956.192-3.4-1.347-5.911a27 27 0 0 1-2.146 2.417 27 27 0 0 1-2.418 2.146M17.027 12c-.697.965-1.483 1.9-2.305 2.722A22.6 22.6 0 0 1 12 17.027a22.6 22.6 0 0 1-2.722-2.305A22.6 22.6 0 0 1 6.973 12c.696-.965 1.483-1.9 2.305-2.722A22.6 22.6 0 0 1 12 6.973c.965.697 1.9 1.483 2.722 2.305A22.6 22.6 0 0 1 17.027 12m.929-1.393c1.539-2.51 2.303-4.955 1.347-5.91-.955-.956-3.4-.192-5.91 1.347A27 27 0 0 1 15.81 8.19c.79.79 1.508 1.602 2.146 2.417m-7.349-4.563A27 27 0 0 0 8.19 8.19c-.79.79-1.507 1.603-2.145 2.418-1.539-2.51-2.303-4.955-1.348-5.91.956-.956 3.4-.192 5.911 1.347Z" clip-rule="evenodd"/>
</svg>
