<svg xmlns="http://www.w3.org/2000/svg" viewBox="0 0 24 24" fill="currentColor" aria-hidden="true" data-slot="icon">
  <path d="M12.11 11a1 1 0 1 0 0 2h.01a1 1 0 1 0 0-2z"/>
  <path fill-rule="evenodd" d="M15.635 20.535c-1.115-.556-2.33-1.33-3.575-2.281-1.269 1.01-2.51 1.833-3.649 2.424-1.05.545-2.052.914-2.933 1.031-.87.117-1.755 0-2.386-.61-.63-.61-.773-1.492-.685-2.366.09-.883.428-1.897.94-2.963.57-1.187 1.378-2.49 2.384-3.824-.985-1.277-1.783-2.525-2.353-3.667-.529-1.06-.882-2.067-.986-2.95-.102-.87.028-1.755.648-2.375s1.505-.75 2.376-.648c.883.104 1.89.457 2.95.985 1.12.56 2.343 1.339 3.595 2.298 1.199-.939 2.37-1.707 3.449-2.267 1.05-.545 2.052-.914 2.933-1.031.87-.117 1.756 0 2.386.61s.774 1.493.685 2.366c-.09.883-.428 1.897-.94 2.964-.54 1.125-1.296 2.355-2.23 3.617.996 1.289 1.803 2.548 2.378 3.7.529 1.059.882 2.067.985 2.949.103.872-.027 1.756-.648 2.376-.62.62-1.504.75-2.376.648-.882-.104-1.89-.457-2.948-.986M9.59 9.751a34 34 0 0 1 2.382-2.235 34 34 0 0 1 2.313 2.113c.744.744 1.43 1.496 2.05 2.238a34 34 0 0 1-2.104 2.382 34 34 0 0 1-2.19 2.072 34 34 0 0 1-2.326-2.123 34 34 0 0 1-2.07-2.262A34 34 0 0 1 9.59 9.75Zm5.755-1.183a36 36 0 0 0-2.183-2.012c1.035-.79 2.031-1.431 2.939-1.903.968-.502 1.797-.79 2.44-.876.654-.087.984.047 1.144.201s.303.48.237 1.137c-.066.646-.328 1.483-.8 2.467-.451.94-1.078 1.98-1.856 3.062a36 36 0 0 0-1.92-2.076Zm-.037 6.725a36 36 0 0 0 1.983-2.222c.834 1.112 1.506 2.18 1.989 3.147.487.976.762 1.81.838 2.454.077.655-.062.983-.22 1.14-.156.157-.485.296-1.14.22-.644-.077-1.477-.351-2.453-.839-.943-.47-1.983-1.121-3.065-1.928a36 36 0 0 0 2.068-1.972m-6.654-.034a36 36 0 0 0 2.206 2.03c-1.107.86-2.173 1.556-3.14 2.058s-1.797.79-2.44.876c-.654.087-.984-.047-1.144-.201s-.303-.48-.236-1.137c.065-.646.327-1.483.799-2.467.48-1 1.158-2.111 2.007-3.269.6.706 1.251 1.413 1.948 2.11m-.14-6.552c-.65.67-1.26 1.35-1.822 2.026C5.865 9.63 5.2 8.569 4.72 7.609c-.487-.977-.762-1.81-.838-2.454-.077-.655.062-.984.219-1.14.157-.158.485-.296 1.14-.22.645.076 1.478.351 2.454.838.946.473 1.99 1.127 3.076 1.937a36 36 0 0 0-2.258 2.137Z" clip-rule="evenodd"/>
</svg>
