<svg xmlns="http://www.w3.org/2000/svg" viewBox="0 0 24 24" fill="currentColor" aria-hidden="true" data-slot="icon">
  <path fill-rule="evenodd" d="M5.25 2.25a3 3 0 0 0-3 3v13.5a3 3 0 0 0 3 3h13.5a3 3 0 0 0 3-3V5.25a3 3 0 0 0-3-3zm2.958 4.063a.813.813 0 0 0-1.625 0v11.375a.813.813 0 0 0 1.625 0zm3.521 3.52c.449 0 .813.364.813.813v7.041a.813.813 0 0 1-1.625 0v-7.041c0-.449.363-.813.812-.813m4.334 4.334c.448 0 .812.363.812.812v2.709a.813.813 0 0 1-1.625 0v-2.709c0-.449.364-.812.813-.812" clip-rule="evenodd"/>
</svg>
