<svg xmlns="http://www.w3.org/2000/svg" viewBox="0 0 24 24" fill="currentColor" aria-hidden="true" data-slot="icon">
  <path fill-rule="evenodd" d="M3.75 6a3 3 0 0 0-3 3v6a3 3 0 0 0 3 3h15a3 3 0 0 0 3-3v-.037c.856-.174 1.5-.93 1.5-1.838v-2.25c0-.907-.644-1.664-1.5-1.837V9a3 3 0 0 0-3-3zm15 1.5a1.5 1.5 0 0 1 1.5 1.5v6a1.5 1.5 0 0 1-1.5 1.5h-15a1.5 1.5 0 0 1-1.5-1.5V9a1.5 1.5 0 0 1 1.5-1.5zM4.5 9a.75.75 0 0 0-.75.75v4.5c0 .414.336.75.75.75H18a.75.75 0 0 0 .75-.75v-4.5A.75.75 0 0 0 18 9z" clip-rule="evenodd"/>
</svg>
