<svg xmlns="http://www.w3.org/2000/svg" viewBox="0 0 24 24" fill="currentColor" aria-hidden="true" data-slot="icon">
  <path fill-rule="evenodd" d="M13.366 1.5h-2.5c-.552 0-1 .459-1 1.024v.773c-3.256.811-5.82 3.437-6.612 6.773H2.5c-.552 0-1 .459-1 1.025v2.56c0 .566.448 1.025 1 1.025h.814c.855 3.223 3.374 5.743 6.552 6.535v.26c0 .566.448 1.025 1 1.025h2.5c.553 0 1-.459 1-1.024v-.322c3.024-.842 5.415-3.259 6.282-6.337h.852c.552 0 1-.459 1-1.024v-2.561c0-.566-.448-1.025-1-1.025h-.723c-.736-3.32-3.221-5.96-6.41-6.848v-.835c0-.565-.449-1.024-1-1.024Zm1 18.14c2.241-.753 4.021-2.547 4.797-4.823H19c-.552 0-1-.459-1-1.024v-2.561c0-.566.448-1.025 1-1.025h.318c-.67-2.518-2.546-4.526-4.952-5.335v.213c0 .566-.447 1.025-1 1.025h-2.5c-.552 0-1-.459-1-1.025v-.287C7.393 5.54 5.443 7.537 4.72 10.07H5c.552 0 1 .459 1 1.025v2.56c0 .566-.448 1.025-1 1.025h-.208c.775 2.42 2.679 4.316 5.074 5.034v-.8c0-.565.448-1.024 1-1.024h2.5c.553 0 1 .459 1 1.025z" clip-rule="evenodd"/>
</svg>
