<svg xmlns="http://www.w3.org/2000/svg" viewBox="0 0 24 24" fill="currentColor" aria-hidden="true" data-slot="icon">
  <path d="M17.182 15.316c2.385 0 4.318-1.838 4.318-4.105s-1.933-4.106-4.318-4.106a.09.09 0 0 1-.085-.07C16.656 4.74 14.542 3 12 3S7.344 4.74 6.903 7.035a.09.09 0 0 1-.085.07c-2.385 0-4.318 1.839-4.318 4.106s1.933 4.105 4.318 4.105zM6.326 17.504a.79.79 0 0 1 1.082-.292.8.8 0 0 1 .29 1.089l-1.32 2.3a.79.79 0 0 1-1.081.292.8.8 0 0 1-.29-1.088l1.32-2.301Zm5.278 0a.79.79 0 0 1 1.082-.292.8.8 0 0 1 .29 1.089l-1.32 2.3a.79.79 0 0 1-1.082.292.8.8 0 0 1-.29-1.088zm5.278 0a.79.79 0 0 1 1.081-.292.8.8 0 0 1 .29 1.089l-1.32 2.3a.79.79 0 0 1-1.08.292.8.8 0 0 1-.29-1.088z"/>
</svg>
