<svg xmlns="http://www.w3.org/2000/svg" viewBox="0 0 24 24" fill="currentColor" aria-hidden="true" data-slot="icon">
  <path d="M14.112 2.518a.73.73 0 0 1 .557.871l-3.907 17.539a.732.732 0 0 1-1.43-.317l3.906-17.539a.733.733 0 0 1 .874-.554M7.634 6.612a.73.73 0 0 1 0 1.033L3.27 12l4.365 4.355a.73.73 0 0 1 0 1.033.734.734 0 0 1-1.036 0l-4.883-4.871a.73.73 0 0 1 0-1.034l4.883-4.871a.734.734 0 0 1 1.036 0Zm8.732 0a.734.734 0 0 1 1.036 0l4.883 4.871a.73.73 0 0 1 0 1.034l-4.883 4.871a.734.734 0 0 1-1.036 0 .73.73 0 0 1 0-1.033L20.73 12l-4.365-4.355a.73.73 0 0 1 0-1.033Z"/>
</svg>
