<svg xmlns="http://www.w3.org/2000/svg" viewBox="0 0 24 24" fill="currentColor" aria-hidden="true" data-slot="icon">
  <path d="M8 6.5v-4a.5.5 0 0 1 .5-.5h11.293a.5.5 0 0 1 .353.854l-4 4a.5.5 0 0 1-.353.146H8.5a.5.5 0 0 1-.5-.5m0 9v-7a.5.5 0 0 1 .5-.5h7a.5.5 0 0 1 .5.5v7a.5.5 0 0 1-.5.5h-7a.5.5 0 0 1-.5-.5m14 0V4.207a.5.5 0 0 0-.854-.353l-4 4a.5.5 0 0 0-.146.353V15.5a.5.5 0 0 0 .5.5h4a.5.5 0 0 0 .5-.5m-5 5.293V17.5a.5.5 0 0 1 .5-.5h3.293a.5.5 0 0 1 .353.854l-3.292 3.292a.5.5 0 0 1-.854-.353m-9.146-3.647-4 4a.5.5 0 0 0 .353.854H15.5a.5.5 0 0 0 .5-.5v-4a.5.5 0 0 0-.5-.5H8.207a.5.5 0 0 0-.353.146M2.5 8h4a.5.5 0 0 1 .5.5v7.293a.5.5 0 0 1-.146.353l-4 4A.5.5 0 0 1 2 19.793V8.5a.5.5 0 0 1 .5-.5m.354-1.854 3.292-3.292A.5.5 0 0 1 7 3.207V6.5a.5.5 0 0 1-.5.5H3.207a.5.5 0 0 1-.353-.854"/>
</svg>
