<svg xmlns="http://www.w3.org/2000/svg" viewBox="0 0 24 24" fill="currentColor" aria-hidden="true" data-slot="icon">
  <path fill-rule="evenodd" d="M12 21.5a9.5 9.5 0 1 0 0-19 9.5 9.5 0 0 0 0 19M9.889 6.986a.792.792 0 1 0 0 1.583h1.32c.5 0 .825.19 1.04.449q.116.139.198.314H9.89a.792.792 0 0 0 0 1.583h2.558q-.081.175-.197.314c-.216.258-.542.449-1.042.449h-1.32a.792.792 0 0 0-.56 1.35l3.738 3.753a.792.792 0 1 0 1.122-1.117l-2.437-2.447a2.8 2.8 0 0 0 1.715-.974c.325-.39.536-.85.645-1.328h1.056a.792.792 0 1 0 0-1.583H14.11a3.3 3.3 0 0 0-.274-.763h1.33a.792.792 0 0 0 0-1.583z" clip-rule="evenodd"/>
</svg>
