<svg xmlns="http://www.w3.org/2000/svg" viewBox="0 0 24 24" fill="currentColor" aria-hidden="true" data-slot="icon">
  <path d="M21.5 4.549c0 1.715-4.253 3.105-9.5 3.105s-9.5-1.39-9.5-3.105S6.753 1.444 12 1.444s9.5 1.39 9.5 3.105m-.19 6.395c-.88 1.417-4.714 2.64-9.31 2.64s-8.43-1.223-9.31-2.64c-.125.201-.19.843-.19 1.056 0 1.715 4.253 3.105 9.5 3.105s9.5-1.39 9.5-3.105c0-.213-.065-.855-.19-1.056"/>
  <path d="M2.5 4.549c0-.343.284-.62.633-.62s.634.277.634.62v14.902c0 .343-.284.62-.634.62a.627.627 0 0 1-.633-.62zm17.733 0c0-.343.284-.62.634-.62s.633.277.633.62v14.902c0 .343-.284.62-.633.62a.627.627 0 0 1-.634-.62z"/>
  <path d="M20.972 18.333c-.88 1.417-4.376 2.64-8.972 2.64s-8.092-1.223-8.972-2.64c-.125.201-.528.905-.528 1.118 0 1.715 4.253 3.105 9.5 3.105s9.5-1.39 9.5-3.105c0-.213-.403-.917-.528-1.118"/>
</svg>
