<svg xmlns="http://www.w3.org/2000/svg" viewBox="0 0 24 24" fill="currentColor" aria-hidden="true" data-slot="icon">
  <path d="M23 8.85v12.6c0 .58-.492 1.05-1.1 1.05H8.7c-.608 0-1.1-.47-1.1-1.05v-2.8c0-.58.492-1.05 1.1-1.05h2.933c.608 0 1.1-.47 1.1-1.05v-2.8c0-.58.493-1.05 1.1-1.05h2.934c.607 0 1.1-.47 1.1-1.05v-2.8c0-.58.492-1.05 1.1-1.05H21.9c.608 0 1.1.47 1.1 1.05M13.1 5.7h-2.2c-.607 0-1.1.47-1.1 1.05v2.1c0 .58.492 1.05 1.1 1.05h2.2c.607 0 1.1-.47 1.1-1.05v-2.1c0-.58-.492-1.05-1.1-1.05M4.3 1.5H2.1c-.608 0-1.1.47-1.1 1.05v2.1c0 .58.492 1.05 1.1 1.05h2.2c.608 0 1.1-.47 1.1-1.05v-2.1c0-.58-.492-1.05-1.1-1.05M5.4 12H3.2c-.608 0-1.1.47-1.1 1.05v2.1c0 .58.492 1.05 1.1 1.05h2.2c.608 0 1.1-.47 1.1-1.05v-2.1c0-.58-.492-1.05-1.1-1.05"/>
</svg>
