<svg xmlns="http://www.w3.org/2000/svg" viewBox="0 0 24 24" fill="currentColor" aria-hidden="true" data-slot="icon">
  <path fill-rule="evenodd" d="M3.5 6.333A2.833 2.833 0 0 1 6.333 3.5h11.334A2.833 2.833 0 0 1 20.5 6.333v11.334a2.833 2.833 0 0 1-2.833 2.833H6.333A2.833 2.833 0 0 1 3.5 17.667zm3 1.584a1.25 1.25 0 1 1 2.5 0 1.25 1.25 0 0 1-2.5 0m9.91-1.25a1.25 1.25 0 1 0 0 2.5 1.25 1.25 0 0 0 0-2.5M7.75 14.8a1.25 1.25 0 1 0 0 2.5 1.25 1.25 0 0 0 0-2.5m8.66.058a1.25 1.25 0 1 0 0 2.5 1.25 1.25 0 0 0 0-2.5m-5.66-2.941a1.25 1.25 0 1 1 2.5 0 1.25 1.25 0 0 1-2.5 0" clip-rule="evenodd"/>
</svg>
