<svg xmlns="http://www.w3.org/2000/svg" viewBox="0 0 24 24" fill="currentColor" aria-hidden="true" data-slot="icon">
  <path fill-rule="evenodd" d="M20.2 9.174q0-.256-.042-.505H14.05a.77.77 0 0 1-.769-.769V1.792a3 3 0 0 0-.505-.042H6.875A3.075 3.075 0 0 0 3.8 4.825v14.35a3.075 3.075 0 0 0 3.075 3.075h10.25a3.075 3.075 0 0 0 3.075-3.075zM14.819 7.13V2.526q.068.06.131.125l4.35 4.348q.064.064.123.132zM7.644 12a.769.769 0 0 0 0 1.537h8.712a.769.769 0 0 0 0-1.537zm0 4.1a.769.769 0 0 0 0 1.537h6.662a.769.769 0 0 0 0-1.537z" clip-rule="evenodd"/>
</svg>
