<svg xmlns="http://www.w3.org/2000/svg" viewBox="0 0 24 24" fill="currentColor" aria-hidden="true" data-slot="icon">
  <path d="M8.276 15.724h3.138l9.936-9.936a2.219 2.219 0 0 0-3.138-3.138l-9.936 9.936z"/>
  <path d="M5.138 3.173A3.14 3.14 0 0 0 2 6.31v12.551A3.14 3.14 0 0 0 5.138 22h12.551a3.14 3.14 0 0 0 3.138-3.138V9.033c0-.28-.338-.42-.536-.222l-7.74 7.74a.31.31 0 0 1-.221.092H7.544a.314.314 0 0 1-.314-.313v-4.786a.3.3 0 0 1 .092-.222l6.092-6.092a.31.31 0 0 0 .091-.222V3.487a.314.314 0 0 0-.313-.314z"/>
</svg>
