<svg xmlns="http://www.w3.org/2000/svg" viewBox="0 0 24 24" fill="currentColor" aria-hidden="true" data-slot="icon">
  <path d="M4.698 3.92a.653.653 0 0 0-.898.016.63.63 0 0 0-.016.881l15.518 15.231a.65.65 0 0 0 .462.202.66.66 0 0 0 .468-.186.63.63 0 0 0 .19-.46.62.62 0 0 0-.206-.453zm16.506 8.532a9.5 9.5 0 0 1-2.268 3.647l-2.672-2.622a4.37 4.37 0 0 0 .153-2.469 4.4 4.4 0 0 0-1.215-2.167 4.55 4.55 0 0 0-2.207-1.193 4.6 4.6 0 0 0-2.516.151L8.344 5.703a9.8 9.8 0 0 1 3.657-.7c4.284 0 7.918 2.728 9.203 6.507.103.307.103.637 0 .942"/>
  <path d="M15.233 11.984q0 .228-.032.449l-3.659-3.59a3.3 3.3 0 0 1 1.37.096c.445.129.856.35 1.206.647s.63.667.823 1.08.292.864.292 1.318m-2.776 3.142-3.658-3.591a3.13 3.13 0 0 0 .915 2.693 3.26 3.26 0 0 0 2.744.897z"/>
  <path d="M7.474 11.984c0-.524.092-1.026.262-1.492L5.064 7.868a9.5 9.5 0 0 0-2.268 3.647 1.47 1.47 0 0 0 0 .943c1.284 3.78 4.918 6.507 9.203 6.507a9.8 9.8 0 0 0 3.657-.7l-2.135-2.096a4.6 4.6 0 0 1-4.13-.553 4.5 4.5 0 0 1-1.41-1.587 4.4 4.4 0 0 1-.507-2.045"/>
</svg>
