<svg xmlns="http://www.w3.org/2000/svg" viewBox="0 0 24 24" fill="currentColor" aria-hidden="true" data-slot="icon">
  <path d="M15.023 12c0 1.657-1.354 3-3.023 3s-3.023-1.343-3.023-3S10.33 9 12 9s3.023 1.343 3.023 3"/>
  <path fill-rule="evenodd" d="M2.201 12.744a1.47 1.47 0 0 1 0-1.488C4.314 7.635 7.914 5.25 12 5.25s7.686 2.385 9.799 6.006c.268.46.268 1.027 0 1.488-2.113 3.621-5.713 6.006-9.799 6.006s-7.686-2.385-9.799-6.006M16.535 12c0 2.485-2.03 4.5-4.535 4.5-2.504 0-4.535-2.015-4.535-4.5S9.495 7.5 12 7.5c2.504 0 4.535 2.015 4.535 4.5" clip-rule="evenodd"/>
</svg>
