<svg xmlns="http://www.w3.org/2000/svg" viewBox="0 0 24 24" fill="currentColor" aria-hidden="true" data-slot="icon">
  <path fill-rule="evenodd" d="M12 21.5a9.5 9.5 0 1 0 0-19 9.5 9.5 0 0 0 0 19m3.167-13.722a1.056 1.056 0 1 0 0 2.11h.01a1.056 1.056 0 1 0 0-2.11zM7.514 8.833c0-.437.354-.791.792-.791h1.583a.792.792 0 0 1 0 1.583H8.306a.79.79 0 0 1-.792-.792M11.48 14.9c-1.125-.183-2.09-.822-2.616-1.349a.792.792 0 0 0-1.12 1.12c.706.705 1.959 1.544 3.481 1.792 1.572.255 3.368-.132 5.028-1.792a.792.792 0 1 0-1.12-1.12c-1.295 1.296-2.577 1.524-3.653 1.349" clip-rule="evenodd"/>
</svg>
