<svg xmlns="http://www.w3.org/2000/svg" viewBox="0 0 24 24" fill="currentColor" aria-hidden="true" data-slot="icon">
  <path d="M15.357 15.195q.198-.494.256-1.024H8.387q.058.53.255 1.024c.183.453.45.865.788 1.212a3.6 3.6 0 0 0 1.18.81 3.55 3.55 0 0 0 2.78 0 3.6 3.6 0 0 0 1.18-.81c.337-.347.605-.759.787-1.212"/>
  <path fill-rule="evenodd" d="M12 21.5a9.5 9.5 0 1 0 0-19 9.5 9.5 0 0 0 0 19M8.675 10.1a1.425 1.425 0 1 0 0-2.85 1.425 1.425 0 0 0 0 2.85m8.075-1.425a1.425 1.425 0 1 1-2.85 0 1.425 1.425 0 0 1 2.85 0M8.042 12.95a.803.803 0 0 0-.792.814v.245q0 .028.009.053c.032.54.15 1.071.353 1.572a4.9 4.9 0 0 0 1.03 1.585c.44.454.964.814 1.54 1.06a4.64 4.64 0 0 0 3.636 0 4.7 4.7 0 0 0 1.54-1.06 4.9 4.9 0 0 0 1.03-1.585 5 5 0 0 0 .353-1.572.2.2 0 0 0 .009-.053v-.245a.803.803 0 0 0-.792-.814z" clip-rule="evenodd"/>
</svg>
