<svg xmlns="http://www.w3.org/2000/svg" viewBox="0 0 24 24" fill="currentColor" aria-hidden="true" data-slot="icon">
  <path fill-rule="evenodd" d="M19.778 9.243q0-.25-.04-.493h-5.794a.74.74 0 0 1-.729-.75V2.04a3 3 0 0 0-.479-.04H7.14C5.528 2 4.222 3.343 4.222 5v14c0 1.657 1.306 3 2.917 3h9.722c1.61 0 2.917-1.343 2.917-3zm-8.89 1.368a.833.833 0 0 1 1.668 0v8.333a.833.833 0 1 1-1.667 0zm-4.444 4.445a.833.833 0 1 1 1.667 0v3.888a.833.833 0 1 1-1.667 0zM16.167 12a.833.833 0 0 0-.834.833v6.111a.833.833 0 1 0 1.667 0v-6.11a.833.833 0 0 0-.833-.834" clip-rule="evenodd"/>
  <path d="M14.674 7.25V2.757q.063.06.125.122l4.125 4.242q.06.063.117.129z"/>
</svg>
