<svg xmlns="http://www.w3.org/2000/svg" viewBox="0 0 24 24" fill="currentColor" aria-hidden="true" data-slot="icon">
  <path fill-rule="evenodd" d="M19.922 9.312q0-.244-.04-.48H13.98a.737.737 0 0 1-.742-.732V2.29a3 3 0 0 0-.488-.04H7.049c-1.64 0-2.97 1.31-2.97 2.925v13.65c0 1.615 1.33 2.925 2.97 2.925h9.902c1.64 0 2.97-1.31 2.97-2.925V9.312ZM9.467 12.446c.869-.729 2.024-.515 2.717.281.693-.796 1.834-1.002 2.717-.28a1.99 1.99 0 0 1 .308 2.81c-.405.512-1.398 1.432-2.136 2.093-.305.273-.458.409-.641.464a.9.9 0 0 1-.496 0c-.183-.055-.335-.191-.64-.464-.739-.662-1.732-1.581-2.137-2.094-.682-.862-.56-2.08.308-2.81" clip-rule="evenodd"/>
  <path d="M14.723 7.369v-4.38q.066.057.128.118l4.2 4.136q.063.062.12.126z"/>
</svg>
