<svg xmlns="http://www.w3.org/2000/svg" viewBox="0 0 24 24" fill="currentColor" aria-hidden="true" data-slot="icon">
  <path d="m12.671 12.417.158-.2a.95.95 0 0 1 .606-.217.94.94 0 0 1 .643.249 1 1 0 0 0 .084.068.8.8 0 0 1 .166.49c-.004.186-.083.429-.351.687l-1.863 1.732-1.866-1.736a1 1 0 0 0-.083-.067.8.8 0 0 1-.23-.243.73.73 0 0 1-.07-.606c.034-.1.09-.195.166-.277a.85.85 0 0 1 .283-.199.9.9 0 0 1 .71-.006.85.85 0 0 1 .287.194q.03.03.064.059l.23.19a.75.75 0 0 0 1.066-.118"/>
  <path fill-rule="evenodd" d="M19.882 8.831q.04.238.04.48v9.514c0 1.615-1.33 2.925-2.97 2.925H7.048c-1.64 0-2.97-1.31-2.97-2.925V5.175c0-1.615 1.33-2.925 2.97-2.925h5.701q.248 0 .488.04V8.1c0 .404.332.731.742.731h5.902ZM13.435 10.5c-.504 0-.996.154-1.405.44a2.41 2.41 0 0 0-2.315-.217 2.35 2.35 0 0 0-.783.553c-.22.236-.387.517-.49.823a2.22 2.22 0 0 0 .21 1.858c.157.26.365.485.61.664l2.341 2.178a.75.75 0 0 0 1.022 0l2.377-2.21.008-.008c.522-.499.805-1.108.818-1.743a2.34 2.34 0 0 0-.658-1.65.8.8 0 0 0-.207-.156 2.45 2.45 0 0 0-1.528-.532" clip-rule="evenodd"/>
  <path d="M14.723 2.988v4.38h4.449a3 3 0 0 0-.12-.125L14.85 3.107a3 3 0 0 0-.128-.119Z"/>
</svg>
