<svg xmlns="http://www.w3.org/2000/svg" viewBox="0 0 24 24" fill="currentColor" aria-hidden="true" data-slot="icon">
  <path d="M13.346 11.614H11.04v1.853h2.307zm.924 3.243v2.316h-4.155v-2.316h4.154Z"/>
  <path fill-rule="evenodd" d="M20.5 9.105q0-.263-.043-.518h-6.332a.79.79 0 0 1-.797-.787V1.543a3 3 0 0 0-.523-.043H6.688C4.928 1.5 3.5 2.91 3.5 4.65v14.7c0 1.74 1.427 3.15 3.188 3.15h10.625c1.76 0 3.187-1.41 3.187-3.15zM9.654 13.546v-1.932c0-.512.413-.927.923-.927h3.23q.064 0 .124.009a.694.694 0 0 1 .8.687v2.163c.537.19.923.706.923 1.31v2.317c0 .767-.62 1.39-1.385 1.39h-4.154a1.387 1.387 0 0 1-1.384-1.39v-2.316c0-.605.385-1.12.923-1.311" clip-rule="evenodd"/>
  <path d="M14.922 7.013V2.295q.07.062.137.128l4.507 4.454q.067.067.13.136z"/>
</svg>
