<svg xmlns="http://www.w3.org/2000/svg" viewBox="0 0 24 24" fill="currentColor" aria-hidden="true" data-slot="icon">
  <path fill-rule="evenodd" d="M20.328 9.174q0-.256-.042-.505h-6.204a.775.775 0 0 1-.78-.769V1.792a3 3 0 0 0-.514-.042H6.795c-1.725 0-3.123 1.377-3.123 3.075v14.35c0 1.698 1.398 3.075 3.123 3.075h10.41c1.725 0 3.123-1.377 3.123-3.075zm-6.785 3.043a.74.74 0 1 1 1.046 1.045l-1.743 1.742 1.743 1.742a.74.74 0 0 1-1.046 1.046l-1.742-1.743-1.742 1.743a.74.74 0 0 1-1.046-1.046l1.743-1.742-1.743-1.742a.74.74 0 1 1 1.046-1.046L11.8 13.96z" clip-rule="evenodd"/>
  <path d="M14.863 7.131V2.526q.068.06.134.125l4.416 4.348q.066.064.127.132z"/>
</svg>
