<svg xmlns="http://www.w3.org/2000/svg" viewBox="0 0 24 24" fill="currentColor" aria-hidden="true" data-slot="icon">
  <path fill-rule="evenodd" d="M1.149 5.23a2.98 2.98 0 0 1 2.98-2.98h6.243a2.98 2.98 0 0 1 2.665 1.647l1.343 2.686h5.221a3.25 3.25 0 0 1 3.25 3.25V18.5a3.25 3.25 0 0 1-3.25 3.25H4.434a3.25 3.25 0 0 1-3.25-3.25V7.634a.8.8 0 0 1-.035-.238V5.229Zm2.98-1.355c-.749 0-1.355.606-1.355 1.354v1.354h9.79l-.98-1.96a1.35 1.35 0 0 0-1.212-.748zm12.22 8.7a.812.812 0 1 0-1.15-1.15l-4.3 4.3-1.592-1.591a.813.813 0 0 0-1.15 1.149l2.167 2.167a.81.81 0 0 0 1.15 0l4.874-4.875Z" clip-rule="evenodd"/>
</svg>
