<svg xmlns="http://www.w3.org/2000/svg" viewBox="0 0 24 24" fill="currentColor" aria-hidden="true" data-slot="icon">
  <path d="M17.764 2.153c.511 1.718-.731 3.567-2.453 3.769h4.752c1.484 0 2.687 1.177 2.687 2.63v.525c0 1.162-.963 2.104-2.15 2.104H3.4c-1.187 0-2.15-.942-2.15-2.104v-.526c0-1.452 1.203-2.63 2.688-2.63h4.787c-1.632-.32-2.849-2.002-2.303-3.665a.1.1 0 0 1 .024-.04c1.46-1.577 4.116-1.031 4.805.987L12 5.922l1.068-2.98c.8-1.836 3.258-2.275 4.67-.834a.1.1 0 0 1 .026.045M3.4 12.758v6.837c0 1.742 1.444 3.155 3.225 3.155h4.838v-9.992zm9.675 9.992h4.3c1.781 0 3.225-1.413 3.225-3.155v-6.837h-7.525z"/>
</svg>
