<svg xmlns="http://www.w3.org/2000/svg" viewBox="0 0 24 24" fill="currentColor" aria-hidden="true" data-slot="icon">
  <path fill-rule="evenodd" d="M12 22.75c5.937 0 10.75-4.813 10.75-10.75S17.937 1.25 12 1.25 1.25 6.063 1.25 12 6.063 22.75 12 22.75m0-1.552A9.198 9.198 0 0 1 3.48 8.529c.185.66.617 1.275 1.234 1.7l1.173.81c1.274.88 2.995.73 4.097-.357l.032-.032a3.2 3.2 0 0 1 .838-.596l2.56-1.263a3.23 3.23 0 0 0 1.778-2.531l.311-2.767A9.2 9.2 0 0 1 12 21.198m.027-6.57-.505.996a1.08 1.08 0 0 0-.06.83l.76 2.25c.148.438.558.732 1.019.732h2.113c.357 0 .69-.177.89-.473l1.234-1.826c.385-.57.144-1.35-.496-1.602l-3.602-1.421a1.075 1.075 0 0 0-1.353.514" clip-rule="evenodd"/>
</svg>
