<svg xmlns="http://www.w3.org/2000/svg" viewBox="0 0 24 24" fill="currentColor" aria-hidden="true" data-slot="icon">
  <path d="M10.893 17.77h1.795v2.768h-1.795zm6.283-8.308c0 3.568-2.813 6.461-6.283 6.461S4.61 13.03 4.61 9.462C4.61 5.892 7.423 3 10.893 3s6.283 2.893 6.283 6.462"/>
  <path d="M6.405 20.308c0-.383.302-.693.673-.693h9.425c.372 0 .673.31.673.693a.683.683 0 0 1-.673.692H7.078a.683.683 0 0 1-.673-.692m11.7-16.341a9.42 9.42 0 0 1 1.717 6.433 9.32 9.32 0 0 1-2.947 5.943 8.83 8.83 0 0 1-6.072 2.349 8.84 8.84 0 0 1-6.024-2.473l.712-.787a.27.27 0 0 1 .384-.018 7.54 7.54 0 0 0 4.942 1.925 7.54 7.54 0 0 0 5.181-2.004 7.96 7.96 0 0 0 2.516-5.072 8.05 8.05 0 0 0-1.309-5.265.29.29 0 0 1 .06-.39z"/>
  <path d="m5.02 15.963.85.874-.844.868a.59.59 0 0 1-.85 0 .63.63 0 0 1 0-.874zM18.733 5.021l-.662-1.032.997-.676a.59.59 0 0 1 .833.176.63.63 0 0 1-.171.856z"/>
</svg>
