<svg xmlns="http://www.w3.org/2000/svg" viewBox="0 0 24 24" fill="currentColor" aria-hidden="true" data-slot="icon">
  <path d="M6 2.25A3.75 3.75 0 0 0 2.25 6v13A2.75 2.75 0 0 0 5 21.75h13l.071-.003h.553c1.657 0 3-1.363 3-3.02v-2.52a1 1 0 0 0-.375-.78l-3.958-3.167a1 1 0 0 0-1.298.041L7.267 20.25H5c-.69 0-1.25-.56-1.25-1.25V6A2.25 2.25 0 0 1 6 3.75h7a.75.75 0 0 0 0-1.5zm15.53.22a.75.75 0 0 0-1.06 0L17.5 5.44l-.97-.97a.75.75 0 1 0-1.06 1.06l1.5 1.5a.75.75 0 0 0 1.06 0l3.5-3.5a.75.75 0 0 0 0-1.06"/>
  <path fill-rule="evenodd" d="M8.5 5.25a3.25 3.25 0 1 0 0 6.5 3.25 3.25 0 0 0 0-6.5M6.75 8.5a1.75 1.75 0 1 1 3.5 0 1.75 1.75 0 0 1-3.5 0" clip-rule="evenodd"/>
</svg>
