<svg xmlns="http://www.w3.org/2000/svg" viewBox="0 0 24 24" fill="currentColor" aria-hidden="true" data-slot="icon">
  <path d="M8.557 9.898a.5.5 0 0 1 .735-.16l1.458 1.512c-.163.225.223.165 0 0l2.518-3.376a.5.5 0 0 1 .831.034l4.021 6.599a.5.5 0 0 1-.427.76H6.433a.5.5 0 0 1-.438-.743z"/>
  <path fill-rule="evenodd" d="M6 2.25A3.75 3.75 0 0 0 2.25 6v12A3.75 3.75 0 0 0 6 21.75h12A3.75 3.75 0 0 0 21.75 18V6A3.75 3.75 0 0 0 18 2.25zM3.75 6A2.25 2.25 0 0 1 6 3.75h12A2.25 2.25 0 0 1 20.25 6v12A2.25 2.25 0 0 1 18 20.25H6A2.25 2.25 0 0 1 3.75 18z" clip-rule="evenodd"/>
</svg>
