<svg xmlns="http://www.w3.org/2000/svg" viewBox="0 0 24 24" fill="currentColor" aria-hidden="true" data-slot="icon">
  <path d="M6 2.25A3.75 3.75 0 0 0 2.25 6v13A2.75 2.75 0 0 0 5 21.75h13a1 1 0 0 0 .093-.006h.532c1.657 0 3-1.366 3-3.023V16.2a1 1 0 0 0-.376-.78l-3.958-3.167a1 1 0 0 0-1.298.04l-8.75 7.956H5c-.69 0-1.25-.56-1.25-1.25V6A2.25 2.25 0 0 1 6 3.75h7a.75.75 0 0 0 0-1.5z"/>
  <path d="M18.75 3a.75.75 0 0 0-1.5 0v4.19l-1.72-1.72a.75.75 0 1 0-1.06 1.06l3 3a.75.75 0 0 0 1.06 0l3-3a.75.75 0 0 0-1.06-1.06l-1.72 1.72z"/>
  <path fill-rule="evenodd" d="M8.5 5.25a3.25 3.25 0 1 0 0 6.5 3.25 3.25 0 0 0 0-6.5M6.75 8.5a1.75 1.75 0 1 1 3.5 0 1.75 1.75 0 0 1-3.5 0" clip-rule="evenodd"/>
</svg>
