<svg xmlns="http://www.w3.org/2000/svg" viewBox="0 0 24 24" fill="currentColor" aria-hidden="true" data-slot="icon">
  <path fill-rule="evenodd" d="M6 2.25A3.75 3.75 0 0 0 2.25 6v3a.75.75 0 0 0 1.5 0V6A2.25 2.25 0 0 1 6 3.75h3a.75.75 0 0 0 0-1.5zm9 0a.75.75 0 0 0 0 1.5h3A2.25 2.25 0 0 1 20.25 6v3a.75.75 0 0 0 1.5 0V6A3.75 3.75 0 0 0 18 2.25zm-12 12a.75.75 0 0 1 .75.75v3A2.25 2.25 0 0 0 6 20.25h3a.75.75 0 0 1 0 1.5H6A3.75 3.75 0 0 1 2.25 18v-3a.75.75 0 0 1 .75-.75m18.75.75a.75.75 0 0 0-1.5 0v3A2.25 2.25 0 0 1 18 20.25h-3a.75.75 0 0 0 0 1.5h3A3.75 3.75 0 0 0 21.75 18zM10 8.5A1.5 1.5 0 0 0 8.5 10v4a1.5 1.5 0 0 0 1.5 1.5h4a1.5 1.5 0 0 0 1.5-1.5v-4A1.5 1.5 0 0 0 14 8.5z" clip-rule="evenodd"/>
</svg>
