<svg xmlns="http://www.w3.org/2000/svg" viewBox="0 0 24 24" fill="currentColor" aria-hidden="true" data-slot="icon">
  <path d="M7.375 10.972a2.57 2.57 0 1 0 0-5.139 2.57 2.57 0 0 0 0 5.14Z"/>
  <path fill-rule="evenodd" d="M4.806 2.75a3.083 3.083 0 0 0-3.084 3.083v12.334a3.083 3.083 0 0 0 3.084 3.083h14.388a3.083 3.083 0 0 0 3.084-3.083V5.833a3.083 3.083 0 0 0-3.084-3.083zm-.21 1.542c-.567 0-1.027.46-1.027 1.027v13.362c0 .567.46 1.027 1.027 1.027h.723l5.954-5.953a1.03 1.03 0 0 1 1.454 0l1.329 1.328 3.334-3.334a1.03 1.03 0 0 1 1.5.05l1.675 1.914V5.319c0-.567-.46-1.027-1.028-1.027H4.597Z" clip-rule="evenodd"/>
</svg>
