<svg xmlns="http://www.w3.org/2000/svg" viewBox="0 0 24 24" fill="currentColor" aria-hidden="true" data-slot="icon">
  <path fill-rule="evenodd" d="M20.4 3.5H3.6c-1.16 0-2.1.951-2.1 2.125v12.75c0 1.174.94 2.125 2.1 2.125h16.8c1.16 0 2.1-.951 2.1-2.125V5.625c0-1.174-.94-2.125-2.1-2.125M8.85 7.75c0-.587.47-1.063 1.05-1.063h.01c.58 0 1.05.476 1.05 1.063s-.47 1.063-1.05 1.063H9.9c-.58 0-1.05-.476-1.05-1.063M12 10.938c-.58 0-1.05.475-1.05 1.062s.47 1.063 1.05 1.063h.01c.58 0 1.05-.476 1.05-1.063s-.47-1.063-1.05-1.063H12Zm1.05-3.188c0-.587.47-1.063 1.05-1.063h.01c.58 0 1.05.476 1.05 1.063s-.47 1.063-1.05 1.063h-.01c-.58 0-1.05-.476-1.05-1.063m3.15 3.188c-.58 0-1.05.475-1.05 1.062s.47 1.063 1.05 1.063h.01c.58 0 1.05-.476 1.05-1.063s-.47-1.063-1.05-1.063h-.01Zm1.05-3.188c0-.587.47-1.063 1.05-1.063h.01c.58 0 1.05.476 1.05 1.063s-.47 1.063-1.05 1.063h-.01c-.58 0-1.05-.476-1.05-1.063M5.7 6.687c-.58 0-1.05.476-1.05 1.063s.47 1.063 1.05 1.063h.01c.58 0 1.05-.476 1.05-1.063s-.47-1.063-1.05-1.063zm.263 9.563c0-.44.352-.797.787-.797h10.5c.435 0 .788.357.788.797s-.353.797-.788.797H6.75a.79.79 0 0 1-.787-.797M7.8 10.937c-.58 0-1.05.476-1.05 1.063s.47 1.063 1.05 1.063h.01c.58 0 1.05-.476 1.05-1.063s-.47-1.063-1.05-1.063z" clip-rule="evenodd"/>
</svg>
