<svg xmlns="http://www.w3.org/2000/svg" viewBox="0 0 24 24" fill="currentColor" aria-hidden="true" data-slot="icon">
  <path d="M3 2.25a.75.75 0 0 1 .75.75v18a.75.75 0 0 1-1.5 0V3A.75.75 0 0 1 3 2.25m18 0a.75.75 0 0 1 .75.75v18a.75.75 0 0 1-1.5 0V3a.75.75 0 0 1 .75-.75"/>
  <path fill-rule="evenodd" d="M12 5.75a.75.75 0 0 1 .677.428l5 10.5a.75.75 0 0 1-1.354.645l-1.701-3.573H9.378l-1.7 3.573a.75.75 0 0 1-1.355-.646l5-10.5A.75.75 0 0 1 12 5.75m-1.907 6.5h3.814L12 8.244z" clip-rule="evenodd"/>
</svg>
