<svg xmlns="http://www.w3.org/2000/svg" viewBox="0 0 24 24" fill="currentColor" aria-hidden="true" data-slot="icon">
  <path fill-rule="evenodd" d="M12.75 2a.75.75 0 0 0-1.5 0v1a.75.75 0 0 0 1.5 0zM5.03 3.97a.75.75 0 0 0-1.06 1.06l1 1a.75.75 0 0 0 1.06-1.06zm15 1.06a.75.75 0 0 0-1.06-1.06l-1 1a.75.75 0 0 0 1.06 1.06zM2 11.25a.75.75 0 0 0 0 1.5h1a.75.75 0 0 0 0-1.5zm19 0a.75.75 0 0 0 0 1.5h1a.75.75 0 0 0 0-1.5zm-2.668 1.25a6.25 6.25 0 0 1-3.582 5.654V20a2.75 2.75 0 1 1-5.5 0v-1.927a6.25 6.25 0 1 1 9.082-5.573m-6.25 6.25H12q-.642-.001-1.25-.116V20a1.25 1.25 0 1 0 2.5 0v-1.359a6.3 6.3 0 0 1-1.168.109" clip-rule="evenodd"/>
</svg>
