<svg xmlns="http://www.w3.org/2000/svg" viewBox="0 0 24 24" fill="currentColor" aria-hidden="true" data-slot="icon">
  <path d="M12 14.277a2.277 2.277 0 1 1 0-4.554 2.277 2.277 0 0 1 0 4.554"/>
  <path fill-rule="evenodd" d="M11.767 1.75a.7.7 0 0 0-.699.699v1.216a8.39 8.39 0 0 0-7.403 7.403H2.449a.699.699 0 1 0 0 1.398h1.177a8.39 8.39 0 0 0 7.442 7.87v1.215a.699.699 0 1 0 1.398 0v-1.177a8.387 8.387 0 0 0 7.908-7.908h1.177a.699.699 0 1 0 0-1.398h-1.216a8.39 8.39 0 0 0-7.87-7.442V2.45a.7.7 0 0 0-.698-.699ZM12 15.727a3.727 3.727 0 1 0 0-7.454 3.727 3.727 0 0 0 0 7.454" clip-rule="evenodd"/>
</svg>
