<svg xmlns="http://www.w3.org/2000/svg" viewBox="0 0 24 24" fill="currentColor" aria-hidden="true" data-slot="icon">
  <path fill-rule="evenodd" d="M3.771 16.247a9.4 9.4 0 0 1-.785-6.309 9.5 9.5 0 0 1 3.457-5.415 9.7 9.7 0 0 1 6.151-2.02 9.7 9.7 0 0 1 6.054 2.29 9.47 9.47 0 0 1 3.207 5.563 9.4 9.4 0 0 1-1.095 6.31 9.6 9.6 0 0 1-4.9 4.19 9.74 9.74 0 0 1-6.48.17l-1.248-.568a.1.1 0 0 0-.063-.008l-5.446.896a.53.53 0 0 1-.584-.716l1.736-4.297a.1.1 0 0 0-.004-.086m4.33-5.303c-.59 0-1.068.473-1.068 1.056s.478 1.056 1.069 1.056h.01c.59 0 1.07-.473 1.07-1.056s-.48-1.056-1.07-1.056zM11.31 12c0-.583.479-1.056 1.07-1.056h.01c.59 0 1.069.473 1.069 1.056s-.479 1.056-1.07 1.056h-.01c-.59 0-1.069-.473-1.069-1.056m5.345-1.056c-.59 0-1.069.473-1.069 1.056s.48 1.056 1.07 1.056h.01c.59 0 1.07-.473 1.07-1.056s-.48-1.056-1.07-1.056h-.01Z" clip-rule="evenodd"/>
</svg>
