<svg xmlns="http://www.w3.org/2000/svg" viewBox="0 0 24 24" fill="currentColor" aria-hidden="true" data-slot="icon">
  <path d="M9.552 8.734a.925.925 0 0 1 1.308 0l.607.607a.79.79 0 0 0 1.12 0l.607-.607a.925.925 0 1 1 1.308 1.308l-2.475 2.475-2.475-2.475a.925.925 0 0 1 0-1.308"/>
  <path fill-rule="evenodd" d="M5.667 1.972h12.666A3.167 3.167 0 0 1 21.5 5.14v9.5a3.167 3.167 0 0 1-3.167 3.166h-5.222c-.72 0-1.417.245-1.978.694l-4.41 3.529v-2.111a2.11 2.11 0 0 0-2.112-2.112 2.11 2.11 0 0 1-2.111-2.11V5.138a3.167 3.167 0 0 1 3.167-3.167Zm6.313 5.642a2.508 2.508 0 1 0-3.548 3.548l3.035 3.034a.79.79 0 0 0 1.12 0l3.034-3.034a2.508 2.508 0 0 0-3.547-3.548l-.047.047z" clip-rule="evenodd"/>
</svg>
