<svg xmlns="http://www.w3.org/2000/svg" viewBox="0 0 24 24" fill="currentColor" aria-hidden="true" data-slot="icon">
  <path fill-rule="evenodd" d="M18.338 2.25H5.662a3.17 3.17 0 0 0-3.169 3.169V21.22c0 .443.512.689.858.412l3.556-2.844a3.17 3.17 0 0 1 1.98-.695h9.45a3.17 3.17 0 0 0 3.17-3.168V5.419a3.17 3.17 0 0 0-3.17-3.169ZM6.718 8.324c0-.438.355-.792.793-.792h4.753a.792.792 0 0 1 0 1.584H7.511a.79.79 0 0 1-.793-.792m.793 2.376a.792.792 0 1 0 0 1.585h8.978a.792.792 0 0 0 0-1.585z" clip-rule="evenodd"/>
</svg>
