<svg xmlns="http://www.w3.org/2000/svg" viewBox="0 0 24 24" fill="currentColor" aria-hidden="true" data-slot="icon">
  <path fill-rule="evenodd" d="M3.909 16.402a9.98 9.98 0 0 1-.797-6.518 9.8 9.8 0 0 1 3.413-5.558 9.34 9.34 0 0 1 6.073-2.074 9.36 9.36 0 0 1 5.977 2.352 9.8 9.8 0 0 1 3.167 5.709 9.97 9.97 0 0 1-1.081 6.475 9.58 9.58 0 0 1-4.838 4.301 9.27 9.27 0 0 1-6.399.175l-1.261-.597L2.7 21.6a.5.5 0 0 1-.55-.674zm7.684-8.96v4.875c0 .449.355.813.792.813a.8.8 0 0 0 .792-.813V7.442a.8.8 0 0 0-.792-.812.8.8 0 0 0-.792.812m.792 6.77a.8.8 0 0 0-.792.813v.542c0 .449.355.813.792.813a.8.8 0 0 0 .792-.813v-.542a.8.8 0 0 0-.792-.812Z" clip-rule="evenodd"/>
</svg>
