<svg xmlns="http://www.w3.org/2000/svg" viewBox="0 0 24 24" fill="currentColor" aria-hidden="true" data-slot="icon">
  <path fill-rule="evenodd" d="M9.764 4.106c-1.388 0-2.514 1.078-2.514 2.408v3.211h10.338c1.852 0 3.353 1.438 3.353 3.212v5.352c0 1.773-1.501 3.211-3.353 3.211H6.412c-1.852 0-3.353-1.438-3.353-3.211v-5.352c0-1.497 1.068-2.754 2.514-3.11V6.514C5.573 4.297 7.45 2.5 9.764 2.5h4.471c2.315 0 4.191 1.797 4.191 4.014 0 .443-.375.803-.838.803s-.838-.36-.838-.803c0-1.33-1.126-2.408-2.515-2.408zm2.986 10.436a.75.75 0 0 0-1.5 0v2.141a.75.75 0 0 0 1.5 0z" clip-rule="evenodd"/>
</svg>
