<svg xmlns="http://www.w3.org/2000/svg" viewBox="0 0 24 24" fill="currentColor" aria-hidden="true" data-slot="icon">
  <path d="m8.567 3.948-.679-.686a2.56 2.56 0 0 0-3.643 0l-.871.88a3.03 3.03 0 0 0-.8 2.796C4.055 13.52 8.87 18.82 15.236 20.877l1.436.464a3.29 3.29 0 0 0 3.496-.981l.683-.788a2.667 2.667 0 0 0-.267-3.756l-.56-.485a1.813 1.813 0 0 0-2.48.096 1.81 1.81 0 0 1-2.231.277l-1.672-1.012a14.4 14.4 0 0 1-4.365-4.11L8.092 8.876a1.745 1.745 0 0 1 .334-2.348 1.745 1.745 0 0 0 .141-2.58"/>
</svg>
