<svg xmlns="http://www.w3.org/2000/svg" viewBox="0 0 24 24" fill="currentColor" aria-hidden="true" data-slot="icon">
  <path fill-rule="evenodd" d="M12 22.75c5.937 0 10.75-4.813 10.75-10.75S17.937 1.25 12 1.25 1.25 6.063 1.25 12 6.063 22.75 12 22.75M10.062 9.624c0-.254.28-.41.496-.277l3.861 2.376a.325.325 0 0 1 0 .554l-3.861 2.376a.325.325 0 0 1-.495-.277V9.624Zm5.143.822L11.344 8.07c-1.216-.749-2.781.126-2.781 1.554v4.752c0 1.428 1.565 2.303 2.781 1.555l3.861-2.377a1.825 1.825 0 0 0 0-3.108" clip-rule="evenodd"/>
</svg>
