<svg xmlns="http://www.w3.org/2000/svg" viewBox="0 0 24 24" fill="currentColor" aria-hidden="true" data-slot="icon">
  <path fill-rule="evenodd" d="M2.47 2.25a.732.732 0 1 0 0 1.462h.293v9.263A2.93 2.93 0 0 0 5.695 15.9h5.279l-4.877 4.633a.706.706 0 1 0 .976 1.022l3.9-3.705v2.876c0 .566.46 1.024 1.027 1.024s1.026-.458 1.026-1.024V17.85l3.9 3.705a.706.706 0 1 0 .976-1.023L13.027 15.9h5.279a2.93 2.93 0 0 0 2.932-2.925V3.713h.293a.732.732 0 1 0 0-1.463zm5.865 3.9a.73.73 0 0 0-.734.731v5.363a.732.732 0 0 0 1.467 0V6.88a.73.73 0 0 0-.733-.731Zm3.176 2.681a.732.732 0 0 1 1.466 0v3.413a.732.732 0 0 1-1.466 0zm4.643 1.219a.73.73 0 0 0-.733.731v1.463a.732.732 0 0 0 1.466 0V10.78a.73.73 0 0 0-.733-.731Z" clip-rule="evenodd"/>
</svg>
