<svg xmlns="http://www.w3.org/2000/svg" viewBox="0 0 24 24" fill="currentColor" aria-hidden="true" data-slot="icon">
  <path d="M17.5 4h1.75a.75.75 0 0 0 0-1.5h-4.704a.545.545 0 0 0-.546.545V7.75a.75.75 0 0 0 1.5 0V4.6a8.413 8.413 0 0 1-.776 15.17c-.405.168-.642.608-.513 1.028.13.419.576.657.983.495A10 10 0 0 0 17.5 4M8.806 2.707c.407-.162.853.076.982.495.13.42-.107.86-.512 1.029A8.412 8.412 0 0 0 8.5 19.4v-3.15a.75.75 0 0 1 1.5 0v4.704a.545.545 0 0 1-.545.546H4.75a.75.75 0 0 1 0-1.5H6.5A10 10 0 0 1 8.806 2.707"/>
</svg>
