<svg xmlns="http://www.w3.org/2000/svg" viewBox="0 0 24 24" fill="currentColor" aria-hidden="true" data-slot="icon">
  <path fill-rule="evenodd" d="M9.57 8.005A14.23 14.23 0 0 1 20.822 2.5a.68.68 0 0 1 .679.679c0 4.574-2.156 8.645-5.505 11.251a6.107 6.107 0 0 1-6.03 7.07.68.68 0 0 1-.68-.679v-3.737a14.3 14.3 0 0 1-2.368-2.37H3.179a.68.68 0 0 1-.679-.678 6.107 6.107 0 0 1 7.07-6.031m5.144-.755a2.036 2.036 0 1 0 0 4.072 2.036 2.036 0 0 0 0-4.072" clip-rule="evenodd"/>
  <path d="M5.902 16.743a.68.68 0 0 0-.812-1.089 4.74 4.74 0 0 0-1.854 4.544.68.68 0 0 0 .565.567 4.74 4.74 0 0 0 4.544-1.855.679.679 0 1 0-1.088-.812 3.39 3.39 0 0 1-2.721 1.366c0-1.113.535-2.101 1.366-2.721"/>
</svg>
