<svg xmlns="http://www.w3.org/2000/svg" viewBox="0 0 24 24" fill="currentColor" aria-hidden="true" data-slot="icon">
  <path d="M2.25 4c0-.966.784-1.75 1.75-1.75h4a.75.75 0 0 1 0 1.5H4a.25.25 0 0 0-.25.25v4a.75.75 0 0 1-1.5 0zm13-1a.75.75 0 0 1 .75-.75h4c.966 0 1.75.784 1.75 1.75v4a.75.75 0 0 1-1.5 0V4a.25.25 0 0 0-.25-.25h-4a.75.75 0 0 1-.75-.75m-12 9a1.25 1.25 0 1 1 2.5 0 1.25 1.25 0 0 1-2.5 0m5 0a1.25 1.25 0 1 1 2.5 0 1.25 1.25 0 0 1-2.5 0m5 0a1.25 1.25 0 1 1 2.5 0 1.25 1.25 0 0 1-2.5 0m5 0a1.25 1.25 0 1 1 2.5 0 1.25 1.25 0 0 1-2.5 0M3 15.25a.75.75 0 0 1 .75.75v4c0 .138.112.25.25.25h4a.75.75 0 0 1 0 1.5H4A1.75 1.75 0 0 1 2.25 20v-4a.75.75 0 0 1 .75-.75m18 0a.75.75 0 0 1 .75.75v4A1.75 1.75 0 0 1 20 21.75h-4a.75.75 0 0 1 0-1.5h4a.25.25 0 0 0 .25-.25v-4a.75.75 0 0 1 .75-.75"/>
</svg>
