<svg xmlns="http://www.w3.org/2000/svg" viewBox="0 0 24 24" fill="currentColor" aria-hidden="true" data-slot="icon">
  <path fill-rule="evenodd" d="M18.556 3.126A2.8 2.8 0 0 0 16.33 2H7.67a2.8 2.8 0 0 0-2.226 1.126l-2.74 3.606a1 1 0 0 0-.204.605V19c0 1.657 1.418 3 3.167 3h12.666c1.75 0 3.167-1.343 3.167-3V7.337a1 1 0 0 0-.204-.605zm-1.379.914a1.4 1.4 0 0 0-1.094-.54H7.917c-.422 0-.824.198-1.094.54L4.875 6.5h14.25zM6.314 11.764c-.053-.42.294-.764.717-.764s.76.345.831.762a4.469 4.469 0 0 0 8.807 0c.072-.417.408-.762.831-.762s.77.344.717.764a6 6 0 0 1-11.903 0" clip-rule="evenodd"/>
</svg>
