<svg xmlns="http://www.w3.org/2000/svg" viewBox="0 0 24 24" fill="currentColor" aria-hidden="true" data-slot="icon">
  <path d="M2.98 4.336h.618a.14.14 0 0 1 .135.134l.912 12.633c.04.55.47.976.988.976h13.21c.412 0 .744-.355.744-.793s-.332-.793-.743-.793H6.294a.1.1 0 0 1-.099-.098l-.069-.96h13.875c.506 0 .93-.404.986-.94l.77-7.4c.066-.626-.394-1.174-.985-1.174H5.44l-.18-2.484c-.028-.387-.331-.687-.696-.687H2.98c-.41 0-.744.355-.744.793s.333.793.744.793M16.365 21.25c.685 0 1.24-.592 1.24-1.321 0-.73-.555-1.322-1.24-1.322s-1.24.592-1.24 1.322.556 1.321 1.24 1.321m-7.684-1.321c0 .73-.555 1.321-1.24 1.321s-1.239-.592-1.239-1.321c0-.73.555-1.322 1.24-1.322s1.239.592 1.239 1.322"/>
</svg>
