<svg xmlns="http://www.w3.org/2000/svg" viewBox="0 0 24 24" fill="currentColor" aria-hidden="true" data-slot="icon">
  <path d="M8.237 14.15c0-.297.241-.537.538-.537h6.45c.297 0 .537.24.537.537v2.15c0 .297-.24.537-.537.537h-6.45a.537.537 0 0 1-.538-.537z"/>
  <path fill-rule="evenodd" d="M6.625 1.25h6.19c.854 0 1.675.34 2.28.945l4.56 4.56c.605.605.945 1.426.945 2.28v10.49a3.225 3.225 0 0 1-3.225 3.225H6.625A3.225 3.225 0 0 1 3.4 19.525V4.475A3.225 3.225 0 0 1 6.625 1.25m0 11.825c0-.594.481-1.075 1.075-1.075h8.6c.594 0 1.075.481 1.075 1.075v4.3c0 .594-.481 1.075-1.075 1.075H7.7a1.075 1.075 0 0 1-1.075-1.075z" clip-rule="evenodd"/>
</svg>
