<svg xmlns="http://www.w3.org/2000/svg" viewBox="0 0 24 24" fill="currentColor" aria-hidden="true" data-slot="icon">
  <path d="M12 11.738c-1.907 0-3.453 1.527-3.453 3.412s1.546 3.412 3.453 3.412 3.453-1.527 3.453-3.412-1.546-3.412-3.453-3.412"/>
  <path fill-rule="evenodd" d="M17.313 1.5H6.688C4.928 1.5 3.5 2.91 3.5 4.65v14.7c0 1.74 1.427 3.15 3.188 3.15h10.625c1.76 0 3.187-1.41 3.187-3.15V4.65c0-1.74-1.427-3.15-3.188-3.15ZM6.953 15.15c0-2.755 2.26-4.988 5.047-4.988s5.047 2.233 5.047 4.988c0 2.754-2.26 4.987-5.047 4.987s-5.047-2.233-5.047-4.987M12 4.65c-.587 0-1.063.47-1.063 1.05S11.413 6.75 12 6.75h.01c.587 0 1.063-.47 1.063-1.05s-.476-1.05-1.062-1.05z" clip-rule="evenodd"/>
</svg>
