<svg xmlns="http://www.w3.org/2000/svg" viewBox="0 0 24 24" fill="currentColor" aria-hidden="true" data-slot="icon">
  <path d="M13.05 3.862V2.287a.788.788 0 0 0-1.575 0v1.576a.788.788 0 0 0 1.575 0Zm-1.53 3.984a.525.525 0 0 1 .96 0l.958 2.181c.074.17.232.287.415.31l2.312.288c.437.055.617.59.301.898l-1.744 1.696a.53.53 0 0 0-.15.473l.458 2.421a.525.525 0 0 1-.782.55l-1.982-1.166a.53.53 0 0 0-.532 0l-1.982 1.166a.525.525 0 0 1-.782-.55l.458-2.42a.53.53 0 0 0-.15-.474l-1.744-1.696a.525.525 0 0 1 .3-.898l2.313-.288a.53.53 0 0 0 .415-.31l.957-2.181Zm1.53 12.291v1.575a.788.788 0 0 1-1.575 0v-1.575a.788.788 0 0 1 1.575 0M6.384 5.95 5.271 4.835a.788.788 0 0 0-1.114 1.113L5.27 7.063a.788.788 0 0 0 1.113-1.114Zm-4.096 5.525h1.575a.788.788 0 0 1 0 1.575H2.288a.788.788 0 0 1 0-1.575m19.424 0h-1.575a.788.788 0 0 0 0 1.575h1.575a.788.788 0 0 0 0-1.575M3.786 19.6l1.113-1.115A.788.788 0 0 1 6.013 19.6l-1.114 1.114A.787.787 0 1 1 3.786 19.6m15.134-1.115 1.114 1.114a.788.788 0 0 1-1.113 1.114l-1.114-1.114a.787.787 0 1 1 1.114-1.114ZM20.034 6.32l-1.113 1.114a.788.788 0 0 1-1.114-1.113l1.114-1.114a.788.788 0 0 1 1.113 1.114Z"/>
</svg>
