<svg xmlns="http://www.w3.org/2000/svg" viewBox="0 0 24 24" fill="currentColor" aria-hidden="true" data-slot="icon">
  <path d="m13.288 6.267 1.571-3.928a.54.54 0 0 1 1.002 0l1.571 3.928a.54.54 0 0 0 .3.3l3.929 1.572a.54.54 0 0 1 0 1.002l-3.928 1.571a.54.54 0 0 0-.3.3l-1.572 3.929a.54.54 0 0 1-1.002 0l-1.571-3.929a.54.54 0 0 0-.3-.3L9.059 9.141a.54.54 0 0 1 0-1.002l3.929-1.571a.54.54 0 0 0 .3-.3ZM4.65 16.032l1.056-2.111a.54.54 0 0 1 .965 0l1.056 2.111a.54.54 0 0 0 .241.241l2.111 1.056a.54.54 0 0 1 0 .965l-2.111 1.055a.54.54 0 0 0-.241.242L6.67 21.7a.54.54 0 0 1-.965 0L4.65 19.59a.54.54 0 0 0-.242-.242L2.3 18.294a.54.54 0 0 1 0-.965l2.11-1.056a.54.54 0 0 0 .242-.241Z"/>
</svg>
