<svg xmlns="http://www.w3.org/2000/svg" viewBox="0 0 24 24" fill="currentColor" aria-hidden="true" data-slot="icon">
  <path fill-rule="evenodd" d="M12.75 3.5a.75.75 0 0 0-1.5 0v2a.75.75 0 0 0 1.5 0zM5.53 5.97a.75.75 0 0 0-1.06 1.06l1.5 1.5a.75.75 0 0 0 1.06-1.06zm14 1.06a.75.75 0 0 0-1.06-1.06l-1.5 1.5a.75.75 0 0 0 1.06 1.06zM2 12.75a.75.75 0 0 0 0 1.5h2a.75.75 0 0 0 0-1.5zm18 0a.75.75 0 0 0 0 1.5h2a.75.75 0 0 0 0-1.5zm-18 3.5a.75.75 0 0 0 0 1.5h20a.75.75 0 0 0 0-1.5zm2 3.5a.75.75 0 0 0 0 1.5h16a.75.75 0 0 0 0-1.5zm12.98-6.25c-.044-.64-.165-1.442-.36-1.913a5.001 5.001 0 0 0-9.24 0c-.195.471-.316 1.272-.36 1.914A.47.47 0 0 0 7.5 14h9c.276 0 .5-.224.48-.5" clip-rule="evenodd"/>
</svg>
