<svg xmlns="http://www.w3.org/2000/svg" viewBox="0 0 24 24" fill="currentColor" aria-hidden="true" data-slot="icon">
  <path fill-rule="evenodd" d="M4.5 8.75v-3a3 3 0 0 1 3-3h9a3 3 0 0 1 3 3v3h.41c.05 0 .09-.04.09-.09V8.5a.75.75 0 0 1 1.5 0v1.523a.227.227 0 0 1-.227.227H19.5v.041A3 3 0 0 1 22 13.25v5a3 3 0 0 1-3 3h-1.5a1.5 1.5 0 0 1-1.5-1.5 1.5 1.5 0 0 0-1.5-1.5h-5a1.5 1.5 0 0 0-1.5 1.5 1.5 1.5 0 0 1-1.5 1.5H5a3 3 0 0 1-3-3v-5a3 3 0 0 1 2.5-2.959v-.041H2.727a.227.227 0 0 1-.227-.227V8.5a.75.75 0 0 1 1.5 0v.16c0 .05.04.09.09.09zm1.5 1.5h12v-4.5a1 1 0 0 0-1-1H7a1 1 0 0 0-1 1zm3 4a1.5 1.5 0 1 1-3 0 1.5 1.5 0 0 1 3 0m7.5 1.5a1.5 1.5 0 1 0 0-3 1.5 1.5 0 0 0 0 3" clip-rule="evenodd"/>
</svg>
