<svg xmlns="http://www.w3.org/2000/svg" viewBox="0 0 24 24" fill="currentColor" aria-hidden="true" data-slot="icon">
  <path fill-rule="evenodd" d="M8.447 2.25a.683.683 0 0 0-.669.696c0 .385.3.697.67.697h2.899v1.393H7.093c-1.478 0-2.676 1.247-2.676 2.785v8.822c0 1.29.842 2.375 1.985 2.692l-.502.895c-.262.468.062 1.056.583 1.056a.67.67 0 0 0 .582-.349l.775-1.382a.7.7 0 0 0 .056-.126h8.208a1 1 0 0 0 .056.126l.775 1.383a.67.67 0 0 0 .582.348c.52 0 .845-.588.582-1.056l-.501-.895c1.143-.317 1.985-1.402 1.985-2.692V7.82c0-1.538-1.198-2.785-2.676-2.785h-4.222V3.643h2.9c.37 0 .669-.312.669-.697s-.3-.696-.67-.696H8.448ZM5.755 7.357V12h12.49V7.357c0-.513-.4-.928-.892-.928H6.647c-.493 0-.892.415-.892.928m4.46 8.125c0 .641-.499 1.16-1.115 1.16s-1.115-.519-1.115-1.16.5-1.16 1.115-1.16c.616 0 1.116.52 1.116 1.16Zm5.13 1.16c.616 0 1.116-.519 1.116-1.16s-.5-1.16-1.116-1.16-1.115.52-1.115 1.16c0 .641.5 1.16 1.115 1.16" clip-rule="evenodd"/>
  <path d="M9.992 21.75h4.015c.37 0 .67-.312.67-.696 0-.385-.3-.697-.67-.697H9.992a.684.684 0 0 0-.669.697c0 .384.3.696.67.696Z"/>
</svg>
