<svg xmlns="http://www.w3.org/2000/svg" viewBox="0 0 24 24" fill="currentColor" aria-hidden="true" data-slot="icon">
  <path fill-rule="evenodd" d="m8.25 3.75.474-.947a1 1 0 0 1 .894-.553h4.764a1 1 0 0 1 .894.553l.474.947H17a3 3 0 0 1 3 3v10a3 3 0 0 1-2.007 2.832A2 2 0 1 1 14 19.75h-3.501a2 2 0 0 1-3.999-.041A3 3 0 0 1 4 16.75v-10a3 3 0 0 1 3-3zm10.417 10H5.333v-7.5a1 1 0 0 1 1-1h11.334a1 1 0 0 1 1 1zm-10.917 3h1.5a.75.75 0 0 0 0-1.5h-1.5a.75.75 0 0 0 0 1.5m7 0h1.5a.75.75 0 0 0 0-1.5h-1.5a.75.75 0 0 0 0 1.5" clip-rule="evenodd"/>
</svg>
