<svg xmlns="http://www.w3.org/2000/svg" viewBox="0 0 24 24" fill="currentColor" aria-hidden="true" data-slot="icon">
  <path d="M10.75 5.487c0-.44-.336-.797-.75-.797s-.75.357-.75.797v1.064c0 .44.336.797.75.797s.75-.357.75-.797zm4 0c0-.44-.336-.797-.75-.797s-.75.357-.75.797v1.064c0 .44.336.797.75.797s.75-.357.75-.797z"/>
  <path fill-rule="evenodd" d="M5.25 5.487C5.25 3.285 6.929 1.5 9 1.5h6c2.071 0 3.75 1.785 3.75 3.987v3.19c1.243 0 2.25 1.071 2.25 2.393v8.24c0 1.762-1.343 3.19-3 3.19H6c-1.657 0-3-1.428-3-3.19v-8.24c0-1.322 1.007-2.393 2.25-2.393zm12 0v3.19H6.75v-3.19c0-1.32 1.007-2.392 2.25-2.392h6c1.243 0 2.25 1.071 2.25 2.392" clip-rule="evenodd"/>
</svg>
