<svg xmlns="http://www.w3.org/2000/svg" viewBox="0 0 24 24" fill="currentColor" aria-hidden="true" data-slot="icon">
  <path d="M9.44 12.27c2.732 0 4.946-2.187 4.946-4.885S12.172 2.5 9.44 2.5 4.494 4.687 4.494 7.385 6.71 12.27 9.44 12.27m5.742-9.174a.856.856 0 0 1 1.193-.135c2.506 1.968 3.143 5.945.02 8.56a.856.856 0 0 1-1.196-.098.83.83 0 0 1 .099-1.181c2.216-1.856 1.785-4.583.02-5.968a.83.83 0 0 1-.136-1.178M16.6 14.792c0-.463.38-.838.848-.838 2.284 0 4.052 1.922 4.052 4.19v2.518c0 .463-.38.838-.849.838a.843.843 0 0 1-.848-.838v-2.518c0-1.435-1.1-2.514-2.355-2.514a.843.843 0 0 1-.848-.838M2.5 17.586v2.793c0 .617.478 1.118 1.068 1.118h11.745c.59 0 1.067-.5 1.067-1.118v-2.793c0-1.852-1.434-3.353-3.203-3.353H5.703c-1.769 0-3.203 1.501-3.203 3.353"/>
</svg>
