<svg xmlns="http://www.w3.org/2000/svg" viewBox="0 0 24 24" fill="currentColor" aria-hidden="true" data-slot="icon">
  <path d="M18.022 18.78c-.303.251-.742.162-.96-.173s-.131-.787.168-1.043a8 8 0 0 0 1.851-2.315A8.34 8.34 0 0 0 19.348 8a8 8 0 0 0-1.676-2.455c-.28-.28-.332-.737-.09-1.054.241-.316.685-.37.969-.094a9.5 9.5 0 0 1 2.073 2.994 9.85 9.85 0 0 1 .823 4.323 9.8 9.8 0 0 1-1.138 4.246 9.4 9.4 0 0 1-2.287 2.82"/>
  <path d="M16.24 15.612a.586.586 0 0 1-.781.115c-.346-.224-.403-.723-.158-1.063.706-.98 1.09-2.102 1.102-3.255.013-1.15-.345-2.278-1.028-3.267-.238-.346-.173-.845.178-1.063a.59.59 0 0 1 .783.13c.974 1.25 1.488 2.714 1.471 4.211-.016 1.499-.564 2.957-1.566 4.192ZM2.546 8.37v6.928a1 1 0 0 0 1 1h2.818a1 1 0 0 1 .67.257l3.297 2.968c.643.579 1.669.122 1.669-.744V5.25a1 1 0 0 0-1.625-.78L7.022 7.15a1 1 0 0 1-.625.219h-2.85a1 1 0 0 0-1 1Z"/>
</svg>
