<svg xmlns="http://www.w3.org/2000/svg" viewBox="0 0 24 24" fill="currentColor" aria-hidden="true" data-slot="icon">
  <path d="M20.799 7.41a4.43 4.43 0 0 0-3.383.24 5.93 5.93 0 0 1-4.854.203l-.485-.194a5.6 5.6 0 0 0-4.154 0l-.254.102a7.78 7.78 0 0 1-5.348.157l-.558-.186a.75.75 0 0 1 .474-1.423l.558.186a6.28 6.28 0 0 0 4.317-.127l.254-.102a7.1 7.1 0 0 1 5.268 0l.485.194a4.43 4.43 0 0 0 3.627-.15 5.93 5.93 0 0 1 4.527-.323l.964.322a.75.75 0 0 1-.474 1.423zm0 5a4.43 4.43 0 0 0-3.383.24 5.93 5.93 0 0 1-4.854.203l-.485-.194a5.6 5.6 0 0 0-4.154 0l-.254.102a7.78 7.78 0 0 1-5.348.157l-.558-.186a.75.75 0 1 1 .474-1.423l.558.186a6.28 6.28 0 0 0 4.317-.127l.254-.102a7.1 7.1 0 0 1 5.268 0l.485.194a4.43 4.43 0 0 0 3.627-.15 5.93 5.93 0 0 1 4.527-.323l.964.322a.75.75 0 0 1-.474 1.423zm0 5a4.43 4.43 0 0 0-3.383.24 5.93 5.93 0 0 1-4.854.203l-.485-.194a5.6 5.6 0 0 0-4.154 0l-.254.102a7.78 7.78 0 0 1-5.348.157l-.558-.186a.75.75 0 1 1 .474-1.423l.558.186a6.28 6.28 0 0 0 4.317-.127l.254-.102a7.1 7.1 0 0 1 5.268 0l.485.194a4.43 4.43 0 0 0 3.627-.15 5.93 5.93 0 0 1 4.527-.323l.964.322a.75.75 0 0 1-.474 1.423z"/>
</svg>
