<svg xmlns="http://www.w3.org/2000/svg" viewBox="0 0 24 24" fill="currentColor" aria-hidden="true" data-slot="icon">
  <path d="M2.868 2.221a.77.77 0 0 0 0 1.07l.298.305a1 1 0 0 0-.059.055l-.89.91a.77.77 0 0 0 0 1.07.73.73 0 0 0 1.046 0l.89-.91a1 1 0 0 0 .053-.061l1.157 1.182a9.1 9.1 0 0 0-1.724 2.732 9.25 9.25 0 0 0 0 6.945 9.1 9.1 0 0 0 1.745 2.755l-2.382 2.435a.77.77 0 0 0 0 1.07.73.73 0 0 0 1.046 0l2.439-2.494c.6.464 1.257.85 1.956 1.145a8.7 8.7 0 0 0 6.793 0 8.9 8.9 0 0 0 2.672-1.762l2.83 2.893a.73.73 0 0 0 1.045 0 .77.77 0 0 0 0-1.07L3.913 2.221a.73.73 0 0 0-1.045 0m14.42 1.347a.77.77 0 0 1 0-1.07.73.73 0 0 1 1.046 0l2.725 2.786a.77.77 0 0 1 0 1.07.73.73 0 0 1-1.046 0zm-8.952.154c1.56-.518 3.358-.869 4.89-.527a9.45 9.45 0 0 1 4.692 2.622 9.8 9.8 0 0 1 2.573 4.8c.338 1.57.147 3.572-.314 5.216a.462.462 0 0 1-.785.192L8.154 4.535c-.254-.26-.16-.7.182-.813"/>
</svg>
