<svg xmlns="http://www.w3.org/2000/svg" viewBox="0 0 24 24" fill="currentColor" aria-hidden="true" data-slot="icon">
  <path d="M3.324 2.71a.73.73 0 0 0 0 1.016l.284.29a1 1 0 0 0-.056.052l-.846.865a.73.73 0 0 0 0 1.016c.274.28.72.28.994 0l.846-.865a1 1 0 0 0 .05-.057L5.694 6.15a8.7 8.7 0 0 0-1.637 2.595 8.8 8.8 0 0 0 0 6.598 8.6 8.6 0 0 0 1.657 2.617l-2.263 2.314a.73.73 0 0 0 0 1.016c.275.28.72.28.994 0l2.317-2.37c.57.441 1.195.807 1.859 1.088a8.27 8.27 0 0 0 6.453 0 8.4 8.4 0 0 0 2.539-1.673l2.688 2.748c.274.28.719.28.993 0a.73.73 0 0 0 0-1.016L4.318 2.71a.69.69 0 0 0-.994 0m13.7 1.28a.73.73 0 0 1 0-1.017c.274-.28.72-.28.994 0l2.588 2.647a.73.73 0 0 1 0 1.016.69.69 0 0 1-.994 0zm-8.504.146c1.48-.492 3.19-.825 4.645-.5a9 9 0 0 1 4.457 2.49 9.33 9.33 0 0 1 2.444 4.56c.322 1.49.14 3.394-.298 4.955a.439.439 0 0 1-.746.183L8.346 4.909c-.24-.247-.151-.666.174-.773"/>
</svg>
