<svg xmlns="http://www.w3.org/2000/svg" viewBox="0 0 24 24" fill="currentColor" aria-hidden="true" data-slot="icon">
  <path d="M3.5 6.222c0-.399.317-.722.708-.722h15.584c.39 0 .708.323.708.722a.715.715 0 0 1-.708.722H4.208a.715.715 0 0 1-.708-.722m0 7.704c0-.399.317-.722.708-.722h15.584c.39 0 .708.323.708.722a.715.715 0 0 1-.708.722H4.208a.715.715 0 0 1-.708-.722m0-3.852c0-.399.317-.722.708-.722h11.806c.391 0 .708.323.708.722a.715.715 0 0 1-.708.722H4.208a.715.715 0 0 1-.708-.722m0 7.704c0-.4.317-.722.708-.722h11.806c.391 0 .708.323.708.722a.715.715 0 0 1-.708.722H4.208a.715.715 0 0 1-.708-.722"/>
</svg>
