<svg xmlns="http://www.w3.org/2000/svg" viewBox="0 0 24 24" fill="currentColor" aria-hidden="true" data-slot="icon">
  <path d="M19.486 4.037v11.358c0 .714-.745 1.214-1.456.976l-6.377-2.132c-.71-.238-1.456.262-1.456.976v4.75c0 .571-.49 1.035-1.093 1.035H6.372c-.604 0-1.093-.464-1.093-1.035v-4.66c0-.858-.734-1.553-1.64-1.553S2 13.056 2 12.198V8.057C2 6.34 3.468 4.95 5.279 4.95h7.195a6.86 6.86 0 0 0 2.932-.656l2.499-1.183c.726-.345 1.581.156 1.581.926M21.18 7c-.452 0-.82.348-.82.777v4.66c0 .428.368.776.82.776.453 0 .82-.348.82-.777v-4.66c0-.428-.367-.776-.82-.776"/>
</svg>
