<svg xmlns="http://www.w3.org/2000/svg" viewBox="0 0 24 24" fill="currentColor" aria-hidden="true" data-slot="icon">
  <path fill-rule="evenodd" d="M5.158 2h13.684C20.586 2 22 3.44 22 5.214v9.405c0 1.775-1.414 3.214-3.158 3.214h-1.93a3.14 3.14 0 0 0-2.526 1.286l-1.965 2.667a.52.52 0 0 1-.842 0l-1.965-2.667a3.14 3.14 0 0 0-2.526-1.286h-1.93C3.414 17.833 2 16.394 2 14.62V5.214C2 3.44 3.414 2 5.158 2m2.105 6.73a1.3 1.3 0 0 0-1.295 1.306 1.3 1.3 0 0 0 1.295 1.305 1.3 1.3 0 0 0 1.296-1.305A1.3 1.3 0 0 0 7.263 8.73m4.737 0a1.3 1.3 0 0 0-1.296 1.306A1.3 1.3 0 0 0 12 11.34a1.3 1.3 0 0 0 1.296-1.305A1.3 1.3 0 0 0 12 8.73m4.737 0a1.3 1.3 0 0 0-1.296 1.306 1.3 1.3 0 0 0 1.296 1.305 1.3 1.3 0 0 0 1.295-1.305 1.3 1.3 0 0 0-1.295-1.305Z" clip-rule="evenodd"/>
</svg>
