<svg xmlns="http://www.w3.org/2000/svg" viewBox="0 0 24 24" fill="currentColor" aria-hidden="true" data-slot="icon">
  <path d="M12 2.25a.75.75 0 0 1 .75.75v18a.75.75 0 0 1-1.5 0V3a.75.75 0 0 1 .75-.75M5.47 8.47a.75.75 0 0 1 1.06 0l3 3a.75.75 0 0 1 0 1.06l-3 3a.75.75 0 0 1-1.06-1.06l1.72-1.72H3a.75.75 0 0 1 0-1.5h4.19L5.47 9.53a.75.75 0 0 1 0-1.06m13.06 0a.75.75 0 0 1 0 1.06l-1.72 1.72H21a.75.75 0 0 1 0 1.5h-4.19l1.72 1.72a.75.75 0 1 1-1.06 1.06l-3-3a.75.75 0 0 1 0-1.06l3-3a.75.75 0 0 1 1.06 0"/>
</svg>
