<svg xmlns="http://www.w3.org/2000/svg" viewBox="0 0 24 24" fill="currentColor" aria-hidden="true" data-slot="icon">
  <path fill-rule="evenodd" d="M12 21.75c5.385 0 9.75-4.365 9.75-9.75S17.385 2.25 12 2.25 2.25 6.615 2.25 12s4.365 9.75 9.75 9.75M7.856 12a.73.73 0 0 0-.731.731v4.388a.731.731 0 0 0 1.463 0V12.73a.73.73 0 0 0-.732-.73m3.169-5.119a.731.731 0 0 1 1.463 0V17.12a.731.731 0 0 1-1.463 0V6.88Zm4.631 3.169a.73.73 0 0 0-.731.731v6.338a.731.731 0 0 0 1.462 0V10.78a.73.73 0 0 0-.73-.731Z" clip-rule="evenodd"/>
</svg>
