<svg xmlns="http://www.w3.org/2000/svg" viewBox="0 0 24 24" fill="currentColor" aria-hidden="true" data-slot="icon">
  <path fill-rule="evenodd" d="M7 3v2a1 1 0 0 0 1 1v4.558a3 3 0 0 1-1.126 2.343l-2.748 2.198A3 3 0 0 0 3 17.442V19a3 3 0 0 0 3 3h12a3 3 0 0 0 3-3v-1.472a3 3 0 0 0-1.235-2.426l-3.03-2.204a3 3 0 0 1-1.235-2.426V6h.5a1 1 0 0 0 1-1V3a1 1 0 0 0-1-1H8a1 1 0 0 0-1 1m7 3H9.5v4.653C9.5 11.51 8.64 13.43 8 14l-2 1.5a5 5 0 0 0-.551.55Q5.717 16 6 16h12l.144.003a15 15 0 0 0-.35-.274 16 16 0 0 1-.294-.229l-2-1.5c-.712-.57-1.5-2.53-1.5-3.442z" clip-rule="evenodd"/>
</svg>
