<svg xmlns="http://www.w3.org/2000/svg" viewBox="0 0 24 24" fill="currentColor" aria-hidden="true" data-slot="icon">
  <path fill-rule="evenodd" d="M17.529 1.847a.823.823 0 0 1 1.016-.565c.767.219 1.835.766 2.6 1.734.797 1.01 1.22 2.425.707 4.218a.822.822 0 1 1-1.582-.452c.365-1.278.057-2.147-.416-2.746-.506-.64-1.247-1.026-1.76-1.172a.823.823 0 0 1-.566-1.017ZM5.895 1.705c.203.406.038.9-.368 1.103-.438.22-1.08.7-1.507 1.386-.409.656-.625 1.5-.274 2.554a.823.823 0 1 1-1.56.52c-.527-1.578-.195-2.928.438-3.944A5.64 5.64 0 0 1 4.79 1.337a.823.823 0 0 1 1.104.368Zm3.08 18.38a.823.823 0 0 0-1.052 1.264c.638.532 1.735 1.16 3.012 1.347 1.317.192 2.822-.092 4.128-1.398a.823.823 0 1 0-1.164-1.163c-.888.888-1.85 1.06-2.726.933-.917-.134-1.74-.602-2.197-.983Zm-6.398-1.098H20.59a.57.57 0 0 0 .524-.795l-2.044-4.77a11.2 11.2 0 0 1-.906-4.411 6.475 6.475 0 0 0-6.475-6.475h-.21a6.475 6.475 0 0 0-6.475 6.475 11.2 11.2 0 0 1-.906 4.412l-2.044 4.77a.57.57 0 0 0 .524.794Z" clip-rule="evenodd"/>
</svg>
