<svg xmlns="http://www.w3.org/2000/svg" viewBox="0 0 24 24" fill="currentColor" aria-hidden="true" data-slot="icon">
  <path d="M16.956 4.104a6.22 6.22 0 0 1 1.821 4.398c0 2.177.28 3.888.672 5.216L9.07 3.354a6.22 6.22 0 0 1 7.887.75ZM4.628 15.348c.903-1.45 1.711-3.643 1.711-6.846q.001-.75.176-1.468L3.938 4.458a.777.777 0 1 1 1.1-1.1l15.234 15.235a.777.777 0 1 1-1.1 1.1l-1.86-1.863H5.705c-1.24 0-1.86 0-1.998-.102-.152-.113-.192-.185-.208-.374-.014-.17.367-.782 1.128-2.006Z"/>
  <path d="M8.355 19.389a.777.777 0 0 1 1.098-.069 3.35 3.35 0 0 0 2.228.843c.855 0 1.633-.318 2.228-.843a.777.777 0 1 1 1.028 1.166 4.9 4.9 0 0 1-3.256 1.231 4.9 4.9 0 0 1-3.257-1.23.777.777 0 0 1-.069-1.098"/>
</svg>
