<svg xmlns="http://www.w3.org/2000/svg" viewBox="0 0 24 24" fill="currentColor" aria-hidden="true" data-slot="icon">
  <path fill-rule="evenodd" d="M10.327 5.303a5.8 5.8 0 0 1 1.542-.206h.262a5.9 5.9 0 0 1 1.542.206v-.206a1.673 1.673 0 0 0-3.346 0zm5.02.762a5.81 5.81 0 0 1 2.603 4.85 9.1 9.1 0 0 0 .77 3.67l1.872 4.258a.54.54 0 0 1-.493.756h-4.033a.6.6 0 0 1-.045.124 4.463 4.463 0 0 1-8.022.04.6.6 0 0 1-.055-.164H3.901a.54.54 0 0 1-.494-.756l1.872-4.257a9.1 9.1 0 0 0 .771-3.67 5.81 5.81 0 0 1 2.603-4.85v-.97a3.347 3.347 0 0 1 6.694 0zM9.706 19.6a2.924 2.924 0 0 0 4.588 0z" clip-rule="evenodd"/>
</svg>
