<svg xmlns="http://www.w3.org/2000/svg" viewBox="0 0 24 24" fill="currentColor" aria-hidden="true" data-slot="icon">
  <path d="M10 5.5a1 1 0 0 1 1-1h2.5a1 1 0 0 1 1 1V6h4.237a1.499 1.499 0 0 1 2.763.81 1.5 1.5 0 0 1-2.832.69h-1.402A9 9 0 0 1 19 9.174 9.4 9.4 0 0 1 21 15a1 1 0 0 1 1 1v2.5a1 1 0 0 1-1 1h-2.5a1 1 0 0 1-1-1V16a1 1 0 0 1 1-1h.845a7.64 7.64 0 0 0-1.623-4.725A7.1 7.1 0 0 0 14.5 7.958V8a1 1 0 0 1-1 1H11a1 1 0 0 1-1-1v-.196a7.08 7.08 0 0 0-3.708 2.454A7.64 7.64 0 0 0 4.655 15H3c0-2.136.714-4.204 2.018-5.847A9 9 0 0 1 6.733 7.5H5.308a1.5 1.5 0 1 1-.01-1.5H10z"/>
  <path d="M3 15a1 1 0 0 0-1 1v2.5a1 1 0 0 0 1 1h2.5a1 1 0 0 0 1-1V16a1 1 0 0 0-1-1z"/>
</svg>
