<svg xmlns="http://www.w3.org/2000/svg" viewBox="0 0 24 24" fill="currentColor" aria-hidden="true" data-slot="icon">
  <path fill-rule="evenodd" d="M14.344 3.942c1.174.963 2.641 2.178 3.635 3.002a.75.75 0 0 1-.005 1.158l-4.789 3.912 4.79 3.912a.75.75 0 0 1 0 1.162l-5.5 4.493A.75.75 0 0 1 11.25 21v-7.405l-4.275 3.493a.75.75 0 0 1-.95-1.162l4.79-3.912-4.79-3.912a.75.75 0 1 1 .95-1.162l4.275 3.493V3.19a.76.76 0 0 1 .053-.521.75.75 0 0 1 .814-.406.7.7 0 0 1 .181.06c.07.032.13.074.136.08l.067.048c.085.065.223.173.394.31.347.28.862.7 1.449 1.181m-1.594 9.653 3.564 2.912-3.564 2.912zm0-3.162V4.576l.642.526c.918.753 2.017 1.66 2.928 2.415zm-.225-7.94q-.01-.01.002 0zm-.95 1.14-.002-.003.003.002Z" clip-rule="evenodd"/>
</svg>
