<svg xmlns="http://www.w3.org/2000/svg" viewBox="0 0 24 24" fill="currentColor" aria-hidden="true" data-slot="icon">
  <path fill-rule="evenodd" d="M7.75 2a.75.75 0 0 0-.75.75V4H6a3 3 0 0 0-3 3v12a3 3 0 0 0 3 3h12a3 3 0 0 0 3-3V7a3 3 0 0 0-3-3h-.5V2.75a.75.75 0 0 0-1.5 0V4H8.5V2.75A.75.75 0 0 0 7.75 2M16 6.25V5.5H8.5v.75a.75.75 0 0 1-1.5 0V5.5H5.5a1 1 0 0 0-1 1V10h15V6.5a1 1 0 0 0-1-1h-1v.75a.75.75 0 0 1-1.5 0M8.5 15.5l2.227 2.227c.15.15.395.15.546 0L15.5 13.5a.707.707 0 0 0-1-1L11 16l-1.5-1.5a.707.707 0 0 0-1 1" clip-rule="evenodd"/>
</svg>
