<svg xmlns="http://www.w3.org/2000/svg" viewBox="0 0 24 24" fill="currentColor" aria-hidden="true" data-slot="icon">
  <path fill-rule="evenodd" d="M8.892 1.25a1.813 1.813 0 0 0-1.814 1.813v1.069a1 1 0 0 0-.259-.033H5.783a2.07 2.07 0 0 0-2.072 2.073v13.47a3.11 3.11 0 0 0 3.108 3.108h10.362a3.11 3.11 0 0 0 3.108-3.108V6.172a2.07 2.07 0 0 0-2.072-2.073h-1.036q-.134 0-.26.033V3.063a1.813 1.813 0 0 0-1.813-1.813zm-.26 1.813a.26.26 0 0 1 .26-.259h6.216a.26.26 0 0 1 .26.26v2.072a.26.26 0 0 1-.26.259H8.892a.26.26 0 0 1-.26-.26z" clip-rule="evenodd"/>
</svg>
