<svg xmlns="http://www.w3.org/2000/svg" viewBox="0 0 24 24" fill="currentColor" aria-hidden="true" data-slot="icon">
  <path fill-rule="evenodd" d="M7.078 3.063c0-1.001.812-1.813 1.814-1.813h6.216c1.002 0 1.814.812 1.814 1.813v1.069q.125-.032.259-.033h1.036c1.145 0 2.072.928 2.072 2.073v13.47a3.11 3.11 0 0 1-3.108 3.108H6.819a3.11 3.11 0 0 1-3.108-3.108V6.172c0-1.145.928-2.073 2.072-2.073H6.82q.135 0 .26.033V3.063Zm1.814-.259a.26.26 0 0 0-.26.26v2.072a.26.26 0 0 0 .26.259h6.216a.26.26 0 0 0 .26-.26V3.064a.26.26 0 0 0-.26-.259H8.892Zm4.069 8.446a.75.75 0 1 0-1.5 0v2.25H9.21a.75.75 0 0 0 0 1.5h2.25v2.25a.75.75 0 0 0 1.5 0V15h2.25a.75.75 0 1 0 0-1.5h-2.25z" clip-rule="evenodd"/>
</svg>
