<svg xmlns="http://www.w3.org/2000/svg" viewBox="0 0 24 24" fill="currentColor" aria-hidden="true" data-slot="icon">
  <path fill-rule="evenodd" d="M5.667 2.5A3.167 3.167 0 0 0 2.5 5.667v12.666A3.167 3.167 0 0 0 5.667 21.5h12.666a3.167 3.167 0 0 0 3.167-3.167V5.667A3.167 3.167 0 0 0 18.333 2.5zM9.92 9.393a.792.792 0 1 0-1.12-1.12L5.635 11.44a.79.79 0 0 0 0 1.12L8.8 15.726a.792.792 0 0 0 1.12-1.12L7.314 12zm5.278-1.12a.792.792 0 0 0-1.12 1.12L16.686 12l-2.607 2.607a.792.792 0 1 0 1.12 1.12l3.166-3.167a.79.79 0 0 0 0-1.12L15.2 8.274Z" clip-rule="evenodd"/>
</svg>
