<svg xmlns="http://www.w3.org/2000/svg" viewBox="0 0 24 24" fill="currentColor" aria-hidden="true" data-slot="icon">
  <path fill-rule="evenodd" d="M13.982 5.843c0-1.432-2.57-2.593-5.741-2.593S2.5 4.41 2.5 5.843v12.314c0 1.432 2.57 2.593 5.74 2.593s5.742-1.16 5.742-2.593zm-1.149 4.796V7.4c-1.047.629-2.714 1.036-4.592 1.036s-3.545-.407-4.593-1.037v3.241c1.048.63 2.715 1.037 4.593 1.037s3.545-.407 4.592-1.037Zm0 1.296v2.593c-1.047.63-2.714 1.037-4.592 1.037s-3.545-.407-4.593-1.037v-2.593c1.048.63 2.715 1.037 4.593 1.037s3.545-.407 4.592-1.037m0 3.89c-1.047.629-2.714 1.036-4.592 1.036s-3.545-.407-4.593-1.037v2.593c1.048.63 2.715 1.037 4.593 1.037s3.545-.407 4.592-1.037z" clip-rule="evenodd"/>
  <path fill-rule="evenodd" d="M17.5 20.25a4 4 0 1 0 0-8 4 4 0 0 0 0 8m-1.11-5.645 1.295-.648a.287.287 0 0 1 .415.257v3.236h.6a.4.4 0 0 1 0 .8h-2.2a.4.4 0 0 1 0-.8h.6v-2l-.28.112a.525.525 0 0 1-.43-.957" clip-rule="evenodd"/>
</svg>
