<svg xmlns="http://www.w3.org/2000/svg" viewBox="0 0 24 24" fill="currentColor" aria-hidden="true" data-slot="icon">
  <path d="M7.393 2.163 2.948 6.607a.556.556 0 0 0 .393.949h12.873a.56.56 0 0 0 .393-.163l4.445-4.445A.556.556 0 0 0 20.659 2H7.786a.56.56 0 0 0-.393.163M2 21.444V9.222c0-.307.249-.555.556-.555h13.333c.307 0 .555.248.555.555v12.222a.556.556 0 0 1-.555.556H2.556A.556.556 0 0 1 2 21.444m20-4.894V5.06a.556.556 0 0 0-.959-.381l-3.333 3.518a.56.56 0 0 0-.152.382v11.906c0 .517.645.753.979.359l3.333-3.936A.56.56 0 0 0 22 16.55"/>
</svg>
