<svg xmlns="http://www.w3.org/2000/svg" viewBox="0 0 24 24" fill="currentColor" aria-hidden="true" data-slot="icon">
  <path d="m3.295 8.2 7.917 4.292a.48.48 0 0 1 .26.42v8.6c0 .377-.443.61-.795.42L2.76 17.64a.48.48 0 0 1-.26-.419V8.619c0-.377.444-.61.795-.42Zm17.41 0-7.917 4.292a.48.48 0 0 0-.26.42v8.6c0 .377.443.61.795.42l7.917-4.293a.48.48 0 0 0 .26-.419V8.619c0-.377-.444-.61-.795-.42ZM3.33 6.37l8.414-4.309a.57.57 0 0 1 .512 0L20.67 6.37a.469.469 0 0 1 0 .85l-8.414 4.309a.57.57 0 0 1-.512 0L3.33 7.22a.469.469 0 0 1 0-.85"/>
</svg>
