<svg xmlns="http://www.w3.org/2000/svg" viewBox="0 0 24 24" fill="currentColor" aria-hidden="true" data-slot="icon">
  <path fill-rule="evenodd" d="M3.292 6.225h1.32V19.35c0 1.74 1.417 3.15 3.166 3.15h8.444a3.16 3.16 0 0 0 3.167-3.15V6.225h1.32a.79.79 0 0 0 .791-.787.79.79 0 0 0-.792-.788h-4.486c0-1.74-1.418-3.15-3.166-3.15h-2.112a3.16 3.16 0 0 0-3.166 3.15H3.292a.79.79 0 0 0-.792.787.79.79 0 0 0 .792.788M14.375 9.9a.79.79 0 0 0-.792.787v4.726a.79.79 0 0 0 .792.787.79.79 0 0 0 .792-.787v-4.726a.79.79 0 0 0-.792-.787m-4.486.045a.79.79 0 0 0-.792.787v4.725a.79.79 0 0 0 .792.788.79.79 0 0 0 .792-.788v-4.725a.79.79 0 0 0-.792-.787" clip-rule="evenodd"/>
</svg>
