<svg xmlns="http://www.w3.org/2000/svg" viewBox="0 0 24 24" fill="currentColor" aria-hidden="true" data-slot="icon">
  <path fill-rule="evenodd" d="M5.625 3.5A2.125 2.125 0 0 0 3.5 5.625v12.75c0 1.174.951 2.125 2.125 2.125h12.75a2.125 2.125 0 0 0 2.125-2.125V5.625A2.125 2.125 0 0 0 18.375 3.5zM16.25 6.688a1.063 1.063 0 0 0 0 2.125h.01a1.063 1.063 0 0 0 0-2.126h-.01ZM10.937 12c0-.587.476-1.063 1.063-1.063h.01a1.063 1.063 0 0 1 0 2.126H12A1.063 1.063 0 0 1 10.937 12M7.75 15.188a1.063 1.063 0 0 0 0 2.124h.01a1.063 1.063 0 0 0 0-2.125z" clip-rule="evenodd"/>
</svg>
