<svg xmlns="http://www.w3.org/2000/svg" viewBox="0 0 24 24" fill="currentColor" aria-hidden="true" data-slot="icon">
  <path fill-rule="evenodd" d="M3.5 6.333A2.833 2.833 0 0 1 6.333 3.5h11.334A2.833 2.833 0 0 1 20.5 6.333v11.334a2.833 2.833 0 0 1-2.833 2.833H6.333A2.833 2.833 0 0 1 3.5 17.667zm4.75.975a1.25 1.25 0 1 0 0 2.5 1.25 1.25 0 0 0 0-2.5m6.41 1.25a1.25 1.25 0 1 1 2.5 0 1.25 1.25 0 0 1-2.5 0M7 15.692a1.25 1.25 0 1 1 2.5 0 1.25 1.25 0 0 1-2.5 0m7.66.058a1.25 1.25 0 1 1 2.5 0 1.25 1.25 0 0 1-2.5 0" clip-rule="evenodd"/>
</svg>
