<svg xmlns="http://www.w3.org/2000/svg" viewBox="0 0 24 24" fill="currentColor" aria-hidden="true" data-slot="icon">
  <path d="M2.329 2a.83.83 0 0 0-.829.833v18.334c0 .46.371.833.829.833a.83.83 0 0 0 .829-.833V2.833A.83.83 0 0 0 2.328 2Zm18.513.833c0-.46.371-.833.83-.833a.83.83 0 0 1 .828.833v18.334a.83.83 0 0 1-.829.833.83.83 0 0 1-.829-.833zm-12.158 2.5c0-1.227.99-2.222 2.21-2.222h2.211c1.221 0 2.21.995 2.21 2.222v13.334a2.216 2.216 0 0 1-2.21 2.222h-2.21a2.216 2.216 0 0 1-2.21-2.222z"/>
</svg>
