<svg xmlns="http://www.w3.org/2000/svg" viewBox="0 0 24 24" fill="currentColor" aria-hidden="true" data-slot="icon">
  <path d="M5.5 6.99a1.25 1.25 0 1 1-2.5 0 1.25 1.25 0 0 1 2.5 0m.02 5.02a1.25 1.25 0 1 1-2.5 0 1.25 1.25 0 0 1 2.5 0m-.005 5a1.25 1.25 0 1 1-2.5 0 1.25 1.25 0 0 1 2.5 0M7 7.018a.75.75 0 0 1 .75-.75h12.5a.75.75 0 0 1 0 1.5H7.75a.75.75 0 0 1-.75-.75m0 5.037a.75.75 0 0 1 .75-.75h12.5a.75.75 0 0 1 0 1.5H7.75a.75.75 0 0 1-.75-.75m0 4.955a.75.75 0 0 1 .75-.75h12.5a.75.75 0 0 1 0 1.5H7.75a.75.75 0 0 1-.75-.75"/>
</svg>
