<svg xmlns="http://www.w3.org/2000/svg" viewBox="0 0 24 24" fill="currentColor" aria-hidden="true" data-slot="icon">
  <path fill-rule="evenodd" d="M12 21.5a9.5 9.5 0 1 0 0-19 9.5 9.5 0 0 0 0 19m2.85-11.319a1.425 1.425 0 1 0 0-2.85 1.425 1.425 0 0 0 0 2.85m.883 3.657c.292.144.415.5.236.771a4.75 4.75 0 0 1-7.891.07c-.184-.268-.067-.626.222-.775s.641-.031.836.23a3.573 3.573 0 0 0 5.766-.051c.19-.265.539-.389.83-.245ZM7.963 8.2a.713.713 0 0 0 0 1.425h2.375a.713.713 0 0 0 0-1.425z" clip-rule="evenodd"/>
</svg>
