<svg xmlns="http://www.w3.org/2000/svg" viewBox="0 0 24 24" fill="currentColor" aria-hidden="true" data-slot="icon">
  <path fill-rule="evenodd" d="M12 21.75c5.385 0 9.75-4.365 9.75-9.75S17.385 2.25 12 2.25 2.25 6.615 2.25 12s4.365 9.75 9.75 9.75M7.17 8.281a.75.75 0 1 0-1.172.937c.393.491 1.118 1.114 2.045 1.303 1.01.205 2.095-.138 3.026-1.303a.75.75 0 1 0-1.171-.937c-.629.786-1.169.849-1.556.77-.47-.096-.915-.448-1.173-.77Zm6.824 0a.75.75 0 1 0-1.171.937c.393.491 1.118 1.114 2.045 1.303 1.01.205 2.095-.138 3.026-1.303a.75.75 0 1 0-1.171-.937c-.628.786-1.169.849-1.556.77-.47-.096-.915-.448-1.173-.77m-5.356 7.754c.487-.626 1.411-1.373 2.556-1.588 1.091-.204 2.515.052 4.122 1.658a.75.75 0 0 0 1.06-1.06c-1.903-1.904-3.81-2.38-5.457-2.072-1.593.298-2.814 1.305-3.465 2.141a.75.75 0 1 0 1.184.921" clip-rule="evenodd"/>
</svg>
