<svg xmlns="http://www.w3.org/2000/svg" viewBox="0 0 24 24" fill="currentColor" aria-hidden="true" data-slot="icon">
  <path d="M9.574 16.537a3.43 3.43 0 0 1-.912-1.634h6.676a3.43 3.43 0 0 1-5.764 1.634"/>
  <path fill-rule="evenodd" d="M12 21.5a9.5 9.5 0 1 0 0-19 9.5 9.5 0 0 0 0 19M8.833 7.778a1.056 1.056 0 0 0 0 2.11h.01a1.056 1.056 0 1 0 0-2.11zm5.278 1.055c0-.583.473-1.055 1.056-1.055h.01a1.056 1.056 0 1 1 0 2.11h-.01a1.056 1.056 0 0 1-1.056-1.055M7.778 13.32a.79.79 0 0 0-.792.792 5.014 5.014 0 1 0 10.028 0 .79.79 0 0 0-.792-.792z" clip-rule="evenodd"/>
</svg>
