<svg xmlns="http://www.w3.org/2000/svg" viewBox="0 0 24 24" fill="currentColor" aria-hidden="true" data-slot="icon">
  <path fill-rule="evenodd" d="M12 21.5a9.5 9.5 0 1 0 0-19 9.5 9.5 0 0 0 0 19M8.675 10.1a1.425 1.425 0 1 0 0-2.85 1.425 1.425 0 0 0 0 2.85m8.075-1.425a1.425 1.425 0 1 1-2.85 0 1.425 1.425 0 0 1 2.85 0m-.781 7.243c.179.272.056.628-.236.771s-.641.02-.831-.244a3.572 3.572 0 0 0-5.766-.051c-.195.26-.546.378-.836.23-.289-.15-.406-.507-.222-.776a4.75 4.75 0 0 1 7.891.07" clip-rule="evenodd"/>
</svg>
