<svg xmlns="http://www.w3.org/2000/svg" viewBox="0 0 24 24" fill="currentColor" aria-hidden="true" data-slot="icon">
  <path fill-rule="evenodd" d="M6.875 1.75A3.075 3.075 0 0 0 3.8 4.825v14.35a3.075 3.075 0 0 0 3.075 3.075h10.25a3.075 3.075 0 0 0 3.075-3.075V4.825a3.075 3.075 0 0 0-3.075-3.075zm4.1 5.894a.769.769 0 0 1 1.537 0v10.762a.769.769 0 1 1-1.537 0zm-4.1 6.15a.769.769 0 0 1 1.537 0v4.612a.769.769 0 1 1-1.537 0zm8.969-3.844a.77.77 0 0 0-.77.769v7.687a.769.769 0 1 0 1.538 0V10.72a.77.77 0 0 0-.768-.769Z" clip-rule="evenodd"/>
</svg>
