<svg xmlns="http://www.w3.org/2000/svg" viewBox="0 0 24 24" fill="currentColor" aria-hidden="true" data-slot="icon">
  <path fill-rule="evenodd" d="M13.15 5a6.96 6.96 0 0 1 3.32 1.668.8.8 0 0 0 .797.172.7.7 0 0 0 .236-.14.595.595 0 0 0 .135-.727.7.7 0 0 0-.17-.215 8.5 8.5 0 0 0-3.705-1.961 8.6 8.6 0 0 0-4.211.015C8.19 4.165 6.973 4.852 6.03 5.8a6.7 6.7 0 0 0-1.836 3.396 18.6 18.6 0 0 0 .05 7.615.7.7 0 0 0 .307.424c.158.1.35.142.536.115a.7.7 0 0 0 .456-.259.6.6 0 0 0 .113-.484 17.4 17.4 0 0 1-.046-7.125c.31-1.53 1.279-2.863 2.693-3.703s3.158-1.12 4.848-.778Zm5.172 2.818a.7.7 0 0 0-.232.137.595.595 0 0 0-.147.712 5.47 5.47 0 0 1 .41 3.396 6.7 6.7 0 0 0 .434 3.999c.071.164.21.298.385.373a.8.8 0 0 0 .551.026.66.66 0 0 0 .395-.338.6.6 0 0 0 .006-.503 5.46 5.46 0 0 1-.354-3.27 6.7 6.7 0 0 0-.503-4.152.7.7 0 0 0-.158-.217.77.77 0 0 0-.512-.206.8.8 0 0 0-.275.043m-5.82.39a3.05 3.05 0 0 1 1.85 1.156c.433.589.6 1.302.462 1.982-.537 2.651.083 5.294 1.536 7.483q.076.113.191.194a.78.78 0 0 0 .8.053.63.63 0 0 0 .322-.397.62.62 0 0 0-.09-.5c-1.319-1.984-1.798-4.318-1.343-6.546.206-1.02-.043-2.09-.693-2.973s-1.65-1.507-2.776-1.735c-1.127-.229-2.289-.042-3.232.518s-1.588 1.449-1.795 2.47a15 15 0 0 0-.218 1.403.64.64 0 0 0 .159.486c.12.14.295.231.485.255a.75.75 0 0 0 .528-.127.62.62 0 0 0 .26-.434q.07-.645.202-1.297c.138-.68.568-1.272 1.197-1.646a3.05 3.05 0 0 1 2.154-.346Zm-.39 1.923a.76.76 0 0 0-.539.087.63.63 0 0 0-.3.411c-.676 3.342.049 6.673 1.797 9.478a.75.75 0 0 0 .438.32c.184.052.38.035.546-.047a.64.64 0 0 0 .334-.388.62.62 0 0 0-.073-.5c-1.642-2.629-2.219-5.671-1.625-8.576a.63.63 0 0 0-.116-.495.76.76 0 0 0-.462-.29m-3.955 3.813a.71.71 0 0 0-.487.22.6.6 0 0 0-.16.475c.19 1.794.69 3.561 1.48 5.235.077.162.22.292.397.362s.376.073.551.01a.65.65 0 0 0 .382-.35.6.6 0 0 0-.011-.503 15 15 0 0 1-1.367-4.831.67.67 0 0 0-.259-.453.8.8 0 0 0-.526-.165" clip-rule="evenodd"/>
</svg>
