<svg xmlns="http://www.w3.org/2000/svg" viewBox="0 0 24 24" fill="currentColor" aria-hidden="true" data-slot="icon">
  <path d="m18.964 11.224-2.529 2.684-6.463-6.402 3.363-3.568a.597.597 0 0 1 .984.174.58.58 0 0 1 .025.383l-1.58 5.737h5.766a.6.6 0 0 1 .545.355.58.58 0 0 1-.11.637ZM5.006 12.776l2.529-2.684 6.463 6.402-3.363 3.568a.597.597 0 0 1-.984-.174.6.6 0 0 1-.025-.384l1.58-5.736H5.441a.6.6 0 0 1-.546-.355.58.58 0 0 1 .111-.637m.26-8.263a.6.6 0 0 0-.826.014.587.587 0 0 0-.015.819l14.28 14.141a.595.595 0 0 0 .657.145.59.59 0 0 0 .372-.557.59.59 0 0 0-.189-.42z"/>
</svg>
