<svg xmlns="http://www.w3.org/2000/svg" viewBox="0 0 24 24" fill="currentColor" aria-hidden="true" data-slot="icon">
  <path fill-rule="evenodd" d="M6.984 4.25h10.032A4.43 4.43 0 0 1 21.4 8.052l1.168 8.176a3.085 3.085 0 0 1-3.054 3.522h-1.425a1.66 1.66 0 0 1-1.66-1.66 1.66 1.66 0 0 0-1.661-1.661H9.232a1.66 1.66 0 0 0-1.66 1.66A1.66 1.66 0 0 1 5.91 19.75H4.486a3.085 3.085 0 0 1-3.055-3.522L2.6 8.052A4.43 4.43 0 0 1 6.984 4.25m.782 3.321a.83.83 0 0 1 .83.83v1.385H9.98a.83.83 0 1 1 0 1.66H8.596v1.384a.83.83 0 0 1-1.66 0v-1.384H5.552a.83.83 0 1 1 0-1.66h1.384V8.402a.83.83 0 0 1 .83-.83Zm9.964.554a.83.83 0 0 1 .83.83v.554a.83.83 0 1 1-1.66 0v-.554a.83.83 0 0 1 .83-.83m-1.384 3.045a.83.83 0 1 0-1.66 0v.553a.83.83 0 0 0 1.66 0z" clip-rule="evenodd"/>
</svg>
