<svg xmlns="http://www.w3.org/2000/svg" viewBox="0 0 24 24" fill="currentColor" aria-hidden="true" data-slot="icon">
  <path d="M20.392 18.311A10.45 10.45 0 0 0 22.5 12a10.46 10.46 0 0 0-2.544-6.852c-.884.942-2.071 1.947-3.168 2.541A19.7 19.7 0 0 1 17.25 12c0 1.178-.097 2.312-.276 3.37 1.31.713 2.476 1.739 3.426 2.93zm-1.213 1.352c-.713-.878-1.638-1.908-2.588-2.566C15.695 20.32 13.974 22.5 12 22.5h-.006c-1.98-.004-3.705-2.202-4.597-5.445-.963.596-2.076 1.518-2.85 2.34a10.47 10.47 0 0 0 7.447 3.105"/>
  <path d="M12 22.5c2.776 0 5.301-1.078 7.179-2.837zm6.907-18.41c-.71.74-1.668 1.561-2.537 2.09C15.43 3.359 13.823 1.5 12 1.5S8.572 3.357 7.63 6.176c-.866-.534-1.826-1.357-2.534-2.088A10.46 10.46 0 0 1 12 1.5c2.644 0 5.06.978 6.907 2.59M4.025 5.17l-.003.007A10.5 10.5 0 0 0 7.21 7.694 19.7 19.7 0 0 0 6.75 12c0 1.168.095 2.292.271 3.341-1.252.646-2.69 1.58-3.66 2.629A10.45 10.45 0 0 1 1.5 12c0-2.608.951-4.994 2.525-6.83M15.75 12c0 .89-.08 1.816-.226 2.721a10.5 10.5 0 0 0-3.51-.62c-1.207-.005-2.402.2-3.54.603-.145-.9-.224-1.82-.224-2.704 0-1.212.148-2.493.41-3.695a10.5 10.5 0 0 0 6.68 0c.262 1.202.41 2.483.41 3.695m-3.742 3.786a9 9 0 0 0-3.188.575c.663 2.545 1.84 4.583 3.18 4.583 1.338 0 2.512-2.029 3.176-4.566a9 9 0 0 0-3.168-.592"/>
  <path d="M12.03 7.333a9 9 0 0 1-2.978-.498c.686-2.157 1.752-3.78 2.948-3.78s2.261 1.623 2.948 3.78a9 9 0 0 1-2.917.498Z"/>
</svg>
