<svg xmlns="http://www.w3.org/2000/svg" viewBox="0 0 24 24" fill="currentColor" aria-hidden="true" data-slot="icon">
  <path fill-rule="evenodd" d="m6.62 7.522.812-3.25A3 3 0 0 1 10.342 2h3.316a3 3 0 0 1 2.91 2.272l.813 3.25A6.97 6.97 0 0 1 19 12a6.97 6.97 0 0 1-1.62 4.478l-.812 3.25A3 3 0 0 1 13.658 22h-3.316a3 3 0 0 1-2.91-2.272l-.812-3.25A6.97 6.97 0 0 1 5 12c0-1.703.608-3.264 1.62-4.478M8.263 6.08l.53-1.855a1 1 0 0 1 .961-.725h4.492a1 1 0 0 1 .961.725l.53 1.855A6.97 6.97 0 0 0 12 5a6.97 6.97 0 0 0-3.737 1.08M12 19a6.97 6.97 0 0 0 3.737-1.08l-.53 1.855a1 1 0 0 1-.961.725H9.754a1 1 0 0 1-.961-.725l-.53-1.855A6.97 6.97 0 0 0 12 19m.333-9.333v2.862l1.937 1.026a.668.668 0 1 1-.643 1.17l-2.424-1.375a.4.4 0 0 1-.203-.348V9.667a.667.667 0 0 1 1.333 0" clip-rule="evenodd"/>
</svg>
