<svg xmlns="http://www.w3.org/2000/svg" viewBox="0 0 24 24" fill="currentColor" aria-hidden="true" data-slot="icon">
  <path fill-rule="evenodd" d="M21.75 12c0 5.385-4.365 9.75-9.75 9.75S2.25 17.385 2.25 12 6.615 2.25 12 2.25s9.75 4.365 9.75 9.75M10.86 6.49a3.737 3.737 0 1 1 1.71 7.254v.694a.813.813 0 0 1-1.625 0v-1.355c0-.547.461-.944.965-.922a2.113 2.113 0 1 0-2.015-2.286.812.812 0 1 1-1.62-.134 3.74 3.74 0 0 1 2.585-3.25ZM12 16.333a1.083 1.083 0 0 0 0 2.167h.01a1.083 1.083 0 1 0 0-2.167z" clip-rule="evenodd"/>
</svg>
