<svg xmlns="http://www.w3.org/2000/svg" viewBox="0 0 24 24" fill="currentColor" aria-hidden="true" data-slot="icon">
  <path d="M19.25 2.5a.75.75 0 0 0-1.5 0v2.25H15.5a.75.75 0 0 0 0 1.5h2.25V8.5a.75.75 0 0 0 1.5 0V6.25h2.25a.75.75 0 0 0 0-1.5h-2.25zM5.5 2.75A3.75 3.75 0 0 0 1.75 6.5v13a2.75 2.75 0 0 0 2.75 2.75h13a.8.8 0 0 0 .16-.017h.255a3 3 0 0 0 3-3v-2.52a1 1 0 0 0-.376-.78l-3.958-3.167a1 1 0 0 0-1.297.04L6.546 20.75H4.5c-.69 0-1.25-.56-1.25-1.25v-13A2.25 2.25 0 0 1 5.5 4.25h7a.75.75 0 0 0 0-1.5z"/>
  <path fill-rule="evenodd" d="M8 5.75a3.25 3.25 0 1 0 0 6.5 3.25 3.25 0 0 0 0-6.5M6.25 9a1.75 1.75 0 1 1 3.5 0 1.75 1.75 0 0 1-3.5 0" clip-rule="evenodd"/>
</svg>
