<svg xmlns="http://www.w3.org/2000/svg" viewBox="0 0 24 24" fill="currentColor" aria-hidden="true" data-slot="icon">
  <path fill-rule="evenodd" d="M5 6a3 3 0 0 0-3 3v6a3 3 0 0 0 3 3h14a3 3 0 0 0 3-3V9a3 3 0 0 0-3-3zm.75 5.5a.75.75 0 1 0 0-1.5.75.75 0 0 0 0 1.5m4 0a.75.75 0 1 0 0-1.5.75.75 0 0 0 0 1.5m4.75-.75a.75.75 0 1 1-1.5 0 .75.75 0 0 1 1.5 0m3.25.75a.75.75 0 1 0 0-1.5.75.75 0 0 0 0 1.5m-1.25 2.25a.75.75 0 1 1-1.5 0 .75.75 0 0 1 1.5 0m-4.75.75a.75.75 0 1 0 0-1.5.75.75 0 0 0 0 1.5m-3.25-.75a.75.75 0 1 1-1.5 0 .75.75 0 0 1 1.5 0" clip-rule="evenodd"/>
</svg>
