<svg xmlns="http://www.w3.org/2000/svg" viewBox="0 0 24 24" fill="currentColor" aria-hidden="true" data-slot="icon">
  <path fill-rule="evenodd" d="m2.537 6.859 8.998-4.5a1.04 1.04 0 0 1 .93 0l8.998 4.5a.52.52 0 0 1 0 .93l-3.501 1.75 3.57 1.983a.52.52 0 0 1-.02.919l-3.55 1.774 3.57 1.983a.52.52 0 0 1-.02.92l-9.047 4.522a1.04 1.04 0 0 1-.93 0L2.49 17.117a.52.52 0 0 1-.02-.919l3.57-1.983-3.55-1.774a.52.52 0 0 1-.02-.92l3.57-1.982-3.502-1.75a.52.52 0 0 1 0-.93Zm4.595 3.227L3.686 12 12 16.157 20.314 12l-3.446-1.914-4.403 2.201a1.04 1.04 0 0 1-.93 0z" clip-rule="evenodd"/>
</svg>
