<svg xmlns="http://www.w3.org/2000/svg" viewBox="0 0 24 24" fill="currentColor" aria-hidden="true" data-slot="icon">
  <path d="M2.25 3A.75.75 0 0 1 3 2.25h18a.75.75 0 0 1 0 1.5H3A.75.75 0 0 1 2.25 3"/>
  <path fill-rule="evenodd" d="M12 5.75a.75.75 0 0 1 .677.428l5 10.5a.75.75 0 1 1-1.354.645l-1.701-3.573H9.378l-1.7 3.573a.75.75 0 0 1-1.355-.645l5-10.5A.75.75 0 0 1 12 5.75m-1.907 6.5h3.814L12 8.244z" clip-rule="evenodd"/>
  <path d="M2.25 21a.75.75 0 0 1 .75-.75h18a.75.75 0 0 1 0 1.5H3a.75.75 0 0 1-.75-.75"/>
</svg>
