<svg xmlns="http://www.w3.org/2000/svg" viewBox="0 0 24 24" fill="currentColor" aria-hidden="true" data-slot="icon">
  <path fill-rule="evenodd" d="M15.277 15.25a6.497 6.497 0 0 0 6.456-6.967A6.5 6.5 0 1 0 8.81 9.623c.026.19.035.382.015.573a2.04 2.04 0 0 1-.586 1.233l-5.036 5.036a3.25 3.25 0 0 0-.952 2.298v1.904c0 .598.485 1.083 1.083 1.083h1.625c.898 0 1.625-.727 1.625-1.625 0-.3.243-.542.542-.542h.542c.598 0 1.083-.485 1.083-1.083s.485-1.083 1.083-1.083h.622c.295 0 .577-.12.781-.333l.652-.68c.857-.892 2.152-1.149 3.39-1.154Zm-.027-9.48a.813.813 0 0 0 0 1.626c.231 0 .596.076.88.28.242.174.474.472.474 1.074a.812.812 0 1 0 1.625 0c0-1.131-.49-1.917-1.15-2.393a3.23 3.23 0 0 0-1.829-.586Z" clip-rule="evenodd"/>
</svg>
