<svg xmlns="http://www.w3.org/2000/svg" viewBox="0 0 24 24" fill="currentColor" aria-hidden="true" data-slot="icon">
  <path fill-rule="evenodd" d="M10.939 15.5V3.297a.796.796 0 0 1 1.06-.75V2.5l6.16 3.79a.5.5 0 0 1-.025.866l-5.604 3.018V15.5a.796.796 0 0 1-1.591 0m11.143 1.67c0 2.813-5.195 4.33-10.082 4.33S1.918 19.983 1.918 17.17c0-.698.343-1.726 1.98-2.653 1.104-.626 2.622-1.107 4.39-1.391a.72.72 0 0 1 .814.883.72.72 0 0 1-.588.545c-1.58.254-2.971.688-3.909 1.222-.792.447-1.247.955-1.247 1.394 0 1.205 3.288 2.887 8.642 2.887s8.642-1.682 8.642-2.887c0-.439-.455-.947-1.247-1.398-.942-.534-2.33-.967-3.909-1.222a.72.72 0 0 1-.617-.83.723.723 0 0 1 .846-.594c1.769.284 3.287.765 4.39 1.39 1.634.928 1.977 1.956 1.977 2.654" clip-rule="evenodd"/>
</svg>
