<svg xmlns="http://www.w3.org/2000/svg" viewBox="0 0 24 24" fill="currentColor" aria-hidden="true" data-slot="icon">
  <path d="M2.454 2.291a.8.8 0 0 0 0 1.132l6.495 6.495a.26.26 0 0 0-.06.171v1.854a3.5 3.5 0 0 0 3.5 3.5h2.085l1.049 1.049a5.5 5.5 0 0 1-9.135-4.128v-2.171a.75.75 0 0 0-1.5 0v2.25a7 7 0 0 0 6 6.929v1.07h-2.75a.75.75 0 0 0 0 1.5h7a.75.75 0 0 0 0-1.5h-2.75v-1.017a6.97 6.97 0 0 0 4.239-1.83l3.788 3.788a.8.8 0 1 0 1.131-1.131l-3.87-3.87a6.97 6.97 0 0 0 1.212-3.94v-2.25a.75.75 0 0 0-1.5 0v2.172a5.5 5.5 0 0 1-.827 2.903L3.585 2.29a.8.8 0 0 0-1.131 0Z"/>
  <path d="M11.322 3.443h.566a3 3 0 0 1 3 3v4.005c0 .38-.453.58-.733.322L8.938 5.988a.15.15 0 0 1-.05-.112 2.433 2.433 0 0 1 2.434-2.433"/>
</svg>
