<svg xmlns="http://www.w3.org/2000/svg" viewBox="0 0 24 24" fill="currentColor" aria-hidden="true" data-slot="icon">
  <path fill-rule="evenodd" d="M18.227 2.509a2.026 2.026 0 0 1 2.86 2.86l-7.763 8.776-3.873-3.873zM7.833 11.703l4.06 4.06-1.182 1.336a1.08 1.08 0 0 1-1.57.048l-.854-.855q.127.145.224.294c1.288 1.976-1.163 4.512-2.617 4.963-.436.15-1.745.451-3.49.451.437-1.053.54-3.234.437-4.511s.853-2.29 2.259-2.497c.983-.145 2.141.34 2.891 1.005l-1.542-1.542a1.08 1.08 0 0 1 .048-1.57z" clip-rule="evenodd"/>
</svg>
