<svg xmlns="http://www.w3.org/2000/svg" viewBox="0 0 24 24" fill="currentColor" aria-hidden="true" data-slot="icon">
  <path d="M9.988 8.85A2 2 0 0 0 12 10.838a2 2 0 0 0 2.012-1.988A2 2 0 0 0 12 6.862 2 2 0 0 0 9.988 8.85"/>
  <path fill-rule="evenodd" d="M3.5 4.65c0-1.74 1.427-3.15 3.188-3.15h10.625c1.76 0 3.187 1.41 3.187 3.15v14.7c0 1.74-1.427 3.15-3.188 3.15H6.688c-1.76 0-3.187-1.41-3.187-3.15zm11.688 4.2C15.188 10.59 13.76 12 12 12s-3.188-1.41-3.188-3.15S10.24 5.7 12 5.7s3.188 1.41 3.188 3.15m-5.58 7.35a.79.79 0 0 0-.796.788c0 .434.356.787.796.787h4.782c.44 0 .796-.353.796-.787a.79.79 0 0 0-.796-.788z" clip-rule="evenodd"/>
</svg>
