<svg xmlns="http://www.w3.org/2000/svg" viewBox="0 0 24 24" fill="currentColor" aria-hidden="true" data-slot="icon">
  <path d="M17.487 8.877c.312-.149.442-.517.26-.805A6.55 6.55 0 0 0 15.66 6.01a6.77 6.77 0 0 0-3.429-1.009 6.8 6.8 0 0 0-3.468.873 6.6 6.6 0 0 0-2.171 1.978c-.194.28-.079.653.226.814.305.162.684.05.884-.226a5.3 5.3 0 0 1 1.692-1.508 5.5 5.5 0 0 1 2.812-.708c.986.02 1.948.302 2.78.818.655.406 1.21.943 1.628 1.574.189.283.562.41.873.261m1.506 9.96h.79c1.225 0 2.217-.966 2.217-2.157v-.938c0-.914-.493-1.76-1.297-2.23a17.31 17.31 0 0 0-16.89-.28l-.376.203a2.7 2.7 0 0 0-1.43 2.554l.065.96c.083 1.22 1.173 2.138 2.425 2.044l.595-.044c.84-.063 1.49-.745 1.49-1.565 0-.688.46-1.296 1.134-1.5l1.004-.302a12.65 12.65 0 0 1 6.361-.244l1.245.274c.75.164 1.252.851 1.168 1.595-.1.87.6 1.63 1.499 1.63"/>
  <path d="M15.683 9.656c.206.277.08.654-.231.81-.312.158-.69.033-.914-.23a3 3 0 0 0-.75-.634 3.06 3.06 0 0 0-3.107-.01 3 3 0 0 0-.754.63c-.225.262-.605.384-.915.226-.311-.16-.434-.537-.227-.812a4.2 4.2 0 0 1 1.24-1.103 4.35 4.35 0 0 1 2.214-.595 4.35 4.35 0 0 1 2.211.608c.485.288.903.666 1.233 1.11"/>
</svg>
