<svg xmlns="http://www.w3.org/2000/svg" viewBox="0 0 24 24" fill="currentColor" aria-hidden="true" data-slot="icon">
  <path d="m13.614 20.622 1.548-5.39c.05-.172.142-.329.27-.455l1.83-1.822a1 1 0 0 1 .204-.159l4.02-2.4a1.05 1.05 0 0 0 .204-1.647l-6.473-6.44a1.062 1.062 0 0 0-1.696.273L11.608 6.39q-.077.154-.198.274L9.582 8.482a1.1 1.1 0 0 1-.392.247l-5.612 1.994a1.05 1.05 0 0 0-.393 1.737l3.64 3.622-4.592 4.57a.787.787 0 0 0 0 1.117.797.797 0 0 0 1.123 0l4.593-4.57 3.898 3.879a1.06 1.06 0 0 0 1.767-.456"/>
</svg>
