<svg xmlns="http://www.w3.org/2000/svg" viewBox="0 0 24 24" fill="currentColor" aria-hidden="true" data-slot="icon">
  <path d="M15.06 5.813c0-.33.176-.628.38-.89.21-.27.331-.59.331-.932 0-.962-.956-1.741-2.135-1.741s-2.135.78-2.135 1.741c0 .343.122.662.331.932.204.262.38.56.38.89v.904a.41.41 0 0 1-.415.408q-2.681 0-5.285-.297c.2 1.697.304 3.423.304 5.172v.029l-.933.005c-.337.002-.643-.17-.912-.368a1.6 1.6 0 0 0-.954-.319c-.982.006-1.773.945-1.767 2.1.006 1.153.808 2.084 1.79 2.079.35-.002.677-.123.95-.33.268-.2.571-.375.908-.377a.754.754 0 0 1 .77.804 44 44 0 0 1-.86 5.745c1.96.252 3.96.382 5.99.382.23 0 .415-.183.415-.409v-.903c0-.33-.177-.628-.38-.89a1.5 1.5 0 0 1-.332-.932c0-.962.956-1.741 2.135-1.741 1.18 0 2.135.78 2.135 1.741 0 .343-.121.662-.33.932-.205.262-.382.56-.382.89v.078c0 .606.526 1.086 1.142 1.028a46 46 0 0 0 4.658-.676 44 44 0 0 0 .759-5.32.76.76 0 0 0-.775-.808c-.337.001-.641.176-.908.377-.274.207-.6.327-.95.329-.983.005-1.784-.926-1.79-2.08s.784-2.093 1.767-2.098c.35-.002.677.115.953.318.27.199.575.37.912.368.516-.003.934-.413.923-.918a44 44 0 0 0-.38-4.897 46 46 0 0 1-5.169.78 1.04 1.04 0 0 1-1.142-1.028z"/>
</svg>
