<svg xmlns="http://www.w3.org/2000/svg" viewBox="0 0 24 24" fill="currentColor" aria-hidden="true" data-slot="icon">
  <path d="M7.505 9.174a3 3 0 1 0-1.549.781q.091.121.23.2L9.482 12l-3.296 1.846a.8.8 0 0 0-.193.155L5.938 14a3 3 0 1 0 1.872.655l3.207-1.795 7.669 4.294a.75.75 0 1 0 .733-1.308L12.552 12l6.867-3.846a.75.75 0 0 0-.733-1.308l-7.67 4.294-3.51-1.966Z"/>
  <path d="M15.552 12a1 1 0 0 1 1-1h.01a1 1 0 1 1 0 2h-.01a1 1 0 0 1-1-1m4 0a1 1 0 0 1 1-1h.01a1 1 0 1 1 0 2h-.01a1 1 0 0 1-1-1"/>
</svg>
