<svg xmlns="http://www.w3.org/2000/svg" viewBox="0 0 24 24" fill="currentColor" aria-hidden="true" data-slot="icon">
  <path d="M10.97 2.47a.75.75 0 0 1 1.06 0l2.5 2.5a.75.75 0 0 1-1.06 1.06l-1.22-1.22V9a.75.75 0 0 1-1.5 0V4.81L9.53 6.03a.75.75 0 0 1-1.06-1.06zM6 15.25a.75.75 0 0 1 .75.75v.5a.75.75 0 0 1-1.5 0V16a.75.75 0 0 1 .75-.75m4.25 1.25a.75.75 0 0 1 .75-.75h6a.75.75 0 0 1 0 1.5h-6a.75.75 0 0 1-.75-.75"/>
  <path fill-rule="evenodd" d="M1.25 16.5c0-2.9 2.35-5.25 5.25-5.25h11a5.25 5.25 0 1 1 0 10.5h-11a5.25 5.25 0 0 1-5.25-5.25m5.25-3.75a3.75 3.75 0 1 0 0 7.5h11a3.75 3.75 0 1 0 0-7.5z" clip-rule="evenodd"/>
</svg>
