<svg xmlns="http://www.w3.org/2000/svg" viewBox="0 0 24 24" fill="currentColor" aria-hidden="true" data-slot="icon">
  <path d="M3.375 2.625a.75.75 0 0 0 0 1.5h.96c.07 0 .149.058.155.161l.8 13.039c.053.87.764 1.57 1.651 1.57h11.824a.75.75 0 1 0 0-1.5H6.941c-.069 0-.148-.059-.155-.162l-.171-2.8a1 1 0 0 0 .19.019h12.96a.91.91 0 0 0 .9-.821l.704-6.462a.917.917 0 0 0-.9-1.025H6.42a1 1 0 0 0-.31.049l-.122-1.998a1.663 1.663 0 0 0-1.652-1.57h-.96Zm4 17.75a1 1 0 0 1 1-1h.01a1 1 0 1 1 0 2h-.01a1 1 0 0 1-1-1m9-1a1 1 0 1 0 0 2h.01a1 1 0 1 0 0-2z"/>
</svg>
