<svg xmlns="http://www.w3.org/2000/svg" viewBox="0 0 24 24" fill="currentColor" aria-hidden="true" data-slot="icon">
  <path d="M8.22 1.47a.75.75 0 0 1 1.06 0l2.47 2.47 2.47-2.47a.75.75 0 0 1 1.06 1.06L12.5 5.31v5.434l5.103-2.747.92-3.679a.75.75 0 1 1 1.455.364l-.818 3.272 3.272.818a.75.75 0 0 1-.364 1.456l-3.718-.93-5.067 2.728 4.581 2.672 3.704-.926a.75.75 0 0 1 .364 1.456l-3.272.818.818 3.272a.75.75 0 0 1-1.455.364l-.924-3.693-4.599-2.683v5.383l2.78 2.78a.75.75 0 1 1-1.06 1.061l-2.47-2.47-2.47 2.47a.75.75 0 0 1-1.06-1.06L11 18.69v-5.324l-4.095 2.606-.927 3.71a.75.75 0 0 1-1.455-.364l.818-3.272-3.273-.818a.75.75 0 0 1 .364-1.456l3.687.922 4.19-2.666-4.673-2.726-3.704.926a.75.75 0 1 1-.364-1.456L4.86 7.95l-.842-3.787a.75.75 0 1 1 1.464-.326l.93 4.18L11 10.694V5.311L8.22 2.53a.75.75 0 0 1 0-1.061Z"/>
</svg>
