<svg xmlns="http://www.w3.org/2000/svg" viewBox="0 0 24 24" fill="currentColor" aria-hidden="true" data-slot="icon">
  <path d="M8.73 2.981c0-.404.328-.731.732-.731h4.387a.731.731 0 1 1 0 1.462H9.462a.73.73 0 0 1-.732-.73Z"/>
  <path fill-rule="evenodd" d="M20.43 12.975a8.75 8.75 0 0 0-2.57-6.205l1.595-1.595.488.487a.69.69 0 1 0 .975-.974l-1.95-1.95a.69.69 0 1 0-.975.974l.487.488-1.671 1.672a8.775 8.775 0 1 0 3.622 7.103ZM9.462 11.512h3.168l-3.556 3.112a1.006 1.006 0 0 0 .662 1.763h4.113a.731.731 0 1 0 0-1.462H10.68l3.557-3.112a1.006 1.006 0 0 0-.663-1.763H9.462a.731.731 0 1 0 0 1.462" clip-rule="evenodd"/>
</svg>
