<svg xmlns="http://www.w3.org/2000/svg" viewBox="0 0 24 24" fill="currentColor" aria-hidden="true" data-slot="icon">
  <path fill-rule="evenodd" d="M5.28 3.5C3.745 3.5 2.5 4.769 2.5 6.333v6.611c0 1.493 1.132 2.715 2.569 2.826a2.85 2.85 0 0 0-.715 1.897c0 1.564 1.244 2.833 2.78 2.833s2.78-1.268 2.78-2.833c0-.726-.267-1.388-.707-1.89h6.05a2.85 2.85 0 0 0-.708 1.89c0 1.564 1.245 2.833 2.78 2.833 1.536 0 2.78-1.269 2.78-2.833 0-.726-.267-1.388-.707-1.89h1.635a.47.47 0 0 0 .463-.471v-4.98a.48.48 0 0 0-.158-.356l-3.418-3.048a.46.46 0 0 0-.305-.116h-2.143v-.473c0-1.564-1.245-2.833-2.78-2.833zm10.196 4.722v5.796h4.17a.47.47 0 0 0 .464-.473v-2.74a.48.48 0 0 0-.167-.363l-2.485-2.11a.46.46 0 0 0-.296-.11zm3.47 9.551c0 .913-.726 1.653-1.622 1.653-.895 0-1.622-.74-1.622-1.653s.727-1.653 1.622-1.653 1.622.74 1.622 1.653M7.134 19.32c.896 0 1.622-.74 1.622-1.652 0-.913-.726-1.653-1.622-1.653s-1.622.74-1.622 1.653c0 .912.726 1.652 1.622 1.652" clip-rule="evenodd"/>
</svg>
