<svg xmlns="http://www.w3.org/2000/svg" viewBox="0 0 24 24" fill="currentColor" aria-hidden="true" data-slot="icon">
  <path d="M13.856 7.368c0 2.274-1.9 4.117-4.242 4.117S5.371 9.642 5.371 7.368s1.9-4.118 4.243-4.118 4.242 1.844 4.242 4.118M3.25 15.603c0-1.421 1.187-2.574 2.652-2.574h7.424c1.464 0 2.651 1.153 2.651 2.574v4.941a.21.21 0 0 1-.212.206H3.462a.21.21 0 0 1-.212-.206zm14.583-6.691a.784.784 0 0 1-.795-.772V6.853h-1.326a.784.784 0 0 1-.795-.772c0-.427.356-.772.795-.772h1.326V4.022c0-.426.356-.772.795-.772s.796.346.796.772V5.31h1.325c.44 0 .796.345.796.772a.784.784 0 0 1-.796.772H18.63V8.14a.784.784 0 0 1-.796.772Z"/>
</svg>
