<svg xmlns="http://www.w3.org/2000/svg" viewBox="0 0 24 24" fill="currentColor" aria-hidden="true" data-slot="icon">
  <path fill-rule="evenodd" d="m8.583 6.25.278-1.664a1 1 0 0 1 .986-.836h4.306a1 1 0 0 1 .986.836l.278 1.664zm-1.524.235.593-2.669A2 2 0 0 1 9.604 2.25h4.792a2 2 0 0 1 1.952 1.566l.593 2.669A2 2 0 0 1 18 8.25v8a2 2 0 0 1-1.184 1.826l-.468 2.108a2 2 0 0 1-1.952 1.566H9.604a2 2 0 0 1-1.952-1.566l-.468-2.108A2 2 0 0 1 6 16.25v-8a2 2 0 0 1 1.059-1.765M8.667 18.25h6.666l-.194 1.164a1 1 0 0 1-.986.836H9.847a1 1 0 0 1-.986-.836zm3.666-8.333v2.862l1.937 1.026a.668.668 0 1 1-.643 1.17L11.204 13.6a.4.4 0 0 1-.203-.348V9.917a.667.667 0 0 1 1.333 0Z" clip-rule="evenodd"/>
</svg>
