<svg xmlns="http://www.w3.org/2000/svg" width="24" height="24" fill="none" viewBox="0 0 24 24">
  <path fill="#000" d="M19.53 2.47a.75.75 0 1 0-1.06 1.06l1.06-1.06Zm1.94 4.06a.75.75 0 1 0 1.06-1.06l-1.06 1.06ZM8.352 5.047a.75.75 0 0 0 .625 1.363l-.625-1.363ZM18.563 16.08a.75.75 0 1 0 1.358.637l-1.358-.637ZM6.873 7.873a.75.75 0 0 0-1.06-1.06l1.06 1.06Zm11.765 10.828a.75.75 0 0 0-1.138-.977l1.138.977ZM1.47 5.47a.75.75 0 0 0 1.06 1.06L1.47 5.47Zm2.06-3a.75.75 0 0 0-1.06 1.06l1.06-1.06Zm16.94 19.06a.75.75 0 1 0 1.06-1.06l-1.06 1.06Zm-17-1.06a.75.75 0 1 0 1.06 1.06l-1.06-1.06Zm3.06-.94a.75.75 0 1 0-1.06-1.06l1.06 1.06Zm11.94-16 3 3 1.06-1.06-3-3-1.06 1.06ZM8.977 6.41a7.25 7.25 0 0 1 4.32-.543l.268-1.476a8.75 8.75 0 0 0-5.213.656l.625 1.363Zm4.32-.543a7.25 7.25 0 0 1 3.852 2.029l1.065-1.056a8.75 8.75 0 0 0-4.65-2.449l-.267 1.476Zm3.852 2.029a7.25 7.25 0 0 1 1.995 3.869l1.478-.256a8.75 8.75 0 0 0-2.408-4.67l-1.065 1.057Zm1.995 3.869a7.25 7.25 0 0 1-.58 4.315l1.357.637a8.75 8.75 0 0 0 .701-5.207l-1.478.255ZM5.813 6.813a8.75 8.75 0 0 0-1.928 2.915l1.39.561a7.25 7.25 0 0 1 1.598-2.416l-1.06-1.06ZM3.885 9.728a8.75 8.75 0 0 0-.633 3.438l1.5-.029a7.25 7.25 0 0 1 .524-2.848l-1.391-.56Zm-.633 3.438a8.75 8.75 0 0 0 .762 3.41l1.37-.612a7.25 7.25 0 0 1-.633-2.827l-1.5.029Zm.762 3.41a8.75 8.75 0 0 0 2.038 2.841l1.02-1.1a7.25 7.25 0 0 1-1.689-2.353l-1.369.613Zm2.038 2.841a8.748 8.748 0 0 0 2.986 1.816l.508-1.411a7.25 7.25 0 0 1-2.475-1.505l-1.02 1.1Zm2.986 1.816a8.751 8.751 0 0 0 3.46.503l-.086-1.498a7.25 7.25 0 0 1-2.866-.416l-.508 1.411Zm3.46.503a8.75 8.75 0 0 0 3.379-.892l-.665-1.344a7.251 7.251 0 0 1-2.8.738l.085 1.498Zm3.379-.892a8.753 8.753 0 0 0 2.76-2.143l-1.137-.977a7.249 7.249 0 0 1-2.288 1.776l.665 1.344ZM2.53 6.53l2-2-1.06-1.06-2 2 1.06 1.06Zm2-3.06-1-1-1.06 1.06 1 1 1.06-1.06ZM3.47 4.53l17 17 1.06-1.06-17-17-1.06 1.06Zm1.06 17 2-2-1.06-1.06-2 2 1.06 1.06Z"/>
</svg>
