<svg xmlns="http://www.w3.org/2000/svg" width="24" height="24" fill="none" viewBox="0 0 24 24">
  <path fill="#000" d="M12.75 9.514a.75.75 0 0 0-1.5 0h1.5Zm-.75 3h-.75c0 .199.079.39.22.53l.53-.53Zm1.47 2.53a.75.75 0 1 0 1.06-1.06l-1.06 1.06ZM16.907 2.27a.75.75 0 0 0 .186 1.488l-.186-1.488Zm3.343 4.244a.75.75 0 0 0 1.5 0h-1.5ZM6.907 3.758a.75.75 0 0 0 .186-1.488l-.186 1.488ZM2.25 6.514a.75.75 0 0 0 1.5 0h-1.5Zm4.78 12.53a.75.75 0 0 0-1.06-1.06l1.06 1.06Zm-3.56 1.44a.75.75 0 0 0 1.06 1.06l-1.06-1.06Zm15.116-2.439a.75.75 0 0 0-1.172.937l1.172-.937Zm.828 3.437a.75.75 0 0 0 1.172-.937l-1.172.937Zm-.164-8.968a7.25 7.25 0 0 1-7.25 7.25v1.5a8.75 8.75 0 0 0 8.75-8.75h-1.5ZM12 19.764a7.25 7.25 0 0 1-7.25-7.25h-1.5a8.75 8.75 0 0 0 8.75 8.75v-1.5Zm-7.25-7.25A7.25 7.25 0 0 1 12 5.264v-1.5a8.75 8.75 0 0 0-8.75 8.75h1.5ZM12 5.264a7.25 7.25 0 0 1 7.25 7.25h1.5A8.75 8.75 0 0 0 12 3.764v1.5Zm-.75 4.25v3h1.5v-3h-1.5Zm.22 3.53 2 2 1.06-1.06-2-2-1.06 1.06Zm5.623-9.286c1.669-.208 3.157 1.092 3.157 2.756h1.5c0-2.584-2.297-4.563-4.843-4.244l.186 1.488Zm-10-1.488C4.547 1.95 2.25 3.93 2.25 6.514h1.5c0-1.664 1.488-2.964 3.157-2.756l.186-1.488ZM5.97 17.984l-2.5 2.5 1.06 1.06 2.5-2.5-1.06-1.06Zm11.444.998 2 2.5 1.172-.937-2-2.5-1.172.937Z"/>
</svg>
