<svg xmlns="http://www.w3.org/2000/svg" width="24" height="24" fill="none" viewBox="0 0 24 24">
  <path fill="#000" d="M19.53 2.47a.75.75 0 1 0-1.06 1.06l1.06-1.06Zm1.94 4.06a.75.75 0 1 0 1.06-1.06l-1.06 1.06Zm-15.94-3a.75.75 0 0 0-1.06-1.06l1.06 1.06ZM1.47 5.47a.75.75 0 0 0 1.06 1.06L1.47 5.47Zm5.06 14.06a.75.75 0 1 0-1.06-1.06l1.06 1.06Zm-3.06.94a.75.75 0 1 0 1.06 1.06l-1.06-1.06Zm15.06-2a.75.75 0 1 0-1.06 1.06l1.06-1.06Zm.94 3.06a.75.75 0 1 0 1.06-1.06l-1.06 1.06ZM12.25 10a.75.75 0 0 0-1.5 0h1.5Zm-.75 4h-.75a.75.75 0 0 0 .281.586L11.5 14Zm2.031 2.586a.75.75 0 0 0 .938-1.172l-.938 1.172ZM18.47 3.53l3 3 1.06-1.06-3-3-1.06 1.06Zm-14-1.06-3 3 1.06 1.06 3-3-1.06-1.06Zm1 16-2 2 1.06 1.06 2-2-1.06-1.06Zm12 1.06 2 2 1.06-1.06-2-2-1.06 1.06ZM19.25 13A7.25 7.25 0 0 1 12 20.25v1.5A8.75 8.75 0 0 0 20.75 13h-1.5ZM12 20.25A7.25 7.25 0 0 1 4.75 13h-1.5A8.75 8.75 0 0 0 12 21.75v-1.5ZM4.75 13A7.25 7.25 0 0 1 12 5.75v-1.5A8.75 8.75 0 0 0 3.25 13h1.5ZM12 5.75A7.25 7.25 0 0 1 19.25 13h1.5A8.75 8.75 0 0 0 12 4.25v1.5ZM10.75 10v4h1.5v-4h-1.5Zm.281 4.586 2.5 2 .938-1.172-2.5-2-.938 1.172Z"/>
</svg>
