<svg xmlns="http://www.w3.org/2000/svg" width="24" height="24" fill="none" viewBox="0 0 24 24">
  <path stroke="#000" stroke-linecap="round" stroke-linejoin="round" stroke-width="1.5" d="M14.92 8.542A1.943 1.943 0 0 0 13.572 8c-.504 0-.988.195-1.348.542l-.231.303-.27-.227a1.864 1.864 0 0 0-1.387-.59 1.89 1.89 0 0 0-1.376.616 1.827 1.827 0 0 0-.46 1.416 1.82 1.82 0 0 0 .758 1.287L12.03 14l2.774-2.653c.925-.91.847-2.047.154-2.805M6 3h12a3 3 0 0 1 3 3v8a3 3 0 0 1-3 3h-1.5a3 3 0 0 0-2.4 1.2L12 21l-2.1-2.8A3 3 0 0 0 7.5 17H6a3 3 0 0 1-3-3V6a3 3 0 0 1 3-3Z"/>
</svg>
