<svg xmlns="http://www.w3.org/2000/svg" width="24" height="24" fill="none" viewBox="0 0 24 24">
  <path fill="#000" d="m11.81 8.27-.57.487a.75.75 0 0 0 1.139 0l-.57-.488Zm-3.056 2.593-.592.46.592-.46Zm6.11 0 .592.46-.592-.46Zm-3.952 2.147.505-.555-.505.555Zm.647.477.22-.717-.22.717Zm1.147-.477-.504-.555.504.555Zm-.647.477-.22-.717.22.717ZM14.1 18.2l.6.45-.6-.45ZM12 21l-.6.45a.75.75 0 0 0 1.2 0L12 21Zm-2.1-2.8.6-.45-.6.45Zm2.479-10.419c-.92-1.074-2.555-1.433-3.8-.37l.973 1.14c.51-.433 1.209-.352 1.688.206l1.139-.976Zm-3.8-.37c-1.178 1.004-1.354 2.708-.417 3.913l1.184-.922c-.44-.564-.369-1.36.206-1.85L8.58 7.41Zm6.877 3.913a2.813 2.813 0 0 0-.424-3.92l-.958 1.154c.572.475.645 1.272.199 1.844l1.183.922Zm-.424-3.92c-1.253-1.04-2.866-.704-3.792.377l1.139.976c.473-.552 1.164-.64 1.695-.199l.958-1.154Zm-6.87 3.92c.458.588 1.515 1.577 2.245 2.241l1.01-1.11c-.762-.692-1.71-1.588-2.071-2.053l-1.184.922Zm5.049 2.241c.73-.664 1.788-1.653 2.245-2.241l-1.183-.922c-.362.465-1.31 1.36-2.071 2.053l1.009 1.11Zm-2.803 0c.145.132.286.261.416.362.14.107.306.213.515.277l.44-1.434c.024.007.02.014-.04-.032a5.968 5.968 0 0 1-.322-.283l-1.01 1.11Zm1.794-1.11a6.05 6.05 0 0 1-.322.283c-.061.046-.065.04-.04.032l.44 1.434c.209-.064.375-.17.514-.277.13-.1.272-.23.417-.362l-1.01-1.11Zm-.863 1.749c.302.092.638.092.94 0l-.44-1.434a.134.134 0 0 1-.06 0l-.44 1.434ZM6 3.75h12v-1.5H6v1.5ZM20.25 6v8h1.5V6h-1.5ZM18 16.25h-1.5v1.5H18v-1.5Zm-4.5 1.5-2.1 2.8 1.2.9 2.1-2.8-1.2-.9Zm-.9 2.8-2.1-2.8-1.2.9 2.1 2.8 1.2-.9Zm-5.1-4.3H6v1.5h1.5v-1.5ZM3.75 14V6h-1.5v8h1.5ZM6 16.25A2.25 2.25 0 0 1 3.75 14h-1.5A3.75 3.75 0 0 0 6 17.75v-1.5Zm10.5 0a3.75 3.75 0 0 0-3 1.5l1.2.9a2.25 2.25 0 0 1 1.8-.9v-1.5ZM20.25 14A2.25 2.25 0 0 1 18 16.25v1.5A3.75 3.75 0 0 0 21.75 14h-1.5ZM18 3.75A2.25 2.25 0 0 1 20.25 6h1.5A3.75 3.75 0 0 0 18 2.25v1.5Zm-7.5 14a3.75 3.75 0 0 0-3-1.5v1.5a2.25 2.25 0 0 1 1.8.9l1.2-.9ZM6 2.25A3.75 3.75 0 0 0 2.25 6h1.5A2.25 2.25 0 0 1 6 3.75v-1.5Z"/>
</svg>
