<svg xmlns="http://www.w3.org/2000/svg" width="24" height="24" fill="none" viewBox="0 0 24 24">
  <path fill="#000" d="M14.357 21.46a.75.75 0 1 0-.362-1.455l.362 1.456ZM8.46 20.275l-.295.69.295-.69ZM3.076 10.83l-.743-.098.743.098Zm2.52-5.152L5.06 5.15l.534.527Zm14.434 8.214a.75.75 0 1 0 1.46.344l-1.46-.344Zm-2.26 4.94a.75.75 0 1 0 1.06-1.061l-1.06 1.06ZM9.3 9.3v-.75a.75.75 0 0 0-.75.75h.75Zm-.75 5.4a.75.75 0 0 0 1.5 0h-1.5Zm6.15-4.65a.75.75 0 0 0 0-1.5v1.5Zm-.705 9.955a8.25 8.25 0 0 1-5.24-.42l-.59 1.379a9.75 9.75 0 0 0 6.192.497l-.362-1.456Zm-5.24-.42a8.25 8.25 0 0 1-3.923-3.5l-1.303.743a9.75 9.75 0 0 0 4.636 4.136l.59-1.38Zm-3.923-3.5a8.25 8.25 0 0 1-1.012-5.158l-1.487-.195a9.75 9.75 0 0 0 1.196 6.096l1.303-.743ZM3.82 10.927a8.25 8.25 0 0 1 2.31-4.723L5.06 5.15a9.75 9.75 0 0 0-2.728 5.582l1.487.195Zm2.31-4.723a8.25 8.25 0 0 1 4.692-2.37l-.214-1.484a9.75 9.75 0 0 0-5.546 2.8L6.13 6.204Zm4.692-2.37a8.25 8.25 0 0 1 5.171.946l.726-1.312a9.75 9.75 0 0 0-6.11-1.118l.213 1.485Zm5.171.946a8.25 8.25 0 0 1 3.55 3.877l1.372-.608a9.75 9.75 0 0 0-4.196-4.581l-.726 1.312Zm3.55 3.877a8.25 8.25 0 0 1 .488 5.234l1.46.344a9.75 9.75 0 0 0-.576-6.186l-1.372.608Zm-.712 9.113-9-9-1.06 1.06 9 9 1.06-1.06ZM8.55 9.3v5.4h1.5V9.3h-1.5Zm.75.75h5.4v-1.5H9.3v1.5Z"/>
</svg>
