<svg xmlns="http://www.w3.org/2000/svg" width="24" height="24" fill="none" viewBox="0 0 24 24">
  <path fill="#000" d="M19.116 7.75a.75.75 0 0 0 1.286-.773l-1.286.773Zm-3.723-4.104.279-.696-.28.696ZM4.908 6.518l-.595-.457.595.457Zm-1.862 5.424-.75-.005.75.005Zm17.29 5.188a.75.75 0 0 0-1.275-.79l1.276.79Zm.619-4.38a.75.75 0 1 0 0-1.5v1.5ZM8.227 12l-.53-.53a.75.75 0 0 0 0 1.06l.53-.53Zm4.349-3.288a.75.75 0 0 0-1.06-1.06l1.06 1.06Zm-1.06 7.637a.75.75 0 1 0 1.06-1.061l-1.06 1.06Zm8.886-9.372a9.75 9.75 0 0 0-4.73-4.027l-.558 1.392a8.25 8.25 0 0 1 4.002 3.408l1.286-.773Zm-4.73-4.027a9.75 9.75 0 0 0-6.203-.354l.397 1.447a8.25 8.25 0 0 1 5.248.299l.558-1.392Zm-6.203-.354a9.75 9.75 0 0 0-5.156 3.465l1.19.914a8.25 8.25 0 0 1 4.363-2.932l-.397-1.447ZM4.313 6.061a9.75 9.75 0 0 0-2.017 5.876l1.5.01a8.25 8.25 0 0 1 1.706-4.972l-1.19-.914Zm-2.017 5.876a9.75 9.75 0 0 0 1.94 5.902l1.202-.899a8.25 8.25 0 0 1-1.642-4.993l-1.5-.01Zm1.94 5.902a9.75 9.75 0 0 0 5.112 3.53l.415-1.44a8.25 8.25 0 0 1-4.325-2.989l-1.201.899Zm5.112 3.53a9.75 9.75 0 0 0 6.207-.273l-.54-1.399a8.25 8.25 0 0 1-5.252.231l-.415 1.442Zm6.207-.273a9.75 9.75 0 0 0 4.782-3.966l-1.276-.79a8.25 8.25 0 0 1-4.046 3.357l.54 1.4Zm5.4-9.846H8.227v1.5h12.728v-1.5ZM8.757 12.53l3.819-3.818-1.06-1.06-3.82 3.818 1.061 1.06Zm-1.06 0 3.818 3.819 1.06-1.061-3.818-3.818-1.06 1.06Z"/>
</svg>
