<svg xmlns="http://www.w3.org/2000/svg" width="24" height="24" fill="none" viewBox="0 0 24 24">
  <path fill="#000" d="M9.75 15a.75.75 0 0 1-1.5 0h1.5ZM9 9h-.75A.75.75 0 0 1 9 8.25V9Zm6-.75a.75.75 0 0 1 0 1.5v-1.5Zm.53 6.22a.75.75 0 1 1-1.06 1.06l1.06-1.06ZM6 20.25h12v1.5H6v-1.5ZM20.25 18V6h1.5v12h-1.5ZM18 3.75H6v-1.5h12v1.5ZM3.75 6v12h-1.5V6h1.5ZM6 3.75A2.25 2.25 0 0 0 3.75 6h-1.5A3.75 3.75 0 0 1 6 2.25v1.5ZM20.25 6A2.25 2.25 0 0 0 18 3.75v-1.5A3.75 3.75 0 0 1 21.75 6h-1.5ZM18 20.25A2.25 2.25 0 0 0 20.25 18h1.5A3.75 3.75 0 0 1 18 21.75v-1.5Zm-12 1.5A3.75 3.75 0 0 1 2.25 18h1.5A2.25 2.25 0 0 0 6 20.25v1.5ZM8.25 15V9h1.5v6h-1.5ZM9 8.25h6v1.5H9v-1.5Zm.53.22 6 6-1.06 1.06-6-6 1.06-1.06Z"/>
</svg>
