<svg xmlns="http://www.w3.org/2000/svg" width="24" height="24" fill="none" viewBox="0 0 24 24">
  <path fill="#000" d="M9.75 9a.75.75 0 0 0-1.5 0h1.5ZM9 15h-.75c0 .414.336.75.75.75V15Zm6 .75a.75.75 0 0 0 0-1.5v1.5Zm.53-6.22a.75.75 0 0 0-1.06-1.06l1.06 1.06ZM6 3.75h12v-1.5H6v1.5ZM20.25 6v12h1.5V6h-1.5ZM18 20.25H6v1.5h12v-1.5ZM3.75 18V6h-1.5v12h1.5ZM6 20.25A2.25 2.25 0 0 1 3.75 18h-1.5A3.75 3.75 0 0 0 6 21.75v-1.5ZM20.25 18A2.25 2.25 0 0 1 18 20.25v1.5A3.75 3.75 0 0 0 21.75 18h-1.5ZM18 3.75A2.25 2.25 0 0 1 20.25 6h1.5A3.75 3.75 0 0 0 18 2.25v1.5ZM6 2.25A3.75 3.75 0 0 0 2.25 6h1.5A2.25 2.25 0 0 1 6 3.75v-1.5ZM8.25 9v6h1.5V9h-1.5ZM9 15.75h6v-1.5H9v1.5Zm.53-.22 6-6-1.06-1.06-6 6 1.06 1.06Z"/>
</svg>
