<svg xmlns="http://www.w3.org/2000/svg" width="24" height="24" fill="none" viewBox="0 0 24 24">
  <path fill="#000" d="M7.75 4.884a.75.75 0 1 0-.773-1.286l.773 1.286ZM6.518 19.093l-.457.594.457-.594Zm5.424 1.862-.005.75.005-.75Zm8.707-6.51-.72-.208.72.207Zm-.252-5.73.7-.27-.7.27ZM17.13 3.664a.75.75 0 1 0-.79 1.275l.79-1.275Zm-4.38-.619a.75.75 0 0 0-1.5 0h1.5ZM12 15.773l-.53.53a.75.75 0 0 0 1.06 0l-.53-.53Zm-3.288-4.349a.75.75 0 1 0-1.06 1.061l1.06-1.06Zm7.637 1.061a.75.75 0 0 0-1.061-1.06l1.06 1.06ZM6.977 3.598a9.75 9.75 0 0 0-4.027 4.73l1.392.558A8.25 8.25 0 0 1 7.75 4.884l-.773-1.286ZM2.95 8.328a9.75 9.75 0 0 0-.354 6.203l1.447-.397a8.25 8.25 0 0 1 .299-5.248L2.95 8.328Zm-.354 6.203a9.75 9.75 0 0 0 3.465 5.156l.914-1.19a8.25 8.25 0 0 1-2.932-4.363l-1.447.397Zm3.465 5.156a9.75 9.75 0 0 0 5.876 2.018l.01-1.5a8.25 8.25 0 0 1-4.972-1.707l-.914 1.19Zm5.876 2.018a9.75 9.75 0 0 0 5.902-1.942l-.899-1.201a8.25 8.25 0 0 1-4.993 1.643l-.01 1.5Zm5.902-1.942a9.75 9.75 0 0 0 3.53-5.111l-1.44-.415a8.25 8.25 0 0 1-2.989 4.325l.899 1.201Zm3.53-5.111a9.75 9.75 0 0 0-.273-6.207l-1.399.54a8.25 8.25 0 0 1 .231 5.252l1.442.415Zm-.273-6.207a9.75 9.75 0 0 0-3.966-4.781l-.79 1.275a8.25 8.25 0 0 1 3.357 4.046l1.4-.54Zm-9.846-5.4v12.728h1.5V3.045h-1.5Zm1.28 12.198-3.818-3.819-1.06 1.061 3.818 3.819 1.06-1.061Zm0 1.06 3.819-3.818-1.061-1.06-3.818 3.818 1.06 1.06Z"/>
</svg>
