<svg xmlns="http://www.w3.org/2000/svg" width="24" height="24" fill="none" viewBox="0 0 24 24">
  <path fill="#000" d="M10.005 3.995a.75.75 0 1 1-.362-1.456l.362 1.456ZM2.51 9.765a.75.75 0 1 1 1.46.344l-1.46-.344ZM5.17 6.23a.75.75 0 0 1 1.06-1.06L5.17 6.23Zm9.53 8.47h.75a.75.75 0 0 1-.75.75v-.75Zm-.75-5.4a.75.75 0 0 1 1.5 0h-1.5ZM9.3 15.45a.75.75 0 0 1 0-1.5v1.5Zm.343-12.91a9.75 9.75 0 0 1 6.192.496l-.59 1.38a8.25 8.25 0 0 0-5.24-.421l-.362-1.456Zm6.192.496a9.75 9.75 0 0 1 4.636 4.136l-1.303.743a8.25 8.25 0 0 0-3.923-3.5l.59-1.379Zm4.636 4.136a9.75 9.75 0 0 1 1.196 6.096l-1.487-.195a8.25 8.25 0 0 0-1.012-5.158l1.303-.743Zm1.196 6.096a9.75 9.75 0 0 1-2.728 5.582l-1.068-1.054a8.25 8.25 0 0 0 2.309-4.723l1.487.195ZM18.94 18.85a9.75 9.75 0 0 1-5.546 2.8l-.214-1.485a8.25 8.25 0 0 0 4.692-2.37l1.068 1.055Zm-5.546 2.8a9.75 9.75 0 0 1-6.111-1.118l.726-1.312a8.25 8.25 0 0 0 5.17.945l.215 1.485Zm-6.111-1.118a9.75 9.75 0 0 1-4.196-4.582l1.372-.607a8.25 8.25 0 0 0 3.55 3.877l-.726 1.312ZM3.086 15.95a9.75 9.75 0 0 1-.576-6.185l1.46.344a8.25 8.25 0 0 0 .488 5.234l-1.372.607ZM6.23 5.17l9 9-1.06 1.06-9-9 1.06-1.06Zm7.72 9.53V9.3h1.5v5.4h-1.5Zm.75.75H9.3v-1.5h5.4v1.5Z"/>
</svg>
