<svg xmlns="http://www.w3.org/2000/svg" width="24" height="24" fill="none" viewBox="0 0 24 24">
  <path fill="#000" d="M8.53 12.53a.75.75 0 0 1-1.06-1.06l1.06 1.06ZM12 8l-.53-.53a.75.75 0 0 1 1.06 0L12 8Zm4.53 3.47a.75.75 0 1 1-1.06 1.06l1.06-1.06ZM12.75 16a.75.75 0 0 1-1.5 0h1.5Zm-9-10v12h-1.5V6h1.5ZM6 20.25h12v1.5H6v-1.5ZM20.25 18V6h1.5v12h-1.5ZM18 3.75H6v-1.5h12v1.5ZM20.25 6A2.25 2.25 0 0 0 18 3.75v-1.5A3.75 3.75 0 0 1 21.75 6h-1.5ZM18 20.25A2.25 2.25 0 0 0 20.25 18h1.5A3.75 3.75 0 0 1 18 21.75v-1.5ZM3.75 18A2.25 2.25 0 0 0 6 20.25v1.5A3.75 3.75 0 0 1 2.25 18h1.5ZM2.25 6A3.75 3.75 0 0 1 6 2.25v1.5A2.25 2.25 0 0 0 3.75 6h-1.5Zm5.22 5.47 4-4 1.06 1.06-4 4-1.06-1.06Zm5.06-4 4 4-1.06 1.06-4-4 1.06-1.06Zm.22.53v8h-1.5V8h1.5Z"/>
</svg>
