<svg xmlns="http://www.w3.org/2000/svg" width="24" height="24" fill="none" viewBox="0 0 24 24">
  <path fill="#000" d="M9.985 15.076a.75.75 0 0 1-1.06-1.06l1.06 1.06Zm4.56-5.622v-.75a.75.75 0 0 1 .75.75h-.75Zm.75 5.092a.75.75 0 0 1-1.5 0h1.5Zm-5.84-4.342a.75.75 0 1 1 0-1.5v1.5Zm8.379-4.038a8.25 8.25 0 0 0-11.668 0l-1.06-1.06c3.807-3.808 9.98-3.808 13.788 0l-1.06 1.06Zm-11.668 0a8.25 8.25 0 0 0 0 11.668l-1.06 1.06c-3.808-3.807-3.808-9.98 0-13.788l1.06 1.06Zm0 11.668a8.25 8.25 0 0 0 11.668 0l1.06 1.06c-3.807 3.808-9.98 3.808-13.788 0l1.06-1.06Zm11.668 0a8.25 8.25 0 0 0 0-11.668l1.06-1.06c3.808 3.807 3.808 9.98 0 13.788l-1.06-1.06Zm-8.91-3.819 5.091-5.09 1.06 1.06-5.09 5.09-1.06-1.06Zm6.372-4.56v5.09h-1.5v-5.09h1.5Zm-.75.75H9.454v-1.5h5.092v1.5Z"/>
</svg>
