<svg xmlns="http://www.w3.org/2000/svg" width="24" height="24" fill="none" viewBox="0 0 24 24">
  <path fill="#000" d="M12.91 11.888a.935.935 0 1 1-1.87 0 .935.935 0 0 1 1.87 0Z"/>
  <path stroke="#000" stroke-width="1.5" d="M20.207 3.44c1.579 1.53-.855 6.603-5.437 11.33-4.582 4.728-9.576 7.32-11.155 5.79-1.58-1.53.855-6.603 5.437-11.33 4.582-4.728 9.576-7.32 11.155-5.79Z"/>
  <path stroke="#000" stroke-width="1.5" d="M3.57 3.484c1.556-1.555 6.59.959 11.245 5.614 4.656 4.656 7.17 9.69 5.615 11.245-1.555 1.554-6.59-.96-11.245-5.614-4.655-4.656-7.169-9.69-5.614-11.245Z"/>
  <path stroke="#000" stroke-width="1.5" d="M12.91 11.888a.935.935 0 1 1-1.87 0 .935.935 0 0 1 1.87 0Z"/>
</svg>
