<svg xmlns="http://www.w3.org/2000/svg" width="24" height="24" fill="none" viewBox="0 0 24 24">
  <path fill="#000" d="M9 9.25a.75.75 0 0 0 0 1.5v-1.5Zm6 1.5a.75.75 0 0 0 0-1.5v1.5Zm-6 0h6v-1.5H9v1.5Zm-3-7h12v-1.5H6v1.5ZM20.25 6v5h1.5V6h-1.5ZM18 13.25H6v1.5h12v-1.5ZM3.75 11V6h-1.5v5h1.5ZM6 13.25A2.25 2.25 0 0 1 3.75 11h-1.5A3.75 3.75 0 0 0 6 14.75v-1.5ZM20.25 11A2.25 2.25 0 0 1 18 13.25v1.5A3.75 3.75 0 0 0 21.75 11h-1.5ZM18 3.75A2.25 2.25 0 0 1 20.25 6h1.5A3.75 3.75 0 0 0 18 2.25v1.5ZM6 2.25A3.75 3.75 0 0 0 2.25 6h1.5A2.25 2.25 0 0 1 6 3.75v-1.5ZM3.25 13v5h1.5v-5h-1.5ZM7 21.75h10v-1.5H7v1.5ZM20.75 18v-5h-1.5v5h1.5ZM17 21.75A3.75 3.75 0 0 0 20.75 18h-1.5A2.25 2.25 0 0 1 17 20.25v1.5ZM3.25 18A3.75 3.75 0 0 0 7 21.75v-1.5A2.25 2.25 0 0 1 4.75 18h-1.5Z"/>
</svg>
