<svg xmlns="http://www.w3.org/2000/svg" width="24" height="24" fill="none" viewBox="0 0 24 24">
  <path stroke="#000" stroke-linecap="round" stroke-linejoin="round" stroke-width="1.5" d="M8.762 20.448c1 .833 3.5 2 5.5 0m-9.5-18c-1 .5-2.8 2.1-2 4.5m16-4.5c1.166.333 3.3 1.7 2.5 4.5M3.55 17.448h16.424a.52.52 0 0 0 .477-.725l-1.864-4.348a10.214 10.214 0 0 1-.825-4.023 5.904 5.904 0 0 0-5.904-5.904h-.192a5.904 5.904 0 0 0-5.904 5.904c0 1.383-.281 2.751-.826 4.022l-1.864 4.35a.52.52 0 0 0 .478.724Z"/>
</svg>
