<svg xmlns="http://www.w3.org/2000/svg" width="24" height="24" fill="none" viewBox="0 0 24 24">
  <path fill="#000" d="M8.875 7v-.75a.75.75 0 0 0-.75.75h.75Zm0 5h-.75c0 .414.336.75.75.75V12Zm4.156 0v.75V12Zm2.406-2.5h-.75.75ZM9.314 17v.75V17Zm3.936 0v.75V17Zm0-5.454v-.75.75Zm-4.375 0v-.75a.75.75 0 0 0-.75.75h.75Zm0 5.454h-.75a.75.75 0 0 0 .749.75l.001-.75Zm3.939-9.769v.75-.75Zm.219 4.545v.75-.75Zm0 5v-.75.75ZM9.75 7.455v-.75a.75.75 0 0 0-.75.75h.75Zm2.844 0v-.75.75Zm0 4.09v.75-.75Zm-2.844 0H9c0 .414.336.75.75.75v-.75Zm0 .454v-.75A.75.75 0 0 0 9 12h.75Zm3.062 0v-.75.75Zm0 4.545v.75-.75Zm-3.062 0H9c0 .414.336.75.75.75v-.75ZM6 3.75h12v-1.5H6v1.5ZM20.25 6v12h1.5V6h-1.5ZM18 20.25H6v1.5h12v-1.5ZM3.75 18V6h-1.5v12h1.5ZM6 20.25A2.25 2.25 0 0 1 3.75 18h-1.5A3.75 3.75 0 0 0 6 21.75v-1.5ZM20.25 18A2.25 2.25 0 0 1 18 20.25v1.5A3.75 3.75 0 0 0 21.75 18h-1.5ZM18 3.75A2.25 2.25 0 0 1 20.25 6h1.5A3.75 3.75 0 0 0 18 2.25v1.5ZM6 2.25A3.75 3.75 0 0 0 2.25 6h1.5A2.25 2.25 0 0 1 6 3.75v-1.5Zm3.314 4h-.439v1.5h.44v-1.5ZM8.125 7v5h1.5V7h-1.5Zm.75 5.75h4.156v-1.5H8.875v1.5Zm4.156 0c.846 0 1.652-.35 2.242-.963l-1.08-1.04a1.611 1.611 0 0 1-1.162.502v1.5Zm2.242-.963a3.3 3.3 0 0 0 .914-2.287h-1.5a1.8 1.8 0 0 1-.495 1.247l1.08 1.04Zm.914-2.287a3.3 3.3 0 0 0-.914-2.288l-1.08 1.04a1.8 1.8 0 0 1 .494 1.248h1.5Zm-.914-2.288a3.111 3.111 0 0 0-2.242-.962v1.5c.43 0 .848.177 1.161.502l1.08-1.04ZM13.03 6.25H9.314v1.5h3.717v-1.5ZM8.564 7v.23h1.5V7h-1.5Zm.75 10.75h3.936v-1.5H9.314v1.5Zm3.936 0c.904 0 1.766-.373 2.396-1.029l-1.08-1.04a1.826 1.826 0 0 1-1.316.57v1.5Zm2.396-1.029a3.53 3.53 0 0 0 .979-2.448h-1.5c0 .533-.204 1.04-.56 1.408l1.081 1.04Zm.979-2.448c0-.913-.349-1.795-.979-2.449l-1.08 1.04c.355.37.559.875.559 1.409h1.5Zm-.979-2.449a3.326 3.326 0 0 0-2.396-1.028v1.5c.488 0 .962.2 1.316.569l1.08-1.04Zm-2.396-1.028H8.875v1.5h4.375v-1.5Zm-5.125.75V17h1.5v-5.454h-1.5Zm.749 6.204h.44l.001-1.5h-.439l-.002 1.5Zm1.19-.75v-.224h-1.5V17h1.5Zm-.75-9.02 3.5.001v-1.5h-3.5v1.5Zm3.5.001c.372 0 .735.153 1.006.436l1.081-1.04a2.897 2.897 0 0 0-2.087-.896v1.5Zm1.006.436c.273.283.431.674.431 1.086h1.5c0-.792-.302-1.558-.85-2.127l-1.08 1.04Zm.431 1.086c0 .413-.158.804-.43 1.087l1.08 1.04c.548-.568.85-1.334.85-2.127h-1.5Zm-.43 1.087a1.397 1.397 0 0 1-1.007.436v1.5c.788 0 1.539-.326 2.087-.896l-1.08-1.04Zm-1.007.436h-3.5v1.5h3.5v-1.5ZM8.564 7.23v4.546h1.5V7.23h-1.5Zm0 4.546v5h1.5v-5h-1.5Zm.75.75h3.719v-1.5H9.314v1.5Zm3.719 0c.43 0 .848.177 1.16.502l1.082-1.04a3.111 3.111 0 0 0-2.242-.962v1.5Zm1.16.502a1.8 1.8 0 0 1 .496 1.248h1.5a3.3 3.3 0 0 0-.915-2.288l-1.08 1.04Zm.496 1.248a1.8 1.8 0 0 1-.495 1.247l1.08 1.04a3.3 3.3 0 0 0 .915-2.287h-1.5Zm-.495 1.247a1.611 1.611 0 0 1-1.161.502v1.5c.846 0 1.652-.35 2.242-.962l-1.081-1.04Zm-1.161.502H9.314v1.5h3.719v-1.5ZM9.75 8.205h2.844v-1.5H9.75v1.5Zm2.844 0c.313 0 .62.13.851.37l1.081-1.04a2.682 2.682 0 0 0-1.932-.83v1.5Zm.851.37c.232.24.367.573.367.925h1.5c0-.732-.28-1.44-.786-1.966l-1.08 1.04Zm.367.925c0 .353-.135.686-.367.927l1.081 1.04a2.836 2.836 0 0 0 .786-1.967h-1.5Zm-.367.927a1.18 1.18 0 0 1-.851.369v1.5c.73 0 1.425-.302 1.932-.83l-1.08-1.04Zm-.851.369H9.75v1.5h2.844v-1.5Zm-2.094.75v-4.09H9v4.09h1.5Zm-.75 1.204h3.062v-1.5H9.75v1.5Zm3.062 0c.372 0 .735.153 1.007.436l1.08-1.04a2.897 2.897 0 0 0-2.087-.896v1.5Zm1.007.436c.273.283.43.674.43 1.087h1.5c0-.793-.302-1.559-.85-2.127l-1.08 1.04Zm.43 1.087c0 .412-.157.803-.43 1.086l1.08 1.04c.548-.568.85-1.334.85-2.126h-1.5Zm-.43 1.086a1.397 1.397 0 0 1-1.007.436v1.5c.789 0 1.539-.326 2.087-.895l-1.08-1.04Zm-1.007.436H9.75v1.5h3.062v-1.5Zm-2.312.75V12H9v4.545h1.5Z"/>
</svg>
