<svg xmlns="http://www.w3.org/2000/svg" width="24" height="24" fill="none" viewBox="0 0 24 24">
  <path fill="#000" d="M5.412 4v-.75a.75.75 0 0 0-.75.75h.75Zm0 16h-.75c0 .414.335.75.75.75V20Zm0-15.25h7.095v-1.5H5.412v1.5Zm7.095 6.5H5.412v1.5h7.095v-1.5ZM6.162 12V4h-1.5v8h1.5Zm9.649-4c0 1.785-1.47 3.25-3.304 3.25v1.5c2.643 0 4.804-2.117 4.804-4.75h-1.5Zm-3.304-3.25c1.834 0 3.304 1.465 3.304 3.25h1.5c0-2.633-2.16-4.75-4.804-4.75v1.5Zm-7.095 8h9.122v-1.5H5.412v1.5Zm9.122 6.5H5.412v1.5h9.122v-1.5ZM6.162 20v-8h-1.5v8h1.5Zm11.676-4c0 1.785-1.47 3.25-3.304 3.25v1.5c2.644 0 4.804-2.117 4.804-4.75h-1.5Zm-3.304-3.25c1.834 0 3.304 1.465 3.304 3.25h1.5c0-2.633-2.16-4.75-4.804-4.75v1.5Z"/>
</svg>
