<svg xmlns="http://www.w3.org/2000/svg" width="24" height="24" fill="none" viewBox="0 0 24 24">
  <path fill="#000" d="M9.867 15.073A.75.75 0 1 0 8.8 16.127l1.067-1.054ZM11.11 17.4l-.534.527a.75.75 0 0 0 1.068 0l-.534-.527Zm4.09-3.073a.75.75 0 0 0-1.068-1.054l1.067 1.054ZM20 10.2v.75h.75v-.75H20Zm-16 0h-.75v.75H4v-.75ZM9.194 3a.75.75 0 1 0-1.5 0h1.5Zm-1.5 3.6a.75.75 0 0 0 1.5 0h-1.5ZM16.306 3a.75.75 0 0 0-1.5 0h1.5Zm-1.5 3.6a.75.75 0 1 0 1.5 0h-1.5ZM8.8 16.127l1.777 1.8 1.068-1.054-1.778-1.8L8.8 16.127Zm2.845 1.8 3.555-3.6-1.067-1.054-3.555 3.6 1.067 1.054ZM6.667 5.55h10.666v-1.5H6.667v1.5ZM19.25 7.5v10.8h1.5V7.5h-1.5Zm-1.917 12.75H6.667v1.5h10.666v-1.5ZM4.75 18.3V7.5h-1.5v10.8h1.5Zm1.917 1.95c-1.05 0-1.917-.864-1.917-1.95h-1.5c0 1.897 1.52 3.45 3.417 3.45v-1.5ZM19.25 18.3c0 1.086-.867 1.95-1.917 1.95v1.5c1.896 0 3.417-1.553 3.417-3.45h-1.5ZM17.333 5.55c1.05 0 1.917.864 1.917 1.95h1.5c0-1.897-1.52-3.45-3.417-3.45v1.5ZM6.667 4.05C4.77 4.05 3.25 5.603 3.25 7.5h1.5c0-1.086.867-1.95 1.917-1.95v-1.5ZM19.25 7.5v2.7h1.5V7.5h-1.5ZM20 9.45H4v1.5h16v-1.5Zm-15.25.75V7.5h-1.5v2.7h1.5ZM7.694 3v3.6h1.5V3h-1.5Zm7.112 0v3.6h1.5V3h-1.5Z"/>
</svg>
