<svg xmlns="http://www.w3.org/2000/svg" width="24" height="24" fill="none" viewBox="0 0 24 24">
  <path stroke="#000" stroke-linejoin="round" stroke-width="1.5" d="M3 18.857V7.43c0-.304.119-.594.33-.809.21-.214.497-.334.795-.334h1.688l1.92-1.951C7.943 4.12 8.23 4 8.528 4h6.944c.298 0 .584.12.795.335l1.92 1.95h1.688c.298 0 .584.121.796.335.21.215.329.505.329.809v11.428c0 .303-.119.594-.33.808a1.116 1.116 0 0 1-.795.335H4.125c-.298 0-.585-.12-.795-.335a1.152 1.152 0 0 1-.33-.808Z"/>
  <path stroke="#000" stroke-linejoin="round" stroke-width="1.5" d="M15.375 12c0 .91-.356 1.781-.989 2.424A3.349 3.349 0 0 1 12 15.43a3.349 3.349 0 0 1-2.386-1.005A3.457 3.457 0 0 1 8.625 12c0-.91.356-1.781.989-2.424A3.348 3.348 0 0 1 12 8.57c.895 0 1.754.362 2.386 1.005.633.643.989 1.515.989 2.424Z"/>
</svg>
