<svg xmlns="http://www.w3.org/2000/svg" width="24" height="24" fill="none" viewBox="0 0 24 24">
  <path fill="#000" d="M12.75 8.625a.75.75 0 0 0-1.5 0h1.5ZM12 13.688h-.75c0 .284.16.543.415.67l.335-.67Zm3.04 2.358a.75.75 0 1 0 .67-1.342l-.67 1.342ZM20.25 12A8.25 8.25 0 0 1 12 20.25v1.5A9.75 9.75 0 0 0 21.75 12h-1.5ZM12 20.25A8.25 8.25 0 0 1 3.75 12h-1.5A9.75 9.75 0 0 0 12 21.75v-1.5ZM3.75 12A8.25 8.25 0 0 1 12 3.75v-1.5A9.75 9.75 0 0 0 2.25 12h1.5ZM12 3.75A8.25 8.25 0 0 1 20.25 12h1.5A9.75 9.75 0 0 0 12 2.25v1.5Zm-.75 4.875v5.063h1.5V8.625h-1.5Zm.415 5.733 3.375 1.688.67-1.342-3.375-1.687-.67 1.341Z"/>
</svg>
