<svg xmlns="http://www.w3.org/2000/svg" width="24" height="24" fill="none" viewBox="0 0 24 24">
  <path fill="#000" d="M19.25 12a.75.75 0 0 0 1.5 0h-1.5Zm-6.102 8.674a.75.75 0 0 0-.197-1.487l.197 1.487ZM11.95 7.2a.75.75 0 0 0-1.5 0h1.5ZM11.2 12h-.75c0 .284.16.544.415.67L11.2 12Zm2.865 2.27a.75.75 0 1 0 .67-1.34l-.67 1.34Zm1.935.48a.75.75 0 0 0 0 1.5v-1.5Zm4 .75.53.53a.75.75 0 0 0-.53-1.28v.75Zm-4 4-.53-.53a.75.75 0 0 0 .53 1.28v-.75Zm4 .75a.75.75 0 0 0 0-1.5v1.5Zm.75-8.25a8.75 8.75 0 0 0-1.556-4.98l-1.233.854A7.25 7.25 0 0 1 19.25 12h1.5Zm-1.556-4.98a8.75 8.75 0 0 0-4.113-3.21l-.528 1.404a7.25 7.25 0 0 1 3.408 2.66l1.233-.854Zm-4.113-3.21a8.75 8.75 0 0 0-5.21-.297l.366 1.455a7.25 7.25 0 0 1 4.316.246l.528-1.404Zm-5.21-.297a8.75 8.75 0 0 0-4.452 2.72l1.129.989a7.25 7.25 0 0 1 3.689-2.254l-.365-1.455ZM5.42 6.233a8.75 8.75 0 0 0-2.112 4.77l1.49.171a7.25 7.25 0 0 1 1.75-3.952l-1.128-.99Zm-2.112 4.77a8.75 8.75 0 0 0 .978 5.126l1.323-.708a7.25 7.25 0 0 1-.81-4.246l-1.491-.171Zm.978 5.126a8.75 8.75 0 0 0 3.722 3.657l.684-1.335a7.25 7.25 0 0 1-3.083-3.03l-1.323.708Zm3.722 3.657a8.75 8.75 0 0 0 5.141.888l-.197-1.487a7.25 7.25 0 0 1-4.26-.736l-.684 1.335ZM10.45 7.2V12h1.5V7.2h-1.5Zm.415 5.47 3.2 1.6.67-1.34-3.2-1.6-.67 1.34ZM16 16.25h4v-1.5h-4v1.5Zm3.47-1.28-4 4 1.06 1.06 4-4-1.06-1.06ZM16 20.25h4v-1.5h-4v1.5Z"/>
</svg>
