<svg xmlns="http://www.w3.org/2000/svg" width="24" height="24" fill="none" viewBox="0 0 24 24">
  <path stroke="#000" stroke-linecap="round" stroke-width="1.5" d="M5.172 10.254h-1.28M6.88 5.987 5.6 4.707m5.547 0V3m4.268 2.987 1.28-1.28m.853 4.694h1.707m-4.491-.013a3.84 3.84 0 0 0-7.449 1.546M16.616 21c1.928 0 3.492-1.476 3.492-3.297 0-1.822-1.564-3.298-3.492-3.298a.07.07 0 0 1-.068-.056c-.357-1.844-2.066-3.241-4.121-3.241-2.055 0-3.765 1.397-4.122 3.24a.07.07 0 0 1-.068.057c-1.928 0-3.491 1.477-3.491 3.298 0 1.82 1.563 3.297 3.49 3.297h8.38Z"/>
</svg>
