<svg xmlns="http://www.w3.org/2000/svg" width="24" height="24" fill="none" viewBox="0 0 24 24">
  <path stroke="#000" stroke-linejoin="round" stroke-width="1.5" d="m12 8.4.972 2.628L15.6 12l-2.628.972L12 15.6l-.972-2.628L8.4 12l2.628-.972L12 8.4Z"/>
  <path stroke="#000" stroke-linecap="round" stroke-width="1.5" d="M12 4.8V3m9 9h-1.8M12 21v-1.8M3 12h1.8m12.15-4.95L18.3 5.7m-1.35 11.25 1.35 1.35M7.05 16.95 5.7 18.3M7.05 7.05 5.7 5.7"/>
  <path stroke="#000" stroke-width="1.5" d="M21 12a9 9 0 1 1-18 0 9 9 0 0 1 18 0Z"/>
</svg>
