<svg xmlns="http://www.w3.org/2000/svg" width="24" height="24" fill="none" viewBox="0 0 24 24">
  <path fill="#000" d="M12 6v-.75a.75.75 0 0 0-.75.75H12Zm0 12h-.75c0 .414.336.75.75.75V18Zm0-11.25c.69 0 1.372.136 2.01.4l.573-1.386A6.75 6.75 0 0 0 12 5.25v1.5Zm2.01.4a5.25 5.25 0 0 1 1.702 1.138l1.061-1.061a6.75 6.75 0 0 0-2.19-1.463L14.01 7.15Zm1.702 1.138A5.251 5.251 0 0 1 16.85 9.99l1.386-.574a6.75 6.75 0 0 0-1.463-2.19l-1.06 1.06ZM16.85 9.99c.264.637.4 1.32.4 2.009h1.5a6.75 6.75 0 0 0-.514-2.583l-1.386.574Zm.4 2.009c0 .69-.136 1.372-.4 2.01l1.386.573A6.75 6.75 0 0 0 18.75 12h-1.5Zm-.4 2.01a5.252 5.252 0 0 1-1.138 1.702l1.061 1.061a6.75 6.75 0 0 0 1.463-2.19l-1.386-.574Zm-1.138 1.702a5.252 5.252 0 0 1-1.703 1.138l.574 1.386a6.75 6.75 0 0 0 2.19-1.463l-1.06-1.06ZM14.01 16.85c-.637.264-1.32.4-2.009.4v1.5a6.75 6.75 0 0 0 2.583-.514l-.574-1.386ZM20.25 12A8.25 8.25 0 0 1 12 20.25v1.5A9.75 9.75 0 0 0 21.75 12h-1.5ZM12 20.25A8.25 8.25 0 0 1 3.75 12h-1.5A9.75 9.75 0 0 0 12 21.75v-1.5ZM3.75 12A8.25 8.25 0 0 1 12 3.75v-1.5A9.75 9.75 0 0 0 2.25 12h1.5ZM12 3.75A8.25 8.25 0 0 1 20.25 12h1.5A9.75 9.75 0 0 0 12 2.25v1.5ZM12.75 18V6h-1.5v12h1.5Z"/>
</svg>
