<svg xmlns="http://www.w3.org/2000/svg" width="24" height="24" fill="none" viewBox="0 0 24 24">
  <path stroke="#000" stroke-linecap="square" stroke-linejoin="round" stroke-width="1.5" d="M22 11v10a1 1 0 0 1-1 1H11a1 1 0 0 1-1-1v-2a1 1 0 0 1 1-1h2a1 1 0 0 0 1-1v-2a1 1 0 0 1 1-1h2a1 1 0 0 0 1-1v-2a1 1 0 0 1 1-1h2a1 1 0 0 1 1 1Zm-9-5h-2a1 1 0 0 0-1 1v2a1 1 0 0 0 1 1h2a1 1 0 0 0 1-1V7a1 1 0 0 0-1-1ZM5 2H3a1 1 0 0 0-1 1v2a1 1 0 0 0 1 1h2a1 1 0 0 0 1-1V3a1 1 0 0 0-1-1Zm1 10H4a1 1 0 0 0-1 1v2a1 1 0 0 0 1 1h2a1 1 0 0 0 1-1v-2a1 1 0 0 0-1-1Z"/>
</svg>
