<svg xmlns="http://www.w3.org/2000/svg" width="24" height="24" fill="none" viewBox="0 0 24 24">
  <path stroke="#000" stroke-linejoin="round" stroke-width="1.5" d="M10.3 14.95c.425-.286 2.2-.45 3.4 0"/>
  <path stroke="#000" stroke-linecap="round" stroke-linejoin="round" stroke-width="1.5" d="m20.5 14.571-.67-6.079a2.567 2.567 0 0 0-1.728-2.155L17.1 6M3.5 14.571l.67-6.079a2.567 2.567 0 0 1 1.728-2.155L6.9 6"/>
  <path stroke="#000" stroke-linejoin="round" stroke-width="1.5" d="M10.3 14.571C10.3 16.465 8.778 18 6.9 18s-3.4-1.535-3.4-3.429c0-1.893 1.522-3.428 3.4-3.428s3.4 1.535 3.4 3.428Zm10.2 0c0 1.894-1.522 3.429-3.4 3.429s-3.4-1.535-3.4-3.429c0-1.893 1.522-3.428 3.4-3.428s3.4 1.535 3.4 3.428Z"/>
</svg>
