<svg xmlns="http://www.w3.org/2000/svg" width="24" height="24" fill="none" viewBox="0 0 24 24">
  <path stroke="#000" stroke-linecap="round" stroke-linejoin="round" stroke-width="1.5" d="M5.228 8.643A9.474 9.474 0 0 0 3.5 12c1.091 3.856 4.484 6.667 8.5 6.667a8.47 8.47 0 0 0 2.418-.351M7.126 6.869A8.512 8.512 0 0 1 12 5.333c4.017 0 7.409 2.811 8.5 6.665-.598 2.106-1.881 3.923-3.625 5.133M7.126 6.869 4.4 4m2.726 2.87 3.083 3.244m6.666 7.017L19.6 20m-2.726-2.87-3.083-3.244a2.67 2.67 0 0 0 .55-.865 2.79 2.79 0 0 0 0-2.041 2.678 2.678 0 0 0-.55-.865 2.53 2.53 0 0 0-.822-.578 2.424 2.424 0 0 0-1.939 0 2.53 2.53 0 0 0-.822.578m3.582 3.77-3.58-3.77"/>
</svg>
