<svg xmlns="http://www.w3.org/2000/svg" width="24" height="24" fill="none" viewBox="0 0 24 24">
  <path fill="#000" d="M15.15 9.6a.75.75 0 0 0 0-1.5v1.5Zm-.009-1.5a.75.75 0 0 0 0 1.5V8.1ZM8.85 9.6a.75.75 0 0 0 0-1.5v1.5Zm-.009-1.5a.75.75 0 1 0 0 1.5V8.1ZM8.4 13.95a.75.75 0 0 0 0 1.5v-1.5Zm7.2 1.5a.75.75 0 0 0 0-1.5v1.5Zm-.45-7.35h-.009v1.5h.009V8.1Zm.3.75a.3.3 0 0 1-.3.3v-1.5a1.2 1.2 0 0 0-1.2 1.2h1.5Zm-.3.3a.3.3 0 0 1-.3-.3h1.5a1.2 1.2 0 0 0-1.2-1.2v1.5Zm-.3-.3a.3.3 0 0 1 .3-.3v1.5a1.2 1.2 0 0 0 1.2-1.2h-1.5Zm.3-.3a.3.3 0 0 1 .3.3h-1.5a1.2 1.2 0 0 0 1.2 1.2v-1.5Zm-6.3-.45h-.009v1.5h.009V8.1Zm.3.75a.3.3 0 0 1-.3.3v-1.5a1.2 1.2 0 0 0-1.2 1.2h1.5Zm-.3.3a.3.3 0 0 1-.3-.3h1.5a1.2 1.2 0 0 0-1.2-1.2v1.5Zm-.3-.3a.3.3 0 0 1 .3-.3v1.5a1.2 1.2 0 0 0 1.2-1.2h-1.5Zm.3-.3a.3.3 0 0 1 .3.3h-1.5a1.2 1.2 0 0 0 1.2 1.2v-1.5ZM20.25 12A8.25 8.25 0 0 1 12 20.25v1.5A9.75 9.75 0 0 0 21.75 12h-1.5ZM12 20.25A8.25 8.25 0 0 1 3.75 12h-1.5A9.75 9.75 0 0 0 12 21.75v-1.5ZM3.75 12A8.25 8.25 0 0 1 12 3.75v-1.5A9.75 9.75 0 0 0 2.25 12h1.5ZM12 3.75A8.25 8.25 0 0 1 20.25 12h1.5A9.75 9.75 0 0 0 12 2.25v1.5Zm-3.6 11.7h7.2v-1.5H8.4v1.5Z"/>
</svg>
