<svg xmlns="http://www.w3.org/2000/svg" width="24" height="24" fill="none" viewBox="0 0 24 24">
  <path fill="#000" d="M7.808 15.14a.75.75 0 1 0 1.184.92l-1.184-.92Zm7.262.99a.75.75 0 1 0 1.06-1.06l-1.06 1.06ZM20.25 12A8.25 8.25 0 0 1 12 20.25v1.5A9.75 9.75 0 0 0 21.75 12h-1.5ZM12 20.25A8.25 8.25 0 0 1 3.75 12h-1.5A9.75 9.75 0 0 0 12 21.75v-1.5ZM3.75 12A8.25 8.25 0 0 1 12 3.75v-1.5A9.75 9.75 0 0 0 2.25 12h1.5ZM12 3.75A8.25 8.25 0 0 1 20.25 12h1.5A9.75 9.75 0 0 0 12 2.25v1.5ZM8.992 16.06c.443-.57 1.285-1.25 2.325-1.444.985-.184 2.281.043 3.753 1.514l1.06-1.06c-1.768-1.769-3.547-2.217-5.09-1.928-1.487.278-2.625 1.217-3.232 1.998l1.184.92Z"/>
  <path stroke="#000" stroke-linecap="round" stroke-linejoin="round" stroke-width="2" d="M9 9h.01M15 9h.01"/>
</svg>
