<svg xmlns="http://www.w3.org/2000/svg" width="24" height="24" fill="none" viewBox="0 0 24 24">
  <path fill="#000" d="M14.7 9.6a.75.75 0 0 0 0-1.5v1.5Zm-.009-1.5a.75.75 0 0 0 0 1.5V8.1ZM8.85 9.6a.75.75 0 0 0 0-1.5v1.5Zm-.009-1.5a.75.75 0 0 0 0 1.5V8.1Zm.151 5.24a.75.75 0 0 0-1.184.92l1.184-.92Zm7.138.99a.75.75 0 1 0-1.06-1.06l1.06 1.06ZM14.7 8.1h-.009v1.5h.009V8.1Zm.3.75a.3.3 0 0 1-.3.3v-1.5a1.2 1.2 0 0 0-1.2 1.2H15Zm-.3.3a.3.3 0 0 1-.3-.3h1.5a1.2 1.2 0 0 0-1.2-1.2v1.5Zm-.3-.3a.3.3 0 0 1 .3-.3v1.5a1.2 1.2 0 0 0 1.2-1.2h-1.5Zm.3-.3a.3.3 0 0 1 .3.3h-1.5a1.2 1.2 0 0 0 1.2 1.2v-1.5ZM8.85 8.1h-.009v1.5h.009V8.1Zm.3.75a.3.3 0 0 1-.3.3v-1.5a1.2 1.2 0 0 0-1.2 1.2h1.5Zm-.3.3a.3.3 0 0 1-.3-.3h1.5a1.2 1.2 0 0 0-1.2-1.2v1.5Zm-.3-.3a.3.3 0 0 1 .3-.3v1.5a1.2 1.2 0 0 0 1.2-1.2h-1.5Zm.3-.3a.3.3 0 0 1 .3.3h-1.5a1.2 1.2 0 0 0 1.2 1.2v-1.5ZM20.25 12A8.25 8.25 0 0 1 12 20.25v1.5A9.75 9.75 0 0 0 21.75 12h-1.5ZM12 20.25A8.25 8.25 0 0 1 3.75 12h-1.5A9.75 9.75 0 0 0 12 21.75v-1.5ZM3.75 12A8.25 8.25 0 0 1 12 3.75v-1.5A9.75 9.75 0 0 0 2.25 12h1.5ZM12 3.75A8.25 8.25 0 0 1 20.25 12h1.5A9.75 9.75 0 0 0 12 2.25v1.5ZM7.808 14.26c.607.78 1.745 1.72 3.233 1.999 1.542.288 3.321-.16 5.09-1.929l-1.061-1.06c-1.472 1.471-2.768 1.698-3.753 1.514-1.04-.194-1.882-.875-2.325-1.445l-1.184.921Z"/>
</svg>
