<svg xmlns="http://www.w3.org/2000/svg" width="24" height="24" fill="none" viewBox="0 0 24 24">
  <path fill="#000" d="M14.813 9.375a.75.75 0 0 0 0-1.5v1.5Zm-.012-1.5a.75.75 0 1 0 0 1.5v-1.5Zm-5.614 1.5a.75.75 0 1 0 0-1.5v1.5Zm-.01-1.5a.75.75 0 0 0 0 1.5v-1.5Zm-1.369 7.264a.75.75 0 1 0 1.184.921l-1.184-.92Zm7.262.991a.75.75 0 1 0 1.06-1.06l-1.06 1.06Zm-.258-8.255h-.01v1.5h.01v-1.5Zm.188.75a.187.187 0 0 1-.188.188v-1.5c-.724 0-1.312.587-1.312 1.312H15Zm-.188.188a.187.187 0 0 1-.187-.188h1.5c0-.725-.588-1.313-1.313-1.313v1.5Zm-.187-.188c0-.104.084-.188.188-.188v1.5c.724 0 1.312-.587 1.312-1.312h-1.5Zm.188-.188c.103 0 .187.084.187.188h-1.5c0 .725.588 1.313 1.313 1.313v-1.5Zm-5.626-.562h-.01v1.5h.01v-1.5Zm.188.75a.187.187 0 0 1-.188.188v-1.5c-.724 0-1.312.587-1.312 1.312h1.5Zm-.188.188A.188.188 0 0 1 9 8.624h1.5c0-.725-.588-1.313-1.313-1.313v1.5ZM9 8.624c0-.104.084-.188.187-.188v1.5c.725 0 1.313-.587 1.313-1.312H9Zm.187-.188c.104 0 .188.084.188.188h-1.5c0 .725.588 1.313 1.312 1.313v-1.5ZM20.25 12A8.25 8.25 0 0 1 12 20.25v1.5A9.75 9.75 0 0 0 21.75 12h-1.5ZM12 20.25A8.25 8.25 0 0 1 3.75 12h-1.5A9.75 9.75 0 0 0 12 21.75v-1.5ZM3.75 12A8.25 8.25 0 0 1 12 3.75v-1.5A9.75 9.75 0 0 0 2.25 12h1.5ZM12 3.75A8.25 8.25 0 0 1 20.25 12h1.5A9.75 9.75 0 0 0 12 2.25v1.5ZM8.992 16.06c.443-.57 1.285-1.25 2.325-1.444.985-.184 2.281.043 3.753 1.514l1.06-1.06c-1.768-1.769-3.547-2.217-5.09-1.928-1.487.278-2.625 1.217-3.232 1.998l1.184.92Z"/>
</svg>
