<svg xmlns="http://www.w3.org/2000/svg" width="24" height="24" fill="none" viewBox="0 0 24 24">
  <path stroke="#000" stroke-linejoin="round" stroke-width="1.5" d="M5 18.3V5.7C5 4.209 6.175 3 7.625 3h5.038c.696 0 1.364.284 1.856.79l3.712 3.82A2.74 2.74 0 0 1 19 9.517V18.3c0 1.491-1.175 2.7-2.625 2.7h-8.75C6.175 21 5 19.791 5 18.3Z"/>
  <path stroke="#000" stroke-linejoin="round" stroke-width="1.5" d="M13.75 8.4V4.086c0-.4.471-.601.747-.318l3.756 3.864c.276.283.08.768-.31.768H13.75Z"/>
  <path stroke="#000" stroke-linecap="round" stroke-linejoin="round" stroke-width="1.5" d="M14.513 12.451A1.69 1.69 0 0 0 13.357 12a1.69 1.69 0 0 0-1.156.451l-.198.253-.23-.19a1.599 1.599 0 0 0-.541-.365 1.66 1.66 0 0 0-1.295.012 1.595 1.595 0 0 0-.533.375c-.148.16-.26.347-.328.55a1.466 1.466 0 0 0 .14 1.233c.111.184.262.345.443.47L12.036 17l2.378-2.211c.792-.758.726-1.706.132-2.338"/>
</svg>
