<svg xmlns="http://www.w3.org/2000/svg" width="24" height="24" fill="none" viewBox="0 0 24 24">
  <path fill="#000" d="M10.416 12.624c.277-.184 1.514-.644 3.306.072l.556-1.392c-2.208-.884-3.97-.41-4.694.072l.832 1.248ZM9.25 12A3.25 3.25 0 0 1 6 15.25v1.5A4.75 4.75 0 0 0 10.75 12h-1.5ZM6 15.25A3.25 3.25 0 0 1 2.75 12h-1.5A4.75 4.75 0 0 0 6 16.75v-1.5ZM2.75 12A3.25 3.25 0 0 1 6 8.75v-1.5A4.75 4.75 0 0 0 1.25 12h1.5ZM6 8.75A3.25 3.25 0 0 1 9.25 12h1.5A4.75 4.75 0 0 0 6 7.25v1.5ZM21.25 12A3.25 3.25 0 0 1 18 15.25v1.5A4.75 4.75 0 0 0 22.75 12h-1.5ZM18 15.25A3.25 3.25 0 0 1 14.75 12h-1.5A4.75 4.75 0 0 0 18 16.75v-1.5ZM14.75 12A3.25 3.25 0 0 1 18 8.75v-1.5A4.75 4.75 0 0 0 13.25 12h1.5ZM18 8.75A3.25 3.25 0 0 1 21.25 12h1.5A4.75 4.75 0 0 0 18 7.25v1.5Z"/>
</svg>
