<svg xmlns="http://www.w3.org/2000/svg" width="24" height="24" fill="none" viewBox="0 0 24 24">
  <path stroke="#000" stroke-linecap="round" stroke-linejoin="round" stroke-width="1.5" d="M21 16h-3a3 3 0 0 0-3 3v2m7-9c0 5.523-4.477 10-10 10S2 17.523 2 12 6.477 2 12 2s10 4.477 10 10ZM8 3v2.75A2.25 2.25 0 0 0 10.25 8h.25a2 2 0 0 1 2 2 2 2 0 0 0 2 2h.5a2 2 0 0 0 2-2v-.447C17 8.695 17.695 8 18.553 8c1.138 0 1.85-1.173 1.131-2.056C17.588 3.369 13.63.81 8 3ZM7 13.443V14a2 2 0 0 0 2 2 2 2 0 0 1 2 2v.83c0 1.5-1.201 2.765-2.63 2.31-2.42-.768-5.164-2.877-6.077-7.598C2.028 12.174 3.163 11 4.557 11A2.443 2.443 0 0 1 7 13.443Z"/>
</svg>
