<svg xmlns="http://www.w3.org/2000/svg" width="24" height="24" fill="none" viewBox="0 0 24 24">
  <path stroke="#000" stroke-linecap="round" stroke-linejoin="round" stroke-width="1.5" d="M22 12.041C22 17.541 17.523 22 12 22S2 17.541 2 12.041s4.477-9.958 10-9.958S22 6.54 22 12.04Z"/>
  <path stroke="#000" stroke-linecap="round" stroke-linejoin="round" stroke-width="1.5" d="m6.058 9.692-.872-.608c-1.246-.869-1.675-2.568-.66-3.697 3.012-3.346 7.45-4.064 9.974-2.806l-.32 2.866a2.988 2.988 0 0 1-1.64 2.342l-2.13 1.06c-.272.136-.52.314-.734.528a2.834 2.834 0 0 1-3.618.315Zm5.127 4.968.403-.803a1.002 1.002 0 0 1 1.266-.48l3.002 1.196c.59.235.813.95.46 1.477l-1.02 1.523a1.001 1.001 0 0 1-.831.444H12.72a1 1 0 0 1-.949-.681l-.641-1.916a.992.992 0 0 1 .054-.76Z"/>
</svg>
