<svg xmlns="http://www.w3.org/2000/svg" width="24" height="24" fill="none" viewBox="0 0 24 24">
  <path fill="#000" d="M16.183 6.15a.75.75 0 0 0 1.5 0h-1.5Zm1.5-.009a.75.75 0 0 0-1.5 0h1.5Zm2.889 1.213a.75.75 0 0 0-1.319.715l1.319-.715ZM14.687 4.2a.75.75 0 0 0 .489-1.418L14.687 4.2Zm2.29 7.786-.538.523.544.559.537-.565-.543-.517Zm-2.963-6.92.692.287-.692-.288Zm5.85-.033-.69.295.69-.295ZM4.43 10.862l-.124-.74.124.74Zm2.659-.443-.124-.74.124.74Zm1.906.97-.671.336.67-.336Zm.961 1.924-.67.335.67-.335Zm.717.757.372-.65-.372.65Zm.813.465.372-.652-.373.652Zm.49 2.715.575.48-.576-.48Zm-.459.55-.576-.48.576.48Zm-2.361 2.756.243-.71-.243.71ZM3.01 12.55l.748-.05-.748.05Zm14.673-6.4v-.009h-1.5v.009h1.5Zm-.75.3a.3.3 0 0 1-.3-.3h1.5a1.2 1.2 0 0 0-1.2-1.2v1.5Zm-.3-.3a.3.3 0 0 1 .3-.3v1.5a1.2 1.2 0 0 0 1.2-1.2h-1.5Zm.3-.3a.3.3 0 0 1 .3.3h-1.5a1.2 1.2 0 0 0 1.2 1.2v-1.5Zm.3.3a.3.3 0 0 1-.3.3v-1.5a1.2 1.2 0 0 0-1.2 1.2h1.5Zm2.02 1.919a8.25 8.25 0 0 1 .84 5.537l1.47.292a9.75 9.75 0 0 0-.991-6.544l-1.319.715Zm.84 5.537a8.25 8.25 0 0 1-2.891 4.797l.946 1.165a9.75 9.75 0 0 0 3.415-5.67l-1.47-.292Zm-2.891 4.797a8.25 8.25 0 0 1-5.287 1.847l-.016 1.5a9.75 9.75 0 0 0 6.249-2.183l-.946-1.164Zm-5.287 1.847a8.25 8.25 0 0 1-5.248-1.956l-.97 1.145a9.75 9.75 0 0 0 6.202 2.31l.016-1.5Zm-5.248-1.956a8.25 8.25 0 0 1-2.79-4.856l-1.478.262a9.75 9.75 0 0 0 3.298 5.739l.97-1.145Zm-2.79-4.856A8.25 8.25 0 0 1 4.83 7.92l-1.304-.742A9.75 9.75 0 0 0 2.399 13.7l1.477-.262ZM4.83 7.92a8.25 8.25 0 0 1 4.257-3.64l-.53-1.403a9.75 9.75 0 0 0-5.031 4.3l1.304.742Zm4.257-3.64a8.25 8.25 0 0 1 5.6-.081l.489-1.418a9.75 9.75 0 0 0-6.618.096l.53 1.403Zm7.89 7.705.538-.523-.001-.001-.007-.007-.03-.032a15.692 15.692 0 0 1-.547-.619 15.925 15.925 0 0 1-1.224-1.662c-.42-.664-.787-1.377-.985-2.059-.198-.686-.207-1.268-.015-1.73l-1.385-.576c-.372.896-.291 1.858-.04 2.724.252.87.697 1.717 1.158 2.444a17.435 17.435 0 0 0 1.985 2.548l.01.01.004.004v.001h.001l.538-.522Zm-2.27-6.633c.872-2.103 3.572-2.118 4.468-.025l1.379-.59c-1.419-3.313-5.851-3.289-7.233.04l1.385.575Zm4.468-.025c.197.46.195 1.042.004 1.73-.19.685-.549 1.402-.962 2.07a15.924 15.924 0 0 1-1.775 2.332l-.007.008-.001.001.543.517c.543.517.544.517.544.516h.001c0-.002.002-.003.003-.004l.01-.011.038-.04.136-.15a17.405 17.405 0 0 0 1.784-2.38c.453-.732.888-1.584 1.131-2.457.242-.868.311-1.831-.07-2.722l-1.38.59ZM4.553 11.602l2.659-.444-.247-1.48-2.659.444.247 1.48Zm3.77.123.963 1.923 1.341-.67-.962-1.924-1.341.67Zm1.978 2.997.812.464.745-1.303-.813-.464-.744 1.303ZM11.4 16.77l-.458.55 1.152.96.458-.55-1.152-.96Zm-1.049 2.182V19h1.5v-.05h-1.5Zm-.95.894c-2.449-.84-5.348-2.953-5.642-7.345l-1.497.1c.347 5.179 3.83 7.696 6.652 8.664l.486-1.419Zm.95-.845a.948.948 0 0 1-.322.73.624.624 0 0 1-.629.115l-.486 1.42c1.612.552 2.937-.81 2.937-2.265h-1.5Zm.591-1.682a2.55 2.55 0 0 0-.59 1.633h1.5c0-.246.085-.484.242-.673l-1.152-.96Zm.172-2.133a1.05 1.05 0 0 1 .286 1.584l1.152.96a2.55 2.55 0 0 0-.693-3.847l-.745 1.303Zm-1.827-1.538c.225.45.578.824 1.015 1.074l.744-1.303a1.05 1.05 0 0 1-.418-.442l-1.341.671Zm-2.074-2.49a1.05 1.05 0 0 1 1.112.567l1.341-.671a2.55 2.55 0 0 0-2.7-1.375l.247 1.48Zm-2.906-1.036c-1.159.193-2.13 1.196-2.045 2.479l1.497-.1c-.027-.405.285-.814.795-.9l-.247-1.479Z"/>
</svg>
