<svg xmlns="http://www.w3.org/2000/svg" width="24" height="24" fill="none" viewBox="0 0 24 24">
  <path fill="#000" d="M5 3v-.75a.75.75 0 0 0-.75.75H5Zm14 0h.75a.75.75 0 0 0-.75-.75V3Zm-6.317 8.121-.592-.46.592.46Zm-1.366 0 .592-.46-.592.46Zm6.872-2.62-.583-.472.583.472Zm-12.378 0-.583.472.583-.472ZM18.408 2.54l-6.317 8.121 1.184.921 6.317-8.122-1.184-.92Zm-6.5 8.121L5.593 2.54l-1.184.92 6.317 8.122 1.184-.92Zm.183 0a.112.112 0 0 1-.091.048.112.112 0 0 1-.091-.048l-1.184.921c.65.836 1.9.836 2.55 0l-1.184-.92Zm3.117 2.711 3.563-4.399-1.165-.944-3.564 4.399 1.166.944Zm4.542-7.175V3h-1.5v3.197h1.5Zm-.979 2.776a4.413 4.413 0 0 0 .979-2.776h-1.5c0 .672-.23 1.32-.644 1.832l1.165.944ZM4.25 3v3.197h1.5V3h-1.5Zm.978 5.973 3.564 4.4 1.166-.945-3.564-4.399-1.166.944ZM4.25 6.197c0 1.012.345 1.994.978 2.776l1.166-.944a2.913 2.913 0 0 1-.644-1.832h-1.5ZM15.625 16.5c0 2.091-1.643 3.75-3.625 3.75v1.5c2.85 0 5.125-2.37 5.125-5.25h-1.5ZM12 20.25c-1.982 0-3.625-1.659-3.625-3.75h-1.5c0 2.88 2.275 5.25 5.125 5.25v-1.5ZM8.375 16.5c0-2.091 1.643-3.75 3.625-3.75v-1.5c-2.85 0-5.125 2.37-5.125 5.25h1.5ZM12 12.75c1.982 0 3.625 1.659 3.625 3.75h1.5c0-2.88-2.275-5.25-5.125-5.25v1.5Zm-7-9h7v-1.5H5v1.5Zm7 0h7v-1.5h-7v1.5Z"/>
</svg>
