<svg xmlns="http://www.w3.org/2000/svg" width="24" height="24" fill="none" viewBox="0 0 24 24">
  <path fill="#000" d="m10.793 4.29.339.668-.34-.669ZM3 8.24l-.34-.668a.75.75 0 0 0 0 1.338L3 8.24Zm7.793 3.953.339-.67-.34.67Zm2.415 0 .339.669-.34-.67ZM21 8.24l.34.669a.75.75 0 0 0 0-1.338L21 8.24Zm-7.793-3.952.34-.669-.34.67Zm-.805 15.615-.339-.67.34.67Zm6.3-3.195.34.669-.34-.67Zm-7.105 3.195.34-.67-.34.67Zm-6.3-3.195.34-.67-.34.67ZM12.39 7.6a.75.75 0 0 0-.78 1.282l.78-1.282Zm4.11 3.38h.75v-.422l-.36-.22-.39.641Zm-.75 2.738a.75.75 0 0 0 1.5 0h-1.5ZM10.453 3.62 2.661 7.572l.678 1.338 7.793-3.952-.679-1.338ZM2.661 8.91l7.792 3.952.679-1.338-7.793-3.952-.678 1.338Zm10.886 3.952 7.792-3.952-.678-1.338-7.793 3.952.679 1.338Zm7.792-5.29L13.547 3.62l-.679 1.338 7.793 3.952.678-1.338Zm-10.886 5.29c.974.493 2.12.493 3.094 0l-.679-1.338a1.916 1.916 0 0 1-1.736 0l-.679 1.338Zm.679-7.904a1.916 1.916 0 0 1 1.736 0l.679-1.338a3.416 3.416 0 0 0-3.094 0l.679 1.338Zm1.61 15.615 6.3-3.195-.679-1.338-6.3 3.195.679 1.338Zm7.208-4.68v-6.74h-1.5v6.74h1.5Zm-8.013 3.342-6.3-3.195-.679 1.338 6.3 3.195.679-1.338ZM5.55 15.892V9.154h-1.5v6.738h1.5Zm.087.148a.164.164 0 0 1-.087-.148h-1.5c0 .625.348 1.201.908 1.486l.679-1.338Zm13.405 1.338c.56-.285.908-.861.908-1.486h-1.5a.164.164 0 0 1-.087.148l.679 1.338Zm-6.979 1.857a.139.139 0 0 1-.126 0l-.679 1.338a1.638 1.638 0 0 0 1.484 0l-.679-1.338ZM11.61 8.882l4.5 2.738.78-1.281-4.5-2.739-.78 1.282Zm4.14 2.097v2.739h1.5v-2.739h-1.5Z"/>
</svg>
