<svg xmlns="http://www.w3.org/2000/svg" width="24" height="24" fill="none" viewBox="0 0 24 24">
  <path stroke="#000" stroke-linecap="round" stroke-width="1.5" d="m12 8.366 4.5 2.739v2.738"/>
  <path stroke="#000" stroke-linecap="round" stroke-linejoin="round" stroke-width="1.5" d="m3 8.366 7.793-3.952a2.666 2.666 0 0 1 2.415 0L21 8.366l-7.793 3.952a2.666 2.666 0 0 1-2.415 0L3 8.366Z"/>
  <path stroke="#000" stroke-linecap="square" stroke-linejoin="round" stroke-width="1.5" d="M19.4 9.625v5.958a1 1 0 0 1-.146.52l-.204.334a1 1 0 0 1-.401.372l-5.833 2.958a1 1 0 0 1-.453.108h-.326a1 1 0 0 1-.453-.108l-5.833-2.958a1 1 0 0 1-.401-.372l-.204-.334a1 1 0 0 1-.146-.52v-5.458"/>
</svg>
