<svg xmlns="http://www.w3.org/2000/svg" width="24" height="24" fill="none" viewBox="0 0 24 24">
  <path stroke="#000" stroke-linecap="round" stroke-linejoin="round" stroke-width="1.5" d="M16.706 7.46v3.809m0-3.81V7.42a3.294 3.294 0 0 0-3.294-3.294m3.294 3.333A3.294 3.294 0 0 1 20 10.754v2.991a8 8 0 0 1-16 0v-.27c0-1.219.987-2.206 2.206-2.206h1.088m6.118-7.143v7.143m0-7.143v-.312a1.56 1.56 0 0 0-2.502-1.242l-.112.085a1.72 1.72 0 0 0-.68 1.37v.099m0 0v7.143m0-7.143A2.824 2.824 0 0 0 7.294 6.95v4.319m0 0v3.333"/>
</svg>
