<svg xmlns="http://www.w3.org/2000/svg" width="24" height="24" fill="none" viewBox="0 0 24 24">
  <path stroke="#000" stroke-linecap="round" stroke-linejoin="round" stroke-width="1.5" d="M18 3v6m0 0-3-3m3 3 3-3"/>
  <path stroke="#000" stroke-linecap="round" stroke-width="1.5" d="M11 8.5a2.5 2.5 0 1 1-5 0 2.5 2.5 0 0 1 5 0Zm9.625 6.2-3.959-3.167a1 1 0 0 0-1.297.04L5 21"/>
  <path stroke="#000" stroke-linecap="round" stroke-width="1.5" d="M13 3H6a3 3 0 0 0-3 3v13a2 2 0 0 0 2 2h13a3 3 0 0 0 3-3v-2.52a1 1 0 0 0-.375-.78"/>
</svg>
