<svg xmlns="http://www.w3.org/2000/svg" width="24" height="24" fill="none" viewBox="0 0 24 24">
  <path fill="#000" d="M19.57 15.23a.75.75 0 1 0 1.06-1.06l-1.06 1.06ZM15.6 10.2l.53-.53a.75.75 0 0 0-1.06 0l.53.53Zm-9.53 8.47a.75.75 0 1 0 1.06 1.06l-1.06-1.06ZM20.25 12A8.25 8.25 0 0 1 12 20.25v1.5A9.75 9.75 0 0 0 21.75 12h-1.5ZM12 20.25A8.25 8.25 0 0 1 3.75 12h-1.5A9.75 9.75 0 0 0 12 21.75v-1.5ZM3.75 12A8.25 8.25 0 0 1 12 3.75v-1.5A9.75 9.75 0 0 0 2.25 12h1.5ZM12 3.75A8.25 8.25 0 0 1 20.25 12h1.5A9.75 9.75 0 0 0 12 2.25v1.5Zm8.63 10.42-4.5-4.5-1.06 1.06 4.5 4.5 1.06-1.06Zm-5.56-4.5-9 9 1.06 1.06 9-9-1.06-1.06Zm-4.72-.82a1.5 1.5 0 0 1-1.5 1.5v1.5a3 3 0 0 0 3-3h-1.5Zm-1.5 1.5a1.5 1.5 0 0 1-1.5-1.5h-1.5a3 3 0 0 0 3 3v-1.5Zm-1.5-1.5a1.5 1.5 0 0 1 1.5-1.5v-1.5a3 3 0 0 0-3 3h1.5Zm1.5-1.5a1.5 1.5 0 0 1 1.5 1.5h1.5a3 3 0 0 0-3-3v1.5Z"/>
</svg>
