<svg xmlns="http://www.w3.org/2000/svg" width="24" height="24" fill="none" viewBox="0 0 24 24">
  <path fill="#000" d="m6 15-.658-.36A.75.75 0 0 0 6 15.75V15Zm3-5.5.45-.6a.75.75 0 0 0-1.108.24L9 9.5Zm2 1.5-.45.6a.75.75 0 0 0 1.06-.164L11 11Zm2.5-3.5.643-.386a.75.75 0 0 0-1.253-.05l.61.436ZM18 15v.75a.75.75 0 0 0 .643-1.136L18 15ZM6 3.75h12v-1.5H6v1.5ZM20.25 6v12h1.5V6h-1.5ZM18 20.25H6v1.5h12v-1.5ZM3.75 18V6h-1.5v12h1.5ZM6 20.25A2.25 2.25 0 0 1 3.75 18h-1.5A3.75 3.75 0 0 0 6 21.75v-1.5ZM20.25 18A2.25 2.25 0 0 1 18 20.25v1.5A3.75 3.75 0 0 0 21.75 18h-1.5ZM18 3.75A2.25 2.25 0 0 1 20.25 6h1.5A3.75 3.75 0 0 0 18 2.25v1.5ZM6 2.25A3.75 3.75 0 0 0 2.25 6h1.5A2.25 2.25 0 0 1 6 3.75v-1.5Zm.658 13.11 3-5.5-1.316-.72-3 5.5 1.316.72ZM8.55 10.1l2 1.5.9-1.2-2-1.5-.9 1.2Zm3.06 1.336 2.5-3.5-1.22-.872-2.5 3.5 1.22.872Zm1.247-3.55 4.5 7.5 1.286-.772-4.5-7.5-1.286.772ZM18 14.25H6v1.5h12v-1.5Z"/>
</svg>
