<svg xmlns="http://www.w3.org/2000/svg" width="24" height="24" fill="none" viewBox="0 0 24 24">
  <path stroke="#000" stroke-linecap="round" stroke-linejoin="round" stroke-width="1.5" d="m21.688 12-3.072-6.143a2.906 2.906 0 0 0-2.6-1.607H7.984a2.907 2.907 0 0 0-2.6 1.607L2.312 12m19.375 0h-3.76c-.664 0-1.27.375-1.568.969a1.753 1.753 0 0 1-1.567.969H9.208c-.664 0-1.27-.376-1.567-.97A1.752 1.752 0 0 0 6.073 12h-3.76m19.375 0v4.844a2.906 2.906 0 0 1-2.907 2.906H5.22a2.906 2.906 0 0 1-2.907-2.906V12"/>
</svg>
