<svg xmlns="http://www.w3.org/2000/svg" width="24" height="24" fill="none" viewBox="0 0 24 24">
  <path fill="#000" d="M8.03 10.57a.75.75 0 0 0-1.06 1.06l1.06-1.06Zm2.17 3.23-.53.53a.75.75 0 0 0 1.06 0l-.53-.53Zm3.15-3.15.53-.53a.75.75 0 0 0-1.06 0l.53.53Zm2.62 3.68a.75.75 0 1 0 1.06-1.06l-1.06 1.06ZM20.25 12A8.25 8.25 0 0 1 12 20.25v1.5A9.75 9.75 0 0 0 21.75 12h-1.5ZM12 20.25A8.25 8.25 0 0 1 3.75 12h-1.5A9.75 9.75 0 0 0 12 21.75v-1.5ZM3.75 12A8.25 8.25 0 0 1 12 3.75v-1.5A9.75 9.75 0 0 0 2.25 12h1.5ZM12 3.75A8.25 8.25 0 0 1 20.25 12h1.5A9.75 9.75 0 0 0 12 2.25v1.5Zm-5.03 7.88 2.7 2.7 1.06-1.06-2.7-2.7-1.06 1.06Zm3.76 2.7 3.15-3.15-1.06-1.06-3.15 3.15 1.06 1.06Zm2.09-3.15 3.15 3.15 1.06-1.06-3.15-3.15-1.06 1.06Z"/>
</svg>
