<svg xmlns="http://www.w3.org/2000/svg" width="24" height="24" fill="none" viewBox="0 0 24 24">
  <path stroke="#000" stroke-linecap="round" stroke-linejoin="round" stroke-width="1.5" d="M15.907 12.358c2.13.406 3.88 1.133 4.953 2.055 1.073.922 1.402 1.984.93 3.003-.47 1.02-1.712 1.934-3.513 2.587-1.801.654-4.05 1.006-6.364.997-2.313-.01-4.548-.379-6.324-1.046-1.775-.668-2.982-1.591-3.413-2.614-.432-1.023-.062-2.082 1.046-2.996 1.108-.913 2.886-1.626 5.031-2.016M12 17v-6.5m0 0V3l6 4-6 3.5Z"/>
</svg>
