<svg xmlns="http://www.w3.org/2000/svg" width="24" height="24" fill="none" viewBox="0 0 24 24">
  <path stroke="#000" stroke-linecap="round" stroke-linejoin="round" stroke-width="1.5" d="m3 3 3.099 12.913c.096.4.41.711.811.804l5.814 1.341c.364.085.747-.025 1.011-.29l4.033-4.033a1.08 1.08 0 0 0 .29-1.011L16.717 6.91a1.085 1.085 0 0 0-.804-.811L3 3Zm0 0 5.969 5.969m3.798 1.628a2.17 2.17 0 1 1-4.34 0 2.17 2.17 0 0 1 4.34 0Zm1.404 10.085-.636-.636a1.085 1.085 0 0 1 0-1.534l4.977-4.977a1.085 1.085 0 0 1 1.534 0l.636.636a1.085 1.085 0 0 1 0 1.534l-4.977 4.977a1.085 1.085 0 0 1-1.534 0Z"/>
</svg>
