<svg xmlns="http://www.w3.org/2000/svg" width="24" height="24" fill="none" viewBox="0 0 24 24">
  <path fill="#000" d="m9.01 4.203-.53.53.53-.53Zm.543.544.53-.53-.53.53Zm10.36 10.193-.488.57.488-.57Zm.508.436.489-.57-.489.57Zm.243 3.375.564.494-.564-.494Zm-.517.591-.565-.494.565.494ZM4.908 5.45l-.592-.46.592.46Zm.81-1.04.592.46-.592-.46Zm3.474 4.713-.585.468.585-.468Zm.47 1.788a.75.75 0 0 0 1.171-.937l-1.171.937ZM4.593 8.632l.67-.335-.67.335Zm.984 3.645a.75.75 0 0 0 1.341-.671l-1.341.67Zm10.061 2.998.386-.643-.386.643Zm-3.505-2.977a.75.75 0 0 0-.771 1.286l.771-1.286Zm4.642 7.854.278-.696-.278.696Zm-1.632-.653-.278.697.278-.697Zm-2.627-1.42-.43.615.43-.615Zm-3.338-3.252a.75.75 0 0 0-.86 1.229l.86-1.23Zm.25-7.83L8.96 6.41l.468.586Zm11.826-2.503a.75.75 0 0 0-1.013-1.106l1.013 1.106ZM2.241 19.888a.75.75 0 0 0 1.013 1.106l-1.013-1.106ZM8.479 4.734l.544.543 1.06-1.06-.543-.544-1.06 1.06Zm10.946 10.775.508.436.977-1.139-.51-.436-.975 1.14Zm.674 2.748-.517.591 1.13.988.516-.59-1.129-.989ZM5.5 5.91l.81-1.04-1.184-.921-.81 1.04L5.5 5.91Zm3.107 3.68 1.055 1.32 1.171-.937-1.055-1.32-1.171.937Zm-4.685-.622 1.655 3.309 1.341-.671-1.654-3.31-1.342.672Zm12.102 5.664-3.89-2.334-.772 1.286 3.89 2.335.772-1.287Zm1.03 4.824-1.632-.653-.557 1.393 1.631.652.557-1.392Zm-4.108-1.991-3.768-2.638-.86 1.229 3.768 2.638.86-1.23ZM4.316 4.988a3.75 3.75 0 0 0-.394 3.98l1.342-.671A2.25 2.25 0 0 1 5.5 5.909l-1.184-.92Zm15.266 13.86a2.25 2.25 0 0 1-2.529.608l-.557 1.392a3.75 3.75 0 0 0 4.215-1.012l-1.129-.988Zm.351-2.903c.69.59.764 1.63.166 2.312l1.13.988a3.13 3.13 0 0 0-.32-4.439l-.976 1.14Zm-1.74-.388a.907.907 0 0 1 1.232-.048l.976-1.139a2.407 2.407 0 0 0-3.269.126l1.06 1.06Zm-1.06-1.061a.907.907 0 0 1-1.109.136l-.772 1.287c.947.568 2.16.419 2.94-.362l-1.06-1.061ZM8.96 6.41a2.262 2.262 0 0 0-.353 3.18l1.17-.938a.762.762 0 0 1 .12-1.07L8.96 6.41Zm6.462 12.392a12.249 12.249 0 0 1-2.476-1.338l-.86 1.229a13.76 13.76 0 0 0 2.779 1.502l.557-1.393Zm-6.4-13.526A.762.762 0 0 1 8.96 6.41l.937 1.171a2.262 2.262 0 0 0 .186-3.366l-1.06 1.06Zm.518-1.604a2.95 2.95 0 0 0-4.414.275l1.184.92a1.45 1.45 0 0 1 2.17-.134l1.06-1.061Zm10.7-.285-18 16.5 1.014 1.106 18-16.5-1.013-1.106Z"/>
</svg>
