<svg xmlns="http://www.w3.org/2000/svg" width="24" height="24" fill="none" viewBox="0 0 24 24">
  <path stroke="#000" stroke-linejoin="round" stroke-width="1.5" d="m8.885 4.764-.616-.616a2.338 2.338 0 0 0-3.306 0l-.79.79a2.706 2.706 0 0 0-.726 2.513 17.14 17.14 0 0 0 11.49 12.526l1.303.417a3 3 0 0 0 3.172-.881l.62-.709a2.38 2.38 0 0 0-.242-3.375l-.51-.436a1.657 1.657 0 0 0-2.25.087 1.657 1.657 0 0 1-2.024.249l-1.516-.91a13.001 13.001 0 0 1-3.962-3.693L8.454 9.191a1.558 1.558 0 0 1 .303-2.11c.725-.58.784-1.66.128-2.317Z"/>
</svg>
