<svg xmlns="http://www.w3.org/2000/svg" width="24" height="24" fill="none" viewBox="0 0 24 24">
  <path fill="#000" d="M13.289 3.252a.75.75 0 1 0-.095 1.497l.095-1.497Zm6.463 7.704a.75.75 0 1 0 1.496-.105l-1.496.104ZM7.936 5.858 7.42 6.4l.517-.543Zm.168 4.352-.604.445.604-.445Zm.975 1.325.604-.445-.604.445Zm3.594 3.186-.371.651.371-.651Zm1.376.785.372-.652-.372.652Zm3.879-.29-.474.582.474-.582Zm.462.377.473-.582-.473.582Zm.22 2.912.551.508-.552-.508Zm-.563.61-.552-.507.552.508Zm-2.878.762.218-.718-.218.718Zm-1.183-.36.218-.718-.218.718ZM4.22 6.54l-.517-.544.517.544Zm.717-.682-.516-.544.516.544Zm-1.375 2.85-.73.175.73-.174ZM8.38 8.39l-.454-.597.454.597Zm4.963-1.682a.75.75 0 0 0-.202 1.487l.202-1.487Zm2.787 4.306a.75.75 0 0 0 1.483-.222l-1.483.222ZM13.194 4.75c1.02.064 2.603.46 3.955 1.425 1.326.947 2.439 2.442 2.603 4.782l1.496-.105c-.199-2.838-1.582-4.723-3.227-5.897-1.62-1.156-3.484-1.623-4.732-1.702l-.095 1.497ZM7.419 6.4l.56.532 1.033-1.087-.559-.532L7.42 6.401Zm.08 4.254.976 1.324 1.208-.889-.975-1.324-1.208.889Zm4.803 4.717 1.376.785.743-1.303-1.376-.785-.743 1.303Zm5.152.426.462.376.947-1.163-.461-.376-.948 1.163Zm.603 2.2-.562.61 1.104 1.016.562-.611-1.104-1.016Zm-2.67 1.161-1.183-.36-.436 1.435 1.183.36.436-1.435ZM4.737 7.083l.716-.682L4.42 5.314l-.718.682 1.034 1.087ZM14.203 18.8c-5-1.521-8.759-5.434-9.913-10.265l-1.46.349c1.285 5.376 5.455 9.683 10.937 11.351l.436-1.435ZM4.291 8.534a1.51 1.51 0 0 1 .445-1.45L3.702 5.995a3.01 3.01 0 0 0-.87 2.887l1.459-.349Zm13.204 10.074c-.513.558-1.342.784-2.108.551l-.436 1.435c1.3.396 2.733.024 3.648-.97l-1.104-1.016Zm.42-2.434c.582.474.637 1.285.142 1.823l1.104 1.016c1.088-1.182.945-2.989-.298-4.002l-.947 1.163Zm-1.512-.34a.81.81 0 0 1 1.051-.036l.948-1.163a2.31 2.31 0 0 0-3.033.112l1.034 1.087ZM8.475 11.98a12.334 12.334 0 0 0 3.827 3.393l.743-1.303a10.835 10.835 0 0 1-3.362-2.979l-1.208.89Zm5.203 4.178a2.312 2.312 0 0 0 2.725-.323l-1.034-1.087a.812.812 0 0 1-.948.107l-.743 1.303ZM7.925 7.793a2.05 2.05 0 0 0-.425 2.862l1.208-.89a.55.55 0 0 1 .125-.778l-.908-1.194Zm.054-.86a.552.552 0 0 1-.054.86l.908 1.194a2.051 2.051 0 0 0 .18-3.14L7.978 6.932Zm.474-1.619a2.95 2.95 0 0 0-4.033 0l1.033 1.087a1.45 1.45 0 0 1 1.966 0l1.034-1.087Zm4.687 2.88a4.013 4.013 0 0 1 1.73.733c.6.447 1.112 1.109 1.259 2.087l1.483-.222c-.216-1.438-.988-2.43-1.847-3.069-.843-.627-1.783-.928-2.423-1.015l-.202 1.487Z"/>
</svg>
