<svg xmlns="http://www.w3.org/2000/svg" width="24" height="24" fill="none" viewBox="0 0 24 24">
  <path stroke="#000" stroke-linecap="round" stroke-width="1.5" d="M7.266 7.709c1.609-1.29 5.792-3.095 9.654 0M9.826 9.138c.804-.553 2.896-1.327 4.827 0"/>
  <path stroke="#000" stroke-linecap="round" stroke-linejoin="round" stroke-width="1.5" d="M19.005 17.862h-.711c-.81 0-1.44-.644-1.35-1.38.076-.63-.376-1.212-1.05-1.351l-1.121-.232a12.072 12.072 0 0 0-5.725.206l-.903.257c-.608.172-1.022.687-1.022 1.27 0 .694-.584 1.271-1.34 1.325l-.536.037c-1.126.08-2.107-.698-2.182-1.73l-.06-.814c-.064-.889.438-1.732 1.288-2.163l.339-.172c4.75-2.41 10.543-2.32 15.2.238.725.398 1.168 1.114 1.168 1.888v.794c0 1.01-.893 1.827-1.995 1.827Z"/>
</svg>
