<svg xmlns="http://www.w3.org/2000/svg" width="24" height="24" fill="none" viewBox="0 0 24 24">
  <path stroke="#000" stroke-linecap="round" stroke-linejoin="round" stroke-width="1.5" d="m7.806 16.156-3.882-3.883a1 1 0 0 1 .37-1.649l5.3-1.892a1 1 0 0 0 .371-.235l1.726-1.726a.998.998 0 0 0 .188-.26l1.807-3.614a1 1 0 0 1 1.601-.26l6.114 6.113a1 1 0 0 1-.193 1.565l-3.796 2.278a.997.997 0 0 0-.193.15l-1.73 1.73a.999.999 0 0 0-.254.432l-1.462 5.117a1 1 0 0 1-1.669.432l-4.298-4.298Zm0 0-5.5 5.5"/>
</svg>
