<svg xmlns="http://www.w3.org/2000/svg" width="24" height="24" fill="none" viewBox="0 0 24 24">
  <path fill="#000" d="M17.52 21.576a.75.75 0 0 0 .96-1.152l-.96 1.152ZM11.25 21a.75.75 0 0 0 1.5 0h-1.5Zm5.5-10a.75.75 0 0 0-1.5 0h1.5Zm-1.5 1a.75.75 0 0 0 1.5 0h-1.5ZM22 3.75a.75.75 0 0 0 0-1.5v1.5ZM2 2.25a.75.75 0 0 0 0 1.5v-1.5ZM8.75 7a.75.75 0 0 0-1.5 0h1.5Zm-1.5 5a.75.75 0 0 0 1.5 0h-1.5Zm5.5-3a.75.75 0 0 0-1.5 0h1.5Zm-1.5 3a.75.75 0 0 0 1.5 0h-1.5Zm-5.73 8.424a.75.75 0 0 0 .96 1.152l-.96-1.152Zm12.96 0-6-5-.96 1.152 6 5 .96-1.152ZM11.25 16v5h1.5v-5h-1.5Zm4-5v1h1.5v-1h-1.5Zm-13-8v10h1.5V3h-1.5Zm19.5 10V3h-1.5v10h1.5ZM21 3.75h1v-1.5h-1v1.5Zm0-1.5H3v1.5h18v-1.5ZM2 3.75h1v-1.5H2v1.5Zm16 13A3.75 3.75 0 0 0 21.75 13h-1.5A2.25 2.25 0 0 1 18 15.25v1.5ZM2.25 13A3.75 3.75 0 0 0 6 16.75v-1.5A2.25 2.25 0 0 1 3.75 13h-1.5Zm5-6v5h1.5V7h-1.5Zm4 2v3h1.5V9h-1.5Zm.27 6.424-6 5 .96 1.152 6-5-.96-1.152ZM6 16.75h6v-1.5H6v1.5Zm6 0h6v-1.5h-6v1.5Z"/>
</svg>
