<svg xmlns="http://www.w3.org/2000/svg" width="24" height="24" fill="none" viewBox="0 0 24 24">
  <path stroke="#000" stroke-linejoin="round" stroke-width="1.5" d="M14.824 6.289c0-.305.163-.58.351-.822.194-.249.306-.544.306-.86 0-.887-.882-1.607-1.97-1.607-1.09 0-1.971.72-1.971 1.607 0 .316.112.611.305.86.188.242.351.517.351.822v.834a.38.38 0 0 1-.383.377c-1.65 0-3.278-.093-4.878-.274.185 1.566.28 3.16.28 4.774v.027l-.862.004c-.31.002-.593-.156-.841-.34a1.463 1.463 0 0 0-.88-.293c-.907.004-1.638.872-1.632 1.937.006 1.065.746 1.924 1.653 1.92.323-.002.624-.113.877-.304.246-.186.527-.347.838-.348a.696.696 0 0 1 .71.742 40.282 40.282 0 0 1-.794 5.302 43.34 43.34 0 0 0 5.529.353.38.38 0 0 0 .383-.377v-.834c0-.305-.162-.58-.35-.822a1.393 1.393 0 0 1-.306-.86c0-.887.882-1.607 1.97-1.607 1.089 0 1.971.72 1.971 1.607 0 .316-.112.611-.306.86-.188.242-.35.517-.35.822v.072a.958.958 0 0 0 1.053.95 42.847 42.847 0 0 0 4.3-.625c.33-1.605.566-3.244.7-4.91a.702.702 0 0 0-.716-.747c-.31.002-.591.162-.837.348a1.47 1.47 0 0 1-.877.304c-.907.005-1.648-.855-1.653-1.92-.006-1.065.724-1.932 1.631-1.937a1.46 1.46 0 0 1 .88.294c.249.183.53.341.842.34.476-.003.862-.382.852-.848a40.57 40.57 0 0 0-.35-4.52 42.96 42.96 0 0 1-4.772.72.959.959 0 0 1-1.054-.949V6.29Z"/>
</svg>
