<svg xmlns="http://www.w3.org/2000/svg" width="24" height="24" fill="none" viewBox="0 0 24 24">
  <path fill="#000" d="M10 8.71a.5.5 0 1 1-1 0 .5.5 0 0 1 1 0Zm6 6a.5.5 0 1 1-1 0 .5.5 0 0 1 1 0Z"/>
  <path stroke="#000" stroke-linecap="round" stroke-width="1.5" d="m16 8.21-7 7M8.34 4.987l-.494-.079A2 2 0 0 0 5.533 6.85l-.009.5a2 2 0 0 1-.97 1.68l-.429.258a2 2 0 0 0-.524 2.973l.315.389a2 2 0 0 1 .337 1.91l-.163.473a2 2 0 0 0 1.51 2.615l.49.095a2 2 0 0 1 1.486 1.247l.18.467a2 2 0 0 0 2.837 1.033l.437-.243a2 2 0 0 1 1.94 0l.437.243a2 2 0 0 0 2.838-1.033l.179-.467a2 2 0 0 1 1.486-1.247l.49-.095a2 2 0 0 0 1.51-2.615l-.163-.473a2 2 0 0 1 .337-1.91l.315-.389a2 2 0 0 0-.524-2.973l-.429-.258a2 2 0 0 1-.97-1.68l-.008-.5a2 2 0 0 0-2.314-1.94l-.493.078a2 2 0 0 1-1.823-.664l-.328-.377a2 2 0 0 0-3.02 0l-.328.377a2 2 0 0 1-1.823.664ZM10 8.709a.5.5 0 1 1-1 0 .5.5 0 0 1 1 0Zm6 6a.5.5 0 1 1-1 0 .5.5 0 0 1 1 0Z"/>
</svg>
