<svg xmlns="http://www.w3.org/2000/svg" width="24" height="24" fill="none" viewBox="0 0 24 24">
  <path stroke="#000" stroke-linecap="round" stroke-width="1.5" d="M6.166 9.417c1.444 0 2.614-1.194 2.614-2.667 0-1.473-1.17-2.667-2.614-2.667-1.443 0-2.614 1.194-2.614 2.667 0 1.473 1.17 2.667 2.614 2.667Zm-.114 10.5c1.444 0 2.614-1.194 2.614-2.667 0-1.473-1.17-2.667-2.614-2.667s-2.614 1.194-2.614 2.667c0 1.473 1.17 2.667 2.614 2.667Zm13-12.334-12.5 7m12.5 2-12.5-7"/>
  <path stroke="#000" stroke-linecap="round" stroke-linejoin="round" stroke-width="2" d="M16.552 12.083h.01m3.99 0h.01"/>
</svg>
