<svg xmlns="http://www.w3.org/2000/svg" width="24" height="24" fill="none" viewBox="0 0 24 24">
  <path stroke="#000" stroke-linecap="round" stroke-linejoin="round" stroke-width="1.5" d="M3 3.5h.96c.478 0 .874.379.904.865L4.98 6.27l.51 8.308.173 2.827c.03.486.425.865.903.865H18.39"/>
  <path stroke="#000" stroke-linecap="round" stroke-linejoin="round" stroke-width="1.5" d="M19.39 14.577H6.43a1 1 0 0 1-.998-.939L5.046 7.33a1 1 0 0 1 .998-1.06h14.05c.54 0 .96.478.9 1.024l-.704 6.462a.912.912 0 0 1-.9.821Z"/>
  <path stroke="#000" stroke-linecap="round" stroke-linejoin="round" stroke-width="2" d="M8 20.5h.01m7.99 0h.01"/>
</svg>
