<svg xmlns="http://www.w3.org/2000/svg" width="24" height="24" fill="none" viewBox="0 0 24 24">
  <path fill="#000" d="m18.9 4.08.576-.48-.576.48ZM21 6.6h.75a.75.75 0 0 0-.174-.48L21 6.6Zm-18 0-.576-.48a.75.75 0 0 0-.174.48H3Zm2.1-2.52.577.48-.577-.48ZM17.75 10a.75.75 0 0 0-1.5 0h1.5ZM12 15v-.75.75Zm-4.25-5a.75.75 0 0 0-1.5 0h1.5Zm-.345-6.25h9.19v-1.5h-9.19v1.5Zm10.918.81 2.1 2.52 1.153-.96-2.1-2.52-1.153.96ZM20.25 6.6V18h1.5V6.6h-1.5ZM18 20.25H6v1.5h12v-1.5ZM3.75 18V6.6h-1.5V18h1.5ZM3.576 7.08l2.1-2.52-1.152-.96-2.1 2.52 1.152.96ZM3 7.35h18v-1.5H3v1.5Zm3 12.9A2.25 2.25 0 0 1 3.75 18h-1.5A3.75 3.75 0 0 0 6 21.75v-1.5ZM20.25 18A2.25 2.25 0 0 1 18 20.25v1.5A3.75 3.75 0 0 0 21.75 18h-1.5ZM16.595 3.75a2.25 2.25 0 0 1 1.728.81l1.153-.96a3.75 3.75 0 0 0-2.881-1.35v1.5Zm-9.19-1.5a3.75 3.75 0 0 0-2.88 1.35l1.152.96a2.25 2.25 0 0 1 1.728-.81v-1.5ZM16.25 10c0 .558-.11 1.11-.323 1.626l1.385.574a5.75 5.75 0 0 0 .438-2.2h-1.5Zm-.323 1.626a4.25 4.25 0 0 1-.922 1.38l1.06 1.06a5.751 5.751 0 0 0 1.247-1.866l-1.386-.574Zm-.922 1.38a4.25 4.25 0 0 1-1.379.92l.574 1.386a5.751 5.751 0 0 0 1.866-1.246l-1.06-1.06Zm-1.379.92A4.25 4.25 0 0 1 12 14.25v1.5a5.75 5.75 0 0 0 2.2-.438l-.574-1.385ZM12 14.25a4.25 4.25 0 0 1-1.626-.323L9.8 15.312a5.75 5.75 0 0 0 2.2.438v-1.5Zm-1.626-.323a4.25 4.25 0 0 1-1.38-.922l-1.06 1.06A5.751 5.751 0 0 0 9.8 15.313l.574-1.385Zm-1.38-.922a4.25 4.25 0 0 1-.92-1.379l-1.386.574a5.75 5.75 0 0 0 1.246 1.866l1.06-1.06Zm-.92-1.379A4.25 4.25 0 0 1 7.75 10h-1.5c0 .755.149 1.503.438 2.2l1.386-.574Z"/>
</svg>
