<svg xmlns="http://www.w3.org/2000/svg" width="24" height="24" fill="none" viewBox="0 0 24 24">
  <path fill="#000" d="m12 7 .681-.314a.75.75 0 0 0-1.362 0L12 7Zm1.41 3.058-.68.315.175.38.417.05.089-.745Zm3.345.397.51.55a.75.75 0 0 0-.421-1.295l-.089.745Zm-2.472 2.287-.51-.551-.308.285.082.412.736-.146Zm.656 3.303-.366.654a.75.75 0 0 0 1.102-.8l-.736.146ZM12 14.4l.366-.654L12 13.54l-.366.206.366.654Zm-2.939 1.645-.736-.146a.75.75 0 0 0 1.102.8l-.366-.654Zm.656-3.303.736.146.082-.412-.308-.285-.51.55Zm-2.472-2.287-.089-.745a.75.75 0 0 0-.42 1.296l.509-.551Zm3.344-.397.089.745.417-.05.175-.38-.68-.315ZM11.25 4a.75.75 0 0 0 1.5 0h-1.5Zm1.5-2a.75.75 0 0 0-1.5 0h1.5ZM6.47 7.53a.75.75 0 0 0 1.06-1.06L6.47 7.53Zm-.94-3.06a.75.75 0 0 0-1.06 1.06l1.06-1.06ZM2 11.25a.75.75 0 0 0 0 1.5v-1.5Zm2 1.5a.75.75 0 0 0 0-1.5v1.5Zm.47 5.72a.75.75 0 1 0 1.06 1.06l-1.06-1.06Zm2.56-.44a.75.75 0 1 0-1.06-1.06l1.06 1.06ZM12.75 20a.75.75 0 0 0-1.5 0h1.5Zm-1.5 2a.75.75 0 0 0 1.5 0h-1.5Zm7.22-2.47a.75.75 0 1 0 1.06-1.06l-1.06 1.06Zm-.44-2.56a.75.75 0 1 0-1.06 1.06l1.06-1.06Zm-1.06-11a.75.75 0 0 0 1.06 1.06l-1.06-1.06Zm2.56-.44a.75.75 0 0 0-1.06-1.06l1.06 1.06Zm.47 5.72a.75.75 0 0 0 0 1.5v-1.5Zm2 1.5a.75.75 0 0 0 0-1.5v1.5ZM11.319 7.314l1.41 3.059 1.363-.629-1.41-3.058-1.363.628Zm2.003 3.49 3.345.396.177-1.49-3.345-.396-.177 1.49Zm2.924-.9-2.473 2.287 1.019 1.101 2.473-2.286-1.019-1.102Zm-2.699 2.984.656 3.303 1.472-.292-.657-3.303-1.471.292Zm1.758 2.503-2.939-1.645-.732 1.308 2.939 1.646.732-1.31Zm-3.671-1.645-2.94 1.645.733 1.309 2.94-1.646-.733-1.308ZM9.797 16.19l.656-3.303-1.471-.293-.657 3.304 1.472.292Zm.43-4L7.754 9.904l-1.018 1.102 2.472 2.286 1.019-1.101Zm-2.894-.99 3.345-.397-.177-1.49-3.345.397.177 1.49Zm3.937-.827 1.411-3.059-1.362-.628-1.41 3.058 1.361.629ZM12.75 4V2h-1.5v2h1.5ZM7.53 6.47l-2-2-1.06 1.06 2 2 1.06-1.06ZM2 12.75h2v-1.5H2v1.5Zm3.53 6.78 1.5-1.5-1.06-1.06-1.5 1.5 1.06 1.06Zm5.72.47v2h1.5v-2h-1.5Zm8.28-1.53-1.5-1.5-1.06 1.06 1.5 1.5 1.06-1.06Zm-1.5-11.44 1.5-1.5-1.06-1.06-1.5 1.5 1.06 1.06ZM20 12.75h2v-1.5h-2v1.5Z"/>
</svg>
