<svg xmlns="http://www.w3.org/2000/svg" width="24" height="24" fill="none" viewBox="0 0 24 24">
  <path fill="#000" d="m3.8 12 .53-.53-.53.53Zm8.2 8.2-.53.53.53-.53Zm3.865 0-.53-.53.53.53Zm4.335-4.335.53.53-.53-.53Zm0-3.865.53-.53-.53.53ZM12 3.8l-.53.53.53-.53ZM7.9 7.15a.75.75 0 1 0 0 1.5v-1.5Zm.01 1.5a.75.75 0 0 0 0-1.5v1.5ZM2.25 3.911v6.156h1.5V3.911h-1.5Zm1.02 8.62 8.2 8.199 1.06-1.06-8.2-8.2-1.06 1.06Zm13.126 8.199 4.334-4.334-1.06-1.061-4.335 4.334 1.06 1.06Zm4.334-9.26-8.2-8.2-1.06 1.06 8.2 8.2 1.06-1.06ZM10.067 2.25H3.911v1.5h6.156v-1.5Zm2.463 1.02a3.483 3.483 0 0 0-2.463-1.02v1.5c.526 0 1.03.209 1.403.58l1.06-1.06Zm8.2 13.126a3.483 3.483 0 0 0 0-4.926l-1.06 1.06c.774.775.774 2.03 0 2.805l1.06 1.06Zm-9.26 4.334a3.483 3.483 0 0 0 4.926 0l-1.061-1.06a1.983 1.983 0 0 1-2.805 0l-1.06 1.06ZM2.25 10.067c0 .924.367 1.81 1.02 2.463l1.06-1.06a1.983 1.983 0 0 1-.58-1.403h-1.5Zm1.5-6.156a.16.16 0 0 1 .161-.161v-1.5c-.917 0-1.661.744-1.661 1.661h1.5Zm4.15 4.74h.01v-1.5H7.9v1.5Zm-.294-.75c0-.163.132-.295.294-.295v1.5c.666 0 1.206-.54 1.206-1.206h-1.5Zm.294-.295c.163 0 .295.132.295.294h-1.5c0 .666.54 1.206 1.205 1.206v-1.5Zm.295.294a.294.294 0 0 1-.295.295v-1.5c-.666 0-1.205.54-1.205 1.205h1.5Zm-.295.295a.294.294 0 0 1-.294-.295h1.5c0-.666-.54-1.205-1.206-1.205v1.5Z"/>
</svg>
