<svg xmlns="http://www.w3.org/2000/svg" width="24" height="24" fill="none" viewBox="0 0 24 24">
  <path fill="#000" d="m10 12.416.3.687.45-.196v-.491H10Zm4 0h-.75v.49l.45.197.3-.687Zm-3.25 0V4h-1.5v8.416h1.5ZM7.75 17a4.251 4.251 0 0 1 2.55-3.897l-.6-1.374A5.751 5.751 0 0 0 6.25 17h1.5ZM12 21.25A4.25 4.25 0 0 1 7.75 17h-1.5A5.75 5.75 0 0 0 12 22.75v-1.5ZM16.25 17A4.25 4.25 0 0 1 12 21.25v1.5A5.75 5.75 0 0 0 17.75 17h-1.5Zm-2.55-3.897A4.251 4.251 0 0 1 16.25 17h1.5a5.751 5.751 0 0 0-3.45-5.271l-.6 1.374ZM13.25 4v8.416h1.5V4h-1.5ZM12 2.75c.69 0 1.25.56 1.25 1.25h1.5A2.75 2.75 0 0 0 12 1.25v1.5Zm0-1.5A2.75 2.75 0 0 0 9.25 4h1.5c0-.69.56-1.25 1.25-1.25v-1.5Z"/>
  <path stroke="#000" stroke-linecap="round" stroke-linejoin="round" stroke-width="2" d="M12 17h.01"/>
</svg>
