<svg xmlns="http://www.w3.org/2000/svg" width="24" height="24" fill="none" viewBox="0 0 24 24">
  <path stroke="#000" stroke-linecap="round" stroke-width="1.5" d="M9.583 19.714c0 .71-.54 1.286-1.208 1.286-.668 0-1.208-.576-1.208-1.286 0-.71.54-1.285 1.208-1.285.667 0 1.208.575 1.208 1.285Zm7 0c0 .71-.54 1.286-1.208 1.286-.668 0-1.209-.576-1.209-1.286 0-.71.541-1.285 1.209-1.285.667 0 1.208.575 1.208 1.285Z"/>
  <path stroke="#000" stroke-linecap="round" stroke-linejoin="round" stroke-width="1.5" d="M7.972 15.857h1.611m4.834 0h1.61M4.75 13.286h14.5m-14.5-6c0-1.42 1.082-2.572 2.417-2.572h9.666c1.335 0 2.417 1.152 2.417 2.572v8.571c0 1.42-1.082 2.572-2.417 2.572H7.167c-1.335 0-2.417-1.152-2.417-2.572V7.286Z"/>
  <path stroke="#000" stroke-linecap="round" stroke-linejoin="round" stroke-width="1.5" d="m9.583 3-.805 1.714h6.444L14.417 3H9.583Z"/>
</svg>
