<svg xmlns="http://www.w3.org/2000/svg" width="24" height="24" fill="none" viewBox="0 0 24 24">
  <path fill="#000" d="M15.6 8.444v-.75a.75.75 0 0 0-.75.75h.75Zm2.7 0 .527-.533a.75.75 0 0 0-.527-.217v.75Zm2.7 2.667h.75a.75.75 0 0 0-.223-.534l-.527.534Zm0 4.445v.75a.75.75 0 0 0 .75-.75H21ZM5.7 4.75h7.2v-1.5H5.7v1.5Zm9.15 1.917v8.889h1.5v-8.89h-1.5Zm.75 8.139H5.7v1.5h9.9v-1.5ZM3.75 12.889V6.667h-1.5v6.222h1.5Zm1.95 1.917c-1.086 0-1.95-.867-1.95-1.917h-1.5c0 1.896 1.553 3.417 3.45 3.417v-1.5ZM12.9 4.75c1.086 0 1.95.867 1.95 1.917h1.5c0-1.896-1.553-3.417-3.45-3.417v1.5Zm-7.2-1.5c-1.897 0-3.45 1.52-3.45 3.417h1.5c0-1.05.864-1.917 1.95-1.917v-1.5Zm9.9 5.944h2.7v-1.5h-2.7v1.5Zm2.173-.216 2.7 2.667 1.054-1.067-2.7-2.667-1.054 1.067Zm2.477 2.133v4.445h1.5V11.11h-1.5Zm.75 3.695h-5.4v1.5H21v-1.5Zm-4.65.75V8.444h-1.5v7.112h1.5Zm-7.8 2.222c0 .804-.663 1.472-1.5 1.472v1.5c1.648 0 3-1.322 3-2.972h-1.5Zm-1.5 1.472c-.837 0-1.5-.668-1.5-1.472h-1.5c0 1.65 1.352 2.972 3 2.972v-1.5Zm-1.5-1.472c0-.805.663-1.472 1.5-1.472v-1.5c-1.648 0-3 1.322-3 2.972h1.5Zm1.5-1.472c.837 0 1.5.667 1.5 1.472h1.5c0-1.65-1.352-2.972-3-2.972v1.5Zm11.4 1.472c0 .804-.663 1.472-1.5 1.472v1.5c1.648 0 3-1.322 3-2.972h-1.5Zm-1.5 1.472c-.837 0-1.5-.668-1.5-1.472h-1.5c0 1.65 1.352 2.972 3 2.972v-1.5Zm-1.5-1.472c0-.805.663-1.472 1.5-1.472v-1.5c-1.648 0-3 1.322-3 2.972h1.5Zm1.5-1.472c.837 0 1.5.667 1.5 1.472h1.5c0-1.65-1.352-2.972-3-2.972v1.5Z"/>
</svg>
