<svg xmlns="http://www.w3.org/2000/svg" width="24" height="24" fill="none" viewBox="0 0 24 24">
  <path stroke="#000" stroke-linejoin="round" stroke-width="1.5" d="M15.6 15.556v-8.89C15.6 5.195 14.391 4 12.9 4H5.7C4.209 4 3 5.194 3 6.667v6.222c0 1.473 1.209 2.667 2.7 2.667h9.9Zm0 0H21V11.11l-2.7-2.667h-2.7v7.112Zm-6.3 2.222C9.3 19.005 8.293 20 7.05 20s-2.25-.995-2.25-2.222c0-1.227 1.007-2.222 2.25-2.222s2.25.995 2.25 2.222Zm9.9 0c0 1.227-1.007 2.222-2.25 2.222s-2.25-.995-2.25-2.222c0-1.227 1.007-2.222 2.25-2.222s2.25.995 2.25 2.222Z"/>
</svg>
