<svg xmlns="http://www.w3.org/2000/svg" width="24" height="24" fill="none" viewBox="0 0 24 24">
  <path stroke="#000" stroke-linecap="round" stroke-width="1.5" d="M19.884 11.953c-.858.47-2.013.856-3.366 1.126-1.352.27-2.863.414-4.4.42a23.755 23.755 0 0 1-4.428-.38c-1.37-.257-2.55-.633-3.44-1.095m14.067 4.59c-1.757.576-4.032.892-6.384.886-2.353-.006-4.615-.334-6.35-.919m10.685 4.546a23.622 23.622 0 0 1-4.1.373c-1.425.009-2.838-.1-4.133-.32M21.5 6c0 1.933-4.253 3.5-9.5 3.5S2.5 7.933 2.5 6 6.753 2.5 12 2.5s9.5 1.567 9.5 3.5Z"/>
</svg>
