<svg xmlns="http://www.w3.org/2000/svg" fill="none" viewBox="0 0 24 24" stroke-width="1.5" stroke="currentColor" aria-hidden="true" data-slot="icon">
  <path stroke-linecap="round" stroke-linejoin="round" d="M8 11.2h1.493l1.4-3.2 1.907 6.4 1.173-3.2h1.494m2.833 2.578c1.341-1.298 2.7-2.854 2.7-4.89 0-1.296-.521-2.54-1.45-3.456A4.98 4.98 0 0 0 16.05 4c-1.584 0-2.7.444-4.05 1.778C10.65 4.444 9.534 4 7.95 4a4.98 4.98 0 0 0-3.5 1.432A4.86 4.86 0 0 0 3 8.889c0 2.044 1.35 3.6 2.7 4.889L12 20z"/>
</svg>
