<svg xmlns="http://www.w3.org/2000/svg" fill="none" viewBox="0 0 24 24" stroke-width="1.5" stroke="currentColor" aria-hidden="true" data-slot="icon">
  <path d="M19.096 1.938a.75.75 0 1 0-.992 1.124zm2.408 4.124a.75.75 0 1 0 .992-1.124zM5.53 3.03a.75.75 0 0 0-1.06-1.06zM1.47 4.97a.75.75 0 0 0 1.06 1.06zm4.463 14.835a.75.75 0 1 0-1.066-1.055zm-3.266 1.167a.75.75 0 0 0 1.066 1.056zm16.466-2.222a.75.75 0 0 0-1.066 1.055zm1.134 3.278a.75.75 0 0 0 1.066-1.056zM9.233 12.084a.75.75 0 1 0-1.066 1.055zm1.667 2.75-.533.527a.75.75 0 0 0 1.066 0l-.533-.528Zm4.933-3.918a.75.75 0 0 0-1.066-1.055zm2.27-7.854 3.4 3 .993-1.124-3.4-3zM4.47 1.97l-3 3 1.06 1.06 3-3zm.397 16.78-2.2 2.222 1.066 1.056 2.2-2.223zm13.2 1.055 2.2 2.223 1.066-1.056-2.2-2.222zm-9.9-6.666 2.2 2.222 1.066-1.055-2.2-2.222zm3.266 2.222 4.4-4.445-1.066-1.055-4.4 4.445zm8.617-2.75c0 4.502-3.611 8.139-8.05 8.139v1.5c5.281 0 9.55-4.323 9.55-9.639zM12 20.75c-4.439 0-8.05-3.637-8.05-8.139h-1.5c0 5.316 4.269 9.639 9.55 9.639zm-8.05-8.139c0-4.502 3.611-8.139 8.05-8.139v-1.5c-5.281 0-9.55 4.323-9.55 9.64h1.5ZM12 4.472c4.439 0 8.05 3.637 8.05 8.14h1.5c0-5.317-4.269-9.64-9.55-9.64z"/>
</svg>
