<svg xmlns="http://www.w3.org/2000/svg" fill="none" viewBox="0 0 24 24" stroke-width="1.5" stroke="currentColor" aria-hidden="true" data-slot="icon">
  <path d="m11.81 8.27-.57.487a.75.75 0 0 0 1.139 0l-.57-.488Zm-3.056 2.593-.592.46zm6.11 0 .592.46zm-3.952 2.147.505-.555zm.647.477.22-.717zm1.147-.477-.504-.555zm-.647.477-.22-.717zM14.1 18.2l.6.45zM12 21l-.6.45a.75.75 0 0 0 1.2 0zm-2.1-2.8.6-.45zm2.479-10.419c-.92-1.074-2.555-1.433-3.8-.37l.973 1.14c.51-.433 1.209-.352 1.688.206zm-3.8-.37c-1.178 1.004-1.354 2.708-.417 3.913l1.184-.922c-.44-.564-.369-1.36.206-1.85zm6.877 3.913a2.813 2.813 0 0 0-.424-3.92l-.958 1.154c.572.475.645 1.272.199 1.844zm-.424-3.92c-1.253-1.04-2.866-.704-3.792.377l1.139.976c.473-.552 1.164-.64 1.695-.199zm-6.87 3.92c.458.588 1.515 1.577 2.245 2.241l1.01-1.11c-.762-.692-1.71-1.588-2.071-2.053zm5.049 2.241c.73-.664 1.788-1.653 2.245-2.241l-1.183-.922c-.362.465-1.31 1.36-2.071 2.053zm-2.803 0c.145.132.286.261.416.362.14.107.306.213.515.277l.44-1.434c.024.007.02.014-.04-.032a6 6 0 0 1-.322-.283zm1.794-1.11a6 6 0 0 1-.322.283c-.061.046-.065.04-.04.032l.44 1.434c.209-.064.375-.17.514-.277.13-.1.272-.23.417-.362l-1.01-1.11Zm-.863 1.749c.302.092.638.092.94 0l-.44-1.434a.13.13 0 0 1-.06 0zM6 3.75h12v-1.5H6zM20.25 6v8h1.5V6zM18 16.25h-1.5v1.5H18zm-4.5 1.5-2.1 2.8 1.2.9 2.1-2.8zm-.9 2.8-2.1-2.8-1.2.9 2.1 2.8zm-5.1-4.3H6v1.5h1.5zM3.75 14V6h-1.5v8zM6 16.25A2.25 2.25 0 0 1 3.75 14h-1.5A3.75 3.75 0 0 0 6 17.75zm10.5 0a3.75 3.75 0 0 0-3 1.5l1.2.9a2.25 2.25 0 0 1 1.8-.9zM20.25 14A2.25 2.25 0 0 1 18 16.25v1.5A3.75 3.75 0 0 0 21.75 14zM18 3.75A2.25 2.25 0 0 1 20.25 6h1.5A3.75 3.75 0 0 0 18 2.25zm-7.5 14a3.75 3.75 0 0 0-3-1.5v1.5a2.25 2.25 0 0 1 1.8.9zM6 2.25A3.75 3.75 0 0 0 2.25 6h1.5A2.25 2.25 0 0 1 6 3.75z"/>
</svg>
