<svg xmlns="http://www.w3.org/2000/svg" fill="none" viewBox="0 0 24 24" stroke-width="1.5" stroke="currentColor" aria-hidden="true" data-slot="icon">
  <path d="M13.995 3.995a.75.75 0 1 0 .362-1.456zm7.495 5.77a.75.75 0 1 0-1.46.344zM18.83 6.23a.75.75 0 0 0-1.06-1.06zM9.3 14.7h-.75c0 .414.336.75.75.75zm.75-5.4a.75.75 0 1 0-1.5 0zm4.65 6.15a.75.75 0 0 0 0-1.5zm-.343-12.91a9.75 9.75 0 0 0-6.192.496l.59 1.38a8.25 8.25 0 0 1 5.24-.421l.362-1.456Zm-6.192.496a9.75 9.75 0 0 0-4.636 4.136l1.303.743a8.25 8.25 0 0 1 3.923-3.5zM3.529 7.172a9.75 9.75 0 0 0-1.196 6.096l1.487-.195a8.25 8.25 0 0 1 1.012-5.158zm-1.196 6.096A9.75 9.75 0 0 0 5.06 18.85l1.068-1.054a8.25 8.25 0 0 1-2.309-4.723l-1.487.195ZM5.06 18.85a9.75 9.75 0 0 0 5.546 2.8l.214-1.485a8.25 8.25 0 0 1-4.692-2.37zm5.546 2.8a9.75 9.75 0 0 0 6.111-1.118l-.726-1.312a8.25 8.25 0 0 1-5.17.945zm6.111-1.118a9.75 9.75 0 0 0 4.196-4.582l-1.372-.607a8.25 8.25 0 0 1-3.55 3.877zm4.196-4.582a9.75 9.75 0 0 0 .576-6.185l-1.46.344a8.25 8.25 0 0 1-.488 5.234zM17.77 5.17l-9 9 1.06 1.06 9-9zm-7.72 9.53V9.3h-1.5v5.4zm-.75.75h5.4v-1.5H9.3z"/>
</svg>
