<svg xmlns="http://www.w3.org/2000/svg" fill="none" viewBox="0 0 24 24" stroke-width="1.5" stroke="currentColor" aria-hidden="true" data-slot="icon">
  <path d="M8.4 11.25a.75.75 0 0 0 0 1.5zm7.2.75.53.53a.75.75 0 0 0 0-1.06zm-3.07-4.13a.75.75 0 1 0-1.06 1.06zm-1.06 7.2a.75.75 0 1 0 1.06 1.06zM20.25 12A8.25 8.25 0 0 1 12 20.25v1.5A9.75 9.75 0 0 0 21.75 12zM12 20.25A8.25 8.25 0 0 1 3.75 12h-1.5A9.75 9.75 0 0 0 12 21.75zM3.75 12A8.25 8.25 0 0 1 12 3.75v-1.5A9.75 9.75 0 0 0 2.25 12zM12 3.75A8.25 8.25 0 0 1 20.25 12h1.5A9.75 9.75 0 0 0 12 2.25zm-3.6 9h7.2v-1.5H8.4zm7.73-1.28-3.6-3.6-1.06 1.06 3.6 3.6zm-1.06 0-3.6 3.6 1.06 1.06 3.6-3.6z"/>
</svg>
