<svg xmlns="http://www.w3.org/2000/svg" fill="none" viewBox="0 0 24 24" stroke-width="1.5" stroke="currentColor" aria-hidden="true" data-slot="icon">
  <path d="M9 9.25a.75.75 0 0 0 0 1.5zm6 1.5a.75.75 0 0 0 0-1.5zm-6 0h6v-1.5H9zm-3-7h12v-1.5H6zM20.25 6v5h1.5V6zM18 13.25H6v1.5h12zM3.75 11V6h-1.5v5zM6 13.25A2.25 2.25 0 0 1 3.75 11h-1.5A3.75 3.75 0 0 0 6 14.75zM20.25 11A2.25 2.25 0 0 1 18 13.25v1.5A3.75 3.75 0 0 0 21.75 11zM18 3.75A2.25 2.25 0 0 1 20.25 6h1.5A3.75 3.75 0 0 0 18 2.25zM6 2.25A3.75 3.75 0 0 0 2.25 6h1.5A2.25 2.25 0 0 1 6 3.75zM3.25 13v5h1.5v-5zM7 21.75h10v-1.5H7zM20.75 18v-5h-1.5v5zM17 21.75A3.75 3.75 0 0 0 20.75 18h-1.5A2.25 2.25 0 0 1 17 20.25zM3.25 18A3.75 3.75 0 0 0 7 21.75v-1.5A2.25 2.25 0 0 1 4.75 18z"/>
</svg>
