<svg xmlns="http://www.w3.org/2000/svg" fill="none" viewBox="0 0 24 24" stroke-width="1.5" stroke="currentColor" aria-hidden="true" data-slot="icon">
  <path d="M12.75 8.625a.75.75 0 0 0-1.5 0zM12 13.688h-.75c0 .284.16.543.415.67zm3.04 2.358a.75.75 0 1 0 .67-1.342zM20.25 12A8.25 8.25 0 0 1 12 20.25v1.5A9.75 9.75 0 0 0 21.75 12zM12 20.25A8.25 8.25 0 0 1 3.75 12h-1.5A9.75 9.75 0 0 0 12 21.75zM3.75 12A8.25 8.25 0 0 1 12 3.75v-1.5A9.75 9.75 0 0 0 2.25 12zM12 3.75A8.25 8.25 0 0 1 20.25 12h1.5A9.75 9.75 0 0 0 12 2.25zm-.75 4.875v5.063h1.5V8.625zm.415 5.733 3.375 1.688.67-1.342-3.375-1.687z"/>
</svg>
