<svg xmlns="http://www.w3.org/2000/svg" fill="none" viewBox="0 0 24 24" stroke-width="1.5" stroke="currentColor" aria-hidden="true" data-slot="icon">
  <path d="M11.25 4.8a.75.75 0 0 0 1.5 0zm5.17 1.72a.75.75 0 0 0 1.06 1.06zm2.41-.29a.75.75 0 0 0-1.06-1.06zm.37 5.02a.75.75 0 0 0 0 1.5zm-1.72 5.17a.75.75 0 1 0-1.06 1.06zm.29 2.41a.75.75 0 1 0 1.06-1.06zm-5.02.37a.75.75 0 0 0-1.5 0zm-5.17-1.72a.75.75 0 1 0-1.06-1.06zm-2.41.29a.75.75 0 1 0 1.06 1.06zm-.37-5.02a.75.75 0 0 0 0-1.5zm1.72-5.17a.75.75 0 0 0 1.06-1.06zm-.29-2.41a.75.75 0 0 0-1.06 1.06zM12 8.4l.703-.26a.75.75 0 0 0-1.406 0zm.972 2.628-.703.26a.75.75 0 0 0 .443.443zM15.6 12l.26.703a.75.75 0 0 0 0-1.406zm-2.628.972-.26-.703a.75.75 0 0 0-.443.443zM12 15.6l-.703.26a.75.75 0 0 0 1.406 0zm-.972-2.628.703-.26a.75.75 0 0 0-.443-.443zM8.4 12l-.26-.703a.75.75 0 0 0 0 1.406zm2.628-.972.26.703a.75.75 0 0 0 .443-.443zM12.75 4.8V3h-1.5v1.8zm7.5 7.2A8.25 8.25 0 0 1 12 20.25v1.5A9.75 9.75 0 0 0 21.75 12zM12 20.25A8.25 8.25 0 0 1 3.75 12h-1.5A9.75 9.75 0 0 0 12 21.75zM3.75 12A8.25 8.25 0 0 1 12 3.75v-1.5A9.75 9.75 0 0 0 2.25 12zM12 3.75A8.25 8.25 0 0 1 20.25 12h1.5A9.75 9.75 0 0 0 12 2.25zm5.48 3.83 1.35-1.35-1.06-1.06-1.35 1.35zm1.72 5.17H21v-1.5h-1.8zm-2.78 4.73 1.35 1.35 1.06-1.06-1.35-1.35zm-5.17 1.72V21h1.5v-1.8zm-4.73-2.78-1.35 1.35 1.06 1.06 1.35-1.35zM4.8 11.25H3v1.5h1.8zm2.78-4.73L6.23 5.17 5.17 6.23l1.35 1.35zm3.717 2.14.972 2.628 1.407-.52-.973-2.628zm1.415 3.071 2.628.972.52-1.406-2.627-.973zm2.628-.434-2.628.972.52 1.407 2.628-.973zm-3.071 1.415-.972 2.628 1.406.52.973-2.627zm.434 2.628-.972-2.628-1.407.52.973 2.628zm-1.415-3.071-2.628-.972-.52 1.406 2.627.973zm-2.628.434 2.628-.972-.52-1.407-2.628.973zm3.071-1.415.972-2.628-1.406-.52-.973 2.627z"/>
</svg>
