<svg xmlns="http://www.w3.org/2000/svg" fill="none" viewBox="0 0 24 24" stroke-width="1.5" stroke="currentColor" aria-hidden="true" data-slot="icon">
  <path d="m4.17 8.492.745.082zm1.728-2.155-.24-.711zm1.241.374a.75.75 0 1 0-.478-1.422zM19.83 8.492l-.745.082zm-1.728-2.155.24-.711zm-.763-1.048a.75.75 0 0 0-.478 1.422zM9.55 14.571c0 1.486-1.192 2.679-2.65 2.679v1.5c2.298 0 4.15-1.877 4.15-4.179zM6.9 17.25c-1.458 0-2.65-1.193-2.65-2.679h-1.5c0 2.302 1.852 4.179 4.15 4.179zm-2.65-2.679c0-1.485 1.192-2.678 2.65-2.678v-1.5c-2.298 0-4.15 1.877-4.15 4.178zm2.65-2.678c1.458 0 2.65 1.193 2.65 2.678h1.5c0-2.301-1.852-4.178-4.15-4.178zm12.85 2.678c0 1.486-1.192 2.679-2.65 2.679v1.5c2.298 0 4.15-1.877 4.15-4.179zM17.1 17.25c-1.458 0-2.65-1.193-2.65-2.679h-1.5c0 2.302 1.852 4.179 4.15 4.179zm-2.65-2.679c0-1.485 1.192-2.678 2.65-2.678v-1.5c-2.298 0-4.15 1.877-4.15 4.178zm2.65-2.678c1.458 0 2.65 1.193 2.65 2.678h1.5c0-2.301-1.852-4.178-4.15-4.178zm-12.855 2.76.67-6.079-1.49-.164-.67 6.08 1.49.164Zm1.892-7.605 1.002-.337-.478-1.422-1.002.337zM4.915 8.575a1.82 1.82 0 0 1 1.222-1.527l-.478-1.422A3.32 3.32 0 0 0 3.424 8.41zm16.33 5.914-.67-6.079-1.49.165.67 6.079zm-2.904-8.863-1.002-.337-.478 1.422 1.002.337zm2.235 2.784a3.32 3.32 0 0 0-2.235-2.784l-.478 1.422a1.82 1.82 0 0 1 1.222 1.527l1.49-.165Zm-9.858 7.162a.6.6 0 0 1 .152-.085 1 1 0 0 1 .296-.036c.388-.01 1.071.051 2.43.242l.208-1.486c-1.341-.188-2.145-.27-2.676-.256-.277.007-.516.04-.736.114-.225.076-.388.18-.51.263z"/>
</svg>
