<svg xmlns="http://www.w3.org/2000/svg" fill="none" viewBox="0 0 24 24" stroke-width="1.5" stroke="currentColor" aria-hidden="true" data-slot="icon">
  <path stroke-linejoin="round" d="M10.3 14.95c.425-.286 2.2-.45 3.4 0"/>
  <path stroke-linecap="round" stroke-linejoin="round" d="m20.5 14.571-.67-6.079a2.57 2.57 0 0 0-1.728-2.155L17.1 6M3.5 14.571l.67-6.079a2.57 2.57 0 0 1 1.728-2.155L6.9 6"/>
  <path stroke-linejoin="round" d="M10.3 14.571C10.3 16.465 8.778 18 6.9 18s-3.4-1.535-3.4-3.429 1.522-3.428 3.4-3.428 3.4 1.535 3.4 3.428Zm10.2 0c0 1.894-1.522 3.429-3.4 3.429s-3.4-1.535-3.4-3.429 1.522-3.428 3.4-3.428 3.4 1.535 3.4 3.428Z"/>
</svg>
