<svg xmlns="http://www.w3.org/2000/svg" fill="none" viewBox="0 0 24 24" stroke-width="1.5" stroke="currentColor" aria-hidden="true" data-slot="icon">
  <path d="M12 6v-.75zm8.767 6.443.656.363zm0-.886-.657.362zm-17.534.886.657-.362zm0-.886.657.362zM12 17.25c-3.365 0-6.373-2.024-8.11-5.17l-1.313.726C4.529 16.342 7.996 18.75 12 18.75zm8.11-5.17c-1.736 3.146-4.744 5.17-8.11 5.17v1.5c4.005 0 7.47-2.408 9.423-5.944l-1.313-.725ZM12 6.75c3.366 0 6.373 2.024 8.11 5.17l1.313-.726C19.471 7.658 16.005 5.25 12 5.25zm-8.11 5.17C5.627 8.773 8.635 6.75 12 6.75v-1.5c-4.004 0-7.47 2.408-9.423 5.944l1.313.725Zm17.533.886a1.67 1.67 0 0 0 0-1.612l-1.313.725a.17.17 0 0 1 0 .162zM3.89 12.08a.17.17 0 0 1 0-.162l-1.313-.725a1.67 1.67 0 0 0 0 1.612zM14.25 12A2.25 2.25 0 0 1 12 14.25v1.5A3.75 3.75 0 0 0 15.75 12zM12 14.25A2.25 2.25 0 0 1 9.75 12h-1.5A3.75 3.75 0 0 0 12 15.75zM9.75 12A2.25 2.25 0 0 1 12 9.75v-1.5A3.75 3.75 0 0 0 8.25 12zM12 9.75A2.25 2.25 0 0 1 14.25 12h1.5A3.75 3.75 0 0 0 12 8.25z"/>
</svg>
