<svg xmlns="http://www.w3.org/2000/svg" fill="none" viewBox="0 0 24 24" stroke-width="1.5" stroke="currentColor" aria-hidden="true" data-slot="icon">
  <path d="M14.7 9.6a.75.75 0 0 0 0-1.5zm-.009-1.5a.75.75 0 0 0 0 1.5zM8.85 9.6a.75.75 0 0 0 0-1.5zm-.009-1.5a.75.75 0 0 0 0 1.5zm.151 5.24a.75.75 0 0 0-1.184.92zm7.138.99a.75.75 0 1 0-1.06-1.06zM14.7 8.1h-.009v1.5h.009zm.3.75a.3.3 0 0 1-.3.3v-1.5a1.2 1.2 0 0 0-1.2 1.2zm-.3.3a.3.3 0 0 1-.3-.3h1.5a1.2 1.2 0 0 0-1.2-1.2zm-.3-.3a.3.3 0 0 1 .3-.3v1.5a1.2 1.2 0 0 0 1.2-1.2zm.3-.3a.3.3 0 0 1 .3.3h-1.5a1.2 1.2 0 0 0 1.2 1.2zM8.85 8.1h-.009v1.5h.009zm.3.75a.3.3 0 0 1-.3.3v-1.5a1.2 1.2 0 0 0-1.2 1.2zm-.3.3a.3.3 0 0 1-.3-.3h1.5a1.2 1.2 0 0 0-1.2-1.2zm-.3-.3a.3.3 0 0 1 .3-.3v1.5a1.2 1.2 0 0 0 1.2-1.2zm.3-.3a.3.3 0 0 1 .3.3h-1.5a1.2 1.2 0 0 0 1.2 1.2zM20.25 12A8.25 8.25 0 0 1 12 20.25v1.5A9.75 9.75 0 0 0 21.75 12zM12 20.25A8.25 8.25 0 0 1 3.75 12h-1.5A9.75 9.75 0 0 0 12 21.75zM3.75 12A8.25 8.25 0 0 1 12 3.75v-1.5A9.75 9.75 0 0 0 2.25 12zM12 3.75A8.25 8.25 0 0 1 20.25 12h1.5A9.75 9.75 0 0 0 12 2.25zM7.808 14.26c.607.78 1.745 1.72 3.233 1.999 1.542.288 3.321-.16 5.09-1.929l-1.061-1.06c-1.472 1.471-2.768 1.698-3.753 1.514-1.04-.194-1.882-.875-2.325-1.445z"/>
</svg>
