<svg xmlns="http://www.w3.org/2000/svg" fill="none" viewBox="0 0 24 24" stroke-width="1.5" stroke="currentColor" aria-hidden="true" data-slot="icon">
  <path d="m10.793 4.29.339.668-.34-.669ZM3 8.24l-.34-.668a.75.75 0 0 0 0 1.338zm7.793 3.953.339-.67zm2.415 0 .339.669-.34-.67ZM21 8.24l.34.669a.75.75 0 0 0 0-1.338zm-7.793-3.952.34-.669-.34.67Zm-.805 15.615-.339-.67.34.67Zm6.3-3.195.34.669-.34-.67Zm-7.105 3.195.34-.67zm-6.3-3.195.34-.67zM12.39 7.6a.75.75 0 0 0-.78 1.282zm4.11 3.38h.75v-.422l-.36-.22-.39.641Zm-.75 2.738a.75.75 0 0 0 1.5 0zM10.453 3.62 2.661 7.572l.678 1.338 7.793-3.952zM2.661 8.91l7.792 3.952.679-1.338-7.793-3.952zm10.886 3.952 7.792-3.952-.678-1.338-7.793 3.952zm7.792-5.29L13.547 3.62l-.679 1.338 7.793 3.952zm-10.886 5.29c.974.493 2.12.493 3.094 0l-.679-1.338a1.92 1.92 0 0 1-1.736 0zm.679-7.904a1.92 1.92 0 0 1 1.736 0l.679-1.338a3.42 3.42 0 0 0-3.094 0zm1.61 15.615 6.3-3.195-.679-1.338-6.3 3.195zm7.208-4.68v-6.74h-1.5v6.74zm-8.013 3.342-6.3-3.195-.679 1.338 6.3 3.195zM5.55 15.892V9.154h-1.5v6.738zm.087.148a.16.16 0 0 1-.087-.148h-1.5c0 .625.348 1.201.908 1.486zm13.405 1.338c.56-.285.908-.861.908-1.486h-1.5a.16.16 0 0 1-.087.148zm-6.979 1.857a.14.14 0 0 1-.126 0l-.679 1.338a1.64 1.64 0 0 0 1.484 0zM11.61 8.882l4.5 2.738.78-1.281-4.5-2.739zm4.14 2.097v2.739h1.5v-2.739z"/>
</svg>
