<svg xmlns="http://www.w3.org/2000/svg" fill="none" viewBox="0 0 24 24" stroke-width="1.5" stroke="currentColor" aria-hidden="true" data-slot="icon">
  <path stroke-linecap="round" d="m12 8.366 4.5 2.739v2.738"/>
  <path stroke-linecap="round" stroke-linejoin="round" d="m3 8.366 7.793-3.952a2.67 2.67 0 0 1 2.415 0L21 8.366l-7.793 3.952a2.67 2.67 0 0 1-2.415 0z"/>
  <path stroke-linecap="square" stroke-linejoin="round" d="M19.4 9.625v5.958a1 1 0 0 1-.146.52l-.204.334a1 1 0 0 1-.401.372l-5.833 2.958a1 1 0 0 1-.453.108h-.326a1 1 0 0 1-.453-.108l-5.833-2.958a1 1 0 0 1-.401-.372l-.204-.334a1 1 0 0 1-.146-.52v-5.458"/>
</svg>
