<svg xmlns="http://www.w3.org/2000/svg" fill="none" viewBox="0 0 24 24" stroke-width="1.5" stroke="currentColor" aria-hidden="true" data-slot="icon">
  <path d="M13 3.75a.75.75 0 0 0 0-1.5zm7.625 10.95.468-.586zm-3.959-3.167.469-.586zm-1.297.04-.505-.554zM18.75 3a.75.75 0 0 0-1.5 0zM18 9l-.53.53a.75.75 0 0 0 1.06 0zm-2.47-3.53a.75.75 0 1 0-1.06 1.06zm6 1.06a.75.75 0 0 0-1.06-1.06zM13 2.25H6v1.5h7zM2.25 6v13h1.5V6zm19.5 12v-2.52h-1.5V18zm-.657-3.886-3.958-3.167-.937 1.172 3.958 3.166.937-1.17ZM5 21.75h13v-1.5H5zm9.864-10.731L4.495 20.445l1.01 1.11 10.368-9.426zm2.27-.072a1.75 1.75 0 0 0-2.27.072l1.01 1.11a.25.25 0 0 1 .324-.01l.937-1.172Zm4.616 4.534a1.75 1.75 0 0 0-.657-1.367l-.937 1.171a.25.25 0 0 1 .094.196zM20.25 18A2.25 2.25 0 0 1 18 20.25v1.5A3.75 3.75 0 0 0 21.75 18zm-18 1A2.75 2.75 0 0 0 5 21.75v-1.5c-.69 0-1.25-.56-1.25-1.25zM6 2.25A3.75 3.75 0 0 0 2.25 6h1.5A2.25 2.25 0 0 1 6 3.75zm4.25 6.25a1.75 1.75 0 0 1-1.75 1.75v1.5a3.25 3.25 0 0 0 3.25-3.25zM8.5 10.25A1.75 1.75 0 0 1 6.75 8.5h-1.5a3.25 3.25 0 0 0 3.25 3.25zM6.75 8.5c0-.966.784-1.75 1.75-1.75v-1.5A3.25 3.25 0 0 0 5.25 8.5zM8.5 6.75c.966 0 1.75.784 1.75 1.75h1.5A3.25 3.25 0 0 0 8.5 5.25zM17.25 3v6h1.5V3zm1.28 5.47-3-3-1.06 1.06 3 3zm0 1.06 3-3-1.06-1.06-3 3z"/>
</svg>
