<svg xmlns="http://www.w3.org/2000/svg" fill="none" viewBox="0 0 24 24" stroke-width="1.5" stroke="currentColor" aria-hidden="true" data-slot="icon">
  <path d="M19.57 15.23a.75.75 0 1 0 1.06-1.06zM15.6 10.2l.53-.53a.75.75 0 0 0-1.06 0zm-9.53 8.47a.75.75 0 1 0 1.06 1.06zM20.25 12A8.25 8.25 0 0 1 12 20.25v1.5A9.75 9.75 0 0 0 21.75 12zM12 20.25A8.25 8.25 0 0 1 3.75 12h-1.5A9.75 9.75 0 0 0 12 21.75zM3.75 12A8.25 8.25 0 0 1 12 3.75v-1.5A9.75 9.75 0 0 0 2.25 12zM12 3.75A8.25 8.25 0 0 1 20.25 12h1.5A9.75 9.75 0 0 0 12 2.25zm8.63 10.42-4.5-4.5-1.06 1.06 4.5 4.5zm-5.56-4.5-9 9 1.06 1.06 9-9zm-4.72-.82a1.5 1.5 0 0 1-1.5 1.5v1.5a3 3 0 0 0 3-3zm-1.5 1.5a1.5 1.5 0 0 1-1.5-1.5h-1.5a3 3 0 0 0 3 3zm-1.5-1.5a1.5 1.5 0 0 1 1.5-1.5v-1.5a3 3 0 0 0-3 3zm1.5-1.5a1.5 1.5 0 0 1 1.5 1.5h1.5a3 3 0 0 0-3-3z"/>
</svg>
