<svg xmlns="http://www.w3.org/2000/svg" fill="none" viewBox="0 0 24 24" stroke-width="1.5" stroke="currentColor" aria-hidden="true" data-slot="icon">
  <path d="M14.75 8.5a.75.75 0 0 0 1.5 0zm1.5-.01a.75.75 0 0 0-1.5 0zM14.998 15v.75zm2.02-.35-.252-.706.253.706ZM9.653 6.28l.669.34zm-.598 3.525-.743.101.743-.1Zm-.527 1.668.53.53zM3.88 16.12l.53.53zM3 21h-.75c0 .414.336.75.75.75zm4.881-.894.534.526zm4.018-4.077-.534-.526zm-2.83-5.694.746.077zM16.25 8.5v-.01h-1.5v.01zm-.75.25a.25.25 0 0 1-.25-.25h1.5c0-.69-.56-1.25-1.25-1.25zm-.25-.25a.25.25 0 0 1 .25-.25v1.5c.69 0 1.25-.56 1.25-1.25zm.25-.25a.25.25 0 0 1 .25.25h-1.5c0 .69.56 1.25 1.25 1.25zm.25.25a.25.25 0 0 1-.25.25v-1.5c-.69 0-1.25.56-1.25 1.25zm-.752 7.25a6.8 6.8 0 0 0 2.273-.393l-.505-1.413a5.3 5.3 0 0 1-1.768.306zm2.273-.393a6.75 6.75 0 0 0 3.383-2.67l-1.256-.82a5.25 5.25 0 0 1-2.632 2.077l.505 1.412Zm3.383-2.67a6.75 6.75 0 0 0 1.079-4.172l-1.497.108a5.25 5.25 0 0 1-.838 3.245l1.256.82Zm1.079-4.172a6.75 6.75 0 0 0-1.666-3.974l-1.126.99a5.25 5.25 0 0 1 1.296 3.092zm-1.666-3.974a6.75 6.75 0 0 0-3.73-2.157l-.297 1.47a5.25 5.25 0 0 1 2.901 1.678zm-3.73-2.157a6.75 6.75 0 0 0-4.275.54l.652 1.35a5.25 5.25 0 0 1 3.326-.42zm-4.275.54a6.75 6.75 0 0 0-3.078 3.015l1.337.68a5.25 5.25 0 0 1 2.393-2.345zM8.984 5.938a6.75 6.75 0 0 0-.673 3.967l1.487-.201a5.25 5.25 0 0 1 .523-3.085zm-.987 5.003L3.348 15.59l1.061 1.06 4.649-4.648zm-5.747 7.3V21h1.5v-2.757h-1.5ZM3 21.75h2.745v-1.5H3zm5.415-1.118 4.018-4.076-1.069-1.053-4.017 4.076zm-2.67 1.118a3.75 3.75 0 0 0 2.67-1.118L7.347 19.58c-.423.43-1 .671-1.603.671zm2.578-11.492c-.027.259-.142.5-.326.684l1.06 1.061c.428-.428.696-.99.758-1.591zm-.012-.352q.027.2.012.352l1.492.154c.026-.25.012-.49-.017-.707zm-4.963 5.685a3.75 3.75 0 0 0-1.098 2.652h1.5c0-.597.237-1.17.659-1.591zm11.65-1.341c-1.193 0-2.628.232-3.633 1.253l1.068 1.053c.578-.587 1.502-.806 2.565-.806z"/>
</svg>
