<svg xmlns="http://www.w3.org/2000/svg" fill="none" viewBox="0 0 24 24" stroke-width="1.5" stroke="currentColor" aria-hidden="true" data-slot="icon">
  <path d="M8.03 10.57a.75.75 0 0 0-1.06 1.06zm2.17 3.23-.53.53a.75.75 0 0 0 1.06 0zm3.15-3.15.53-.53a.75.75 0 0 0-1.06 0zm2.62 3.68a.75.75 0 1 0 1.06-1.06zM20.25 12A8.25 8.25 0 0 1 12 20.25v1.5A9.75 9.75 0 0 0 21.75 12zM12 20.25A8.25 8.25 0 0 1 3.75 12h-1.5A9.75 9.75 0 0 0 12 21.75zM3.75 12A8.25 8.25 0 0 1 12 3.75v-1.5A9.75 9.75 0 0 0 2.25 12zM12 3.75A8.25 8.25 0 0 1 20.25 12h1.5A9.75 9.75 0 0 0 12 2.25zm-5.03 7.88 2.7 2.7 1.06-1.06-2.7-2.7zm3.76 2.7 3.15-3.15-1.06-1.06-3.15 3.15zm2.09-3.15 3.15 3.15 1.06-1.06-3.15-3.15z"/>
</svg>
