<svg xmlns="http://www.w3.org/2000/svg" fill="none" viewBox="0 0 24 24" stroke-width="1.5" stroke="currentColor" aria-hidden="true" data-slot="icon">
  <path d="m8.269 4.148.53-.53zm.616.616-.53.53zM8.454 9.19l-.615.43zm1.074 1.535-.614.43zm3.962 3.693-.386.643zm1.516.91.386-.643zm4.275-.336-.488.57zm.509.436.488-.57zm.242 3.376.564.493zm-.62.708-.564-.494zm-3.172.881.229-.714zm-1.303-.417.228-.714zM4.171 4.938l-.53-.53zm.79-.79-.53-.53zM3.448 7.45l-.732.167zm5.31-.37-.469-.585.469.586Zm-1.02-2.401.617.616 1.06-1.06-.616-.617-1.06 1.06Zm.101 4.944 1.075 1.534 1.228-.86-1.074-1.535zm5.265 5.44 1.516.91.772-1.286-1.517-.91zm5.689.5L19.3 16l.977-1.14-.51-.435-.975 1.139Zm.674 2.749-.62.708 1.13.988.62-.709zM16.47 19.68l-1.304-.417-.457 1.428 1.304.418zM4.702 5.468l.79-.79-1.06-1.06-.79.79zm10.463 13.795A16.39 16.39 0 0 1 4.178 7.285l-1.463.333a17.89 17.89 0 0 0 11.993 13.074l.457-1.43ZM4.178 7.285a1.96 1.96 0 0 1 .524-1.817l-1.06-1.06a3.46 3.46 0 0 0-.927 3.21zm14.67 11.734a2.25 2.25 0 0 1-2.38.661l-.456 1.429a3.75 3.75 0 0 0 3.965-1.103zm.453-3.02c.69.59.764 1.629.166 2.312l1.13.987a3.13 3.13 0 0 0-.32-4.438zm-1.74-.39a.907.907 0 0 1 1.232-.046l.976-1.14a2.407 2.407 0 0 0-3.269.126l1.06 1.06Zm-8.647-4.453a13.75 13.75 0 0 0 4.19 3.906l.771-1.286a12.25 12.25 0 0 1-3.733-3.48zm5.706 4.816c.947.568 2.16.419 2.94-.362l-1.06-1.06a.91.91 0 0 1-1.108.136zM8.288 6.496a2.31 2.31 0 0 0-.449 3.126l1.229-.86a.81.81 0 0 1 .157-1.095l-.937-1.17Zm.067-1.202c.34.34.309.901-.067 1.202l.937 1.171a2.31 2.31 0 0 0 .19-3.434zm.444-1.677a3.09 3.09 0 0 0-4.367 0l1.06 1.06a1.59 1.59 0 0 1 2.246 0L8.8 3.618Z"/>
</svg>
