<svg xmlns="http://www.w3.org/2000/svg" fill="none" viewBox="0 0 24 24" stroke-width="1.5" stroke="currentColor" aria-hidden="true" data-slot="icon">
  <path d="M19.005 17.862v-.75zm-.711 0v.75zm-2.4-2.731-.152.734zm-1.121-.232.152-.734zm-5.725.206-.205-.721zm-.903.257-.205-.722zm-2.362 2.595.053.748zm-.536.037-.052-.748zm-2.182-1.73.748-.055-.748.054Zm-.06-.814-.747.055.748-.055Zm1.288-2.163-.339-.67.34.67Zm.339-.172.34.669zM21 15.241h.75zm0 .794h.75zm-1.168-2.682-.36.657zm-2.888 3.128-.744-.09zM6.797 7.124a.75.75 0 1 0 .938 1.17zm9.654 1.17a.75.75 0 0 0 .938-1.17zM9.4 8.52a.75.75 0 0 0 .85 1.236zm4.827 1.236a.75.75 0 1 0 .85-1.236zm4.777 7.356h-.711v1.5h.711zm-2.96-2.716-1.12-.231-.304 1.469 1.12.231zm-7.202-.012-.903.256.41 1.443.903-.256zM5.73 17.209l-.535.037.105 1.497.536-.038zm-1.917-1-.06-.813-1.495.109.059.813 1.496-.11Zm.82-2.253.338-.172-.678-1.338-.339.172zM20.25 15.24v.794h1.5v-.794zM4.971 13.784c4.53-2.298 10.06-2.211 14.5.226l.722-1.315c-4.875-2.676-10.93-2.77-15.9-.249zm14.5.226c.505.277.779.753.779 1.231h1.5c0-1.07-.613-2.027-1.557-2.546zM3.754 15.396c-.041-.561.273-1.133.879-1.44l-.679-1.338c-1.095.556-1.785 1.67-1.696 2.887zm1.44 1.85c-.776.055-1.34-.477-1.381-1.037l-1.496.109c.11 1.504 1.506 2.529 2.983 2.425zm1.179-.614c0 .246-.223.547-.643.577l.106 1.496c1.092-.077 2.037-.93 2.037-2.073zm8.552-2.467a12.8 12.8 0 0 0-6.082.219l.41 1.443a11.3 11.3 0 0 1 5.368-.193zm-6.985.475c-.893.254-1.567 1.036-1.567 1.991h1.5c0-.21.154-.456.476-.548l-.41-1.443Zm9.749 1.932c.13-1.067-.639-1.968-1.644-2.176l-.303 1.47c.344.07.48.333.457.525l1.49.18Zm.605.54c-.435 0-.632-.322-.605-.54l-1.49-.181c-.152 1.255.91 2.221 2.095 2.221zm.711 1.5c1.453 0 2.745-1.093 2.745-2.577h-1.5c0 .535-.494 1.077-1.245 1.077zM7.735 8.294c1.475-1.182 5.247-2.78 8.716 0l.938-1.17c-4.255-3.41-8.849-1.397-10.592 0zm2.516 1.462c.668-.46 2.404-1.08 3.977 0l.85-1.236c-2.29-1.573-4.736-.646-5.677 0z"/>
</svg>
