<svg xmlns="http://www.w3.org/2000/svg" fill="none" viewBox="0 0 24 24" stroke-width="1.5" stroke="currentColor" aria-hidden="true" data-slot="icon">
  <path stroke-linecap="round" stroke-linejoin="round" d="M15.13 14.066a5.23 5.23 0 0 1-5.092 6.434v-4.185m5.092-2.25A13.06 13.06 0 0 0 20.5 3.5c-4.34 0-8.187 2.115-10.566 5.37m5.196 5.196a13 13 0 0 1-5.091 2.25m0 0-.08.015a13.2 13.2 0 0 1-2.343-2.006q.031-.182.069-.364m2.25-5.091A5.23 5.23 0 0 0 3.5 13.962h4.184m2.25-5.092a13 13 0 0 0-2.25 5.091m.23 4.358a3.92 3.92 0 0 1-3.714 1.48 3.92 3.92 0 0 1 1.63-3.823m10.746-7.245a1.308 1.308 0 1 1-2.616 0 1.308 1.308 0 0 1 2.616 0"/>
</svg>
