<svg xmlns="http://www.w3.org/2000/svg" fill="none" viewBox="0 0 24 24" stroke-width="1.5" stroke="currentColor" aria-hidden="true" data-slot="icon">
  <path d="M7.074 19.788a.75.75 0 1 0 0 1.5zm.009 1.5a.75.75 0 0 0 0-1.5zm9.044-1.5a.75.75 0 1 0 0 1.5zm.009 1.5a.75.75 0 1 0 0-1.5zM3 2.25a.75.75 0 0 0 0 1.5zm15.39 16.27a.75.75 0 1 0 0-1.5zM5.663 16.903l.748-.046zm14.627-3.648.746.081zm.704-6.462-.745-.081zM4.864 3.866l-.749.045zm.116 1.903-.748.046zm2.094 15.52h.009v-1.5h-.01zm-.297-.75c0-.146.119-.289.297-.289v1.5c.678 0 1.203-.556 1.203-1.212h-1.5Zm.297-.289c.178 0 .297.143.297.288h-1.5c0 .656.525 1.212 1.203 1.212zm.297.288c0 .146-.12.289-.297.289v-1.5c-.678 0-1.203.556-1.203 1.211zm-.297.289a.293.293 0 0 1-.297-.289h1.5c0-.655-.525-1.211-1.203-1.211zm9.053.461h.009v-1.5h-.01zm-.297-.75c0-.145.119-.288.297-.288v1.5c.678 0 1.203-.556 1.203-1.212zm.297-.288c.178 0 .297.143.297.288h-1.5c0 .656.525 1.212 1.203 1.212zm.297.288c0 .146-.12.289-.297.289v-1.5c-.678 0-1.203.556-1.203 1.211zm-.297.289a.293.293 0 0 1-.297-.289h1.5c0-.655-.525-1.211-1.203-1.211zM3 3.75h.96v-1.5H3zm3.566 14.77H18.39v-1.5H6.566zm-1.825-4.397.173 2.827 1.497-.092-.173-2.827zm.749.704h13.9v-1.5H5.49zm15.546-1.49.704-6.462-1.491-.162-.704 6.462 1.49.162ZM4.116 3.911l.116 1.904 1.497-.092-.117-1.903-1.497.091Zm.116 1.904.509 8.308 1.497-.092-.51-8.308zm15.863-.796H4.98v1.5h15.115zm-.704 9.808c.855 0 1.554-.653 1.645-1.49l-1.491-.162c-.011.098-.088.152-.155.152v1.5ZM6.566 17.019c-.069 0-.148-.058-.155-.161l-1.497.092c.054.87.766 1.57 1.652 1.57zM21.74 6.875c.106-.974-.643-1.856-1.645-1.856v1.5c.077 0 .167.075.154.194l1.49.162ZM3.96 3.75c.07 0 .149.058.155.161l1.497-.091A1.663 1.663 0 0 0 3.96 2.25z"/>
</svg>
