<svg xmlns="http://www.w3.org/2000/svg" fill="none" viewBox="0 0 24 24" stroke-width="1.5" stroke="currentColor" aria-hidden="true" data-slot="icon">
  <path d="m12 7 .681-.314a.75.75 0 0 0-1.362 0zm1.41 3.058-.68.315.175.38.417.05.089-.745Zm3.345.397.51.55a.75.75 0 0 0-.421-1.295zm-2.472 2.287-.51-.551-.308.285.082.412zm.656 3.303-.366.654a.75.75 0 0 0 1.102-.8zM12 14.4l.366-.654L12 13.54l-.366.206zm-2.939 1.645-.736-.146a.75.75 0 0 0 1.102.8zm.656-3.303.736.146.082-.412-.308-.285zm-2.472-2.287-.089-.745a.75.75 0 0 0-.42 1.296zm3.344-.397.089.745.417-.05.175-.38-.68-.315ZM11.25 4a.75.75 0 0 0 1.5 0zm1.5-2a.75.75 0 0 0-1.5 0zM6.47 7.53a.75.75 0 0 0 1.06-1.06zm-.94-3.06a.75.75 0 0 0-1.06 1.06zM2 11.25a.75.75 0 0 0 0 1.5zm2 1.5a.75.75 0 0 0 0-1.5zm.47 5.72a.75.75 0 1 0 1.06 1.06zm2.56-.44a.75.75 0 1 0-1.06-1.06zM12.75 20a.75.75 0 0 0-1.5 0zm-1.5 2a.75.75 0 0 0 1.5 0zm7.22-2.47a.75.75 0 1 0 1.06-1.06zm-.44-2.56a.75.75 0 1 0-1.06 1.06zm-1.06-11a.75.75 0 0 0 1.06 1.06zm2.56-.44a.75.75 0 0 0-1.06-1.06zm.47 5.72a.75.75 0 0 0 0 1.5zm2 1.5a.75.75 0 0 0 0-1.5zM11.319 7.314l1.41 3.059 1.363-.629-1.41-3.058zm2.003 3.49 3.345.396.177-1.49-3.345-.396zm2.924-.9-2.473 2.287 1.019 1.101 2.473-2.286zm-2.699 2.984.656 3.303 1.472-.292-.657-3.303zm1.758 2.503-2.939-1.645-.732 1.308 2.939 1.646.732-1.31Zm-3.671-1.645-2.94 1.645.733 1.309 2.94-1.646zM9.797 16.19l.656-3.303-1.471-.293-.657 3.304zm.43-4L7.754 9.904l-1.018 1.102 2.472 2.286zm-2.894-.99 3.345-.397-.177-1.49-3.345.397zm3.937-.827 1.411-3.059-1.362-.628-1.41 3.058zM12.75 4V2h-1.5v2zM7.53 6.47l-2-2-1.06 1.06 2 2zM2 12.75h2v-1.5H2zm3.53 6.78 1.5-1.5-1.06-1.06-1.5 1.5zm5.72.47v2h1.5v-2zm8.28-1.53-1.5-1.5-1.06 1.06 1.5 1.5zm-1.5-11.44 1.5-1.5-1.06-1.06-1.5 1.5zM20 12.75h2v-1.5h-2z"/>
</svg>
