<svg xmlns="http://www.w3.org/2000/svg" fill="none" viewBox="0 0 24 24" stroke-width="1.5" stroke="currentColor" aria-hidden="true" data-slot="icon">
  <path d="M9.3 10.35a.75.75 0 0 0 0 1.5zm4.5.75.53.53a.75.75 0 0 0-.53-1.28zm-4.5 4.5-.53-.53a.75.75 0 0 0 .53 1.28zm4.5.75a.75.75 0 0 0 0-1.5zm3.07-10.28a.75.75 0 0 0 1.06 1.06zm1.96-2.7a.75.75 0 1 0-1.06 1.06zm.74 2.86a.75.75 0 1 0 1.06-1.06zM9.3 2.25a.75.75 0 0 0 0 1.5zm4.5 1.5a.75.75 0 0 0 0-1.5zm5.55 9.15A7.35 7.35 0 0 1 12 20.25v1.5a8.85 8.85 0 0 0 8.85-8.85zM12 20.25a7.35 7.35 0 0 1-7.35-7.35h-1.5A8.85 8.85 0 0 0 12 21.75zM4.65 12.9A7.35 7.35 0 0 1 12 5.55v-1.5a8.85 8.85 0 0 0-8.85 8.85zM12 5.55a7.35 7.35 0 0 1 7.35 7.35h1.5A8.85 8.85 0 0 0 12 4.05zm-2.7 6.3h4.5v-1.5H9.3zm3.97-1.28-4.5 4.5 1.06 1.06 4.5-4.5zM9.3 16.35h4.5v-1.5H9.3zm8.63-9.22 1.8-1.8-1.06-1.06-1.8 1.8zm1.8-2.86-.9-.9-1.06 1.06.9.9zm-1.06 1.06.9.9 1.06-1.06-.9-.9zM9.3 3.75h4.5v-1.5H9.3z"/>
</svg>
