<svg xmlns="http://www.w3.org/2000/svg" fill="none" viewBox="0 0 24 24" stroke-width="1.5" stroke="currentColor" aria-hidden="true" data-slot="icon">
  <path d="m3.8 12 .53-.53zm8.2 8.2-.53.53zm3.865 0-.53-.53zm4.335-4.335.53.53zm0-3.865.53-.53zM12 3.8l-.53.53zM7.9 7.15a.75.75 0 1 0 0 1.5zm.01 1.5a.75.75 0 0 0 0-1.5zM2.25 3.911v6.156h1.5V3.911zm1.02 8.62 8.2 8.199 1.06-1.06-8.2-8.2-1.06 1.06Zm13.126 8.199 4.334-4.334-1.06-1.061-4.335 4.334 1.06 1.06Zm4.334-9.26-8.2-8.2-1.06 1.06 8.2 8.2zM10.067 2.25H3.911v1.5h6.156zm2.463 1.02a3.48 3.48 0 0 0-2.463-1.02v1.5c.526 0 1.03.209 1.403.58zm8.2 13.126a3.483 3.483 0 0 0 0-4.926l-1.06 1.06c.774.775.774 2.03 0 2.805l1.06 1.06Zm-9.26 4.334a3.483 3.483 0 0 0 4.926 0l-1.061-1.06a1.983 1.983 0 0 1-2.805 0zM2.25 10.067c0 .924.367 1.81 1.02 2.463l1.06-1.06a1.98 1.98 0 0 1-.58-1.403zm1.5-6.156a.16.16 0 0 1 .161-.161v-1.5c-.917 0-1.661.744-1.661 1.661zm4.15 4.74h.01v-1.5H7.9zm-.294-.75c0-.163.132-.295.294-.295v1.5c.666 0 1.206-.54 1.206-1.206zm.294-.295c.163 0 .295.132.295.294h-1.5c0 .666.54 1.206 1.205 1.206zm.295.294a.294.294 0 0 1-.295.295v-1.5c-.666 0-1.205.54-1.205 1.205zm-.295.295a.294.294 0 0 1-.294-.295h1.5c0-.666-.54-1.205-1.206-1.205z"/>
</svg>
