<svg xmlns="http://www.w3.org/2000/svg" fill="none" viewBox="0 0 24 24" stroke-width="1.5" stroke="currentColor" aria-hidden="true" data-slot="icon">
  <path d="M5 12v-.75a.75.75 0 0 0-.75.75zm14 0h.75a.75.75 0 0 0-.75-.75zM8.5 2.25a.75.75 0 0 0 0 1.5zm7 1.5a.75.75 0 0 0 0-1.5zM11.25 5.7a.75.75 0 0 0 1.5 0zm5.763 15.628a.75.75 0 0 0 1.349-.656zm-11.375-.656a.75.75 0 0 0 1.349.656zm3.737-.422a.75.75 0 0 0 0 1.5zm5.25 1.5a.75.75 0 0 0 0-1.5zM8.937 14.4a.75.75 0 0 0 0 1.5zm.01 1.5a.75.75 0 0 0 0-1.5zm6.116-1.5a.75.75 0 0 0 0 1.5zm.008 1.5a.75.75 0 1 0 0-1.5zM7.625 6.45h8.75v-1.5h-8.75zM18.25 8.4v7.2h1.5V8.4zm-1.875 9.15h-8.75v1.5h8.75zM5.75 15.6V8.4h-1.5v7.2zm1.875 1.95c-1.016 0-1.875-.853-1.875-1.95h-1.5c0 1.885 1.491 3.45 3.375 3.45zM18.25 15.6c0 1.097-.86 1.95-1.875 1.95v1.5c1.884 0 3.375-1.565 3.375-3.45zm-1.875-9.15c1.016 0 1.875.853 1.875 1.95h1.5c0-1.885-1.491-3.45-3.375-3.45zm-8.75-1.5C5.741 4.95 4.25 6.515 4.25 8.4h1.5c0-1.097.86-1.95 1.875-1.95zM5 12.75h14v-1.5H5zM18.25 12v3.6h1.5V12zm-12.5 3.6V12h-1.5v3.6zM8.5 3.75H12v-1.5H8.5zm3.5 0h3.5v-1.5H12zM11.25 3v2.7h1.5V3zm7.112 17.672-1.313-2.7-1.348.656 1.312 2.7zm-11.375.656 1.313-2.7-1.35-.656-1.312 2.7zm2.388.422h5.25v-1.5h-5.25zm-.438-5.85h.01v-1.5h-.01zm-.312-.75c0-.146.12-.3.313-.3v1.5c.675 0 1.187-.557 1.187-1.2zm.313-.3c.192 0 .312.154.312.3h-1.5c0 .643.512 1.2 1.188 1.2zm.312.3c0 .146-.12.3-.313.3v-1.5c-.675 0-1.187.557-1.187 1.2zm-.313.3a.306.306 0 0 1-.312-.3h1.5c0-.643-.512-1.2-1.188-1.2zm6.126.45h.008v-1.5h-.008zm-.313-.75c0-.146.12-.3.313-.3v1.5c.675 0 1.187-.557 1.187-1.2zm.313-.3c.192 0 .312.154.312.3h-1.5c0 .643.512 1.2 1.188 1.2zm.312.3c0 .146-.12.3-.313.3v-1.5c-.675 0-1.187.557-1.187 1.2zm-.313.3a.306.306 0 0 1-.312-.3h1.5c0-.643-.512-1.2-1.188-1.2z"/>
</svg>
