<svg xmlns="http://www.w3.org/2000/svg" fill="none" viewBox="0 0 24 24" stroke-width="1.5" stroke="currentColor" aria-hidden="true" data-slot="icon">
  <path stroke-linecap="round" d="M11.583 9.3V12l.834 1.8M8.25 6.6l.234-2.023C8.588 3.676 9.297 3 10.138 3h3.724c.84 0 1.55.676 1.654 1.577L15.75 6.6m.417 10.8-.235 2.023C15.829 20.324 15.12 21 14.28 21H9.72c-.84 0-1.55-.676-1.653-1.577L7.833 17.4m.834 0h6.666c.92 0 1.667-.806 1.667-1.8V8.4c0-.994-.746-1.8-1.667-1.8H8.667C7.747 6.6 7 7.406 7 8.4v7.2c0 .994.746 1.8 1.667 1.8Z"/>
</svg>
