<svg xmlns="http://www.w3.org/2000/svg" fill="none" viewBox="0 0 24 24" stroke-width="1.5" stroke="currentColor" aria-hidden="true" data-slot="icon">
  <path d="M12.333 9.3a.75.75 0 0 0-1.5 0zm-.75 2.7h-.75v.165l.07.15zm.153 2.115a.75.75 0 1 0 1.361-.63l-1.36.63ZM7.505 6.514a.75.75 0 0 0 1.49.172zm.98-1.937.744.086zm7.03 0-.744.086zm-.51 2.11a.75.75 0 1 0 1.49-.173l-1.49.172Zm1.907 10.8.086-.746-1.49-.172-.086.745zm-.98 1.936-.745-.086zm-7.354-2.11-.086-.744-1.49.172.086.745 1.49-.172Zm.089-9.963h6.666v-1.5H8.667zM16.25 8.4v7.2h1.5V8.4zm-.917 8.25H8.667v1.5h6.666zM7.75 15.6V8.4h-1.5v7.2zm.917 1.05c-.453 0-.917-.415-.917-1.05h-1.5c0 1.353 1.029 2.55 2.417 2.55zm7.583-1.05c0 .635-.464 1.05-.917 1.05v1.5c1.388 0 2.417-1.197 2.417-2.55zm-.917-8.25c.453 0 .917.415.917 1.05h1.5c0-1.353-1.029-2.55-2.417-2.55zm-6.666-1.5C7.279 5.85 6.25 7.047 6.25 8.4h1.5c0-.635.464-1.05.917-1.05zm2.166 3.45V12h1.5V9.3zm.07 3.015.833 1.8 1.361-.63-.833-1.8zM8.995 6.686l.234-2.023-1.49-.172-.234 2.023zm1.143-2.936h3.724v-1.5h-3.724zm4.633.913.234 2.023 1.49-.172-.234-2.023zm-.909-.913c.415 0 .843.345.909.913l1.49-.172c-.143-1.234-1.133-2.241-2.399-2.241zm-4.633.913c.066-.568.494-.913.909-.913v-1.5c-1.266 0-2.256 1.007-2.399 2.24zm6.193 12.65-.235 2.024 1.49.172.235-2.023-1.49-.172Zm-1.143 2.937H9.72v1.5h4.558zm-5.466-.913-.235-2.023-1.49.172.234 2.023 1.49-.172Zm.908.913c-.415 0-.843-.345-.908-.913l-1.49.172c.142 1.234 1.133 2.241 2.398 2.241zm5.466-.913c-.065.568-.493.913-.908.913v1.5c1.265 0 2.256-1.007 2.398-2.24z"/>
</svg>
