<svg xmlns="http://www.w3.org/2000/svg" fill="none" viewBox="0 0 24 24" stroke-width="1.5" stroke="currentColor" aria-hidden="true" data-slot="icon">
  <path d="m11.994 5.916-.57.489a.75.75 0 0 0 1.139 0l-.57-.489Zm-7.856 6.661.591-.461zm15.712 0-.592-.461zm-8.325 7.16-.497.562zm.34.245-.214.718zm.598-.245-.497-.562zm-.34.245.213.718zm-3.79-9.265a.75.75 0 0 0 0 1.5zm1.494.75v.75a.75.75 0 0 0 .687-.45zm1.4-3.2.718-.214a.75.75 0 0 0-1.405-.087zm1.906 6.4-.718.214a.75.75 0 0 0 1.423.044zm1.174-3.2v-.75a.75.75 0 0 0-.705.492zm1.493.75a.75.75 0 0 0 0-1.5zm-3.237-6.79c-2.02-2.354-5.488-3.056-8.11-.823l.973 1.142c1.886-1.607 4.42-1.18 5.999.659l1.138-.977Zm-8.11-.823c-2.557 2.178-2.927 5.843-.907 8.434l1.183-.922c-1.52-1.95-1.256-4.707.697-6.37zm15.988 8.434c2.014-2.583 1.7-6.275-.914-8.44l-.957 1.155c1.973 1.635 2.216 4.404.688 6.363zm-.914-8.44c-2.654-2.199-6.076-1.531-8.102.83l1.138.977c1.573-1.833 4.074-2.254 6.007-.652zm-15.98 8.44c.776.997 2.3 2.503 3.775 3.89a169 169 0 0 0 3.706 3.371l.993-1.124a165 165 0 0 1-3.671-3.34c-1.487-1.398-2.926-2.828-3.62-3.719zm9.412 7.261a166 166 0 0 0 3.707-3.371c1.474-1.387 2.998-2.893 3.775-3.89l-1.183-.922c-.694.891-2.134 2.321-3.62 3.72a165 165 0 0 1-3.672 3.339zm-1.93 0c.072.064.16.142.241.203.091.069.216.15.381.198l.428-1.437c.07.02.106.05.092.04l-.15-.128zm.937-1.124-.1.087-.05.04c-.014.012.023-.019.093-.04l.427 1.438c.165-.049.29-.13.381-.198.082-.061.17-.139.242-.203zm-.315 1.525c.223.067.463.067.685 0l-.427-1.437a.3.3 0 0 1 .17 0zm-3.318-8.483h1.494v-1.5H8.333zm2.18-.45 1.4-3.2-1.373-.601-1.4 3.2 1.374.601Zm-.005-3.286 1.907 6.4 1.437-.428-1.907-6.4zm3.33 6.444 1.173-3.2-1.409-.516-1.173 3.2zm.469-2.708H15.8v-1.5h-1.493z"/>
</svg>
