<svg xmlns="http://www.w3.org/2000/svg" fill="none" viewBox="0 0 24 24" stroke-width="1.5" stroke="currentColor" aria-hidden="true" data-slot="icon">
  <path d="M12.75 9.514a.75.75 0 0 0-1.5 0zm-.75 3h-.75c0 .199.079.39.22.53zm1.47 2.53a.75.75 0 1 0 1.06-1.06zM16.907 2.27a.75.75 0 0 0 .186 1.488zm3.343 4.244a.75.75 0 0 0 1.5 0zM6.907 3.758a.75.75 0 0 0 .186-1.488zM2.25 6.514a.75.75 0 0 0 1.5 0zm4.78 12.53a.75.75 0 0 0-1.06-1.06zm-3.56 1.44a.75.75 0 0 0 1.06 1.06zm15.116-2.439a.75.75 0 0 0-1.172.937zm.828 3.437a.75.75 0 0 0 1.172-.937zm-.164-8.968a7.25 7.25 0 0 1-7.25 7.25v1.5a8.75 8.75 0 0 0 8.75-8.75zM12 19.764a7.25 7.25 0 0 1-7.25-7.25h-1.5a8.75 8.75 0 0 0 8.75 8.75zm-7.25-7.25A7.25 7.25 0 0 1 12 5.264v-1.5a8.75 8.75 0 0 0-8.75 8.75zM12 5.264a7.25 7.25 0 0 1 7.25 7.25h1.5A8.75 8.75 0 0 0 12 3.764zm-.75 4.25v3h1.5v-3zm.22 3.53 2 2 1.06-1.06-2-2zm5.623-9.286c1.669-.208 3.157 1.092 3.157 2.756h1.5c0-2.584-2.297-4.563-4.843-4.244zm-10-1.488C4.547 1.95 2.25 3.93 2.25 6.514h1.5c0-1.664 1.488-2.964 3.157-2.756zM5.97 17.984l-2.5 2.5 1.06 1.06 2.5-2.5zm11.444.998 2 2.5 1.172-.937-2-2.5z"/>
</svg>
