<svg xmlns="http://www.w3.org/2000/svg" fill="none" viewBox="0 0 24 24" stroke-width="1.5" stroke="currentColor" aria-hidden="true" data-slot="icon">
  <path stroke-linecap="round" stroke-linejoin="round" d="M8.75 10.375a.375.375 0 1 1-.75 0 .375.375 0 0 1 .75 0m0 0h-.375m4.125 0a.375.375 0 1 1-.75 0 .375.375 0 0 1 .75 0m0 0h-.375m4.125 0a.375.375 0 1 1-.75 0 .375.375 0 0 1 .75 0m0 0h-.375M6 3a3 3 0 0 0-3 3v8a3 3 0 0 0 3 3h1.5a3 3 0 0 1 2.4 1.2L12 21l2.1-2.8a3 3 0 0 1 2.4-1.2H18a3 3 0 0 0 3-3V6a3 3 0 0 0-3-3z"/>
</svg>
