<svg xmlns="http://www.w3.org/2000/svg" fill="none" viewBox="0 0 24 24" stroke-width="1.5" stroke="currentColor" aria-hidden="true" data-slot="icon">
  <path d="M11.47 8.53a.75.75 0 0 1 1.06-1.06zM16 12l.53-.53a.75.75 0 0 1 0 1.06zm-3.47 4.53a.75.75 0 1 1-1.06-1.06zM8 12.75a.75.75 0 0 1 0-1.5zm10-9H6v-1.5h12zM3.75 6v12h-1.5V6zM6 20.25h12v1.5H6zM20.25 18V6h1.5v12zM18 20.25A2.25 2.25 0 0 0 20.25 18h1.5A3.75 3.75 0 0 1 18 21.75zM3.75 18A2.25 2.25 0 0 0 6 20.25v1.5A3.75 3.75 0 0 1 2.25 18zM6 3.75A2.25 2.25 0 0 0 3.75 6h-1.5A3.75 3.75 0 0 1 6 2.25zm12-1.5A3.75 3.75 0 0 1 21.75 6h-1.5A2.25 2.25 0 0 0 18 3.75zm-5.47 5.22 4 4-1.06 1.06-4-4zm4 5.06-4 4-1.06-1.06 4-4zm-.53.22H8v-1.5h8z"/>
</svg>
