<svg xmlns="http://www.w3.org/2000/svg" fill="none" viewBox="0 0 24 24" stroke-width="1.5" stroke="currentColor" aria-hidden="true" data-slot="icon">
  <path d="M9.75 9a.75.75 0 0 0-1.5 0zM9 15h-.75c0 .414.336.75.75.75zm6 .75a.75.75 0 0 0 0-1.5zm.53-6.22a.75.75 0 0 0-1.06-1.06zM6 3.75h12v-1.5H6zM20.25 6v12h1.5V6zM18 20.25H6v1.5h12zM3.75 18V6h-1.5v12zM6 20.25A2.25 2.25 0 0 1 3.75 18h-1.5A3.75 3.75 0 0 0 6 21.75zM20.25 18A2.25 2.25 0 0 1 18 20.25v1.5A3.75 3.75 0 0 0 21.75 18zM18 3.75A2.25 2.25 0 0 1 20.25 6h1.5A3.75 3.75 0 0 0 18 2.25zM6 2.25A3.75 3.75 0 0 0 2.25 6h1.5A2.25 2.25 0 0 1 6 3.75zM8.25 9v6h1.5V9zM9 15.75h6v-1.5H9zm.53-.22 6-6-1.06-1.06-6 6z"/>
</svg>
