<svg xmlns="http://www.w3.org/2000/svg" fill="none" viewBox="0 0 24 24" stroke-width="1.5" stroke="currentColor" aria-hidden="true" data-slot="icon">
  <path d="M12.53 8.53a.75.75 0 0 0-1.06-1.06zM8 12l-.53-.53a.75.75 0 0 0 0 1.06zm3.47 4.53a.75.75 0 1 0 1.06-1.06zM16 12.75a.75.75 0 0 0 0-1.5zm-10-9h12v-1.5H6zM20.25 6v12h1.5V6zM18 20.25H6v1.5h12zM3.75 18V6h-1.5v12zM6 20.25A2.25 2.25 0 0 1 3.75 18h-1.5A3.75 3.75 0 0 0 6 21.75zM20.25 18A2.25 2.25 0 0 1 18 20.25v1.5A3.75 3.75 0 0 0 21.75 18zM18 3.75A2.25 2.25 0 0 1 20.25 6h1.5A3.75 3.75 0 0 0 18 2.25zM6 2.25A3.75 3.75 0 0 0 2.25 6h1.5A2.25 2.25 0 0 1 6 3.75zm5.47 5.22-4 4 1.06 1.06 4-4zm-4 5.06 4 4 1.06-1.06-4-4zm.53.22h8v-1.5H8z"/>
</svg>
