<svg xmlns="http://www.w3.org/2000/svg" fill="none" viewBox="0 0 24 24" stroke-width="1.5" stroke="currentColor" aria-hidden="true" data-slot="icon">
  <path d="M9.75 15a.75.75 0 0 1-1.5 0zM9 9h-.75A.75.75 0 0 1 9 8.25zm6-.75a.75.75 0 0 1 0 1.5zm.53 6.22a.75.75 0 1 1-1.06 1.06zM6 20.25h12v1.5H6zM20.25 18V6h1.5v12zM18 3.75H6v-1.5h12zM3.75 6v12h-1.5V6zM6 3.75A2.25 2.25 0 0 0 3.75 6h-1.5A3.75 3.75 0 0 1 6 2.25zM20.25 6A2.25 2.25 0 0 0 18 3.75v-1.5A3.75 3.75 0 0 1 21.75 6zM18 20.25A2.25 2.25 0 0 0 20.25 18h1.5A3.75 3.75 0 0 1 18 21.75zm-12 1.5A3.75 3.75 0 0 1 2.25 18h1.5A2.25 2.25 0 0 0 6 20.25zM8.25 15V9h1.5v6zM9 8.25h6v1.5H9zm.53.22 6 6-1.06 1.06-6-6z"/>
</svg>
