<svg xmlns="http://www.w3.org/2000/svg" fill="none" viewBox="0 0 24 24" stroke-width="1.5" stroke="currentColor" aria-hidden="true" data-slot="icon">
  <path d="M12.75 8.4a.75.75 0 0 0-1.5 0zM12 15.6l-.53.53a.75.75 0 0 0 1.06 0zm-3.07-4.13a.75.75 0 0 0-1.06 1.06zm7.2 1.06a.75.75 0 1 0-1.06-1.06zm4.12-.53A8.25 8.25 0 0 1 12 20.25v1.5A9.75 9.75 0 0 0 21.75 12zM12 20.25A8.25 8.25 0 0 1 3.75 12h-1.5A9.75 9.75 0 0 0 12 21.75zM3.75 12A8.25 8.25 0 0 1 12 3.75v-1.5A9.75 9.75 0 0 0 2.25 12zM12 3.75A8.25 8.25 0 0 1 20.25 12h1.5A9.75 9.75 0 0 0 12 2.25zm-.75 4.65v7.2h1.5V8.4zm1.28 6.67-3.6-3.6-1.06 1.06 3.6 3.6zm0 1.06 3.6-3.6-1.06-1.06-3.6 3.6z"/>
</svg>
