<svg xmlns="http://www.w3.org/2000/svg" fill="none" viewBox="0 0 24 24" stroke-width="1.5" stroke="currentColor" aria-hidden="true" data-slot="icon">
  <path d="M8.77 9.83a.75.75 0 0 1 1.06-1.06zm5.93 4.87h.75a.75.75 0 0 1-.75.75zm-.75-5.4a.75.75 0 0 1 1.5 0zM9.3 15.45a.75.75 0 0 1 0-1.5zm.53-6.68 5.4 5.4-1.06 1.06-5.4-5.4zm4.12 5.93V9.3h1.5v5.4zm.75.75H9.3v-1.5h5.4zM3.75 12A8.25 8.25 0 0 0 12 20.25v1.5A9.75 9.75 0 0 1 2.25 12zM12 20.25A8.25 8.25 0 0 0 20.25 12h1.5A9.75 9.75 0 0 1 12 21.75zM20.25 12A8.25 8.25 0 0 0 12 3.75v-1.5A9.75 9.75 0 0 1 21.75 12zM12 3.75A8.25 8.25 0 0 0 3.75 12h-1.5A9.75 9.75 0 0 1 12 2.25z"/>
</svg>
