<svg xmlns="http://www.w3.org/2000/svg" fill="none" viewBox="0 0 24 24" stroke-width="1.5" stroke="currentColor" aria-hidden="true" data-slot="icon">
  <path d="M12.91 11.888a.935.935 0 1 1-1.87 0 .935.935 0 0 1 1.87 0"/>
  <path d="M20.207 3.44c1.579 1.53-.855 6.603-5.437 11.33s-9.576 7.32-11.155 5.79c-1.58-1.53.855-6.603 5.437-11.33s9.576-7.32 11.155-5.79Z"/>
  <path d="M3.57 3.484c1.556-1.555 6.59.959 11.245 5.614 4.656 4.656 7.17 9.69 5.615 11.245s-6.59-.96-11.245-5.614C4.53 10.073 2.016 5.039 3.571 3.484Z"/>
  <path d="M12.91 11.888a.935.935 0 1 1-1.87 0 .935.935 0 0 1 1.87 0Z"/>
</svg>
