<svg xmlns="http://www.w3.org/2000/svg" fill="none" viewBox="0 0 24 24" stroke-width="1.5" stroke="currentColor" aria-hidden="true" data-slot="icon">
  <path d="M5.412 4v-.75a.75.75 0 0 0-.75.75zm0 16h-.75c0 .414.335.75.75.75zm0-15.25h7.095v-1.5H5.412zm7.095 6.5H5.412v1.5h7.095zM6.162 12V4h-1.5v8zm9.649-4c0 1.785-1.47 3.25-3.304 3.25v1.5c2.643 0 4.804-2.117 4.804-4.75zm-3.304-3.25c1.834 0 3.304 1.465 3.304 3.25h1.5c0-2.633-2.16-4.75-4.804-4.75zm-7.095 8h9.122v-1.5H5.412zm9.122 6.5H5.412v1.5h9.122zM6.162 20v-8h-1.5v8zm11.676-4c0 1.785-1.47 3.25-3.304 3.25v1.5c2.644 0 4.804-2.117 4.804-4.75zm-3.304-3.25c1.834 0 3.304 1.465 3.304 3.25h1.5c0-2.633-2.16-4.75-4.804-4.75z"/>
</svg>
