<svg xmlns="http://www.w3.org/2000/svg" fill="none" viewBox="0 0 24 24" stroke-width="1.5" stroke="currentColor" aria-hidden="true" data-slot="icon">
  <path d="M3 6a3 3 0 0 1 3-3h12a3 3 0 0 1 3 3v12a3 3 0 0 1-3 3H6a3 3 0 0 1-3-3z"/>
  <path stroke-linejoin="round" d="M9.314 7h-.439v5h4.156a2.36 2.36 0 0 0 1.701-.733 2.55 2.55 0 0 0 .705-1.767 2.55 2.55 0 0 0-.704-1.768A2.36 2.36 0 0 0 13.03 7zm0 0v.23m0 0 3.5.001c.58 0 1.137.24 1.547.666s.64 1.004.64 1.606-.23 1.181-.64 1.607c-.41.427-.967.666-1.547.666h-3.5m0-4.546v4.546m0 5.224h3.936c.696 0 1.364-.287 1.856-.799a2.78 2.78 0 0 0 .769-1.928c0-.723-.277-1.417-.769-1.929a2.58 2.58 0 0 0-1.856-.798H8.875V17zm0 0v-.224m0 0v-5m0 5h3.719a2.36 2.36 0 0 0 1.701-.733 2.55 2.55 0 0 0 .705-1.767 2.55 2.55 0 0 0-.705-1.768 2.36 2.36 0 0 0-1.701-.732H9.314m.436-4.32h2.844c.522 0 1.023.215 1.392.598.369.384.576.904.576 1.446 0 .543-.207 1.063-.576 1.447-.37.383-.87.599-1.392.599H9.75zm0 4.544h3.062c.58 0 1.137.24 1.547.666s.64 1.004.64 1.607c0 .602-.23 1.18-.64 1.606s-.966.666-1.547.666H9.75z"/>
</svg>
