<svg xmlns="http://www.w3.org/2000/svg" fill="none" viewBox="0 0 24 24" stroke-width="1.5" stroke="currentColor" aria-hidden="true" data-slot="icon">
  <path d="M4 6.15h16"/>
  <path stroke-linejoin="round" d="M5.778 21v-1.8h3.11V21zm9.333 0v-1.8h3.111V21h-3.11Z"/>
  <path d="M4 12h16M4 12v4.5c0 1.491 1.194 2.7 2.667 2.7h10.666c1.473 0 2.667-1.209 2.667-2.7V12M4 12v3.6M20 12v3.6M5.778 19.2h3.11m6.223 0h3.111"/>
  <path stroke-linecap="round" d="M6.667 15.15h1.777m7.111 0h1.778"/>
  <path d="M20 16.5V5.7M4 16.5V5.7m16 0C20 4.209 18.806 3 17.333 3H6.667C5.194 3 4 4.209 4 5.7"/>
</svg>
