<svg xmlns="http://www.w3.org/2000/svg" fill="none" viewBox="0 0 24 24" stroke-width="1.5" stroke="currentColor" aria-hidden="true" data-slot="icon">
  <path d="M12 13.35a.45.45 0 1 1-.9 0 .45.45 0 0 1 .9 0m4.5 0a.45.45 0 1 1-.9 0 .45.45 0 0 1 .9 0m-9 3.6a.45.45 0 1 1-.9 0 .45.45 0 0 1 .9 0m4.5 0a.45.45 0 1 1-.9 0 .45.45 0 0 1 .9 0m4.5 0a.45.45 0 1 1-.9 0 .45.45 0 0 1 .9 0"/>
  <path stroke-linecap="round" d="M20.1 7.5v10.8a2.7 2.7 0 0 1-2.7 2.7H6.6a2.7 2.7 0 0 1-2.7-2.7V7.5m16.2 0a2.7 2.7 0 0 0-2.7-2.7H6.6a2.7 2.7 0 0 0-2.7 2.7m16.2 0v2.7H3.9V7.5M8.4 3v3.6M15.6 3v3.6M12 13.35a.45.45 0 1 1-.9 0 .45.45 0 0 1 .9 0Zm4.5 0a.45.45 0 1 1-.9 0 .45.45 0 0 1 .9 0Zm-9 3.6a.45.45 0 1 1-.9 0 .45.45 0 0 1 .9 0Zm4.5 0a.45.45 0 1 1-.9 0 .45.45 0 0 1 .9 0Zm4.5 0a.45.45 0 1 1-.9 0 .45.45 0 0 1 .9 0Z"/>
</svg>
