<svg xmlns="http://www.w3.org/2000/svg" fill="none" viewBox="0 0 24 24" stroke-width="1.5" stroke="currentColor" aria-hidden="true" data-slot="icon">
  <path stroke-linecap="round" stroke-linejoin="round" d="M5.35 12.938H8.2m7.6 0h2.85M2.5 8.25l1.9 1.875 1.25-3.702A2.85 2.85 0 0 1 8.354 4.5h7.292c1.227 0 2.316.775 2.704 1.923l1.25 3.702 1.9-1.875M5.35 10.125h13.3c1.574 0 2.85 1.26 2.85 2.813v4.218c0 1.295-1.063 2.344-2.375 2.344h-1.188a1.18 1.18 0 0 1-1.187-1.172 1.18 1.18 0 0 0-1.188-1.172H8.439a1.18 1.18 0 0 0-1.188 1.172A1.18 1.18 0 0 1 6.062 19.5H4.875c-1.312 0-2.375-1.05-2.375-2.344v-4.218c0-1.554 1.276-2.813 2.85-2.813"/>
</svg>
