<svg xmlns="http://www.w3.org/2000/svg" fill="none" viewBox="0 0 24 24" stroke-width="1.5" stroke="currentColor" aria-hidden="true" data-slot="icon">
  <path stroke-linecap="round" stroke-linejoin="round" d="m16.263 13.882.948-.47v3.294m0 0h-.948m.948 0h.947"/>
  <path stroke-linecap="round" stroke-linejoin="round" d="M21 15.294c0 2.08-1.697 3.765-3.79 3.765s-3.79-1.686-3.79-3.765 1.697-3.765 3.79-3.765S21 13.215 21 15.294m-7.579 2.824c0 1.04-2.333 1.882-5.21 1.882C5.333 20 3 19.157 3 18.118m10.421-4.706c0 1.04-2.333 1.882-5.21 1.882-2.878 0-5.211-.843-5.211-1.882m10.421-3.765c0 1.04-2.333 1.882-5.21 1.882C5.333 11.53 3 10.687 3 9.647m0-3.765c0 1.04 2.333 1.883 5.21 1.883 2.878 0 5.211-.843 5.211-1.883S11.088 4 8.211 4c-2.732 0-4.973.76-5.193 1.726m10.402.156v12.236M3 5.882v12.236"/>
</svg>
