<svg xmlns="http://www.w3.org/2000/svg" fill="none" viewBox="0 0 24 24" stroke-width="1.5" stroke="currentColor" aria-hidden="true" data-slot="icon">
  <path d="M5.5 7.005a.75.75 0 0 0-1.5 0zm-1.5.01a.75.75 0 0 0 1.5 0zm1.5 4.99a.75.75 0 0 0-1.5 0zm-1.5.01a.75.75 0 0 0 1.5 0zm1.5 4.98a.75.75 0 0 0-1.5 0zm-1.5.01a.75.75 0 0 0 1.5 0zm3.75-10.75a.75.75 0 0 0 0 1.5zm12 1.5a.75.75 0 0 0 0-1.5zm-12 3.5a.75.75 0 0 0 0 1.5zm12 1.5a.75.75 0 0 0 0-1.5zm-12 3.5a.75.75 0 0 0 0 1.5zm12 1.5a.75.75 0 0 0 0-1.5zM4 7.005v.01h1.5v-.01zm.75-.25a.25.25 0 0 1 .25.25H3.5c0 .69.56 1.25 1.25 1.25zm.25.25a.25.25 0 0 1-.25.25v-1.5c-.69 0-1.25.56-1.25 1.25zm-.25.25a.25.25 0 0 1-.25-.25H6c0-.69-.56-1.25-1.25-1.25zm-.25-.25a.25.25 0 0 1 .25-.25v1.5c.69 0 1.25-.56 1.25-1.25zm-.5 5v.01h1.5v-.01zm.75-.25a.25.25 0 0 1 .25.25H3.5c0 .69.56 1.25 1.25 1.25zm.25.25a.25.25 0 0 1-.25.25v-1.5c-.69 0-1.25.56-1.25 1.25zm-.25.25a.25.25 0 0 1-.25-.25H6c0-.69-.56-1.25-1.25-1.25zm-.25-.25a.25.25 0 0 1 .25-.25v1.5c.69 0 1.25-.56 1.25-1.25zm-.5 4.99v.01h1.5v-.01zm.75-.25a.25.25 0 0 1 .25.25H3.5c0 .69.56 1.25 1.25 1.25zm.25.25a.25.25 0 0 1-.25.25v-1.5c-.69 0-1.25.56-1.25 1.25zm-.25.25a.25.25 0 0 1-.25-.25H6c0-.69-.56-1.25-1.25-1.25zm-.25-.25a.25.25 0 0 1 .25-.25v1.5c.69 0 1.25-.56 1.25-1.25zm3.25-9.24h12v-1.5h-12zm0 5h12v-1.5h-12zm0 5h12v-1.5h-12z"/>
</svg>
