<svg xmlns="http://www.w3.org/2000/svg" fill="none" viewBox="0 0 24 24" stroke-width="1.5" stroke="currentColor" aria-hidden="true" data-slot="icon">
  <path stroke-linejoin="round" d="M5 18.3V5.7C5 4.209 6.175 3 7.625 3h5.038c.696 0 1.364.284 1.856.79l3.712 3.82A2.74 2.74 0 0 1 19 9.517V18.3c0 1.491-1.175 2.7-2.625 2.7h-8.75C6.175 21 5 19.791 5 18.3Z"/>
  <path stroke-linejoin="round" d="M13.75 8.4V4.086c0-.4.471-.601.747-.318l3.756 3.864c.276.283.08.768-.31.768z"/>
  <path stroke-linecap="round" stroke-linejoin="round" d="M14.513 12.451A1.7 1.7 0 0 0 13.357 12a1.7 1.7 0 0 0-1.156.451l-.198.253-.23-.19a1.6 1.6 0 0 0-.541-.365 1.66 1.66 0 0 0-1.295.012 1.6 1.6 0 0 0-.533.375c-.148.16-.26.347-.328.55a1.47 1.47 0 0 0 .14 1.233c.111.184.262.345.443.47L12.036 17l2.378-2.211c.792-.758.726-1.706.132-2.338"/>
</svg>
