<svg xmlns="http://www.w3.org/2000/svg" fill="none" viewBox="0 0 24 24" stroke-width="1.5" stroke="currentColor" aria-hidden="true" data-slot="icon">
  <path d="M3 3v-.75a.75.75 0 0 0-.624 1.166zm5.4 0 .651-.372A.75.75 0 0 0 8.4 2.25zM12 9.3l-.651.372a.75.75 0 0 0 1.302 0zM15.6 3v-.75a.75.75 0 0 0-.651.378zM21 3l.624.416A.75.75 0 0 0 21 2.25zm-9 10.8h.75a.75.75 0 0 0-1.085-.67zm-.9 2.85a.75.75 0 0 0 0 1.5zm1.8 1.5a.75.75 0 0 0 0-1.5zm-2.135-4.57a.75.75 0 1 0 .67 1.34zm5.885 2.02A4.65 4.65 0 0 1 12 20.25v1.5a6.15 6.15 0 0 0 6.15-6.15zM12 20.25a4.65 4.65 0 0 1-4.65-4.65h-1.5A6.15 6.15 0 0 0 12 21.75zM7.35 15.6A4.65 4.65 0 0 1 12 10.95v-1.5a6.15 6.15 0 0 0-6.15 6.15zM12 10.95a4.65 4.65 0 0 1 4.65 4.65h1.5A6.15 6.15 0 0 0 12 9.45zm-2.976-.266-5.4-8.1-1.248.832 5.4 8.1zM3 3.75h5.4v-1.5H3zm4.749-.378 3.6 6.3 1.302-.744-3.6-6.3zm4.902 6.3 3.6-6.3-1.302-.744-3.6 6.3zM15.6 3.75H21v-1.5h-5.4zm4.776-1.166-5.4 8.1 1.248.832 5.4-8.1zM11.25 13.8v3.6h1.5v-3.6zm.75 2.85h-.9v1.5h.9zm0 1.5h.9v-1.5H12zm-.335-5.02-.9.45.67 1.34.9-.45z"/>
</svg>
