<svg xmlns="http://www.w3.org/2000/svg" fill="none" viewBox="0 0 24 24" stroke-width="1.5" stroke="currentColor" aria-hidden="true" data-slot="icon">
  <path stroke-linecap="round" stroke-linejoin="round" d="m4.5 17.77 1.364-1.385c.797.749 1.631.965 2.651 1.343a8.07 8.07 0 0 0 6.32-.304 8.2 8.2 0 0 0 2.583-1.964 8.3 8.3 0 0 0 1.634-2.825 8.43 8.43 0 0 0-.408-6.41c-.508-.917-.595-1.12-1.417-1.84L18.591 3m-6.364 15.23V21m0 0H7.682m4.545 0h4.546m0-11.077c0 3.059-2.442 5.538-5.455 5.538s-5.454-2.48-5.454-5.538 2.442-5.538 5.454-5.538c3.013 0 5.455 2.48 5.455 5.538"/>
</svg>
