<svg xmlns="http://www.w3.org/2000/svg" fill="none" viewBox="0 0 24 24" stroke-width="1.5" stroke="currentColor" aria-hidden="true" data-slot="icon">
  <path stroke-linecap="round" stroke-linejoin="round" d="M16.977 11.986s-4.091-4.206-2.963-6.92c1.127-2.716 4.693-2.736 5.85-.033s-2.887 6.953-2.887 6.953"/>
  <path stroke-linecap="round" d="M9.156 20.556c1.01.346 1.944-.487 1.944-1.556v-.048a1.8 1.8 0 0 1 .417-1.153l.458-.55a1.8 1.8 0 0 0-.49-2.714l-.812-.465a1.8 1.8 0 0 1-.717-.758l-.961-1.923a1.8 1.8 0 0 0-1.906-.97l-2.66.443c-.834.139-1.476.845-1.42 1.689"/>
  <path stroke-linecap="round" stroke-linejoin="round" d="M17 6h.01"/>
  <path stroke-linecap="round" d="M15 3.512a9 9 0 1 0 5 4.36"/>
</svg>
