<svg xmlns="http://www.w3.org/2000/svg" fill="none" viewBox="0 0 24 24" stroke-width="1.5" stroke="currentColor" aria-hidden="true" data-slot="icon">
  <path stroke-linecap="round" stroke-linejoin="round" d="m10.45 6.523-.713-.918c-.774-.997-2.17-1.36-3.174-.593-3.288 2.511-3.516 6.27-3.067 8.892.145.849 1.13 1.162 1.819.646a1.26 1.26 0 0 1 .895-.245l.663.074A2.602 2.602 0 0 0 9.76 11.79c0-.453.118-.898.343-1.291l.56-.98a2.7 2.7 0 0 0-.213-2.997ZM16.516 4.5l-1.28 2.018a1.8 1.8 0 0 0-.145 1.851l.884 1.77c.269.538.789.906 1.385.98l2.642.331h.98l-.16-.33M13.016 13l7.644 3.15-3.597.9-.9 3.6z"/>
  <path stroke-linecap="round" d="M12.016 21a9 9 0 1 1 8.967-9.772"/>
</svg>
