<svg xmlns="http://www.w3.org/2000/svg" fill="none" viewBox="0 0 24 24" stroke-width="1.5" stroke="currentColor" aria-hidden="true" data-slot="icon">
  <path d="m5.864 16.385.513-.547a.75.75 0 0 0-1.048.02zm2.651 1.343-.26.703zm10.537-5.093.71.242zm-.408-6.41.674-.33-.008-.017-.01-.017zm-1.417-1.84-.534-.527a.75.75 0 0 0 .04 1.09zM3.966 17.243a.75.75 0 1 0 1.068 1.053zm15.16-13.717a.75.75 0 0 0-1.07-1.052zm-6.149 14.705a.75.75 0 0 0-1.5 0zM7.682 20.25a.75.75 0 0 0 0 1.5zm9.09 1.5a.75.75 0 0 0 0-1.5zM5.35 16.931c.937.88 1.96 1.15 2.905 1.5l.52-1.406c-1.095-.406-1.74-.569-2.398-1.187zm2.905 1.5c1.115.413 2.3.597 3.486.54l-.072-1.499a7.3 7.3 0 0 1-2.893-.447l-.52 1.407Zm3.486.54a8.8 8.8 0 0 0 3.42-.872l-.652-1.35c-.89.43-1.856.676-2.84.723zm3.42-.872a8.9 8.9 0 0 0 2.82-2.143l-1.126-.991a7.4 7.4 0 0 1-2.346 1.784zm2.82-2.143a9.1 9.1 0 0 0 1.78-3.08l-1.42-.482a7.6 7.6 0 0 1-1.486 2.57zm1.78-3.08a9.2 9.2 0 0 0 .47-3.535l-1.497.095a7.7 7.7 0 0 1-.392 2.958l1.42.483Zm.47-3.535a9.2 9.2 0 0 0-.913-3.446l-1.347.66c.44.898.7 1.878.764 2.88zm-.93-3.48c-.241-.435-.42-.77-.644-1.075-.236-.32-.51-.593-.935-.965l-.99 1.127c.398.35.578.538.718.728.151.206.271.43.538.912zM5.328 15.858l-1.363 1.385 1.068 1.053 1.364-1.385zM17.762 4.911l1.363-1.385-1.069-1.052-1.363 1.384zm-6.285 13.32V21h1.5v-2.77h-1.5Zm.75 2.019H7.682v1.5h4.545zm0 1.5h4.546v-1.5h-4.546zm3.796-11.827c0 2.655-2.117 4.788-4.705 4.788v1.5c3.438 0 6.205-2.826 6.205-6.288zm-4.705 4.788c-2.587 0-4.704-2.133-4.704-4.788h-1.5c0 3.462 2.767 6.289 6.204 6.289zM6.614 9.923c0-2.655 2.117-4.788 4.704-4.788v-1.5c-3.437 0-6.204 2.826-6.204 6.288zm4.704-4.788c2.588 0 4.705 2.133 4.705 4.788h1.5c0-3.462-2.767-6.288-6.205-6.288z"/>
</svg>
