<svg xmlns="http://www.w3.org/2000/svg" fill="none" viewBox="0 0 24 24" stroke-width="1.5" stroke="currentColor" aria-hidden="true" data-slot="icon">
  <path d="M5 3v-.75a.75.75 0 0 0-.75.75zm14 0h.75a.75.75 0 0 0-.75-.75zm-6.317 8.121-.592-.46zm-1.366 0 .592-.46zm6.872-2.62-.583-.472zm-12.378 0-.583.472zM18.408 2.54l-6.317 8.121 1.184.921 6.317-8.122zm-6.5 8.121L5.593 2.54l-1.184.92 6.317 8.122 1.184-.92Zm.183 0a.11.11 0 0 1-.091.048.11.11 0 0 1-.091-.048l-1.184.921c.65.836 1.9.836 2.55 0l-1.184-.92Zm3.117 2.711 3.563-4.399-1.165-.944-3.564 4.399zm4.542-7.175V3h-1.5v3.197zm-.979 2.776a4.4 4.4 0 0 0 .979-2.776h-1.5c0 .672-.23 1.32-.644 1.832zM4.25 3v3.197h1.5V3zm.978 5.973 3.564 4.4 1.166-.945-3.564-4.399zM4.25 6.197c0 1.012.345 1.994.978 2.776l1.166-.944a2.9 2.9 0 0 1-.644-1.832zM15.625 16.5c0 2.091-1.643 3.75-3.625 3.75v1.5c2.85 0 5.125-2.37 5.125-5.25zM12 20.25c-1.982 0-3.625-1.659-3.625-3.75h-1.5c0 2.88 2.275 5.25 5.125 5.25zM8.375 16.5c0-2.091 1.643-3.75 3.625-3.75v-1.5c-2.85 0-5.125 2.37-5.125 5.25zM12 12.75c1.982 0 3.625 1.659 3.625 3.75h1.5c0-2.88-2.275-5.25-5.125-5.25zm-7-9h7v-1.5H5zm7 0h7v-1.5h-7z"/>
</svg>
