<svg xmlns="http://www.w3.org/2000/svg" fill="none" viewBox="0 0 24 24" stroke-width="1.5" stroke="currentColor" aria-hidden="true" data-slot="icon">
  <path stroke-linecap="round" d="m7.357 7.5.63-3.053C8.161 3.606 8.923 3 9.808 3h4.384c.885 0 1.647.606 1.82 1.447l.63 3.053m-9.285 9 .63 3.053c.174.841.936 1.447 1.821 1.447h4.384c.885 0 1.647-.606 1.82-1.447l.63-3.053M12 9.3v2.327c0 .239.098.468.272.637l1.12 1.086M18.5 12c0 3.48-2.91 6.3-6.5 6.3S5.5 15.48 5.5 12 8.41 5.7 12 5.7s6.5 2.82 6.5 6.3Z"/>
</svg>
