<svg xmlns="http://www.w3.org/2000/svg" fill="none" viewBox="0 0 24 24" stroke-width="1.5" stroke="currentColor" aria-hidden="true" data-slot="icon">
  <path stroke-linecap="round" stroke-linejoin="round" d="m21.688 12-3.072-6.143a2.91 2.91 0 0 0-2.6-1.607H7.984a2.91 2.91 0 0 0-2.6 1.607L2.312 12m19.375 0h-3.76c-.664 0-1.27.375-1.568.969a1.75 1.75 0 0 1-1.567.969H9.208c-.664 0-1.27-.376-1.567-.97A1.75 1.75 0 0 0 6.073 12h-3.76m19.375 0v4.844a2.906 2.906 0 0 1-2.907 2.906H5.22a2.906 2.906 0 0 1-2.907-2.906V12"/>
</svg>
