<svg xmlns="http://www.w3.org/2000/svg" fill="none" viewBox="0 0 24 24" stroke-width="1.5" stroke="currentColor" aria-hidden="true" data-slot="icon">
  <path stroke-linecap="round" d="M12 9.341v7.112m3.516-4.127c1.917.361 3.492 1.007 4.458 1.827.965.82 1.261 1.763.837 2.67-.423.905-1.541 1.718-3.162 2.299-1.62.58-3.645.894-5.727.886s-4.093-.337-5.692-.93c-1.598-.593-2.683-1.414-3.072-2.323-.388-.91-.056-1.85.942-2.663.997-.812 2.597-1.446 4.528-1.793"/>
  <path d="M14.7 6.657c0 1.472-1.209 2.665-2.7 2.665S9.3 8.129 9.3 6.657s1.209-2.665 2.7-2.665 2.7 1.193 2.7 2.665Z"/>
</svg>
