<svg xmlns="http://www.w3.org/2000/svg" fill="none" viewBox="0 0 24 24" stroke-width="1.5" stroke="currentColor" aria-hidden="true" data-slot="icon">
  <path d="M6.938 9.563a.75.75 0 0 0 0 1.5zm.01 1.5a.75.75 0 0 0 0-1.5zM12 9.563a.75.75 0 0 0 0 1.5zm.011 1.5a.75.75 0 0 0 0-1.5zm5.052-1.5a.75.75 0 0 0 0 1.5zm.01 1.5a.75.75 0 0 0 0-1.5zm-5.977 6.833.453.598zM7 21h-.75a.75.75 0 0 0 1.203.598zm-.063-9.938h.012v-1.5h-.011zm-.187-.75c0-.103.084-.187.188-.187v1.5c.724 0 1.312-.588 1.312-1.313zm.188-.187c.103 0 .187.084.187.188h-1.5c0 .724.588 1.312 1.313 1.312zm.187.188a.187.187 0 0 1-.188.187V9c-.724 0-1.312.588-1.312 1.313zm-.188.187a.187.187 0 0 1-.187-.188h1.5C8.25 9.588 7.662 9 6.937 9zm5.063.563h.011v-1.5H12zm-.188-.75c0-.104.084-.188.188-.188v1.5c.725 0 1.313-.588 1.313-1.313h-1.5Zm.188-.188c.104 0 .188.084.188.188h-1.5c0 .724.587 1.312 1.312 1.312zm.188.188A.187.187 0 0 1 12 10.5V9c-.725 0-1.313.588-1.313 1.313h1.5ZM12 10.5a.187.187 0 0 1-.188-.188h1.5A1.31 1.31 0 0 0 12 9zm5.063.563h.01v-1.5h-.01zm-.188-.75c0-.104.084-.188.188-.188v1.5c.724 0 1.312-.588 1.312-1.313h-1.5Zm.188-.188c.103 0 .187.084.187.188h-1.5c0 .724.588 1.312 1.313 1.312zm.187.188a.187.187 0 0 1-.188.187V9c-.724 0-1.312.588-1.312 1.313zm-.188.187a.187.187 0 0 1-.187-.188h1.5c0-.724-.588-1.312-1.313-1.312zM6.376 3.75h11.25v-1.5H6.375v1.5ZM20.25 6.375v7.46h1.5v-7.46zM17.625 16.46h-4.49v1.5h4.49zm-6.982.838-4.096 3.104.906 1.196 4.096-3.104zM7.75 21v-1.79h-1.5V21zm-4-5.79V6.375h-1.5v8.835zM5 16.46c-.69 0-1.25-.56-1.25-1.25h-1.5A2.75 2.75 0 0 0 5 17.96zm8.134 0c-.9 0-1.774.295-2.491.838l.906 1.196a2.63 2.63 0 0 1 1.585-.534zm7.116-2.625a2.625 2.625 0 0 1-2.625 2.625v1.5a4.125 4.125 0 0 0 4.125-4.125zM17.625 3.75a2.625 2.625 0 0 1 2.625 2.625h1.5a4.125 4.125 0 0 0-4.125-4.125zM7.75 19.21A2.75 2.75 0 0 0 5 16.46v1.5c.69 0 1.25.56 1.25 1.25zM6.375 2.25A4.125 4.125 0 0 0 2.25 6.375h1.5A2.625 2.625 0 0 1 6.375 3.75z"/>
</svg>
