<svg xmlns="http://www.w3.org/2000/svg" fill="none" viewBox="0 0 24 24" stroke-width="1.5" stroke="currentColor" aria-hidden="true" data-slot="icon">
  <path stroke-linecap="round" stroke-linejoin="round" d="M17.625 3H6.375A3.375 3.375 0 0 0 3 6.375v8.835a2 2 0 0 0 2 2 2 2 0 0 1 2 2v1.186a.3.3 0 0 0 .481.24l3.615-2.74a3.38 3.38 0 0 1 2.038-.686h4.491A3.375 3.375 0 0 0 21 13.835v-7.46A3.375 3.375 0 0 0 17.625 3"/>
  <path stroke-linecap="round" stroke-linejoin="round" d="M8 10h.01M12 10h.01M16 10h.01"/>
</svg>
