<svg xmlns="http://www.w3.org/2000/svg" fill="none" viewBox="0 0 24 24" stroke-width="1.5" stroke="currentColor" aria-hidden="true" data-slot="icon">
  <path stroke-linecap="round" stroke-linejoin="round" d="m9.1 11.275 3 3m-5.249.002 2.497 2.496a1 1 0 0 0 1.456-.044l9.624-10.88a1.88 1.88 0 0 0-2.652-2.652L6.896 12.82a1 1 0 0 0-.045 1.456Zm1.913 1.977c1.194 1.833-1.079 4.184-2.428 4.603-.404.14-1.618.418-3.236.418.404-.976.5-3 .404-4.184s.792-2.124 2.096-2.316c1.167-.171 2.6.613 3.164 1.479"/>
</svg>
