<svg xmlns="http://www.w3.org/2000/svg" fill="none" viewBox="0 0 24 24" stroke-width="1.5" stroke="currentColor" aria-hidden="true" data-slot="icon">
  <path stroke-linecap="round" stroke-linejoin="round" d="m10.248 10.441-1.056-1.32a1.51 1.51 0 0 1 .236-2.124 1.512 1.512 0 0 0 .125-2.25l-.543-.544a2.2 2.2 0 0 0-3.292.205l-.81 1.04a3 3 0 0 0-.315 3.184l1.655 3.31m5.5 1 3.89 2.333a1.66 1.66 0 0 0 2.025-.249 1.657 1.657 0 0 1 2.25-.086l.508.436a2.38 2.38 0 0 1 .243 3.375l-.517.591a3 3 0 0 1-3.372.81l-1.632-.653a13 13 0 0 1-2.627-1.42l-3.768-2.638m12-11.5-18 16.5"/>
</svg>
