<svg xmlns="http://www.w3.org/2000/svg" fill="none" viewBox="0 0 24 24" stroke-width="1.5" stroke="currentColor" aria-hidden="true" data-slot="icon">
  <path stroke-linejoin="round" d="m8.885 4.764-.616-.616a2.34 2.34 0 0 0-3.306 0l-.79.79a2.7 2.7 0 0 0-.726 2.513 17.14 17.14 0 0 0 11.49 12.526l1.303.417a3 3 0 0 0 3.172-.881l.62-.709a2.38 2.38 0 0 0-.242-3.375l-.51-.436a1.657 1.657 0 0 0-2.25.087 1.66 1.66 0 0 1-2.024.249l-1.516-.91a13 13 0 0 1-3.962-3.693L8.454 9.191a1.56 1.56 0 0 1 .303-2.11c.725-.58.784-1.66.128-2.317Z"/>
</svg>
