<svg xmlns="http://www.w3.org/2000/svg" fill="none" viewBox="0 0 24 24" stroke-width="1.5" stroke="currentColor" aria-hidden="true" data-slot="icon">
  <path stroke-linecap="round" d="M13.241 4c2.268.144 6.896 1.726 7.259 6.903m-7.26-3.452c1.059.144 3.267 1.036 3.63 3.452"/>
  <path stroke-linecap="round" stroke-linejoin="round" d="m8.495 6.39-.559-.532a2.2 2.2 0 0 0-3 0l-.717.682a2.26 2.26 0 0 0-.658 2.169c1.22 5.103 5.184 9.213 10.425 10.808l1.183.36c1.033.314 2.164.015 2.878-.761l.562-.611c.792-.86.693-2.169-.22-2.913l-.461-.376a1.56 1.56 0 0 0-2.042.075 1.56 1.56 0 0 1-1.837.215l-1.376-.785a11.6 11.6 0 0 1-3.594-3.187l-.975-1.324a1.3 1.3 0 0 1 .275-1.82 1.3 1.3 0 0 0 .116-2"/>
</svg>
