<svg xmlns="http://www.w3.org/2000/svg" fill="none" viewBox="0 0 24 24" stroke-width="1.5" stroke="currentColor" aria-hidden="true" data-slot="icon">
  <path stroke-linejoin="round" d="M14.824 6.289c0-.305.163-.58.351-.822.194-.249.306-.544.306-.86 0-.887-.882-1.607-1.97-1.607-1.09 0-1.971.72-1.971 1.607 0 .316.112.611.305.86.188.242.351.517.351.822v.834a.38.38 0 0 1-.383.377q-2.476-.001-4.878-.274.279 2.351.28 4.774v.027l-.862.004c-.31.002-.593-.156-.841-.34a1.46 1.46 0 0 0-.88-.293c-.907.004-1.638.872-1.632 1.937s.746 1.924 1.653 1.92c.323-.002.624-.113.877-.304.246-.186.527-.347.838-.348a.696.696 0 0 1 .71.742 40 40 0 0 1-.794 5.302 43 43 0 0 0 5.529.353.38.38 0 0 0 .383-.377v-.834c0-.305-.162-.58-.35-.822a1.4 1.4 0 0 1-.306-.86c0-.887.882-1.607 1.97-1.607s1.971.72 1.971 1.607c0 .316-.112.611-.306.86-.188.242-.35.517-.35.822v.072a.96.96 0 0 0 1.053.95 43 43 0 0 0 4.3-.625q.497-2.41.7-4.91a.7.7 0 0 0-.716-.747c-.31.002-.591.162-.837.348a1.47 1.47 0 0 1-.877.304c-.907.005-1.648-.855-1.653-1.92s.724-1.932 1.631-1.937a1.46 1.46 0 0 1 .88.294c.249.183.53.341.842.34.476-.003.862-.382.852-.848a41 41 0 0 0-.35-4.52 43 43 0 0 1-4.772.72.96.96 0 0 1-1.054-.949V6.29Z"/>
</svg>
