<svg xmlns="http://www.w3.org/2000/svg" fill="none" viewBox="0 0 24 24" stroke-width="1.5" stroke="currentColor" aria-hidden="true" data-slot="icon">
  <path stroke-linecap="round" stroke-linejoin="round" d="M18.205 5.525h.27a1.85 1.85 0 0 1 1.85 1.85v2.14a1.85 1.85 0 0 1-1.85 1.85h-4.78a1.85 1.85 0 0 0-1.85 1.85v1.745m0 0h-.77a.925.925 0 0 0-.925.925v4.44c0 .51.414.925.925.925h1.542c.51 0 .924-.414.924-.925v-4.44a.925.925 0 0 0-.925-.925zm-6.32-7.585H15.7a1.85 1.85 0 0 0 1.85-1.85V4.6a1.85 1.85 0 0 0-1.85-1.85H5.525a1.85 1.85 0 0 0-1.85 1.85v.925a1.85 1.85 0 0 0 1.85 1.85"/>
</svg>
