<svg xmlns="http://www.w3.org/2000/svg" fill="none" viewBox="0 0 24 24" stroke-width="1.5" stroke="currentColor" aria-hidden="true" data-slot="icon">
  <path stroke-linecap="round" d="m16 8.21-7.345 7.548m-.316-10.77-.493-.079A2 2 0 0 0 5.533 6.85l-.009.5a2 2 0 0 1-.97 1.68l-.429.258a2 2 0 0 0-.524 2.973l.315.389a2 2 0 0 1 .337 1.91l-.163.473a2 2 0 0 0 1.51 2.615l.49.095a2 2 0 0 1 1.486 1.247l.18.467a2 2 0 0 0 2.837 1.033l.437-.243a2 2 0 0 1 1.94 0l.437.243a2 2 0 0 0 2.838-1.033l.179-.467a2 2 0 0 1 1.486-1.247l.49-.095a2 2 0 0 0 1.51-2.615l-.163-.473a2 2 0 0 1 .337-1.91l.315-.389a2 2 0 0 0-.524-2.973l-.429-.258a2 2 0 0 1-.97-1.68l-.008-.5a2 2 0 0 0-2.314-1.94l-.493.078a2 2 0 0 1-1.823-.664l-.328-.377a2 2 0 0 0-3.02 0l-.328.377a2 2 0 0 1-1.823.664Z"/>
  <path stroke-linecap="round" stroke-linejoin="round" d="M9.155 9.259h.01m5.99 4.999h.01"/>
</svg>
