<svg xmlns="http://www.w3.org/2000/svg" fill="none" viewBox="0 0 24 24" stroke-width="1.5" stroke="currentColor" aria-hidden="true" data-slot="icon">
  <path d="M4.5 11.25a.75.75 0 0 0 0 1.5zm.01 1.5a.75.75 0 0 0 0-1.5zm4.99-1.5a.75.75 0 0 0 0 1.5zm.01 1.5a.75.75 0 0 0 0-1.5zm4.99-1.5a.75.75 0 0 0 0 1.5zm.01 1.5a.75.75 0 0 0 0-1.5zm4.99-1.5a.75.75 0 0 0 0 1.5zm.01 1.5a.75.75 0 0 0 0-1.5zM16 2.25a.75.75 0 0 0 0 1.5zM20.25 8a.75.75 0 0 0 1.5 0zM8 3.75a.75.75 0 0 0 0-1.5zM2.25 8a.75.75 0 0 0 1.5 0zm19.5 8a.75.75 0 0 0-1.5 0zM16 20.25a.75.75 0 0 0 0 1.5zM3.75 16a.75.75 0 0 0-1.5 0zM8 21.75a.75.75 0 0 0 0-1.5zm-3.5-9h.01v-1.5H4.5zM4.25 12a.25.25 0 0 1 .25-.25v1.5c.69 0 1.25-.56 1.25-1.25zm.25-.25a.25.25 0 0 1 .25.25h-1.5c0 .69.56 1.25 1.25 1.25zm.25.25a.25.25 0 0 1-.25.25v-1.5c-.69 0-1.25.56-1.25 1.25zm-.25.25a.25.25 0 0 1-.25-.25h1.5c0-.69-.56-1.25-1.25-1.25zm5 .5h.01v-1.5H9.5zM9.25 12a.25.25 0 0 1 .25-.25v1.5c.69 0 1.25-.56 1.25-1.25zm.25-.25a.25.25 0 0 1 .25.25h-1.5c0 .69.56 1.25 1.25 1.25zm.25.25a.25.25 0 0 1-.25.25v-1.5c-.69 0-1.25.56-1.25 1.25zm-.25.25a.25.25 0 0 1-.25-.25h1.5c0-.69-.56-1.25-1.25-1.25zm5 .5h.01v-1.5h-.01zm-.25-.75a.25.25 0 0 1 .25-.25v1.5c.69 0 1.25-.56 1.25-1.25zm.25-.25a.25.25 0 0 1 .25.25h-1.5c0 .69.56 1.25 1.25 1.25zm.25.25a.25.25 0 0 1-.25.25v-1.5c-.69 0-1.25.56-1.25 1.25zm-.25.25a.25.25 0 0 1-.25-.25h1.5c0-.69-.56-1.25-1.25-1.25zm5 .5h.01v-1.5h-.01zm-.25-.75a.25.25 0 0 1 .25-.25v1.5c.69 0 1.25-.56 1.25-1.25zm.25-.25a.25.25 0 0 1 .25.25h-1.5c0 .69.56 1.25 1.25 1.25zm.25.25a.25.25 0 0 1-.25.25v-1.5c-.69 0-1.25.56-1.25 1.25zm-.25.25a.25.25 0 0 1-.25-.25h1.5c0-.69-.56-1.25-1.25-1.25zM16 3.75h4v-1.5h-4zm4.25.25v4h1.5V4zM20 3.75a.25.25 0 0 1 .25.25h1.5A1.75 1.75 0 0 0 20 2.25zM8 2.25H4v1.5h4zM2.25 4v4h1.5V4zM4 2.25A1.75 1.75 0 0 0 2.25 4h1.5A.25.25 0 0 1 4 3.75zM20.25 16v4h1.5v-4zM20 20.25h-4v1.5h4zm.25-.25a.25.25 0 0 1-.25.25v1.5A1.75 1.75 0 0 0 21.75 20zm-18-4v4h1.5v-4zM4 21.75h4v-1.5H4zM2.25 20c0 .966.784 1.75 1.75 1.75v-1.5a.25.25 0 0 1-.25-.25z"/>
</svg>
