<svg xmlns="http://www.w3.org/2000/svg" fill="none" viewBox="0 0 24 24" stroke-width="1.5" stroke="currentColor" aria-hidden="true" data-slot="icon">
  <path d="m10 12.416.3.687.45-.196v-.491zm4 0h-.75v.49l.45.197zm-2 3.834a.75.75 0 0 0 0 1.5zm.01 1.5a.75.75 0 0 0 0-1.5zm-1.26-5.334V4h-1.5v8.416zM7.75 17a4.25 4.25 0 0 1 2.55-3.897l-.6-1.374A5.75 5.75 0 0 0 6.25 17zM12 21.25A4.25 4.25 0 0 1 7.75 17h-1.5A5.75 5.75 0 0 0 12 22.75zM16.25 17A4.25 4.25 0 0 1 12 21.25v1.5A5.75 5.75 0 0 0 17.75 17zm-2.55-3.897A4.25 4.25 0 0 1 16.25 17h1.5a5.75 5.75 0 0 0-3.45-5.271zM13.25 4v8.416h1.5V4zM12 2.75c.69 0 1.25.56 1.25 1.25h1.5A2.75 2.75 0 0 0 12 1.25zm0-1.5A2.75 2.75 0 0 0 9.25 4h1.5c0-.69.56-1.25 1.25-1.25zm0 16.5h.01v-1.5H12zm-.25-.75a.25.25 0 0 1 .25-.25v1.5c.69 0 1.25-.56 1.25-1.25zm.25-.25a.25.25 0 0 1 .25.25h-1.5c0 .69.56 1.25 1.25 1.25zm.25.25a.25.25 0 0 1-.25.25v-1.5c-.69 0-1.25.56-1.25 1.25zm-.25.25a.25.25 0 0 1-.25-.25h1.5c0-.69-.56-1.25-1.25-1.25z"/>
</svg>
