<svg xmlns="http://www.w3.org/2000/svg" fill="none" viewBox="0 0 24 24" stroke-width="1.5" stroke="currentColor" aria-hidden="true" data-slot="icon">
  <path stroke-linecap="round" stroke-linejoin="round" d="M16.375 6.35h-8.75C6.175 6.35 5 7.559 5 9.05v7.2c0 1.491 1.175 2.7 2.625 2.7h8.75c1.45 0 2.625-1.209 2.625-2.7v-7.2c0-1.491-1.175-2.7-2.625-2.7m1.125-2.6-2.5-1H8l-2 1"/>
  <path stroke-linecap="round" stroke-linejoin="round" d="M9 15.75h.01"/>
  <path stroke-linecap="round" stroke-linejoin="round" d="m8 19.25-1 2m9-2 1 2"/>
  <path stroke-linecap="round" stroke-linejoin="round" d="M15 15.75h.01"/>
  <path stroke-linecap="round" stroke-linejoin="round" d="M14.5 2.75 13 6.25m-3.5-3.5 1.5 3.5m8 6.5H5"/>
</svg>
