<svg xmlns="http://www.w3.org/2000/svg" fill="none" viewBox="0 0 24 24" stroke-width="1.5" stroke="currentColor" aria-hidden="true" data-slot="icon">
  <path d="M4.75 13.286v-.75a.75.75 0 0 0-.75.75zm14.5 0H20a.75.75 0 0 0-.75-.75zM8.778 4.714l-.679-.319a.75.75 0 0 0 .679 1.07v-.75ZM9.583 3v-.75a.75.75 0 0 0-.678.431zm4.834 0 .678-.319a.75.75 0 0 0-.678-.431zm.805 1.714v.75a.75.75 0 0 0 .679-1.069l-.679.32Zm-7.25 10.393a.75.75 0 0 0 0 1.5zm1.611 1.5a.75.75 0 1 0 0-1.5zm4.834-1.5a.75.75 0 0 0 0 1.5zm1.61 1.5a.75.75 0 1 0 0-1.5zM7.168 5.464h9.666v-1.5H7.167v1.5ZM18.5 7.286v8.571H20V7.286zm-1.667 10.393H7.167v1.5h9.666zM5.5 15.857V7.286H4v8.571zm1.667 1.822c-.878 0-1.667-.771-1.667-1.822H4c0 1.79 1.375 3.322 3.167 3.322zM18.5 15.857c0 1.05-.79 1.822-1.667 1.822v1.5c1.792 0 3.167-1.532 3.167-3.322zM16.833 5.464c.878 0 1.667.771 1.667 1.822H20c0-1.79-1.375-3.322-3.167-3.322zm-9.666-1.5C5.375 3.964 4 5.496 4 7.286h1.5c0-1.05.79-1.822 1.667-1.822zM4.75 14.036h14.5v-1.5H4.75zm13.75-.75v2.571H20v-2.571zm-13 2.571v-2.571H4v2.571zm3.333 3.857c0 .34-.248.536-.458.536v1.5c1.125 0 1.958-.956 1.958-2.036zm-.458.536c-.21 0-.458-.195-.458-.536h-1.5c0 1.08.833 2.036 1.958 2.036zm-.458-.536c0-.34.248-.535.458-.535v-1.5c-1.125 0-1.958.956-1.958 2.035zm.458-.535c.21 0 .458.195.458.535h1.5c0-1.08-.833-2.035-1.958-2.035zm7.708.535c0 .34-.248.536-.458.536v1.5c1.125 0 1.958-.956 1.958-2.036zm-.458.536c-.21 0-.458-.195-.458-.536h-1.5c0 1.08.833 2.036 1.958 2.036zm-.458-.536c0-.34.248-.535.458-.535v-1.5c-1.125 0-1.958.956-1.958 2.035zm.458-.535c.21 0 .458.195.458.535h1.5c0-1.08-.833-2.035-1.958-2.035zM9.457 5.033l.805-1.714-1.357-.638-.806 1.714zm.126-1.283h4.834v-1.5H9.583zm4.155-.431.805 1.714 1.358-.638-.806-1.714zm1.484.645H8.778v1.5h6.444zm-7.25 12.643h1.611v-1.5h-1.61zm6.445 0h1.61v-1.5h-1.61z"/>
</svg>
