<svg xmlns="http://www.w3.org/2000/svg" fill="none" viewBox="0 0 24 24" stroke-width="1.5" stroke="currentColor" aria-hidden="true" data-slot="icon">
  <path stroke-linejoin="round" d="M15.6 15.556v-8.89C15.6 5.195 14.391 4 12.9 4H5.7C4.209 4 3 5.194 3 6.667v6.222c0 1.473 1.209 2.667 2.7 2.667zm0 0H21V11.11l-2.7-2.667h-2.7zm-6.3 2.222C9.3 19.005 8.293 20 7.05 20s-2.25-.995-2.25-2.222 1.007-2.222 2.25-2.222 2.25.995 2.25 2.222Zm9.9 0c0 1.227-1.007 2.222-2.25 2.222s-2.25-.995-2.25-2.222 1.007-2.222 2.25-2.222 2.25.995 2.25 2.222Z"/>
</svg>
