<svg xmlns="http://www.w3.org/2000/svg" fill="none" viewBox="0 0 24 24" stroke-width="1.5" stroke="currentColor" aria-hidden="true" data-slot="icon">
  <path d="M17.25 18.3a.75.75 0 0 0-1.5 0zM11.707 3.75h.586v-1.5h-.586zm9 7.5H3.292v1.5h17.413v-1.5Zm-17.414 0c.253 0 .457.204.457.457h-1.5c0 .576.467 1.043 1.043 1.043zm16.957.457c0-.253.204-.457.456-.457v1.5c.577 0 1.044-.467 1.044-1.043zM12.293 3.75a7.957 7.957 0 0 1 7.957 7.957h1.5a9.456 9.456 0 0 0-9.457-9.457zm-.586-1.5a9.457 9.457 0 0 0-9.457 9.457h1.5a7.957 7.957 0 0 1 7.957-7.957zM11.25 12v6.75h1.5V12zm6 6.75v-.45h-1.5v.45zm-3 3a3 3 0 0 0 3-3h-1.5a1.5 1.5 0 0 1-1.5 1.5zm-3-3a3 3 0 0 0 3 3v-1.5a1.5 1.5 0 0 1-1.5-1.5z"/>
</svg>
