<svg xmlns="http://www.w3.org/2000/svg" fill="none" viewBox="0 0 24 24" stroke-width="1.5" stroke="currentColor" aria-hidden="true" data-slot="icon">
  <path fill="color(display-p3 .7686 .8941 .3373)" d="M14 18a2 2 0 1 1-4 0 2 2 0 0 1 4 0"/>
  <path fill="#000" d="m14.1 18.2.6.45zM12 21l-.6.45a.75.75 0 0 0 1.2 0zm-2.1-2.8.6-.45zm2.125-8.75-.53.53.53.531.53-.53-.53-.53Zm0 4.6-.53.53.53.531.53-.53zM9.15 11.176l.53-.53zm0-2.3.53.53zM6 3.75h12v-1.5H6zM20.25 6v8h1.5V6zM18 16.25h-1.5v1.5H18zm-4.5 1.5-2.1 2.8 1.2.9 2.1-2.8zm-.9 2.8-2.1-2.8-1.2.9 2.1 2.8zm-5.1-4.3H6v1.5h1.5zM3.75 14V6h-1.5v8zM6 16.25A2.25 2.25 0 0 1 3.75 14h-1.5A3.75 3.75 0 0 0 6 17.75zm10.5 0a3.75 3.75 0 0 0-3 1.5l1.2.9a2.25 2.25 0 0 1 1.8-.9zM20.25 14A2.25 2.25 0 0 1 18 16.25v1.5A3.75 3.75 0 0 0 21.75 14zM18 3.75A2.25 2.25 0 0 1 20.25 6h1.5A3.75 3.75 0 0 0 18 2.25zm-7.5 14a3.75 3.75 0 0 0-3-1.5v1.5a2.25 2.25 0 0 1 1.8.9zM6 2.25A3.75 3.75 0 0 0 2.25 6h1.5A2.25 2.25 0 0 1 6 3.75zm6.556 7.73.575-.574-1.061-1.061-.575.575zm.575-.574a.876.876 0 0 1 1.239 0l1.06-1.061a2.376 2.376 0 0 0-3.36 0zm1.239 0a.876.876 0 0 1 0 1.24l1.06 1.06a2.377 2.377 0 0 0 0-3.361zm0 1.24-2.875 2.874 1.06 1.06 2.876-2.874zm-4.69 0a.876.876 0 0 1 0-1.24L8.62 8.345a2.376 2.376 0 0 0 0 3.36l1.06-1.06Zm0-1.24a.876.876 0 0 1 1.24 0l1.06-1.061a2.376 2.376 0 0 0-3.36 0zm1.24 0 .575.575 1.06-1.061-.575-.575zm1.636 4.114L9.68 10.645l-1.06 1.06 2.875 2.876z"/>
</svg>
