<svg xmlns="http://www.w3.org/2000/svg" fill="none" viewBox="0 0 24 24" stroke-width="1.5" stroke="currentColor" aria-hidden="true" data-slot="icon">
  <circle cx="12" cy="18" r="2" fill="color(display-p3 .7686 .8941 .3373)"/>
  <path fill="#000" d="M7.5 9.75a.75.75 0 0 0 0 1.5zm.01 1.5a.75.75 0 0 0 0-1.5zM12 9.75a.75.75 0 0 0 0 1.5zm.01 1.5a.75.75 0 0 0 0-1.5zm4.49-1.5a.75.75 0 0 0 0 1.5zm.01 1.5a.75.75 0 0 0 0-1.5zM14.1 18.2l.6.45zM12 21l-.6.45a.75.75 0 0 0 1.2 0zm-2.1-2.8.6-.45zm-2.4-6.95h.01v-1.5H7.5zm-.25-.75a.25.25 0 0 1 .25-.25v1.5c.69 0 1.25-.56 1.25-1.25zm.25-.25a.25.25 0 0 1 .25.25h-1.5c0 .69.56 1.25 1.25 1.25zm.25.25a.25.25 0 0 1-.25.25v-1.5c-.69 0-1.25.56-1.25 1.25zm-.25.25a.25.25 0 0 1-.25-.25h1.5c0-.69-.56-1.25-1.25-1.25zm4.5.5h.01v-1.5H12zm-.25-.75a.25.25 0 0 1 .25-.25v1.5c.69 0 1.25-.56 1.25-1.25zm.25-.25a.25.25 0 0 1 .25.25h-1.5c0 .69.56 1.25 1.25 1.25zm.25.25a.25.25 0 0 1-.25.25v-1.5c-.69 0-1.25.56-1.25 1.25zm-.25.25a.25.25 0 0 1-.25-.25h1.5c0-.69-.56-1.25-1.25-1.25zm4.5.5h.01v-1.5h-.01zm-.25-.75a.25.25 0 0 1 .25-.25v1.5c.69 0 1.25-.56 1.25-1.25zm.25-.25a.25.25 0 0 1 .25.25h-1.5c0 .69.56 1.25 1.25 1.25zm.25.25a.25.25 0 0 1-.25.25v-1.5c-.69 0-1.25.56-1.25 1.25zm-.25.25a.25.25 0 0 1-.25-.25h1.5c0-.69-.56-1.25-1.25-1.25zM6 3.75h12v-1.5H6zM20.25 6v8h1.5V6zM18 16.25h-1.5v1.5H18zm-4.5 1.5-2.1 2.8 1.2.9 2.1-2.8zm-.9 2.8-2.1-2.8-1.2.9 2.1 2.8zm-5.1-4.3H6v1.5h1.5zM3.75 14V6h-1.5v8zM6 16.25A2.25 2.25 0 0 1 3.75 14h-1.5A3.75 3.75 0 0 0 6 17.75zm10.5 0a3.75 3.75 0 0 0-3 1.5l1.2.9a2.25 2.25 0 0 1 1.8-.9zM20.25 14A2.25 2.25 0 0 1 18 16.25v1.5A3.75 3.75 0 0 0 21.75 14zM18 3.75A2.25 2.25 0 0 1 20.25 6h1.5A3.75 3.75 0 0 0 18 2.25zm-7.5 14a3.75 3.75 0 0 0-3-1.5v1.5a2.25 2.25 0 0 1 1.8.9zM6 2.25A3.75 3.75 0 0 0 2.25 6h1.5A2.25 2.25 0 0 1 6 3.75z"/>
</svg>
