<svg xmlns="http://www.w3.org/2000/svg" fill="none" viewBox="0 0 24 24" stroke-width="1.5" stroke="currentColor" aria-hidden="true" data-slot="icon">
  <path fill="color(display-p3 .7686 .8941 .3373)" d="M13.045 14a2 2 0 1 0 0-4 2 2 0 0 0 0 4"/>
  <path fill="#000" d="M4.884 7.75a.75.75 0 1 1-1.286-.773zm14.209-1.232.595-.457zm1.862 5.424.75-.005zm-6.51 8.707-.208-.72.207.72Zm-5.73-.252-.27.7zM3.664 17.13a.75.75 0 1 1 1.275-.79zm-.619-4.38a.75.75 0 0 1 0-1.5zM15.773 12l.53-.53a.75.75 0 0 1 0 1.06zm-4.348-3.288a.75.75 0 1 1 1.06-1.06zm1.06 7.637a.75.75 0 0 1-1.06-1.061l1.06 1.06ZM3.598 6.977a9.75 9.75 0 0 1 4.73-4.027l.558 1.392A8.25 8.25 0 0 0 4.884 7.75zm4.73-4.027a9.75 9.75 0 0 1 6.203-.354l-.396 1.447a8.25 8.25 0 0 0-5.249.299zm6.203-.354a9.75 9.75 0 0 1 5.157 3.465l-1.19.914a8.25 8.25 0 0 0-4.363-2.932zm5.157 3.465a9.75 9.75 0 0 1 2.017 5.876l-1.5.01a8.25 8.25 0 0 0-1.707-4.972zm2.017 5.876a9.75 9.75 0 0 1-1.941 5.902l-1.202-.899a8.25 8.25 0 0 0 1.643-4.993zm-1.941 5.902a9.75 9.75 0 0 1-5.112 3.53l-.415-1.44a8.25 8.25 0 0 0 4.325-2.989zm-5.112 3.53a9.75 9.75 0 0 1-6.207-.273l.54-1.399a8.25 8.25 0 0 0 5.252.231l.415 1.442Zm-6.207-.273a9.75 9.75 0 0 1-4.781-3.966l1.275-.79a8.25 8.25 0 0 0 4.046 3.357l-.54 1.4Zm-5.4-9.846h12.728v1.5H3.045zm12.198 1.28-3.818-3.818 1.06-1.06 3.819 3.818zm1.06 0-3.818 3.819-1.06-1.061 3.818-3.818z"/>
</svg>
