<svg xmlns="http://www.w3.org/2000/svg" fill="none" viewBox="0 0 24 24" stroke-width="1.5" stroke="currentColor" aria-hidden="true" data-slot="icon">
  <path fill="color(display-p3 .7686 .8941 .3373)" d="M14 11a2 2 0 1 1-4 0 2 2 0 0 1 4 0"/>
  <path fill="#000" d="M11.25 15.6a.75.75 0 0 0 1.5 0zM12 8.4l.53-.53a.75.75 0 0 0-1.06 0zm-4.13 3.07a.75.75 0 1 0 1.06 1.06zm7.2 1.06a.75.75 0 1 0 1.06-1.06zM12 3.75A8.25 8.25 0 0 1 20.25 12h1.5A9.75 9.75 0 0 0 12 2.25zM20.25 12A8.25 8.25 0 0 1 12 20.25v1.5A9.75 9.75 0 0 0 21.75 12zM12 20.25A8.25 8.25 0 0 1 3.75 12h-1.5A9.75 9.75 0 0 0 12 21.75zM3.75 12A8.25 8.25 0 0 1 12 3.75v-1.5A9.75 9.75 0 0 0 2.25 12zm9 3.6V8.4h-1.5v7.2zm-1.28-7.73-3.6 3.6 1.06 1.06 3.6-3.6zm0 1.06 3.6 3.6 1.06-1.06-3.6-3.6z"/>
</svg>
