<svg xmlns="http://www.w3.org/2000/svg" fill="none" viewBox="0 0 24 24" stroke-width="1.5" stroke="currentColor" aria-hidden="true" data-slot="icon">
  <path fill="color(display-p3 .7686 .8941 .3373)" d="M14 4a2 2 0 1 1-4 0 2 2 0 0 1 4 0"/>
  <path stroke-linecap="round" stroke-linejoin="round" d="M8.633 3.034A6 6 0 0 1 18 8c0 2.1.27 3.751.648 5.032M6.258 6.257v.001m0 0A6 6 0 0 0 6 8c0 3.09-.78 5.206-1.65 6.605-.735 1.18-1.102 1.771-1.089 1.936.015.182.054.252.2.36.133.099.732.099 1.928.099H17M6.258 6.258 17 17M6.258 6.258 3 3m14 14 4 4M9.354 21c.705.622 1.632 1 2.646 1s1.94-.378 2.646-1"/>
</svg>
