<svg xmlns="http://www.w3.org/2000/svg" fill="none" viewBox="0 0 24 24" stroke-width="1.5" stroke="currentColor" aria-hidden="true" data-slot="icon">
  <circle cx="16.5" cy="16" r="2" fill="color(display-p3 .7686 .8941 .3373)"/>
  <path fill="#000" d="M5.5 4v-.75a.75.75 0 0 0-.75.75zm0 16h-.75c0 .414.336.75.75.75zm0-15.25h7v-1.5h-7zm7 6.5h-7v1.5h7zM6.25 12V4h-1.5v8zm9.5-4a3.25 3.25 0 0 1-3.25 3.25v1.5A4.75 4.75 0 0 0 17.25 8zM12.5 4.75A3.25 3.25 0 0 1 15.75 8h1.5a4.75 4.75 0 0 0-4.75-4.75zm-7 8h9v-1.5h-9zm9 6.5h-9v1.5h9zM6.25 20v-8h-1.5v8zm11.5-4a3.25 3.25 0 0 1-3.25 3.25v1.5A4.75 4.75 0 0 0 19.25 16zm-3.25-3.25A3.25 3.25 0 0 1 17.75 16h1.5a4.75 4.75 0 0 0-4.75-4.75z"/>
</svg>
