<svg xmlns="http://www.w3.org/2000/svg" fill="none" viewBox="0 0 24 24" stroke-width="1.5" stroke="currentColor" aria-hidden="true" data-slot="icon">
  <circle cx="14" cy="14" r="2" fill="color(display-p3 .7686 .8941 .3373)"/>
  <path fill="#000" d="M8.875 7v-.75a.75.75 0 0 0-.75.75zm0 5h-.75c0 .414.336.75.75.75zm4.156 0v.75zm2.406-2.5h-.75zM9.314 17v.75zm3.936 0v.75zm0-5.454v-.75zm-4.375 0v-.75a.75.75 0 0 0-.75.75zm0 5.453h-.75c0 .414.335.75.749.75zm3.939-9.768v.75zm.219 4.545v.75zm0 5v-.75zM9.75 7.455v-.75a.75.75 0 0 0-.75.75zm2.844 0v-.75zm0 4.09v.75zm-2.844 0H9c0 .414.336.75.75.75zm0 .454v-.75A.75.75 0 0 0 9 12zm3.062 0v-.75zm0 4.545v.75zm-3.062 0H9c0 .414.336.75.75.75zM6 3.75h12v-1.5H6zM20.25 6v12h1.5V6zM18 20.25H6v1.5h12zM3.75 18V6h-1.5v12zM6 20.25A2.25 2.25 0 0 1 3.75 18h-1.5A3.75 3.75 0 0 0 6 21.75zM20.25 18A2.25 2.25 0 0 1 18 20.25v1.5A3.75 3.75 0 0 0 21.75 18zM18 3.75A2.25 2.25 0 0 1 20.25 6h1.5A3.75 3.75 0 0 0 18 2.25zM6 2.25A3.75 3.75 0 0 0 2.25 6h1.5A2.25 2.25 0 0 1 6 3.75zm3.314 4h-.439v1.5h.44zM8.125 7v5h1.5V7zm.75 5.75h4.156v-1.5H8.875zm4.156 0c.846 0 1.652-.35 2.242-.963l-1.08-1.04a1.6 1.6 0 0 1-1.162.502zm2.242-.963a3.3 3.3 0 0 0 .914-2.287h-1.5a1.8 1.8 0 0 1-.495 1.247zm.914-2.287a3.3 3.3 0 0 0-.914-2.288l-1.08 1.04a1.8 1.8 0 0 1 .494 1.248zm-.914-2.288a3.1 3.1 0 0 0-2.242-.962v1.5c.43 0 .848.177 1.161.502zM13.03 6.25H9.314v1.5h3.717v-1.5ZM8.564 7v.23h1.5V7zm.75 10.75h3.936v-1.5H9.314zm3.936 0c.904 0 1.766-.374 2.396-1.029l-1.08-1.04a1.83 1.83 0 0 1-1.316.569zm2.396-1.029a3.53 3.53 0 0 0 .979-2.448h-1.5c0 .533-.204 1.04-.56 1.408zm.979-2.448c0-.913-.349-1.795-.979-2.449l-1.08 1.04c.355.37.559.875.559 1.409zm-.979-2.449a3.33 3.33 0 0 0-2.396-1.028v1.5c.488 0 .962.2 1.316.568zm-2.396-1.028H8.875v1.5h4.375zm-5.125.75v5.453h1.5v-5.453zm.749 6.203.44.001.001-1.5h-.439l-.002 1.5Zm1.19-.749v-.224h-1.5V17zm-.75-9.02h3.5v-1.5h-3.5zm3.5 0c.372 0 .735.154 1.006.437l1.081-1.04a2.9 2.9 0 0 0-2.087-.896zm1.006.437c.273.283.431.674.431 1.086h1.5c0-.792-.302-1.558-.85-2.127zm.431 1.086c0 .413-.158.804-.43 1.087l1.08 1.04c.548-.569.85-1.334.85-2.127zm-.43 1.087a1.4 1.4 0 0 1-1.007.436v1.5c.788 0 1.539-.326 2.087-.896zm-1.007.436h-3.5v1.5h3.5zM8.564 7.23v4.546h1.5V7.23zm0 4.546v5h1.5v-5zm.75.75h3.719v-1.5H9.314zm3.719 0c.43 0 .848.177 1.16.502l1.082-1.04a3.1 3.1 0 0 0-2.242-.962zm1.16.502a1.8 1.8 0 0 1 .496 1.247h1.5a3.3 3.3 0 0 0-.915-2.287l-1.08 1.04Zm.496 1.247a1.8 1.8 0 0 1-.495 1.248l1.08 1.04a3.3 3.3 0 0 0 .915-2.287zm-.495 1.248a1.6 1.6 0 0 1-1.161.502v1.5c.846 0 1.652-.35 2.242-.962zm-1.161.502H9.314v1.5h3.719zM9.75 8.205h2.844v-1.5H9.75zm2.844 0c.313 0 .62.13.851.37l1.081-1.041a2.68 2.68 0 0 0-1.932-.829zm.851.37c.232.24.367.573.367.925h1.5c0-.732-.28-1.44-.786-1.966l-1.08 1.04Zm.367.925c0 .353-.135.685-.367.926l1.081 1.04a2.84 2.84 0 0 0 .786-1.966zm-.367.926c-.23.24-.538.37-.851.37v1.5c.73 0 1.425-.302 1.932-.83l-1.08-1.04Zm-.851.37H9.75v1.5h2.844zm-2.094.75v-4.09H9v4.09zm-.75 1.204h3.062v-1.5H9.75zm3.062 0c.372 0 .735.153 1.007.436l1.08-1.04a2.9 2.9 0 0 0-2.087-.896zm1.007.436c.273.283.43.674.43 1.087h1.5c0-.793-.302-1.559-.85-2.127zm.43 1.087c0 .412-.157.803-.43 1.086l1.08 1.04c.548-.568.85-1.334.85-2.127zm-.43 1.086a1.4 1.4 0 0 1-1.007.436v1.5c.789 0 1.539-.326 2.087-.896zm-1.007.436H9.75v1.5h3.062zm-2.312.75V12H9v4.545z"/>
</svg>
