<svg xmlns="http://www.w3.org/2000/svg" fill="none" viewBox="0 0 24 24" stroke-width="1.5" stroke="currentColor" aria-hidden="true" data-slot="icon">
  <path fill="color(display-p3 .7686 .8941 .3373)" d="M13 15a2 2 0 1 1-4 0 2 2 0 0 1 4 0"/>
  <path fill="#000" d="M20 10v.75h.75V10zM4 10h-.75v.75H4zm4.75-7a.75.75 0 0 0-1.5 0zm-1.5 4a.75.75 0 0 0 1.5 0zm9.5-4a.75.75 0 0 0-1.5 0zm-1.5 4a.75.75 0 0 0 1.5 0zm-4.996 6.12a.75.75 0 1 0 .635 1.36zm2.032-.12h.75a.75.75 0 0 0-1.067-.68zM11 16.25a.75.75 0 0 0 0 1.5zm2.571 1.5a.75.75 0 0 0 0-1.5zM7 5.75h10v-1.5H7zM19.25 8v10h1.5V8zM17 20.25H7v1.5h10zM4.75 18V8h-1.5v10zM7 20.25A2.25 2.25 0 0 1 4.75 18h-1.5A3.75 3.75 0 0 0 7 21.75zM19.25 18A2.25 2.25 0 0 1 17 20.25v1.5A3.75 3.75 0 0 0 20.75 18zM17 5.75A2.25 2.25 0 0 1 19.25 8h1.5A3.75 3.75 0 0 0 17 4.25zM7 4.25A3.75 3.75 0 0 0 3.25 8h1.5A2.25 2.25 0 0 1 7 5.75zM19.25 8v2h1.5V8zM20 9.25H4v1.5h16zM4.75 10V8h-1.5v2zm2.5-7v4h1.5V3zm8 0v4h1.5V3zm-4.361 11.48 1.714-.8-.634-1.36-1.715.8zm.647-1.48v4h1.5v-4zm.75 3.25H11v1.5h1.286zm0 1.5h1.285v-1.5h-1.285z"/>
</svg>
