<svg xmlns="http://www.w3.org/2000/svg" fill="none" viewBox="0 0 24 24" stroke-width="1.5" stroke="currentColor" aria-hidden="true" data-slot="icon">
  <path fill="color(display-p3 .7686 .8941 .3373)" d="M13.25 15.015a2 2 0 1 1-4 0 2 2 0 0 1 4 0"/>
  <path fill="#000" d="M9.867 15.073A.75.75 0 1 0 8.8 16.127zM11.11 17.4l-.534.527a.75.75 0 0 0 1.068 0zm4.09-3.073a.75.75 0 0 0-1.068-1.054zM20 10.2v.75h.75v-.75zm-16 0h-.75v.75H4zM9.194 3a.75.75 0 1 0-1.5 0zm-1.5 3.6a.75.75 0 0 0 1.5 0zM16.306 3a.75.75 0 0 0-1.5 0zm-1.5 3.6a.75.75 0 1 0 1.5 0zM8.8 16.127l1.777 1.8 1.068-1.054-1.778-1.8zm2.845 1.8 3.555-3.6-1.067-1.054-3.555 3.6zM6.667 5.55h10.666v-1.5H6.667zM19.25 7.5v10.8h1.5V7.5zm-1.917 12.75H6.667v1.5h10.666zM4.75 18.3V7.5h-1.5v10.8zm1.917 1.95c-1.05 0-1.917-.864-1.917-1.95h-1.5c0 1.897 1.52 3.45 3.417 3.45zM19.25 18.3c0 1.086-.867 1.95-1.917 1.95v1.5c1.896 0 3.417-1.553 3.417-3.45zM17.333 5.55c1.05 0 1.917.864 1.917 1.95h1.5c0-1.897-1.52-3.45-3.417-3.45zM6.667 4.05C4.77 4.05 3.25 5.603 3.25 7.5h1.5c0-1.086.867-1.95 1.917-1.95zM19.25 7.5v2.7h1.5V7.5zM20 9.45H4v1.5h16zm-15.25.75V7.5h-1.5v2.7zM7.694 3v3.6h1.5V3zm7.112 0v3.6h1.5V3z"/>
</svg>
