<svg xmlns="http://www.w3.org/2000/svg" fill="none" viewBox="0 0 24 24" stroke-width="1.5" stroke="currentColor" aria-hidden="true" data-slot="icon">
  <circle cx="12" cy="14" r="2" fill="color(display-p3 .7686 .8941 .3373)"/>
  <path stroke-linejoin="round" d="M3 18.75V7.5a1.125 1.125 0 0 1 1.125-1.125h1.688l1.92-1.92c.21-.211.497-.33.795-.33h6.944c.298 0 .584.119.795.33l1.92 1.92h1.688A1.125 1.125 0 0 1 21 7.5v11.25a1.125 1.125 0 0 1-1.125 1.125H4.125A1.125 1.125 0 0 1 3 18.75Z"/>
  <path stroke-linejoin="round" d="M15.375 12a3.375 3.375 0 1 1-6.75 0 3.375 3.375 0 0 1 6.75 0Z"/>
</svg>
