<svg xmlns="http://www.w3.org/2000/svg" fill="none" viewBox="0 0 24 24" stroke-width="1.5" stroke="currentColor" aria-hidden="true" data-slot="icon">
  <path fill="color(display-p3 .7686 .8941 .3373)" d="M9 15a2 2 0 1 0 4 0 2 2 0 0 0-4 0"/>
  <path stroke-linecap="round" stroke-linejoin="round" d="M8 5a1 1 0 0 0-1-1H6a2 2 0 0 0-2 2v13a3 3 0 0 0 3 3h10a3 3 0 0 0 3-3V6a2 2 0 0 0-2-2h-1a1 1 0 0 0-1 1M8 5a1 1 0 0 0 1 1h6a1 1 0 0 0 1-1M8 5V3a1 1 0 0 1 1-1h6a1 1 0 0 1 1 1v2M9 15l2 2 4.5-4.5"/>
</svg>
