<svg xmlns="http://www.w3.org/2000/svg" fill="none" viewBox="0 0 24 24" stroke-width="1.5" stroke="currentColor" aria-hidden="true" data-slot="icon">
  <path fill="color(display-p3 .7686 .8941 .3373)" d="M14.5 12.937a2 2 0 1 1-4 0 2 2 0 0 1 4 0"/>
  <path stroke-linecap="round" d="M5.172 10.254h-1.28M6.88 5.987 5.6 4.707m5.547 0V3m4.268 2.987 1.28-1.28m.853 4.694h1.707m-4.491-.013a3.84 3.84 0 0 0-7.449 1.546M16.616 21c1.928 0 3.492-1.476 3.492-3.297s-1.564-3.298-3.492-3.298a.07.07 0 0 1-.068-.056c-.357-1.844-2.066-3.241-4.121-3.241s-3.765 1.397-4.122 3.24a.07.07 0 0 1-.068.057c-1.928 0-3.491 1.477-3.491 3.298S6.309 21 8.236 21z"/>
</svg>
