<svg xmlns="http://www.w3.org/2000/svg" fill="none" viewBox="0 0 24 24" stroke-width="1.5" stroke="currentColor" aria-hidden="true" data-slot="icon">
  <path fill="color(display-p3 .7686 .8941 .3373)" d="M19 15a2 2 0 1 1-4 0 2 2 0 0 1 4 0"/>
  <path fill="#000" d="m3 9.647-.75-.003v.003zm12.93 3.564a.75.75 0 1 0 .667 1.343zm1.28.2h.75a.75.75 0 0 0-1.083-.67l.334.67Zm-.947 2.545a.75.75 0 1 0 0 1.5zm1.895 1.5a.75.75 0 0 0 0-1.5zM12.67 5.882c0-.043.026.015-.146.163-.17.145-.46.31-.885.463-.842.304-2.054.507-3.43.507v1.5c1.503 0 2.896-.22 3.94-.596.519-.188.992-.429 1.349-.734.354-.302.672-.74.672-1.303zM8.21 7.015c-1.376 0-2.588-.203-3.43-.507-.424-.153-.714-.318-.884-.463-.173-.148-.147-.206-.147-.163h-1.5c0 .563.318 1 .672 1.303.358.305.83.546 1.35.734 1.043.377 2.436.596 3.939.596zm0-2.265c1.375 0 2.587.203 3.43.507.423.153.713.318.883.463.173.148.147.205.147.162h1.5c0-.562-.318-1-.672-1.303-.357-.305-.83-.546-1.35-.733-1.043-.377-2.436-.596-3.938-.596zm4.46 4.897c0-.043.026.015-.146.162-.17.146-.46.31-.885.464-.842.304-2.054.506-3.43.506v1.5c1.503 0 2.896-.218 3.94-.595.519-.188.992-.429 1.349-.734.354-.303.672-.74.672-1.303zm-4.46 1.132c-1.376 0-2.588-.202-3.43-.506-.424-.153-.714-.318-.884-.464-.173-.147-.147-.205-.147-.162h-1.5c0 .563.318 1 .672 1.303.358.305.83.546 1.35.734 1.043.377 2.436.595 3.939.595zm4.46 7.339c0-.043.026.014-.146.162-.17.145-.46.31-.885.463-.842.304-2.054.507-3.43.507v1.5c1.503 0 2.896-.219 3.94-.596.519-.187.992-.428 1.349-.733.354-.303.672-.74.672-1.303zM8.21 19.25c-1.376 0-2.588-.203-3.43-.507-.424-.153-.714-.318-.884-.463-.173-.148-.147-.205-.147-.162h-1.5c0 .562.318 1 .672 1.303.358.305.83.546 1.35.733 1.043.377 2.436.596 3.939.596zm4.46-5.838c0-.043.026.014-.146.162-.17.146-.46.31-.885.463-.842.304-2.054.507-3.43.507v1.5c1.503 0 2.896-.219 3.94-.596.519-.187.992-.428 1.349-.733.354-.303.672-.74.672-1.303zm-4.46 1.132c-1.376 0-2.588-.203-3.43-.507-.424-.153-.714-.318-.884-.463-.173-.147-.147-.205-.147-.162h-1.5c0 .563.318 1 .672 1.303.358.305.83.546 1.35.733 1.043.377 2.436.596 3.939.596zm5.96-4.897V5.882h-1.5v3.765zm-1.5 0v3.765h1.5V9.647zm0 3.765v4.706h1.5v-4.706zm-8.92 4.706v-4.706h-1.5v4.706zm-1.5-8.47v3.764h1.5V9.647zm1.5-3.766-.001.01-1.463-.333a1.5 1.5 0 0 0-.036.323zm-.001.01c-.001.007.02-.084.231-.238.201-.147.51-.302.93-.442.836-.28 1.996-.462 3.3-.462v-1.5c-1.427 0-2.753.198-3.776.54-.51.17-.972.385-1.338.653-.358.26-.698.627-.81 1.116zM3.75 9.65l.018-3.92-1.5-.007-.018 3.92zm16.5 5.644c0 1.66-1.356 3.015-3.04 3.015v1.5c2.503 0 4.54-2.017 4.54-4.515zm-3.04 3.015c-1.683 0-3.039-1.355-3.039-3.015h-1.5c0 2.498 2.037 4.515 4.54 4.515v-1.5Zm-3.039-3.015c0-1.66 1.356-3.015 3.04-3.015v-1.5c-2.503 0-4.54 2.017-4.54 4.515zm3.04-3.015c1.683 0 3.039 1.355 3.039 3.015h1.5c0-2.498-2.037-4.515-4.54-4.515zm-.614 2.275.947-.47-.667-1.344-.947.47zm-.137-1.142v3.294h1.5v-3.294zm.75 2.544h-.947v1.5h.947zm0 1.5h.948v-1.5h-.948z"/>
</svg>
