<svg xmlns="http://www.w3.org/2000/svg" fill="none" viewBox="0 0 24 24" stroke-width="1.5" stroke="currentColor" aria-hidden="true" data-slot="icon">
  <path fill="color(display-p3 .7686 .8941 .3373)" d="M15.732 16a2 2 0 1 1-4 0 2 2 0 0 1 4 0"/>
  <path fill="#000" d="M12 6v-.75a.75.75 0 0 0-.75.75zm0 12h-.75c0 .414.336.75.75.75zm0-11.25c.69 0 1.372.136 2.01.4l.573-1.386A6.8 6.8 0 0 0 12 5.25zm2.01.4a5.3 5.3 0 0 1 1.702 1.138l1.061-1.061a6.8 6.8 0 0 0-2.19-1.463zm1.702 1.138A5.3 5.3 0 0 1 16.85 9.99l1.386-.574a6.8 6.8 0 0 0-1.463-2.19l-1.06 1.06ZM16.85 9.99c.264.637.4 1.32.4 2.009h1.5a6.8 6.8 0 0 0-.514-2.583zm.4 2.009c0 .69-.136 1.372-.4 2.01l1.386.573A6.8 6.8 0 0 0 18.75 12zm-.4 2.01a5.3 5.3 0 0 1-1.138 1.702l1.061 1.061a6.8 6.8 0 0 0 1.463-2.19l-1.386-.574Zm-1.138 1.702a5.3 5.3 0 0 1-1.703 1.138l.574 1.386a6.8 6.8 0 0 0 2.19-1.463l-1.06-1.06ZM14.01 16.85c-.637.264-1.32.4-2.009.4v1.5a6.8 6.8 0 0 0 2.583-.514zM20.25 12A8.25 8.25 0 0 1 12 20.25v1.5A9.75 9.75 0 0 0 21.75 12zM12 20.25A8.25 8.25 0 0 1 3.75 12h-1.5A9.75 9.75 0 0 0 12 21.75zM3.75 12A8.25 8.25 0 0 1 12 3.75v-1.5A9.75 9.75 0 0 0 2.25 12zM12 3.75A8.25 8.25 0 0 1 20.25 12h1.5A9.75 9.75 0 0 0 12 2.25zM12.75 18V6h-1.5v12z"/>
</svg>
