<svg xmlns="http://www.w3.org/2000/svg" fill="none" viewBox="0 0 24 24" stroke-width="1.5" stroke="currentColor" aria-hidden="true" data-slot="icon">
  <path fill="color(display-p3 .7686 .8941 .3373)" d="M20 20a2 2 0 1 1-4 0 2 2 0 0 1 4 0"/>
  <path stroke-linecap="round" stroke-linejoin="round" d="M4 19V5a3 3 0 0 1 3-3h5.757a3 3 0 0 1 2.122.879L19.12 7.12A3 3 0 0 1 20 9.243V19a3 3 0 0 1-3 3H7a3 3 0 0 1-3-3"/>
  <path stroke-linecap="round" stroke-linejoin="round" d="M14 8V3.207a.5.5 0 0 1 .854-.353l4.292 4.292a.5.5 0 0 1-.353.854z"/>
</svg>
