<svg xmlns="http://www.w3.org/2000/svg" fill="none" viewBox="0 0 24 24" stroke-width="1.5" stroke="currentColor" aria-hidden="true" data-slot="icon">
  <path fill="color(display-p3 .7686 .8941 .3373)" d="M8 4a2 2 0 1 1-4 0 2 2 0 0 1 4 0"/>
  <path stroke-linecap="round" stroke-linejoin="round" d="M8 13h8m-8 4h6M4 5v14a3 3 0 0 0 3 3h10a3 3 0 0 0 3-3V9.243a3 3 0 0 0-.879-2.122L14.88 2.88A3 3 0 0 0 12.757 2H7a3 3 0 0 0-3 3m10-1.793V8h4.793a.5.5 0 0 0 .353-.854l-4.292-4.292a.5.5 0 0 0-.854.353"/>
</svg>
