<svg xmlns="http://www.w3.org/2000/svg" fill="none" viewBox="0 0 24 24" stroke-width="1.5" stroke="currentColor" aria-hidden="true" data-slot="icon">
  <path fill="#000" d="M15.15 9.6a.75.75 0 0 0 0-1.5zm-.009-1.5a.75.75 0 0 0 0 1.5zM8.85 9.6a.75.75 0 0 0 0-1.5zm-.009-1.5a.75.75 0 1 0 0 1.5zM8.4 13.95a.75.75 0 0 0 0 1.5zm7.2 1.5a.75.75 0 0 0 0-1.5zm-.45-7.35h-.009v1.5h.009zm.3.75a.3.3 0 0 1-.3.3v-1.5a1.2 1.2 0 0 0-1.2 1.2zm-.3.3a.3.3 0 0 1-.3-.3h1.5a1.2 1.2 0 0 0-1.2-1.2zm-.3-.3a.3.3 0 0 1 .3-.3v1.5a1.2 1.2 0 0 0 1.2-1.2zm.3-.3a.3.3 0 0 1 .3.3h-1.5a1.2 1.2 0 0 0 1.2 1.2zm-6.3-.45h-.009v1.5h.009zm.3.75a.3.3 0 0 1-.3.3v-1.5a1.2 1.2 0 0 0-1.2 1.2zm-.3.3a.3.3 0 0 1-.3-.3h1.5a1.2 1.2 0 0 0-1.2-1.2zm-.3-.3a.3.3 0 0 1 .3-.3v1.5a1.2 1.2 0 0 0 1.2-1.2zm.3-.3a.3.3 0 0 1 .3.3h-1.5a1.2 1.2 0 0 0 1.2 1.2zM20.25 12A8.25 8.25 0 0 1 12 20.25v1.5A9.75 9.75 0 0 0 21.75 12zM12 20.25A8.25 8.25 0 0 1 3.75 12h-1.5A9.75 9.75 0 0 0 12 21.75zM3.75 12A8.25 8.25 0 0 1 12 3.75v-1.5A9.75 9.75 0 0 0 2.25 12zM12 3.75A8.25 8.25 0 0 1 20.25 12h1.5A9.75 9.75 0 0 0 12 2.25zm-3.6 11.7h7.2v-1.5H8.4z"/>
</svg>
