<svg xmlns="http://www.w3.org/2000/svg" fill="none" viewBox="0 0 24 24" stroke-width="1.5" stroke="currentColor" aria-hidden="true" data-slot="icon">
  <path fill="color(display-p3 .7686 .8941 .3373)" d="M7 12a2 2 0 1 1-4 0 2 2 0 0 1 4 0m11 0a2 2 0 1 1-4 0 2 2 0 0 1 4 0"/>
  <path stroke-linecap="round" stroke-linejoin="round" d="M21.463 16.88V7.12a1 1 0 0 0-1.607-.795l-5.926 4.532a1 1 0 0 0-.054 1.544l5.926 5.229c.645.57 1.661.111 1.661-.75m-11 0V7.12a1 1 0 0 0-1.607-.795L2.93 10.857a1 1 0 0 0-.055 1.544l5.926 5.229c.646.57 1.662.111 1.662-.75"/>
</svg>
