<svg xmlns="http://www.w3.org/2000/svg" fill="none" viewBox="0 0 24 24" stroke-width="1.5" stroke="currentColor" aria-hidden="true" data-slot="icon">
  <path fill="color(display-p3 .7686 .8941 .3373)" d="M14.87 12.801a2 2 0 1 1-4 0 2 2 0 0 1 4 0"/>
  <path fill="#000" d="m18.231 7.61.538-.524-.538.523ZM14.52 3.79l.538-.522zm-.77 4.61H13c0 .414.336.75.75.75zm4.503-.768-.538.523zm-3.756-3.864.538-.523zm-2.475 7.737-.538.523.538.553.538-.553zm.503-.517.538.522zm-.503 4.657-.538.523.538.553.538-.553zm-2.516-2.587.538-.523zm0-2.07.538.522zm2.013 0-.538.522zM4.25 5.7v12.6h1.5V5.7zm3.375 16.05h8.75v-1.5h-8.75zM19.75 18.3V9.518h-1.5V18.3zm-.981-11.214-3.712-3.818-1.076 1.046 3.712 3.818zM12.663 2.25H7.625v1.5h5.038zm2.394 1.018a3.34 3.34 0 0 0-2.394-1.018v1.5c.49 0 .965.2 1.318.564zm4.693 6.25a3.5 3.5 0 0 0-.981-2.432l-1.076 1.046c.354.364.557.862.557 1.386zM16.375 21.75c1.884 0 3.375-1.565 3.375-3.45h-1.5c0 1.097-.86 1.95-1.875 1.95zM4.25 18.3c0 1.885 1.491 3.45 3.375 3.45v-1.5c-1.016 0-1.875-.853-1.875-1.95zm1.5-12.6c0-1.097.86-1.95 1.875-1.95v-1.5C5.741 2.25 4.25 3.815 4.25 5.7zM13 4.086V8.4h1.5V4.086zm.75 5.064h4.194v-1.5H13.75zm5.04-2.041-3.755-3.864-1.076 1.046 3.756 3.864 1.076-1.046Zm-.846 2.041c1.096 0 1.554-1.313.847-2.041l-1.076 1.046a.3.3 0 0 1-.063-.313.32.32 0 0 1 .292-.192zM14.5 4.086c0 .12-.08.23-.186.275a.33.33 0 0 1-.355-.07l1.076-1.046C14.258 2.447 13 3.058 13 4.086zm-1.94 7.942.503-.518-1.076-1.045-.503.517zm.503-.518a.645.645 0 0 1 .937 0l1.075-1.045a2.145 2.145 0 0 0-3.088 0zm.937 0a.744.744 0 0 1 0 1.025l1.075 1.046a2.244 2.244 0 0 0 0-3.116zm0 1.025-2.516 2.588 1.076 1.045 2.515-2.587zm-3.956 0a.743.743 0 0 1 0-1.025L8.97 10.465a2.243 2.243 0 0 0 0 3.116zm0-1.025a.645.645 0 0 1 .937 0l1.076-1.045a2.145 2.145 0 0 0-3.088 0zm.937 0 .503.518 1.076-1.046-.503-.517zm1.579 3.613-2.516-2.588L8.97 13.58l2.515 2.587 1.076-1.045Z"/>
</svg>
