<svg xmlns="http://www.w3.org/2000/svg" fill="none" viewBox="0 0 24 24" stroke-width="1.5" stroke="currentColor" aria-hidden="true" data-slot="icon">
  <circle cx="12.498" cy="10" r="2" fill="color(display-p3 .7686 .8941 .3373)"/>
  <path stroke-linecap="round" stroke-linejoin="round" d="M17.803 7.57a7.07 7.07 0 0 1 .982 4.44v.888a5.3 5.3 0 0 0 .713 2.663m-11.42-4.44c0-.941.376-1.844 1.045-2.51a3.58 3.58 0 0 1 5.047 0 3.54 3.54 0 0 1 1.046 2.51v.889c0 1.92.626 3.79 1.784 5.327m-5.353-6.215v1.776A12.4 12.4 0 0 0 13.877 20m-5.799-5.327A15.9 15.9 0 0 0 9.684 20m-4.226-2.663c-.602-2.015-1.019-3.226-.949-5.327v-.888a7.1 7.1 0 0 1 .95-3.558 7.1 7.1 0 0 1 2.61-2.608 7.17 7.17 0 0 1 7.147-.004"/>
</svg>
