<svg xmlns="http://www.w3.org/2000/svg" fill="none" viewBox="0 0 24 24" stroke-width="1.5" stroke="currentColor" aria-hidden="true" data-slot="icon">
  <path fill="color(display-p3 .7686 .8941 .3373)" d="M20 20a2 2 0 1 1-4 0 2 2 0 0 1 4 0"/>
  <path stroke-linejoin="round" d="M4 11.22v8a3 3 0 0 0 3 3h5m-8-11h8m-8 0a2 2 0 0 1-2-2v-.5a2.5 2.5 0 0 1 2.5-2.5H12m8 5v8a3 3 0 0 1-3 3h-5m8-11h-8m8 0a2 2 0 0 0 2-2v-.5a2.5 2.5 0 0 0-2.5-2.5H12m0 5v11m0-11v-5m0-.499-.697-2.085c-.64-1.919-3.11-2.438-4.47-.939a.1.1 0 0 0-.022.038c-.62 1.93 1.064 3.815 3.05 3.415zm0 0 .994-2.333c.744-1.746 3.03-2.164 4.343-.793q.018.018.025.043c.531 1.825-.972 3.601-2.86 3.378z"/>
</svg>
