<svg xmlns="http://www.w3.org/2000/svg" fill="none" viewBox="0 0 24 24" stroke-width="1.5" stroke="currentColor" aria-hidden="true" data-slot="icon">
  <circle cx="16.313" cy="16.313" r="2.313" fill="color(display-p3 .7686 .8941 .3373)"/>
  <path fill="#000" d="M12.487 21.738a.75.75 0 0 0-.076-1.499zm-5.208-2.073.394-.639zm-3.51-4.023-.686.303zM5.652 5.618l.529.532-.53-.532Zm4.73-2.472.134.738zm9.855 8.812a.75.75 0 0 0 1.498.084zm.75 4.542.181.728a.75.75 0 0 0 .104-1.421zm-7.645-3.15.286-.693a.75.75 0 0 0-.98.978zM16.49 21l-.694.285a.75.75 0 0 0 1.421-.103zm.899-3.6-.182-.728a.75.75 0 0 0-.546.546zM9.72 5.605l-.592.46zm.713.918.592-.46zm.213 2.997.651.372zm-.56.98-.65-.372zm-3.23 3.879.082-.746-.083.746Zm-.663-.074-.083.746zm-2.715-.401-.739.127zm3.068-8.892.455.596zM5.3 14.55l-.45-.6zm11.595-7.976-.61-.436zm-.674.944.61.436zm-.145 1.851.67-.335zm.883 1.77-.67.335zm1.386.98-.093.745zm2.642.331-.093.744a.75.75 0 0 0 .843-.744zM19.068 6.3l-.576.48zm-6.657 13.94a8.24 8.24 0 0 1-4.738-1.214l-.787 1.277a9.74 9.74 0 0 0 5.6 1.434zm-4.738-1.214a8.25 8.25 0 0 1-3.218-3.687l-1.372.606a9.75 9.75 0 0 0 3.803 4.358zm-3.218-3.687a8.26 8.26 0 0 1-.563-4.863l-1.474-.277a9.76 9.76 0 0 0 .665 5.746zm-.563-4.863A8.25 8.25 0 0 1 6.18 6.15L5.123 5.087a9.75 9.75 0 0 0-2.705 5.112zM6.18 6.15a8.24 8.24 0 0 1 4.335-2.266l-.269-1.476a9.74 9.74 0 0 0-5.124 2.679zm4.335-2.266a8.24 8.24 0 0 1 4.855.59l.615-1.368a9.74 9.74 0 0 0-5.739-.698zm4.855.59a8.25 8.25 0 0 1 3.666 3.24l1.282-.778a9.75 9.75 0 0 0-4.333-3.83zm3.666 3.24c.892 1.47 1.292 2.62 1.2 4.244l1.498.084c.113-2.012-.418-3.462-1.416-5.106zm2.235 8.093-7.644-3.15-.572 1.386 7.644 3.15zm-8.624-2.172 3.148 7.65 1.387-.57-3.147-7.65zm4.57 7.547.898-3.6-1.455-.364-.9 3.6 1.456.364Zm.353-3.054 3.597-.9-.364-1.456-3.597.9zM9.129 6.065l.713.918 1.184-.92-.713-.918zm.867 3.083-.56.98 1.303.744.56-.98zm-3.057 4.485-.662-.073-.166 1.49.662.074.166-1.49Zm-2.72.144c-.428-2.498-.183-5.903 2.783-8.169l-.91-1.192C2.482 7.173 2.27 11.284 2.74 14.03zm.63.173a.46.46 0 0 1-.42.08.3.3 0 0 1-.21-.253l-1.479.254c.256 1.492 1.948 1.915 3.009 1.119zm1.428-.39a2 2 0 0 0-1.429.39l.9 1.2a.5.5 0 0 1 .363-.1zm2.718-1.769c0 1.106-.96 1.964-2.056 1.842l-.166 1.491a3.352 3.352 0 0 0 3.722-3.333zm.441-1.663a3.36 3.36 0 0 0-.441 1.663h1.5c0-.322.084-.64.244-.92zm.406-3.145c.485.624.545 1.479.154 2.165l1.302.744a3.45 3.45 0 0 0-.272-3.83zm.471-1.838c-.958-1.233-2.808-1.808-4.221-.729l.91 1.192c.593-.453 1.536-.303 2.127.457zm5.97.993-.674.944 1.221.872.674-.945zm-.88 3.567.885 1.769 1.341-.67-.884-1.77zm2.848 3.159 2.642.33.186-1.488-2.642-.33zm3.485-.414c0-.79-.11-1.94-.419-3.134-.307-1.188-.823-2.477-1.672-3.496l-1.153.96c.654.786 1.096 1.841 1.373 2.911.275 1.065.371 2.088.371 2.759zm-5.448-.976a2.55 2.55 0 0 0 1.963 1.39l.186-1.489a1.05 1.05 0 0 1-.808-.572zm-.679-4.392a2.55 2.55 0 0 0-.205 2.623l1.341-.67a1.05 1.05 0 0 1 .085-1.081zm1.895-.073a.9.9 0 0 1 .573-.379.42.42 0 0 1 .415.15l1.153-.96a1.91 1.91 0 0 0-1.8-.672 2.4 2.4 0 0 0-1.562.99z"/>
</svg>
