<svg xmlns="http://www.w3.org/2000/svg" fill="none" viewBox="0 0 24 24" stroke-width="1.5" stroke="currentColor" aria-hidden="true" data-slot="icon">
  <circle cx="11" cy="15" r="2" fill="color(display-p3 .7686 .8941 .3373)"/>
  <path fill="#000" d="M5.807 17.49a.75.75 0 1 0-1.02 1.1zm2.35 1.976.256-.704zm6.813-.323-.322-.677zm2.785-2.085.559.5zm1.762-3 .709.245-.71-.245Zm.465-3.448.748-.048zm-.904-3.359.671-.334-.008-.017-.01-.017-.654.368Zm-13.25 11.55a.75.75 0 0 0-1.061-1.061l1.06 1.06Zm-2.358.236a.75.75 0 0 0 1.06 1.06zm13.405-14.27a.75.75 0 0 0 1.06 1.06zm2.358-.237a.75.75 0 0 0-1.06-1.06zM4.788 18.59c.999.925 2.087 1.207 3.112 1.58l.513-1.408c-1.175-.43-1.886-.607-2.606-1.273zM7.9 20.17a9.6 9.6 0 0 0 3.731.57l-.07-1.499a8.1 8.1 0 0 1-3.148-.48l-.513 1.41Zm3.731.57a9.6 9.6 0 0 0 3.662-.92l-.645-1.354a8.1 8.1 0 0 1-3.088.775zm3.662-.92a9.6 9.6 0 0 0 3.021-2.262l-1.118-1a8.1 8.1 0 0 1-2.548 1.908l.645 1.355Zm3.021-2.262a9.6 9.6 0 0 0 1.912-3.255l-1.418-.49a8.1 8.1 0 0 1-1.612 2.745zm1.912-3.255a9.6 9.6 0 0 0 .504-3.74l-1.497.096a8.1 8.1 0 0 1-.425 3.154zm.504-3.74a9.6 9.6 0 0 0-.98-3.646l-1.344.668c.477.96.758 2.004.827 3.074zm-.999-3.68c-.26-.463-.45-.816-.69-1.136-.251-.336-.545-.623-1.001-1.017l-.98 1.135c.43.371.626.574.78.78.166.222.297.463.584.974zM4.767 17.74 3.47 19.037l1.06 1.06 1.298-1.296zM17.936 5.828l1.297-1.298-1.06-1.06-1.298 1.297 1.06 1.06Zm-1.28 5.09a5.736 5.736 0 0 1-5.737 5.737v1.5a7.237 7.237 0 0 0 7.236-7.236h-1.5Zm-5.737 5.737a5.736 5.736 0 0 1-5.737-5.736h-1.5a7.236 7.236 0 0 0 7.237 7.236zM5.182 10.92a5.736 5.736 0 0 1 5.737-5.737v-1.5a7.236 7.236 0 0 0-7.237 7.237zm5.737-5.737a5.736 5.736 0 0 1 5.736 5.737h1.5a7.236 7.236 0 0 0-7.236-7.237z"/>
</svg>
