<svg xmlns="http://www.w3.org/2000/svg" fill="none" viewBox="0 0 24 24" stroke-width="1.5" stroke="currentColor" aria-hidden="true" data-slot="icon">
  <circle cx="16" cy="13" r="2" fill="color(display-p3 .7686 .8941 .3373)"/>
  <path fill="#000" d="m16 10 .53-.53a.75.75 0 0 0-1.085.025zm5 5h.75v-.31l-.22-.22zM6 3.75h12v-1.5H6zM20.25 6v12h1.5V6zM18 20.25H6v1.5h12zM3.75 18V6h-1.5v12zM6 20.25A2.25 2.25 0 0 1 3.75 18h-1.5A3.75 3.75 0 0 0 6 21.75zM20.25 18A2.25 2.25 0 0 1 18 20.25v1.5A3.75 3.75 0 0 0 21.75 18zM18 3.75A2.25 2.25 0 0 1 20.25 6h1.5A3.75 3.75 0 0 0 18 2.25zM6 2.25A3.75 3.75 0 0 0 2.25 6h1.5A2.25 2.25 0 0 1 6 3.75zm4.25 6.25a1.75 1.75 0 0 1-1.75 1.75v1.5a3.25 3.25 0 0 0 3.25-3.25zM8.5 10.25A1.75 1.75 0 0 1 6.75 8.5h-1.5a3.25 3.25 0 0 0 3.25 3.25zM6.75 8.5c0-.966.784-1.75 1.75-1.75v-1.5A3.25 3.25 0 0 0 5.25 8.5zM8.5 6.75c.966 0 1.75.784 1.75 1.75h1.5A3.25 3.25 0 0 0 8.5 5.25zM6.555 21.505l10-11-1.11-1.01-10 11zM15.47 10.53l5 5 1.06-1.06-5-5zM20.25 15v3h1.5v-3z"/>
</svg>
