<svg xmlns="http://www.w3.org/2000/svg" fill="none" viewBox="0 0 24 24" stroke-width="1.5" stroke="currentColor" aria-hidden="true" data-slot="icon">
  <path fill="color(display-p3 .7686 .8941 .3373)" d="M17 9a2 2 0 1 1-4 0 2 2 0 0 1 4 0"/>
  <path stroke-linecap="round" stroke-linejoin="round" d="M15 7c.667 0 2 .4 2 2m-1.975 6a6.001 6.001 0 0 0 4.48-9.964 6 6 0 0 0-10.45 4.77c.023.175.032.353.014.529-.045.43-.236.832-.542 1.138L3.88 16.12A3 3 0 0 0 3 18.243V20a1 1 0 0 0 1 1h1.5A1.5 1.5 0 0 0 7 19.5a.5.5 0 0 1 .5-.5H8a1 1 0 0 0 1-1 1 1 0 0 1 1-1h.574a1 1 0 0 0 .721-.308l.602-.627c.791-.823 1.986-1.06 3.128-1.065"/>
</svg>
