<svg xmlns="http://www.w3.org/2000/svg" fill="none" viewBox="0 0 24 24" stroke-width="1.5" stroke="currentColor" aria-hidden="true" data-slot="icon">
  <path fill="color(display-p3 .7686 .8941 .3373)" d="M10.5 18.5a2 2 0 1 1-4 0 2 2 0 0 1 4 0"/>
  <path stroke-linecap="round" stroke-linejoin="round" d="m12.025 8.95.575-.575a1.626 1.626 0 1 1 2.3 2.3l-2.875 2.876-2.875-2.876a1.626 1.626 0 0 1 2.3-2.3z"/>
  <path stroke-linecap="round" stroke-linejoin="round" d="M18 2.5H6a3 3 0 0 0-3 3v10a2 2 0 0 0 2 2 2 2 0 0 1 2 2v2l4.178-3.343a3 3 0 0 1 1.874-.657H18a3 3 0 0 0 3-3v-9a3 3 0 0 0-3-3"/>
</svg>
