<svg xmlns="http://www.w3.org/2000/svg" fill="none" viewBox="0 0 24 24" stroke-width="1.5" stroke="currentColor" aria-hidden="true" data-slot="icon">
  <path fill="color(display-p3 .7686 .8941 .3373)" d="M14 4.724a2 2 0 1 1-4 0 2 2 0 0 1 4 0"/>
  <path stroke-linecap="round" stroke-linejoin="round" d="M9 20.172c.834.833 3.1 2 5.5 0m-10.753-2h16.507a.492.492 0 0 0 .452-.686l-1.843-4.3A10.7 10.7 0 0 1 18 8.98c0-3.209-2.6-5.81-5.809-5.81h-.382A5.81 5.81 0 0 0 6 8.982c0 1.445-.293 2.876-.863 4.205l-1.843 4.3a.492.492 0 0 0 .453.686Z"/>
</svg>
