<svg xmlns="http://www.w3.org/2000/svg" fill="none" viewBox="0 0 24 24" stroke-width="1.5" stroke="currentColor" aria-hidden="true" data-slot="icon">
  <circle cx="19" cy="19" r="2" fill="color(display-p3 .7686 .8941 .3373)"/>
  <path fill="#000" d="M14.75 16.5a.75.75 0 0 0-1.5 0zm-1.5 4.5a.75.75 0 0 0 1.5 0zm3.75-.75a.75.75 0 0 0 0 1.5zM21.75 17a.75.75 0 0 0-1.5 0zm-5.25-3.75a.75.75 0 0 0 0 1.5zm4.5 1.5a.75.75 0 0 0 0-1.5zm-14.5-9a.75.75 0 0 0 0 1.5zm.01 1.5a.75.75 0 0 0 0-1.5zm10.99-1.5a.75.75 0 0 0 0 1.5zm.01 1.5a.75.75 0 0 0 0-1.5zm-5.51 4a.75.75 0 0 0 0 1.5zm.01 1.5a.75.75 0 0 0 0-1.5zm5.49 4a.75.75 0 0 0 0 1.5zm.01 1.5a.75.75 0 0 0 0-1.5zM6.5 16.75a.75.75 0 0 0 0 1.5zm.01 1.5a.75.75 0 0 0 0-1.5zM4 3.75h5v-1.5H4zM9.25 4v5h1.5V4zM9 9.25H4v1.5h5zM3.75 9V4h-1.5v5zM15 3.75h5v-1.5h-5zm5.25.25v5h1.5V4zM20 9.25h-5v1.5h5zM14.75 9V4h-1.5v5zM4 14.75h5v-1.5H4zm5.25.25v5h1.5v-5zM9 20.25H4v1.5h5zM3.75 20v-5h-1.5v5zm9.5-3.5V21h1.5v-4.5zM17 21.75h3v-1.5h-3zM21.75 20v-3h-1.5v3zm-5.25-5.25H21v-1.5h-4.5zm3.5 7A1.75 1.75 0 0 0 21.75 20h-1.5a.25.25 0 0 1-.25.25zm-16-1.5a.25.25 0 0 1-.25-.25h-1.5c0 .966.784 1.75 1.75 1.75zM9.25 20a.25.25 0 0 1-.25.25v1.5A1.75 1.75 0 0 0 10.75 20zM9 14.75a.25.25 0 0 1 .25.25h1.5A1.75 1.75 0 0 0 9 13.25zm-5-1.5A1.75 1.75 0 0 0 2.25 15h1.5a.25.25 0 0 1 .25-.25zm11-4a.25.25 0 0 1-.25-.25h-1.5c0 .966.784 1.75 1.75 1.75zM20.25 9a.25.25 0 0 1-.25.25v1.5A1.75 1.75 0 0 0 21.75 9zM20 3.75a.25.25 0 0 1 .25.25h1.5A1.75 1.75 0 0 0 20 2.25zm-5-1.5A1.75 1.75 0 0 0 13.25 4h1.5a.25.25 0 0 1 .25-.25zm-11 7A.25.25 0 0 1 3.75 9h-1.5c0 .966.784 1.75 1.75 1.75zM9.25 9a.25.25 0 0 1-.25.25v1.5A1.75 1.75 0 0 0 10.75 9zM9 3.75a.25.25 0 0 1 .25.25h1.5A1.75 1.75 0 0 0 9 2.25zm-5-1.5A1.75 1.75 0 0 0 2.25 4h1.5A.25.25 0 0 1 4 3.75zm2.5 5h.01v-1.5H6.5zm-.25-.75a.25.25 0 0 1 .25-.25v1.5c.69 0 1.25-.56 1.25-1.25zm.25-.25a.25.25 0 0 1 .25.25h-1.5c0 .69.56 1.25 1.25 1.25zm.25.25a.25.25 0 0 1-.25.25v-1.5c-.69 0-1.25.56-1.25 1.25zm-.25.25a.25.25 0 0 1-.25-.25h1.5c0-.69-.56-1.25-1.25-1.25zm11 .5h.01v-1.5h-.01zm-.25-.75a.25.25 0 0 1 .25-.25v1.5c.69 0 1.25-.56 1.25-1.25zm.25-.25a.25.25 0 0 1 .25.25h-1.5c0 .69.56 1.25 1.25 1.25zm.25.25a.25.25 0 0 1-.25.25v-1.5c-.69 0-1.25.56-1.25 1.25zm-.25.25a.25.25 0 0 1-.25-.25h1.5c0-.69-.56-1.25-1.25-1.25zm-5.5 6h.01v-1.5H12zm-.25-.75a.25.25 0 0 1 .25-.25v1.5c.69 0 1.25-.56 1.25-1.25zm.25-.25a.25.25 0 0 1 .25.25h-1.5c0 .69.56 1.25 1.25 1.25zm.25.25a.25.25 0 0 1-.25.25v-1.5c-.69 0-1.25.56-1.25 1.25zm-.25.25a.25.25 0 0 1-.25-.25h1.5c0-.69-.56-1.25-1.25-1.25zm5.5 6h.01v-1.5h-.01zm-.25-.75a.25.25 0 0 1 .25-.25v1.5c.69 0 1.25-.56 1.25-1.25zm.25-.25a.25.25 0 0 1 .25.25h-1.5c0 .69.56 1.25 1.25 1.25zm.25.25a.25.25 0 0 1-.25.25v-1.5c-.69 0-1.25.56-1.25 1.25zm-.25.25a.25.25 0 0 1-.25-.25h1.5c0-.69-.56-1.25-1.25-1.25zm-11 .5h.01v-1.5H6.5zm-.25-.75a.25.25 0 0 1 .25-.25v1.5c.69 0 1.25-.56 1.25-1.25zm.25-.25a.25.25 0 0 1 .25.25h-1.5c0 .69.56 1.25 1.25 1.25zm.25.25a.25.25 0 0 1-.25.25v-1.5c-.69 0-1.25.56-1.25 1.25zm-.25.25a.25.25 0 0 1-.25-.25h1.5c0-.69-.56-1.25-1.25-1.25z"/>
</svg>
