<svg xmlns="http://www.w3.org/2000/svg" fill="none" viewBox="0 0 24 24" stroke-width="1.5" stroke="currentColor" aria-hidden="true" data-slot="icon">
  <path fill="color(display-p3 .7686 .8941 .3373)" d="M16 15.953a2 2 0 1 1-4 .094 2 2 0 0 1 4-.095Z"/>
  <path stroke-linecap="round" stroke-linejoin="round" d="M12.757 2H7a3 3 0 0 0-3 3v14a3 3 0 0 0 3 3h10a3 3 0 0 0 3-3V9.243a3 3 0 0 0-.879-2.122L14.88 2.88A3 3 0 0 0 12.757 2"/>
  <path stroke-linecap="round" stroke-linejoin="round" d="M15 13H9a1 1 0 0 0-1 1v3a1 1 0 0 0 1 1h6a1 1 0 0 0 1-1v-3a1 1 0 0 0-1-1"/>
</svg>
