<svg xmlns="http://www.w3.org/2000/svg" fill="none" viewBox="0 0 24 24" stroke-width="1.5" stroke="currentColor" aria-hidden="true" data-slot="icon">
  <circle cx="14" cy="14" r="2" fill="color(display-p3 .7686 .8941 .3373)"/>
  <path fill="#000" d="M15.6 8.444v-.75a.75.75 0 0 0-.75.75zm2.7 0 .527-.533a.75.75 0 0 0-.527-.217zm2.7 2.667h.75a.75.75 0 0 0-.223-.534zm0 4.445v.75a.75.75 0 0 0 .75-.75zM5.7 4.75h7.2v-1.5H5.7zm9.15 1.917v8.889h1.5v-8.89h-1.5Zm.75 8.139H5.7v1.5h9.9zM3.75 12.889V6.667h-1.5v6.222zm1.95 1.917c-1.086 0-1.95-.867-1.95-1.917h-1.5c0 1.896 1.553 3.417 3.45 3.417zM12.9 4.75c1.086 0 1.95.867 1.95 1.917h1.5c0-1.896-1.553-3.417-3.45-3.417zm-7.2-1.5c-1.897 0-3.45 1.52-3.45 3.417h1.5c0-1.05.864-1.917 1.95-1.917zm9.9 5.944h2.7v-1.5h-2.7zm2.173-.216 2.7 2.667 1.054-1.067-2.7-2.667zm2.477 2.133v4.445h1.5V11.11h-1.5Zm.75 3.695h-5.4v1.5H21zm-4.65.75V8.444h-1.5v7.112zm-7.8 2.222c0 .804-.663 1.472-1.5 1.472v1.5c1.648 0 3-1.322 3-2.972zm-1.5 1.472c-.837 0-1.5-.668-1.5-1.472h-1.5c0 1.65 1.352 2.972 3 2.972zm-1.5-1.472c0-.805.663-1.472 1.5-1.472v-1.5c-1.648 0-3 1.322-3 2.972zm1.5-1.472c.837 0 1.5.667 1.5 1.472h1.5c0-1.65-1.352-2.972-3-2.972zm11.4 1.472c0 .804-.663 1.472-1.5 1.472v1.5c1.648 0 3-1.322 3-2.972zm-1.5 1.472c-.837 0-1.5-.668-1.5-1.472h-1.5c0 1.65 1.352 2.972 3 2.972zm-1.5-1.472c0-.805.663-1.472 1.5-1.472v-1.5c-1.648 0-3 1.322-3 2.972zm1.5-1.472c.837 0 1.5.667 1.5 1.472h1.5c0-1.65-1.352-2.972-3-2.972z"/>
</svg>
