<svg xmlns="http://www.w3.org/2000/svg" fill="none" viewBox="0 0 24 24" stroke-width="1.5" stroke="currentColor" aria-hidden="true" data-slot="icon">
  <path fill="color(display-p3 .7686 .8941 .3373)" d="M10.842 9.781a2 2 0 1 1-4 0 2 2 0 0 1 4 0"/>
  <path stroke-linecap="round" stroke-linejoin="round" d="M3 20v-2.823a2.833 2.833 0 0 1 2.842-2.824h5.684a2.833 2.833 0 0 1 2.842 2.824V20m3.79-16v5.647m0 0-2.842-2.823m2.842 2.823L21 6.824m-8.526.94c0 2.08-1.697 3.765-3.79 3.765s-3.79-1.685-3.79-3.764C4.895 5.685 6.592 4 8.685 4s3.79 1.686 3.79 3.765Z"/>
</svg>
