<svg xmlns="http://www.w3.org/2000/svg" fill="none" viewBox="0 0 24 24" stroke-width="1.5" stroke="currentColor" aria-hidden="true" data-slot="icon">
  <path fill="color(display-p3 .7686 .8941 .3373)" d="M17 11a2 2 0 1 1-4 0 2 2 0 0 1 4 0"/>
  <path stroke-linecap="round" stroke-linejoin="round" d="m2 7.02.558.186a7.03 7.03 0 0 0 4.832-.142l.254-.101a6.34 6.34 0 0 1 4.711 0l.485.193a5.18 5.18 0 0 0 4.24-.176 5.18 5.18 0 0 1 3.956-.281L22 7.02m-20 5 .558.186a7.03 7.03 0 0 0 4.832-.142l.254-.101a6.34 6.34 0 0 1 4.711 0l.485.193a5.18 5.18 0 0 0 4.24-.176 5.18 5.18 0 0 1 3.956-.281l.964.321m-20 5 .558.186a7.03 7.03 0 0 0 4.832-.142l.254-.102a6.34 6.34 0 0 1 4.711 0l.485.194a5.18 5.18 0 0 0 4.24-.176 5.18 5.18 0 0 1 3.956-.281l.964.321"/>
</svg>
