<svg xmlns="http://www.w3.org/2000/svg" width="24" height="24" fill="none" viewBox="0 0 24 24">
  <path fill="color(display-p3 .7686 .8941 .3373)" d="M14 18a2 2 0 1 1-4 0 2 2 0 0 1 4 0Z"/>
  <path fill="#000" d="m14.1 18.2.6.45-.6-.45ZM12 21l-.6.45a.75.75 0 0 0 1.2 0L12 21Zm-2.1-2.8.6-.45-.6.45Zm2.125-8.75-.53.53.53.531.53-.53-.53-.53Zm0 4.6-.53.53.53.531.53-.53-.53-.53ZM9.15 11.176l.53-.53-.53.53Zm0-2.3.53.53-.53-.53ZM6 3.75h12v-1.5H6v1.5ZM20.25 6v8h1.5V6h-1.5ZM18 16.25h-1.5v1.5H18v-1.5Zm-4.5 1.5-2.1 2.8 1.2.9 2.1-2.8-1.2-.9Zm-.9 2.8-2.1-2.8-1.2.9 2.1 2.8 1.2-.9Zm-5.1-4.3H6v1.5h1.5v-1.5ZM3.75 14V6h-1.5v8h1.5ZM6 16.25A2.25 2.25 0 0 1 3.75 14h-1.5A3.75 3.75 0 0 0 6 17.75v-1.5Zm10.5 0a3.75 3.75 0 0 0-3 1.5l1.2.9a2.25 2.25 0 0 1 1.8-.9v-1.5ZM20.25 14A2.25 2.25 0 0 1 18 16.25v1.5A3.75 3.75 0 0 0 21.75 14h-1.5ZM18 3.75A2.25 2.25 0 0 1 20.25 6h1.5A3.75 3.75 0 0 0 18 2.25v1.5Zm-7.5 14a3.75 3.75 0 0 0-3-1.5v1.5a2.25 2.25 0 0 1 1.8.9l1.2-.9ZM6 2.25A3.75 3.75 0 0 0 2.25 6h1.5A2.25 2.25 0 0 1 6 3.75v-1.5Zm6.556 7.73.575-.574-1.061-1.061-.575.575 1.06 1.06Zm.575-.574a.876.876 0 0 1 1.239 0l1.06-1.061a2.376 2.376 0 0 0-3.36 0l1.06 1.06Zm1.239 0a.876.876 0 0 1 0 1.24l1.06 1.06a2.377 2.377 0 0 0 0-3.361l-1.06 1.06Zm0 1.24-2.875 2.874 1.06 1.06 2.876-2.874-1.061-1.06Zm-4.69 0a.876.876 0 0 1 0-1.24L8.62 8.345a2.376 2.376 0 0 0 0 3.36l1.06-1.06Zm0-1.24a.876.876 0 0 1 1.24 0l1.06-1.061a2.376 2.376 0 0 0-3.36 0l1.06 1.06Zm1.24 0 .575.575 1.06-1.061-.575-.575-1.06 1.06Zm1.636 4.114L9.68 10.645l-1.06 1.06 2.875 2.876 1.06-1.06Z"/>
</svg>
