<svg xmlns="http://www.w3.org/2000/svg" width="24" height="24" fill="none" viewBox="0 0 24 24">
  <path fill="color(display-p3 .7686 .8941 .3373)" d="M10.955 14a2 2 0 1 1 0-4 2 2 0 0 1 0 4Z"/>
  <path fill="#000" d="M19.116 7.75a.75.75 0 0 0 1.286-.773l-1.286.773ZM4.907 6.518l-.595-.457.595.457Zm-1.862 5.424-.75-.005.75.005Zm6.51 8.707.208-.72-.207.72Zm5.73-.252.27.7-.27-.7Zm5.051-3.267a.75.75 0 0 0-1.275-.79l1.275.79Zm.619-4.38a.75.75 0 0 0 0-1.5v1.5ZM8.227 12l-.53-.53a.75.75 0 0 0 0 1.06l.53-.53Zm4.348-3.288a.75.75 0 1 0-1.06-1.06l1.06 1.06Zm-1.06 7.637a.75.75 0 0 0 1.06-1.061l-1.06 1.06Zm8.887-9.372a9.75 9.75 0 0 0-4.73-4.027l-.558 1.392a8.25 8.25 0 0 1 4.002 3.408l1.286-.773Zm-4.73-4.027a9.75 9.75 0 0 0-6.203-.354l.396 1.447a8.25 8.25 0 0 1 5.249.299l.557-1.392Zm-6.203-.354a9.75 9.75 0 0 0-5.157 3.465l1.19.914a8.25 8.25 0 0 1 4.363-2.932L9.47 2.596ZM4.312 6.061a9.75 9.75 0 0 0-2.017 5.876l1.5.01a8.25 8.25 0 0 1 1.707-4.972l-1.19-.914Zm-2.017 5.876a9.75 9.75 0 0 0 1.942 5.902l1.2-.899a8.25 8.25 0 0 1-1.642-4.993l-1.5-.01Zm1.942 5.902a9.75 9.75 0 0 0 5.111 3.53l.415-1.44a8.25 8.25 0 0 1-4.325-2.989l-1.201.899Zm5.111 3.53a9.75 9.75 0 0 0 6.207-.273l-.54-1.399a8.25 8.25 0 0 1-5.252.231l-.415 1.442Zm6.207-.273a9.75 9.75 0 0 0 4.781-3.966l-1.275-.79a8.25 8.25 0 0 1-4.046 3.357l.54 1.4Zm5.4-9.846H8.227v1.5h12.728v-1.5ZM8.757 12.53l3.818-3.818-1.06-1.06-3.819 3.818 1.061 1.06Zm-1.06 0 3.818 3.819 1.06-1.061-3.818-3.818-1.06 1.06Z"/>
</svg>
