<svg xmlns="http://www.w3.org/2000/svg" width="24" height="24" fill="none" viewBox="0 0 24 24">
  <circle cx="13" cy="13" r="2" fill="color(display-p3 .7686 .8941 .3373)"/>
  <path fill="#000" d="M8.77 9.83a.75.75 0 0 1 1.06-1.06L8.77 9.83Zm5.93 4.87h.75a.75.75 0 0 1-.75.75v-.75Zm-.75-5.4a.75.75 0 0 1 1.5 0h-1.5ZM9.3 15.45a.75.75 0 0 1 0-1.5v1.5Zm.53-6.68 5.4 5.4-1.06 1.06-5.4-5.4 1.06-1.06Zm4.12 5.93V9.3h1.5v5.4h-1.5Zm.75.75H9.3v-1.5h5.4v1.5ZM3.75 12A8.25 8.25 0 0 0 12 20.25v1.5A9.75 9.75 0 0 1 2.25 12h1.5ZM12 20.25A8.25 8.25 0 0 0 20.25 12h1.5A9.75 9.75 0 0 1 12 21.75v-1.5ZM20.25 12A8.25 8.25 0 0 0 12 3.75v-1.5A9.75 9.75 0 0 1 21.75 12h-1.5ZM12 3.75A8.25 8.25 0 0 0 3.75 12h-1.5A9.75 9.75 0 0 1 12 2.25v1.5Z"/>
</svg>
