<svg xmlns="http://www.w3.org/2000/svg" width="24" height="24" fill="none" viewBox="0 0 24 24">
  <circle cx="1.8" cy="1.8" r="1.8" fill="color(display-p3 .7686 .8941 .3373)" transform="matrix(-1 0 0 1 12 10.2)"/>
  <path fill="#000" d="M15.6 11.25a.75.75 0 0 1 0 1.5v-1.5ZM8.4 12l-.53.53a.75.75 0 0 1 0-1.06l.53.53Zm3.07-4.13a.75.75 0 1 1 1.06 1.06l-1.06-1.06Zm1.06 7.2a.75.75 0 1 1-1.06 1.06l1.06-1.06ZM3.75 12A8.25 8.25 0 0 0 12 20.25v1.5A9.75 9.75 0 0 1 2.25 12h1.5ZM12 20.25A8.25 8.25 0 0 0 20.25 12h1.5A9.75 9.75 0 0 1 12 21.75v-1.5ZM20.25 12A8.25 8.25 0 0 0 12 3.75v-1.5A9.75 9.75 0 0 1 21.75 12h-1.5ZM12 3.75A8.25 8.25 0 0 0 3.75 12h-1.5A9.75 9.75 0 0 1 12 2.25v1.5Zm3.6 9H8.4v-1.5h7.2v1.5Zm-7.73-1.28 3.6-3.6 1.06 1.06-3.6 3.6-1.06-1.06Zm1.06 0 3.6 3.6-1.06 1.06-3.6-3.6 1.06-1.06Z"/>
</svg>
