<svg xmlns="http://www.w3.org/2000/svg" width="24" height="24" fill="none" viewBox="0 0 24 24">
  <path fill="color(display-p3 .7686 .8941 .3373)" d="M9.5 12.5a2 2 0 1 1 4 0 2 2 0 0 1-4 0Z"/>
  <path fill="#000" d="M13.995 3.995a.75.75 0 1 0 .362-1.456l-.362 1.456Zm7.495 5.77a.75.75 0 1 0-1.46.344l1.46-.344ZM18.83 6.23a.75.75 0 0 0-1.06-1.06l1.06 1.06ZM9.3 14.7h-.75c0 .414.336.75.75.75v-.75Zm.75-5.4a.75.75 0 1 0-1.5 0h1.5Zm4.65 6.15a.75.75 0 0 0 0-1.5v1.5Zm-.343-12.91a9.75 9.75 0 0 0-6.192.496l.59 1.38a8.25 8.25 0 0 1 5.24-.421l.362-1.456Zm-6.192.496a9.75 9.75 0 0 0-4.636 4.136l1.303.743a8.25 8.25 0 0 1 3.923-3.5l-.59-1.379ZM3.529 7.172a9.75 9.75 0 0 0-1.196 6.096l1.487-.195a8.25 8.25 0 0 1 1.012-5.158L3.53 7.172Zm-1.196 6.096A9.75 9.75 0 0 0 5.06 18.85l1.068-1.054a8.25 8.25 0 0 1-2.309-4.723l-1.487.195ZM5.06 18.85a9.75 9.75 0 0 0 5.546 2.8l.214-1.485a8.25 8.25 0 0 1-4.692-2.37L5.06 18.85Zm5.546 2.8a9.75 9.75 0 0 0 6.111-1.118l-.726-1.312a8.25 8.25 0 0 1-5.17.945l-.215 1.485Zm6.111-1.118a9.75 9.75 0 0 0 4.196-4.582l-1.372-.607a8.25 8.25 0 0 1-3.55 3.877l.726 1.312Zm4.196-4.582a9.75 9.75 0 0 0 .576-6.185l-1.46.344a8.25 8.25 0 0 1-.488 5.234l1.372.607ZM17.77 5.17l-9 9 1.06 1.06 9-9-1.06-1.06Zm-7.72 9.53V9.3h-1.5v5.4h1.5Zm-.75.75h5.4v-1.5H9.3v1.5Z"/>
</svg>
