<svg xmlns="http://www.w3.org/2000/svg" width="24" height="24" fill="none" viewBox="0 0 24 24">
  <circle cx="13.8" cy="12" r="1.8" fill="color(display-p3 .7686 .8941 .3373)"/>
  <path fill="#000" d="M8.4 11.25a.75.75 0 0 0 0 1.5v-1.5Zm7.2.75.53.53a.75.75 0 0 0 0-1.06l-.53.53Zm-3.07-4.13a.75.75 0 1 0-1.06 1.06l1.06-1.06Zm-1.06 7.2a.75.75 0 1 0 1.06 1.06l-1.06-1.06ZM20.25 12A8.25 8.25 0 0 1 12 20.25v1.5A9.75 9.75 0 0 0 21.75 12h-1.5ZM12 20.25A8.25 8.25 0 0 1 3.75 12h-1.5A9.75 9.75 0 0 0 12 21.75v-1.5ZM3.75 12A8.25 8.25 0 0 1 12 3.75v-1.5A9.75 9.75 0 0 0 2.25 12h1.5ZM12 3.75A8.25 8.25 0 0 1 20.25 12h1.5A9.75 9.75 0 0 0 12 2.25v1.5Zm-3.6 9h7.2v-1.5H8.4v1.5Zm7.73-1.28-3.6-3.6-1.06 1.06 3.6 3.6 1.06-1.06Zm-1.06 0-3.6 3.6 1.06 1.06 3.6-3.6-1.06-1.06Z"/>
</svg>
