<svg xmlns="http://www.w3.org/2000/svg" width="24" height="24" fill="none" viewBox="0 0 24 24">
  <path fill="color(display-p3 .7686 .8941 .3373)" d="M21 19a2 2 0 1 1-4 0 2 2 0 0 1 4 0Z"/>
  <path fill="#000" d="M12.799 11.888a.935.935 0 1 1-1.87 0 .935.935 0 0 1 1.87 0Z"/>
  <path stroke="#000" stroke-width="1.5" d="M20.096 3.44c1.58 1.53-.855 6.603-5.437 11.33-4.582 4.728-9.576 7.32-11.155 5.79-1.579-1.53.855-6.603 5.437-11.33 4.582-4.728 9.576-7.32 11.155-5.79Z"/>
  <path stroke="#000" stroke-width="1.5" d="M3.46 3.484c1.555-1.555 6.59.959 11.244 5.614 4.656 4.656 7.17 9.69 5.615 11.245-1.555 1.554-6.59-.96-11.245-5.614C4.42 10.073 1.905 5.039 3.46 3.484Z"/>
  <path stroke="#000" stroke-width="1.5" d="M12.799 11.888a.935.935 0 1 1-1.87 0 .935.935 0 0 1 1.87 0Z"/>
</svg>
