<svg xmlns="http://www.w3.org/2000/svg" width="24" height="24" fill="none" viewBox="0 0 24 24">
  <circle cx="16.5" cy="16" r="2" fill="color(display-p3 .7686 .8941 .3373)"/>
  <path fill="#000" d="M5.5 4v-.75a.75.75 0 0 0-.75.75h.75Zm0 16h-.75c0 .414.336.75.75.75V20Zm0-15.25h7v-1.5h-7v1.5Zm7 6.5h-7v1.5h7v-1.5ZM6.25 12V4h-1.5v8h1.5Zm9.5-4a3.25 3.25 0 0 1-3.25 3.25v1.5A4.75 4.75 0 0 0 17.25 8h-1.5ZM12.5 4.75A3.25 3.25 0 0 1 15.75 8h1.5a4.75 4.75 0 0 0-4.75-4.75v1.5Zm-7 8h9v-1.5h-9v1.5Zm9 6.5h-9v1.5h9v-1.5ZM6.25 20v-8h-1.5v8h1.5Zm11.5-4a3.25 3.25 0 0 1-3.25 3.25v1.5A4.75 4.75 0 0 0 19.25 16h-1.5Zm-3.25-3.25A3.25 3.25 0 0 1 17.75 16h1.5a4.75 4.75 0 0 0-4.75-4.75v1.5Z"/>
</svg>
