<svg xmlns="http://www.w3.org/2000/svg" width="24" height="24" fill="none" viewBox="0 0 24 24">
  <path fill="color(display-p3 .7686 .8941 .3373)" d="M20 10.437a2 2 0 1 1-4 0 2 2 0 0 1 4 0Z"/>
  <path fill="#000" d="M4 12v-.75h-.75V12H4Zm16 0h.75v-.75H20V12ZM5.778 19.2v-.75a.75.75 0 0 0-.75.75h.75Zm0 1.8h-.75c0 .414.336.75.75.75V21Zm3.11 0v.75a.75.75 0 0 0 .75-.75h-.75Zm0-1.8h.75a.75.75 0 0 0-.75-.75v.75Zm6.223 0v-.75a.75.75 0 0 0-.75.75h.75Zm0 1.8h-.75c0 .414.336.75.75.75V21Zm3.111 0v.75a.75.75 0 0 0 .75-.75h-.75Zm0-1.8h.75a.75.75 0 0 0-.75-.75v.75ZM6.667 14.4a.75.75 0 0 0 0 1.5v-1.5Zm1.777 1.5a.75.75 0 0 0 0-1.5v1.5Zm7.112-1.5a.75.75 0 1 0 0 1.5v-1.5Zm1.777 1.5a.75.75 0 0 0 0-1.5v1.5ZM4 6.15h-.75c0 .414.336.75.75.75v-.75Zm16 0v.75a.75.75 0 0 0 .75-.75H20Zm-16 6.6h16v-1.5H4v1.5ZM19.25 12v4.5h1.5V12h-1.5Zm-1.917 6.45H6.667v1.5h10.666v-1.5ZM4.75 16.5V12h-1.5v4.5h1.5Zm1.917 1.95c-1.05 0-1.917-.864-1.917-1.95h-1.5c0 1.897 1.52 3.45 3.417 3.45v-1.5ZM19.25 16.5c0 1.086-.867 1.95-1.917 1.95v1.5c1.896 0 3.417-1.553 3.417-3.45h-1.5ZM6.667 3.75h10.666v-1.5H6.667v1.5ZM19.25 5.7v10.8h1.5V5.7h-1.5ZM4.75 16.5V5.7h-1.5v10.8h1.5ZM17.333 3.75c1.05 0 1.917.864 1.917 1.95h1.5c0-1.897-1.52-3.45-3.417-3.45v1.5ZM6.667 2.25C4.77 2.25 3.25 3.803 3.25 5.7h1.5c0-1.086.867-1.95 1.917-1.95v-1.5ZM5.027 19.2V21h1.5v-1.8h-1.5Zm.75 2.55H8.89v-1.5H5.778v1.5ZM9.64 21v-1.8h-1.5V21h1.5Zm-.75-2.55H5.778v1.5h3.11v-1.5Zm5.472.75V21h1.5v-1.8h-1.5Zm.75 2.55h3.111v-1.5h-3.11v1.5Zm3.861-.75v-1.8h-1.5V21h1.5Zm-.75-2.55h-3.11v1.5h3.11v-1.5ZM6.667 15.9h1.777v-1.5H6.667v1.5Zm8.889 0h1.777v-1.5h-1.777v1.5ZM19.25 12v3.6h1.5V12h-1.5Zm-14.5 3.6V12h-1.5v3.6h1.5ZM4 6.9h16V5.4H4v1.5Zm16.75-.75V5.7h-1.5v.45h1.5ZM3.25 5.7v.45h1.5V5.7h-1.5Z"/>
</svg>
