<svg xmlns="http://www.w3.org/2000/svg" width="24" height="24" fill="none" viewBox="0 0 24 24">
  <path fill="color(display-p3 .7686 .8941 .3373)" d="M13 15a2 2 0 1 1-4 0 2 2 0 0 1 4 0Z"/>
  <path fill="#000" d="M20 10v.75h.75V10H20ZM4 10h-.75v.75H4V10Zm4.75-7a.75.75 0 0 0-1.5 0h1.5Zm-1.5 4a.75.75 0 0 0 1.5 0h-1.5Zm9.5-4a.75.75 0 0 0-1.5 0h1.5Zm-1.5 4a.75.75 0 0 0 1.5 0h-1.5Zm-4.996 6.12a.75.75 0 1 0 .635 1.36l-.635-1.36Zm2.032-.12h.75a.75.75 0 0 0-1.067-.68l.317.68ZM11 16.25a.75.75 0 0 0 0 1.5v-1.5Zm2.571 1.5a.75.75 0 0 0 0-1.5v1.5ZM7 5.75h10v-1.5H7v1.5ZM19.25 8v10h1.5V8h-1.5ZM17 20.25H7v1.5h10v-1.5ZM4.75 18V8h-1.5v10h1.5ZM7 20.25A2.25 2.25 0 0 1 4.75 18h-1.5A3.75 3.75 0 0 0 7 21.75v-1.5ZM19.25 18A2.25 2.25 0 0 1 17 20.25v1.5A3.75 3.75 0 0 0 20.75 18h-1.5ZM17 5.75A2.25 2.25 0 0 1 19.25 8h1.5A3.75 3.75 0 0 0 17 4.25v1.5ZM7 4.25A3.75 3.75 0 0 0 3.25 8h1.5A2.25 2.25 0 0 1 7 5.75v-1.5ZM19.25 8v2h1.5V8h-1.5ZM20 9.25H4v1.5h16v-1.5ZM4.75 10V8h-1.5v2h1.5Zm2.5-7v4h1.5V3h-1.5Zm8 0v4h1.5V3h-1.5Zm-4.361 11.48 1.714-.8-.634-1.36-1.715.8.635 1.36Zm.647-1.48v4h1.5v-4h-1.5Zm.75 3.25H11v1.5h1.286v-1.5Zm0 1.5h1.285v-1.5h-1.285v1.5Z"/>
</svg>
