<svg xmlns="http://www.w3.org/2000/svg" width="24" height="24" fill="none" viewBox="0 0 24 24">
  <path fill="color(display-p3 .7686 .8941 .3373)" d="M18 18a2 2 0 1 1-4 0 2 2 0 0 1 4 0Z"/>
  <path fill="#000" d="M20 10v.75h.75V10H20ZM4 10h-.75v.75H4V10Zm8 11.75a.75.75 0 0 0 0-1.5v1.5ZM19.25 13a.75.75 0 0 0 1.5 0h-1.5Zm-2.5-10a.75.75 0 0 0-1.5 0h1.5Zm-1.5 4a.75.75 0 0 0 1.5 0h-1.5Zm-6.5-4a.75.75 0 0 0-1.5 0h1.5Zm-1.5 4a.75.75 0 0 0 1.5 0h-1.5Zm7.27 10.682a.75.75 0 1 0-1.04 1.08l1.04-1.08ZM15.846 20l-.52.54c.29.28.75.28 1.04 0l-.52-.54Zm4.674-3.46a.75.75 0 1 0-1.04-1.08l1.04 1.08ZM7 5.75h10v-1.5H7v1.5ZM19.25 8v2h1.5V8h-1.5ZM20 9.25H4v1.5h16v-1.5ZM4.75 10V8h-1.5v2h1.5ZM17 5.75A2.25 2.25 0 0 1 19.25 8h1.5A3.75 3.75 0 0 0 17 4.25v1.5ZM7 4.25A3.75 3.75 0 0 0 3.25 8h1.5A2.25 2.25 0 0 1 7 5.75v-1.5ZM4.75 18V8h-1.5v10h1.5ZM7 21.75h5v-1.5H7v1.5ZM19.25 8v5h1.5V8h-1.5Zm-16 10A3.75 3.75 0 0 0 7 21.75v-1.5A2.25 2.25 0 0 1 4.75 18h-1.5Zm12-15v4h1.5V3h-1.5Zm-8 0v4h1.5V3h-1.5Zm6.23 15.762 1.846 1.778 1.04-1.08-1.846-1.778-1.04 1.08Zm2.886 1.778 4.154-4-1.04-1.08-4.154 4 1.04 1.08Z"/>
</svg>
