<svg xmlns="http://www.w3.org/2000/svg" width="24" height="24" fill="none" viewBox="0 0 24 24">
  <path fill="color(display-p3 .7686 .8941 .3373)" d="M10 12a2 2 0 1 0 4 0 2 2 0 0 0-4 0Z"/>
  <path stroke="#000" stroke-linecap="round" stroke-linejoin="round" stroke-width="1.5" d="M8 5a1 1 0 0 0-1-1H6a2 2 0 0 0-2 2v13a3 3 0 0 0 3 3h10a3 3 0 0 0 3-3V6a2 2 0 0 0-2-2h-1a1 1 0 0 0-1 1M8 5a1 1 0 0 0 1 1h6a1 1 0 0 0 1-1M8 5V3a1 1 0 0 1 1-1h6a1 1 0 0 1 1 1v2m-6.5 7 2.5 2.5m0 0 2.5 2.5M12 14.5l2.5-2.5M12 14.5 9.5 17"/>
</svg>
