<svg xmlns="http://www.w3.org/2000/svg" width="24" height="24" fill="none" viewBox="0 0 24 24">
  <circle cx="14" cy="13" r="2" fill="color(display-p3 .7686 .8941 .3373)"/>
  <path fill="#000" d="M12.75 9a.75.75 0 0 0-1.5 0h1.5ZM12 14h-.75c0 .25.125.485.334.624L12 14Zm2.584 2.624a.75.75 0 1 0 .832-1.248l-.832 1.248ZM14 3.75a.75.75 0 0 0 0-1.5v1.5Zm-4-1.5a.75.75 0 0 0 0 1.5v-1.5Zm8.53.22a.75.75 0 1 0-1.06 1.06l1.06-1.06Zm.94 3.06a.75.75 0 1 0 1.06-1.06l-1.06 1.06Zm-12.94-2a.75.75 0 0 0-1.06-1.06l1.06 1.06Zm-3.06.94a.75.75 0 0 0 1.06 1.06L3.47 4.47ZM19.25 13A7.25 7.25 0 0 1 12 20.25v1.5A8.75 8.75 0 0 0 20.75 13h-1.5ZM12 20.25A7.25 7.25 0 0 1 4.75 13h-1.5A8.75 8.75 0 0 0 12 21.75v-1.5ZM4.75 13A7.25 7.25 0 0 1 12 5.75v-1.5A8.75 8.75 0 0 0 3.25 13h1.5ZM12 5.75A7.25 7.25 0 0 1 19.25 13h1.5A8.75 8.75 0 0 0 12 4.25v1.5ZM11.25 9v5h1.5V9h-1.5Zm.334 5.624 3 2 .832-1.248-3-2-.832 1.248ZM12.75 5V3h-1.5v2h1.5Zm4.72-1.47 2 2 1.06-1.06-2-2-1.06 1.06Zm-12-1.06-2 2 1.06 1.06 2-2-1.06-1.06ZM12 3.75h2v-1.5h-2v1.5Zm0-1.5h-2v1.5h2v-1.5Z"/>
</svg>
