<svg xmlns="http://www.w3.org/2000/svg" width="24" height="24" fill="none" viewBox="0 0 24 24">
  <path fill="color(display-p3 .7686 .8941 .3373)" d="M14 5.25a2 2 0 1 1-4 0 2 2 0 0 1 4 0Z"/>
  <path stroke="#000" stroke-linecap="round" stroke-width="1.5" d="m8 18.25-1 2.5m5-2.5-1 2.5m5-2.5-1 2.5m1.91-5.41c2.258 0 4.09-1.729 4.09-3.863s-1.832-3.863-4.09-3.863a.082.082 0 0 1-.081-.067C16.41 5.387 14.408 3.75 12 3.75S7.59 5.387 7.171 7.547a.082.082 0 0 1-.08.067C4.83 7.614 3 9.344 3 11.477c0 2.134 1.832 3.864 4.09 3.864h9.82Z"/>
</svg>
