<svg xmlns="http://www.w3.org/2000/svg" width="24" height="24" fill="none" viewBox="0 0 24 24">
  <circle cx="14" cy="10" r="2" fill="color(display-p3 .7686 .8941 .3373)"/>
  <path fill="#000" d="M11.25 4.8a.75.75 0 0 0 1.5 0h-1.5Zm5.17 1.72a.75.75 0 0 0 1.06 1.06l-1.06-1.06Zm2.41-.29a.75.75 0 0 0-1.06-1.06l1.06 1.06Zm.37 5.02a.75.75 0 0 0 0 1.5v-1.5Zm-1.72 5.17a.75.75 0 1 0-1.06 1.06l1.06-1.06Zm.29 2.41a.75.75 0 1 0 1.06-1.06l-1.06 1.06Zm-5.02.37a.75.75 0 0 0-1.5 0h1.5Zm-5.17-1.72a.75.75 0 1 0-1.06-1.06l1.06 1.06Zm-2.41.29a.75.75 0 1 0 1.06 1.06l-1.06-1.06Zm-.37-5.02a.75.75 0 0 0 0-1.5v1.5Zm1.72-5.17a.75.75 0 0 0 1.06-1.06L6.52 7.58Zm-.29-2.41a.75.75 0 0 0-1.06 1.06l1.06-1.06ZM12 8.4l.703-.26a.75.75 0 0 0-1.406 0L12 8.4Zm.972 2.628-.703.26a.75.75 0 0 0 .443.443l.26-.703ZM15.6 12l.26.703a.75.75 0 0 0 0-1.406L15.6 12Zm-2.628.972-.26-.703a.75.75 0 0 0-.443.443l.703.26ZM12 15.6l-.703.26a.75.75 0 0 0 1.406 0L12 15.6Zm-.972-2.628.703-.26a.75.75 0 0 0-.443-.443l-.26.703ZM8.4 12l-.26-.703a.75.75 0 0 0 0 1.406L8.4 12Zm2.628-.972.26.703a.75.75 0 0 0 .443-.443l-.703-.26ZM12.75 4.8V3h-1.5v1.8h1.5Zm7.5 7.2A8.25 8.25 0 0 1 12 20.25v1.5A9.75 9.75 0 0 0 21.75 12h-1.5ZM12 20.25A8.25 8.25 0 0 1 3.75 12h-1.5A9.75 9.75 0 0 0 12 21.75v-1.5ZM3.75 12A8.25 8.25 0 0 1 12 3.75v-1.5A9.75 9.75 0 0 0 2.25 12h1.5ZM12 3.75A8.25 8.25 0 0 1 20.25 12h1.5A9.75 9.75 0 0 0 12 2.25v1.5Zm5.48 3.83 1.35-1.35-1.06-1.06-1.35 1.35 1.06 1.06Zm1.72 5.17H21v-1.5h-1.8v1.5Zm-2.78 4.73 1.35 1.35 1.06-1.06-1.35-1.35-1.06 1.06Zm-5.17 1.72V21h1.5v-1.8h-1.5Zm-4.73-2.78-1.35 1.35 1.06 1.06 1.35-1.35-1.06-1.06ZM4.8 11.25H3v1.5h1.8v-1.5Zm2.78-4.73L6.23 5.17 5.17 6.23l1.35 1.35 1.06-1.06Zm3.717 2.14.972 2.628 1.407-.52-.973-2.628-1.406.52Zm1.415 3.071 2.628.972.52-1.406-2.627-.973-.521 1.407Zm2.628-.434-2.628.972.52 1.407 2.628-.973-.52-1.406Zm-3.071 1.415-.972 2.628 1.406.52.973-2.627-1.407-.521Zm.434 2.628-.972-2.628-1.407.52.973 2.628 1.406-.52Zm-1.415-3.071-2.628-.972-.52 1.406 2.627.973.521-1.407Zm-2.628.434 2.628-.972-.52-1.407-2.628.973.52 1.406Zm3.071-1.415.972-2.628-1.406-.52-.973 2.627 1.407.521Z"/>
</svg>
