<svg xmlns="http://www.w3.org/2000/svg" width="24" height="24" fill="none" viewBox="0 0 24 24">
  <path fill="color(display-p3 .7686 .8941 .3373)" d="M20 20a2 2 0 1 1-4 0 2 2 0 0 1 4 0Z"/>
  <path stroke="#000" stroke-linecap="round" stroke-linejoin="round" stroke-width="1.5" d="M4 19V5a3 3 0 0 1 3-3h5.757a3 3 0 0 1 2.122.879L19.12 7.12A3 3 0 0 1 20 9.243V19a3 3 0 0 1-3 3H7a3 3 0 0 1-3-3Z"/>
  <path stroke="#000" stroke-linecap="round" stroke-linejoin="round" stroke-width="1.5" d="M14 8V3.207a.5.5 0 0 1 .854-.353l4.292 4.292a.5.5 0 0 1-.353.854H14Z"/>
</svg>
