<svg xmlns="http://www.w3.org/2000/svg" width="24" height="24" fill="none" viewBox="0 0 24 24">
  <path fill="#000" d="M5.5 7.005a.75.75 0 0 0-1.5 0h1.5Zm-1.5.01a.75.75 0 0 0 1.5 0H4Zm1.5 4.99a.75.75 0 0 0-1.5 0h1.5Zm-1.5.01a.75.75 0 0 0 1.5 0H4Zm1.5 4.98a.75.75 0 0 0-1.5 0h1.5Zm-1.5.01a.75.75 0 0 0 1.5 0H4Zm3.75-10.75a.75.75 0 0 0 0 1.5v-1.5Zm12 1.5a.75.75 0 0 0 0-1.5v1.5Zm-12 3.5a.75.75 0 0 0 0 1.5v-1.5Zm12 1.5a.75.75 0 0 0 0-1.5v1.5Zm-12 3.5a.75.75 0 0 0 0 1.5v-1.5Zm12 1.5a.75.75 0 0 0 0-1.5v1.5ZM4 7.005v.01h1.5v-.01H4Zm.75-.25a.25.25 0 0 1 .25.25H3.5c0 .69.56 1.25 1.25 1.25v-1.5Zm.25.25a.25.25 0 0 1-.25.25v-1.5c-.69 0-1.25.56-1.25 1.25H5Zm-.25.25a.25.25 0 0 1-.25-.25H6c0-.69-.56-1.25-1.25-1.25v1.5Zm-.25-.25a.25.25 0 0 1 .25-.25v1.5c.69 0 1.25-.56 1.25-1.25H4.5Zm-.5 5v.01h1.5v-.01H4Zm.75-.25a.25.25 0 0 1 .25.25H3.5c0 .69.56 1.25 1.25 1.25v-1.5Zm.25.25a.25.25 0 0 1-.25.25v-1.5c-.69 0-1.25.56-1.25 1.25H5Zm-.25.25a.25.25 0 0 1-.25-.25H6c0-.69-.56-1.25-1.25-1.25v1.5Zm-.25-.25a.25.25 0 0 1 .25-.25v1.5c.69 0 1.25-.56 1.25-1.25H4.5Zm-.5 4.99v.01h1.5v-.01H4Zm.75-.25a.25.25 0 0 1 .25.25H3.5c0 .69.56 1.25 1.25 1.25v-1.5Zm.25.25a.25.25 0 0 1-.25.25v-1.5c-.69 0-1.25.56-1.25 1.25H5Zm-.25.25a.25.25 0 0 1-.25-.25H6c0-.69-.56-1.25-1.25-1.25v1.5Zm-.25-.25a.25.25 0 0 1 .25-.25v1.5c.69 0 1.25-.56 1.25-1.25H4.5Zm3.25-9.24h12v-1.5h-12v1.5Zm0 5h12v-1.5h-12v1.5Zm0 5h12v-1.5h-12v1.5Z"/>
</svg>
