<svg xmlns="http://www.w3.org/2000/svg" width="24" height="24" fill="none" viewBox="0 0 24 24">
  <circle cx="12" cy="13" r="2" fill="color(display-p3 .7686 .8941 .3373)"/>
  <path fill="#000" d="m4.17 8.492.745.082-.745-.082Zm1.728-2.155-.24-.711.24.71Zm1.241.374a.75.75 0 1 0-.478-1.422l.478 1.422ZM19.83 8.492l-.745.082.745-.082Zm-1.728-2.155.24-.711-.24.71Zm-.763-1.048a.75.75 0 0 0-.478 1.422l.478-1.422ZM9.55 14.571c0 1.486-1.192 2.679-2.65 2.679v1.5c2.298 0 4.15-1.877 4.15-4.179h-1.5ZM6.9 17.25c-1.458 0-2.65-1.193-2.65-2.679h-1.5c0 2.302 1.852 4.179 4.15 4.179v-1.5Zm-2.65-2.679c0-1.485 1.192-2.678 2.65-2.678v-1.5c-2.298 0-4.15 1.877-4.15 4.178h1.5Zm2.65-2.678c1.458 0 2.65 1.193 2.65 2.678h1.5c0-2.301-1.852-4.178-4.15-4.178v1.5Zm12.85 2.678c0 1.486-1.192 2.679-2.65 2.679v1.5c2.298 0 4.15-1.877 4.15-4.179h-1.5ZM17.1 17.25c-1.458 0-2.65-1.193-2.65-2.679h-1.5c0 2.302 1.852 4.179 4.15 4.179v-1.5Zm-2.65-2.679c0-1.485 1.192-2.678 2.65-2.678v-1.5c-2.298 0-4.15 1.877-4.15 4.178h1.5Zm2.65-2.678c1.458 0 2.65 1.193 2.65 2.678h1.5c0-2.301-1.852-4.178-4.15-4.178v1.5Zm-12.855 2.76.67-6.079-1.49-.164-.67 6.08 1.49.164Zm1.892-7.605 1.002-.337-.478-1.422-1.002.337.478 1.422ZM4.915 8.575a1.817 1.817 0 0 1 1.222-1.527l-.478-1.422A3.317 3.317 0 0 0 3.424 8.41l1.491.165Zm16.33 5.914-.67-6.079-1.49.165.67 6.079 1.49-.165Zm-2.904-8.863-1.002-.337-.478 1.422 1.002.337.478-1.422Zm2.235 2.784a3.317 3.317 0 0 0-2.235-2.784l-.478 1.422a1.817 1.817 0 0 1 1.222 1.527l1.49-.165Zm-9.858 7.162a.63.63 0 0 1 .152-.085 1.03 1.03 0 0 1 .296-.036c.388-.01 1.071.051 2.43.242l.208-1.486c-1.341-.188-2.145-.27-2.676-.256-.277.007-.516.04-.736.114-.225.076-.388.18-.51.263l.836 1.245Z"/>
</svg>
