<svg xmlns="http://www.w3.org/2000/svg" width="24" height="24" fill="none" viewBox="0 0 24 24">
  <path fill="color(display-p3 .7686 .8941 .3373)" d="M16.5 15.5a2 2 0 1 1-4 0 2 2 0 0 1 4 0Z"/>
  <path fill="#000" d="M15.64 9.656a.75.75 0 0 0 0-1.5v1.5Zm-.011-1.5a.75.75 0 0 0 0 1.5v-1.5Zm-7.004 1.5a.75.75 0 0 0 0-1.5v1.5Zm-.011-1.5a.75.75 0 1 0 0 1.5v-1.5ZM16.5 13.8h.75a.75.75 0 0 0-.75-.75v.75ZM12 18.3v-.75.75Zm-4.5-4.5v-.75a.75.75 0 0 0-.75.75h.75Zm8.14-5.644h-.011v1.5h.011v-1.5Zm.188.75a.188.188 0 0 1-.188.188v-1.5c-.725 0-1.312.587-1.312 1.312h1.5Zm-.188.188a.187.187 0 0 1-.187-.188h1.5c0-.725-.588-1.312-1.313-1.312v1.5Zm-.187-.188c0-.103.084-.187.187-.187v1.5c.725 0 1.313-.588 1.313-1.313h-1.5Zm.187-.187c.104 0 .188.084.188.187h-1.5c0 .725.587 1.313 1.312 1.313v-1.5Zm-7.015-.563h-.011v1.5h.011v-1.5Zm.188.75a.188.188 0 0 1-.188.188v-1.5c-.725 0-1.312.587-1.312 1.312h1.5Zm-.188.188a.187.187 0 0 1-.187-.188h1.5c0-.725-.588-1.312-1.313-1.312v1.5Zm-.187-.188c0-.103.083-.187.187-.187v1.5c.725 0 1.313-.588 1.313-1.313h-1.5Zm.187-.187c.104 0 .188.084.188.187h-1.5c0 .725.587 1.313 1.312 1.313v-1.5ZM20.25 12A8.25 8.25 0 0 1 12 20.25v1.5A9.75 9.75 0 0 0 21.75 12h-1.5ZM12 20.25A8.25 8.25 0 0 1 3.75 12h-1.5A9.75 9.75 0 0 0 12 21.75v-1.5ZM3.75 12A8.25 8.25 0 0 1 12 3.75v-1.5A9.75 9.75 0 0 0 2.25 12h1.5ZM12 3.75A8.25 8.25 0 0 1 20.25 12h1.5A9.75 9.75 0 0 0 12 2.25v1.5Zm3.75 10.05c0 .492-.097.98-.286 1.435l1.386.574c.264-.637.4-1.32.4-2.009h-1.5Zm-.286 1.435a3.75 3.75 0 0 1-.812 1.217l1.06 1.06a5.252 5.252 0 0 0 1.138-1.703l-1.386-.574Zm-.812 1.217a3.75 3.75 0 0 1-1.217.813l.574 1.385a5.252 5.252 0 0 0 1.703-1.138l-1.06-1.06Zm-1.217.813A3.75 3.75 0 0 1 12 17.55v1.5c.69 0 1.372-.136 2.01-.4l-.575-1.385ZM12 17.55a3.75 3.75 0 0 1-1.435-.285L9.99 18.65c.637.264 1.32.4 2.009.4v-1.5Zm-1.435-.285a3.75 3.75 0 0 1-1.217-.813l-1.06 1.06A5.251 5.251 0 0 0 9.99 18.65l.574-1.385Zm-1.217-.813a3.752 3.752 0 0 1-.813-1.217l-1.385.574a5.25 5.25 0 0 0 1.138 1.703l1.06-1.06Zm-.813-1.217A3.75 3.75 0 0 1 8.25 13.8h-1.5c0 .69.136 1.372.4 2.01l1.385-.575ZM7.5 14.55h9v-1.5h-9v1.5Z"/>
</svg>
