<svg xmlns="http://www.w3.org/2000/svg" width="24" height="24" fill="none" viewBox="0 0 24 24">
  <path fill="color(display-p3 .7686 .8941 .3373)" d="M10.287 12a2 2 0 1 1-4 0 2 2 0 0 1 4 0Zm11 0a2 2 0 1 1-4 0 2 2 0 0 1 4 0Z"/>
  <path stroke="#000" stroke-linejoin="round" stroke-width="1.5" d="M2.537 16.881V7.119a1 1 0 0 1 1.635-.772l5.927 4.881a1 1 0 0 1 0 1.544l-5.927 4.88a1 1 0 0 1-1.635-.771Zm11 0V7.119a1 1 0 0 1 1.635-.772l5.927 4.881a1 1 0 0 1 0 1.544l-5.927 4.88a1 1 0 0 1-1.635-.771Z"/>
</svg>
