<svg xmlns="http://www.w3.org/2000/svg" width="24" height="24" fill="none" viewBox="0 0 24 24">
  <path fill="color(display-p3 .7686 .8941 .3373)" d="M7 12a2 2 0 1 1-4 0 2 2 0 0 1 4 0Zm11 0a2 2 0 1 1-4 0 2 2 0 0 1 4 0Z"/>
  <path stroke="#000" stroke-linecap="round" stroke-linejoin="round" stroke-width="1.5" d="M21.463 16.88V7.12a1 1 0 0 0-1.607-.795l-5.926 4.532a1 1 0 0 0-.054 1.544l5.926 5.229c.645.57 1.661.111 1.661-.75Zm-11 0V7.12a1 1 0 0 0-1.607-.795L2.93 10.857a1 1 0 0 0-.055 1.544l5.926 5.229c.646.57 1.662.111 1.662-.75Z"/>
</svg>
