<svg xmlns="http://www.w3.org/2000/svg" width="24" height="24" fill="none" viewBox="0 0 24 24">
  <path fill="color(display-p3 .7686 .8941 .3373)" d="M14.87 12.801a2 2 0 1 1-4 0 2 2 0 0 1 4 0Z"/>
  <path fill="#000" d="m18.231 7.61.538-.524-.538.523ZM14.52 3.79l.538-.522-.538.523Zm-.77 4.61H13c0 .414.336.75.75.75V8.4Zm4.503-.768-.538.523.538-.523Zm-3.756-3.864.538-.523-.538.523Zm-2.475 7.737-.538.523.538.553.538-.553-.538-.523Zm.503-.517.538.522-.538-.522Zm-.503 4.657-.538.523.538.553.538-.553-.538-.523Zm-2.516-2.587.538-.523-.538.523Zm0-2.07.538.522-.538-.522Zm2.013 0-.538.522.538-.522ZM4.25 5.7v12.6h1.5V5.7h-1.5Zm3.375 16.05h8.75v-1.5h-8.75v1.5ZM19.75 18.3V9.518h-1.5V18.3h1.5Zm-.981-11.214-3.712-3.818-1.076 1.046 3.712 3.818 1.076-1.046ZM12.663 2.25H7.625v1.5h5.038v-1.5Zm2.394 1.018a3.339 3.339 0 0 0-2.394-1.018v1.5c.49 0 .965.2 1.318.564l1.076-1.046Zm4.693 6.25a3.49 3.49 0 0 0-.981-2.432l-1.076 1.046c.354.364.557.862.557 1.386h1.5ZM16.375 21.75c1.884 0 3.375-1.565 3.375-3.45h-1.5c0 1.097-.86 1.95-1.875 1.95v1.5ZM4.25 18.3c0 1.885 1.491 3.45 3.375 3.45v-1.5c-1.016 0-1.875-.853-1.875-1.95h-1.5Zm1.5-12.6c0-1.097.86-1.95 1.875-1.95v-1.5C5.741 2.25 4.25 3.815 4.25 5.7h1.5ZM13 4.086V8.4h1.5V4.086H13Zm.75 5.064h4.194v-1.5H13.75v1.5Zm5.04-2.041-3.755-3.864-1.076 1.046 3.756 3.864 1.076-1.046Zm-.846 2.041c1.096 0 1.554-1.313.847-2.041l-1.076 1.046a.297.297 0 0 1-.063-.313.319.319 0 0 1 .292-.192v1.5ZM14.5 4.086c0 .12-.08.23-.186.275a.328.328 0 0 1-.355-.07l1.076-1.046C14.258 2.447 13 3.058 13 4.086h1.5Zm-1.94 7.942.503-.518-1.076-1.045-.503.517 1.076 1.046Zm.503-.518a.645.645 0 0 1 .937 0l1.075-1.045a2.145 2.145 0 0 0-3.088 0l1.076 1.045Zm.937 0a.744.744 0 0 1 0 1.025l1.075 1.046a2.244 2.244 0 0 0 0-3.116L14 11.51Zm0 1.025-2.516 2.588 1.076 1.045 2.515-2.587L14 12.535Zm-3.956 0a.743.743 0 0 1 0-1.025L8.97 10.465a2.243 2.243 0 0 0 0 3.116l1.075-1.046Zm0-1.025a.645.645 0 0 1 .937 0l1.076-1.045a2.145 2.145 0 0 0-3.088 0l1.075 1.045Zm.937 0 .503.518 1.076-1.046-.503-.517-1.076 1.045Zm1.579 3.613-2.516-2.588L8.97 13.58l2.515 2.587 1.076-1.045Z"/>
</svg>
