<svg xmlns="http://www.w3.org/2000/svg" width="24" height="24" fill="none" viewBox="0 0 24 24">
  <path fill="color(display-p3 .7686 .8941 .3373)" d="M14.026 14.678a2 2 0 1 1-4 0 2 2 0 0 1 4 0Z"/>
  <path stroke="#000" stroke-linecap="round" stroke-linejoin="round" stroke-width="1.5" d="M14.5 12 12 14.5m0 0L9.5 17m2.5-2.5L9.5 12m2.5 2.5 2.5 2.5M4 5v14a3 3 0 0 0 3 3h10a3 3 0 0 0 3-3V9.243a3 3 0 0 0-.879-2.122L14.88 2.88A3 3 0 0 0 12.757 2H7a3 3 0 0 0-3 3Zm10-1.793V8h4.793a.5.5 0 0 0 .353-.854l-4.292-4.292a.5.5 0 0 0-.854.353Z"/>
</svg>
