<svg xmlns="http://www.w3.org/2000/svg" width="24" height="24" fill="none" viewBox="0 0 24 24">
  <circle cx="12.498" cy="10" r="2" fill="color(display-p3 .7686 .8941 .3373)"/>
  <path stroke="#000" stroke-linecap="round" stroke-linejoin="round" stroke-width="1.5" d="M17.803 7.57a7.074 7.074 0 0 1 .982 4.44v.888a5.306 5.306 0 0 0 .713 2.663m-11.42-4.44c0-.941.376-1.844 1.045-2.51a3.578 3.578 0 0 1 5.047 0 3.542 3.542 0 0 1 1.046 2.51v.889c0 1.92.626 3.79 1.784 5.327m-5.353-6.215v1.776A12.386 12.386 0 0 0 13.877 20m-5.799-5.327A15.922 15.922 0 0 0 9.684 20m-4.226-2.663c-.602-2.015-1.019-3.226-.949-5.327v-.888a7.075 7.075 0 0 1 .95-3.558 7.12 7.12 0 0 1 2.61-2.608 7.165 7.165 0 0 1 7.147-.004"/>
</svg>
