<svg xmlns="http://www.w3.org/2000/svg" width="24" height="24" fill="none" viewBox="0 0 24 24">
  <path fill="color(display-p3 .7686 .8941 .3373)" d="M13.79 15.895a1.895 1.895 0 1 1-3.79 0 1.895 1.895 0 0 1 3.79 0Z"/>
  <path fill="#000" d="M3 3v-.75a.75.75 0 0 0-.624 1.166L3 3Zm5.4 0 .651-.372A.75.75 0 0 0 8.4 2.25V3ZM12 9.3l-.651.372a.75.75 0 0 0 1.302 0L12 9.3ZM15.6 3v-.75a.75.75 0 0 0-.651.378L15.6 3ZM21 3l.624.416A.75.75 0 0 0 21 2.25V3Zm-9 10.8h.75a.75.75 0 0 0-1.085-.67l.335.67Zm-.9 2.85a.75.75 0 0 0 0 1.5v-1.5Zm1.8 1.5a.75.75 0 0 0 0-1.5v1.5Zm-2.135-4.57a.75.75 0 1 0 .67 1.34l-.67-1.34Zm5.885 2.02A4.65 4.65 0 0 1 12 20.25v1.5a6.15 6.15 0 0 0 6.15-6.15h-1.5ZM12 20.25a4.65 4.65 0 0 1-4.65-4.65h-1.5A6.15 6.15 0 0 0 12 21.75v-1.5ZM7.35 15.6A4.65 4.65 0 0 1 12 10.95v-1.5a6.15 6.15 0 0 0-6.15 6.15h1.5ZM12 10.95a4.65 4.65 0 0 1 4.65 4.65h1.5A6.15 6.15 0 0 0 12 9.45v1.5Zm-2.976-.266-5.4-8.1-1.248.832 5.4 8.1 1.248-.832ZM3 3.75h5.4v-1.5H3v1.5Zm4.749-.378 3.6 6.3 1.302-.744-3.6-6.3-1.302.744Zm4.902 6.3 3.6-6.3-1.302-.744-3.6 6.3 1.302.744ZM15.6 3.75H21v-1.5h-5.4v1.5Zm4.776-1.166-5.4 8.1 1.248.832 5.4-8.1-1.248-.832ZM11.25 13.8v3.6h1.5v-3.6h-1.5Zm.75 2.85h-.9v1.5h.9v-1.5Zm0 1.5h.9v-1.5H12v1.5Zm-.335-5.02-.9.45.67 1.34.9-.45-.67-1.34Z"/>
</svg>
