<svg xmlns="http://www.w3.org/2000/svg" width="24" height="24" fill="none" viewBox="0 0 24 24">
  <path fill="color(display-p3 .7686 .8941 .3373)" d="M21 17a2 2 0 1 1-4 0 2 2 0 0 1 4 0Z"/>
  <path stroke="#000" stroke-linecap="round" stroke-linejoin="round" stroke-width="1.5" d="M8 9v2m0 0v2m0-2H6m2 0h2m5 .5v.5m2-2.5v.5M7.47 5h9.06a4 4 0 0 1 3.96 3.434l1.056 7.385A2.787 2.787 0 0 1 18.785 19H17.5a1.5 1.5 0 0 1-1.5-1.5 1.5 1.5 0 0 0-1.5-1.5h-5A1.5 1.5 0 0 0 8 17.5 1.5 1.5 0 0 1 6.5 19H5.213a2.787 2.787 0 0 1-2.759-3.18L3.51 8.433A4 4 0 0 1 7.47 5Z"/>
</svg>
