<svg xmlns="http://www.w3.org/2000/svg" width="24" height="24" fill="none" viewBox="0 0 24 24">
  <path fill="color(display-p3 .7686 .8941 .3373)" d="M16.474 12.675a2 2 0 1 1-4 0 2 2 0 0 1 4 0Z"/>
  <path fill="#000" d="m5.864 16.385.513-.547a.75.75 0 0 0-1.048.02l.535.527Zm2.651 1.343-.26.703.26-.703Zm10.537-5.093.71.242-.71-.242Zm-.408-6.41.674-.33-.008-.017-.01-.017-.656.364Zm-1.417-1.84-.534-.527a.75.75 0 0 0 .04 1.09l.494-.563ZM3.966 17.243a.75.75 0 1 0 1.068 1.053l-1.068-1.053Zm15.16-13.717a.75.75 0 0 0-1.07-1.052l1.07 1.052Zm-6.149 14.705a.75.75 0 0 0-1.5 0h1.5ZM7.682 20.25a.75.75 0 0 0 0 1.5v-1.5Zm9.09 1.5a.75.75 0 0 0 0-1.5v1.5ZM5.35 16.931c.937.88 1.96 1.15 2.905 1.5l.52-1.406c-1.095-.406-1.74-.569-2.398-1.187L5.35 16.931Zm2.905 1.5c1.115.413 2.3.597 3.486.54l-.072-1.499a7.318 7.318 0 0 1-2.893-.447l-.52 1.407Zm3.486.54a8.83 8.83 0 0 0 3.42-.872l-.652-1.35c-.89.43-1.856.676-2.84.723l.072 1.499Zm3.42-.872a8.944 8.944 0 0 0 2.82-2.143l-1.126-.991a7.444 7.444 0 0 1-2.346 1.784l.652 1.35Zm2.82-2.143a9.087 9.087 0 0 0 1.78-3.08l-1.42-.482a7.587 7.587 0 0 1-1.486 2.57l1.126.992Zm1.78-3.08a9.174 9.174 0 0 0 .47-3.535l-1.497.095a7.675 7.675 0 0 1-.392 2.958l1.42.483Zm.47-3.535a9.156 9.156 0 0 0-.913-3.446l-1.347.66c.44.898.7 1.878.764 2.88l1.497-.094Zm-.93-3.48c-.241-.435-.42-.77-.644-1.075-.236-.32-.51-.593-.935-.965l-.99 1.127c.398.35.578.538.718.728.151.206.271.43.538.912l1.312-.727ZM5.328 15.858l-1.363 1.385 1.068 1.053 1.364-1.385-1.069-1.053ZM17.762 4.911l1.363-1.385-1.069-1.052-1.363 1.384 1.069 1.053Zm-6.285 13.32V21h1.5v-2.77h-1.5Zm.75 2.019H7.682v1.5h4.545v-1.5Zm0 1.5h4.546v-1.5h-4.546v1.5Zm3.796-11.827c0 2.655-2.117 4.788-4.705 4.788v1.5c3.438 0 6.205-2.826 6.205-6.288h-1.5Zm-4.705 4.788c-2.587 0-4.704-2.133-4.704-4.788h-1.5c0 3.462 2.767 6.289 6.204 6.289v-1.5ZM6.614 9.923c0-2.655 2.117-4.788 4.704-4.788v-1.5c-3.437 0-6.204 2.826-6.204 6.288h1.5Zm4.704-4.788c2.588 0 4.705 2.133 4.705 4.788h1.5c0-3.462-2.767-6.288-6.205-6.288v1.5Z"/>
</svg>
