<svg xmlns="http://www.w3.org/2000/svg" width="24" height="24" fill="none" viewBox="0 0 24 24">
  <circle cx="16.313" cy="16.313" r="2.313" fill="color(display-p3 .7686 .8941 .3373)"/>
  <path fill="#000" d="M12.487 21.738a.75.75 0 0 0-.076-1.499l.076 1.498Zm-5.208-2.073.394-.639-.394.639Zm-3.51-4.023-.686.303.686-.303ZM5.652 5.618l.529.532-.53-.532Zm4.73-2.472.134.738-.134-.738Zm9.855 8.812a.75.75 0 0 0 1.498.084l-1.498-.084Zm.75 4.542.181.728a.75.75 0 0 0 .104-1.421l-.286.693Zm-7.645-3.15.286-.693a.75.75 0 0 0-.98.978l.694-.285ZM16.49 21l-.694.285a.75.75 0 0 0 1.421-.103L16.49 21Zm.899-3.6-.182-.728a.75.75 0 0 0-.546.546l.728.182ZM9.72 5.605l-.592.46.592-.46Zm.713.918.592-.46-.592.46Zm.213 2.997.651.372-.651-.372Zm-.56.98-.65-.372.65.372Zm-3.23 3.879.082-.746-.083.746Zm-.663-.074-.083.746.083-.746Zm-2.715-.401-.739.127.74-.127Zm3.068-8.892.455.596-.455-.596ZM5.3 14.55l-.45-.6.45.6Zm11.595-7.976-.61-.436.61.436Zm-.674.944.61.436-.61-.436Zm-.145 1.851.67-.335-.67.335Zm.883 1.77-.67.335.67-.336Zm1.386.98-.093.745.093-.745Zm2.642.331-.093.744a.75.75 0 0 0 .843-.744h-.75ZM19.068 6.3l-.576.48.576-.48Zm-6.657 13.94a8.238 8.238 0 0 1-4.738-1.214l-.787 1.277a9.738 9.738 0 0 0 5.6 1.434l-.075-1.498Zm-4.738-1.214a8.248 8.248 0 0 1-3.218-3.687l-1.372.606a9.748 9.748 0 0 0 3.803 4.358l.787-1.277Zm-3.218-3.687a8.256 8.256 0 0 1-.563-4.863l-1.474-.277a9.756 9.756 0 0 0 .665 5.746l1.372-.606Zm-.563-4.863A8.252 8.252 0 0 1 6.18 6.15L5.123 5.087a9.752 9.752 0 0 0-2.705 5.112l1.474.277ZM6.18 6.15a8.24 8.24 0 0 1 4.335-2.266l-.269-1.476a9.74 9.74 0 0 0-5.124 2.679L6.18 6.15Zm4.335-2.266a8.237 8.237 0 0 1 4.855.59l.615-1.368a9.737 9.737 0 0 0-5.739-.698l.269 1.476Zm4.855.59a8.246 8.246 0 0 1 3.666 3.24l1.282-.778a9.746 9.746 0 0 0-4.333-3.83l-.615 1.369Zm3.666 3.24c.892 1.47 1.292 2.62 1.2 4.244l1.498.084c.113-2.012-.418-3.462-1.416-5.106l-1.282.779Zm2.235 8.093-7.644-3.15-.572 1.386 7.644 3.15.572-1.386Zm-8.624-2.172 3.148 7.65 1.387-.57-3.147-7.65-1.388.57Zm4.57 7.547.898-3.6-1.455-.364-.9 3.6 1.456.364Zm.353-3.054 3.597-.9-.364-1.456-3.597.9.364 1.456ZM9.129 6.065l.713.918 1.184-.92-.713-.918-1.184.92Zm.867 3.083-.56.98 1.303.744.56-.98-1.303-.744Zm-3.057 4.485-.662-.073-.166 1.49.662.074.166-1.49Zm-2.72.144c-.428-2.498-.183-5.903 2.783-8.169l-.91-1.192C2.482 7.173 2.27 11.284 2.74 14.03l1.479-.253Zm.63.173a.456.456 0 0 1-.42.08.302.302 0 0 1-.21-.253l-1.479.254c.256 1.492 1.948 1.915 3.009 1.119l-.9-1.2Zm1.428-.39a2.01 2.01 0 0 0-1.429.39l.9 1.2a.51.51 0 0 1 .363-.1l.166-1.49Zm2.718-1.769c0 1.106-.96 1.964-2.056 1.842l-.166 1.491a3.352 3.352 0 0 0 3.722-3.333h-1.5Zm.441-1.663a3.355 3.355 0 0 0-.441 1.663h1.5c0-.322.084-.64.244-.92l-1.303-.743Zm.406-3.145c.485.624.545 1.479.154 2.165l1.302.744a3.452 3.452 0 0 0-.272-3.83l-1.184.92Zm.471-1.838c-.958-1.233-2.808-1.808-4.221-.729l.91 1.192c.593-.453 1.536-.303 2.127.457l1.184-.92Zm5.97.993-.674.944 1.221.872.674-.945-1.22-.871Zm-.88 3.567.885 1.769 1.341-.67-.884-1.77-1.341.67Zm2.848 3.159 2.642.33.186-1.488-2.642-.33-.186 1.488Zm3.485-.414c0-.79-.11-1.94-.419-3.134-.307-1.188-.823-2.477-1.672-3.496l-1.153.96c.654.786 1.096 1.841 1.373 2.911.275 1.065.371 2.088.371 2.759h1.5Zm-5.448-.976a2.548 2.548 0 0 0 1.963 1.39l.186-1.489a1.049 1.049 0 0 1-.808-.572l-1.341.67Zm-.679-4.392a2.551 2.551 0 0 0-.205 2.623l1.341-.67a1.051 1.051 0 0 1 .085-1.081l-1.22-.872Zm1.895-.073a.909.909 0 0 1 .573-.379.416.416 0 0 1 .415.15l1.153-.96a1.914 1.914 0 0 0-1.8-.672 2.406 2.406 0 0 0-1.562.99l1.221.871Z"/>
</svg>
