<svg xmlns="http://www.w3.org/2000/svg" width="24" height="24" fill="none" viewBox="0 0 24 24">
  <path fill="color(display-p3 .7686 .8941 .3373)" d="M7.5 18.937a2 2 0 1 1-4 0 2 2 0 0 1 4 0Z"/>
  <path fill="color(display-p3 .7686 .8941 .3373)" d="M7.5 18.937a2 2 0 1 1-4 0 2 2 0 0 1 4 0Zm13 0a2 2 0 1 1-4 0 2 2 0 0 1 4 0Z"/>
  <path fill="color(display-p3 .7686 .8941 .3373)" d="M20.5 18.937a2 2 0 1 1-4 0 2 2 0 0 1 4 0Z"/>
  <path stroke="#000" stroke-width="1.5" d="M21 18v-6a9 9 0 1 0-18 0v6m2.5 3A2.5 2.5 0 0 1 3 18.5v-2a2.5 2.5 0 0 1 5 0v2A2.5 2.5 0 0 1 5.5 21Zm13 0a2.5 2.5 0 0 1-2.5-2.5v-2a2.5 2.5 0 0 1 5 0v2a2.5 2.5 0 0 1-2.5 2.5Z"/>
</svg>
