<svg xmlns="http://www.w3.org/2000/svg" width="24" height="24" fill="none" viewBox="0 0 24 24">
  <circle cx="12" cy="9" r="2" fill="color(display-p3 .7686 .8941 .3373)"/>
  <path fill="#000" d="M11.25 16.959a.75.75 0 0 0 1.5 0h-1.5Zm1.5-.009a.75.75 0 0 0-1.5 0h1.5Zm-.973-4.06.062-.747a.75.75 0 0 0-.813.748h.75Zm2.623-1.454.667.344-.667-.344Zm-1.656-3.831-.207.72.207-.72Zm-1.567.024-.229-.715.229.715Zm-1.29.89L9.3 8.052l.587.467ZM8.562 9.914a.75.75 0 0 0 1.495.125l-1.495-.125Zm2.465 4.336a.75.75 0 0 0 1.5 0h-1.5Zm1.723 2.709v-.009h-1.5v.009h1.5Zm-.75.3a.3.3 0 0 1-.3-.3h1.5a1.2 1.2 0 0 0-1.2-1.2v1.5Zm-.3-.3a.3.3 0 0 1 .3-.3v1.5a1.2 1.2 0 0 0 1.2-1.2h-1.5Zm.3-.3a.3.3 0 0 1 .3.3h-1.5a1.2 1.2 0 0 0 1.2 1.2v-1.5Zm.3.3a.3.3 0 0 1-.3.3v-1.5a1.2 1.2 0 0 0-1.2 1.2h1.5ZM20.25 12A8.25 8.25 0 0 1 12 20.25v1.5A9.75 9.75 0 0 0 21.75 12h-1.5ZM12 20.25A8.25 8.25 0 0 1 3.75 12h-1.5A9.75 9.75 0 0 0 12 21.75v-1.5ZM3.75 12A8.25 8.25 0 0 1 12 3.75v-1.5A9.75 9.75 0 0 0 2.25 12h1.5ZM12 3.75A8.25 8.25 0 0 1 20.25 12h1.5A9.75 9.75 0 0 0 12 2.25v1.5Zm-.286 9.888c.68.057 1.362-.09 1.959-.42l-.728-1.313a1.95 1.95 0 0 1-1.106.238l-.125 1.495Zm1.959-.42a3.45 3.45 0 0 0 1.394-1.438l-1.333-.687a1.95 1.95 0 0 1-.789.813l.728 1.311Zm1.394-1.438a3.45 3.45 0 0 0 .36-1.97l-1.49.17a1.95 1.95 0 0 1-.203 1.113l1.333.687Zm.36-1.97a3.45 3.45 0 0 0-.794-1.84l-1.145.97c.25.294.406.656.45 1.04l1.49-.17Zm-.794-1.84a3.45 3.45 0 0 0-1.682-1.086l-.414 1.442c.371.106.702.32.951.614l1.145-.97Zm-1.682-1.086a3.45 3.45 0 0 0-2.003.03l.457 1.429a1.95 1.95 0 0 1 1.132-.017l.414-1.442Zm-2.003.03A3.45 3.45 0 0 0 9.3 8.052l1.174.934a1.95 1.95 0 0 1 .931-.643l-.457-1.429ZM9.3 8.052a3.45 3.45 0 0 0-.738 1.862l1.495.125a1.95 1.95 0 0 1 .417-1.053L9.3 8.052Zm1.726 4.839v1.359h1.5v-1.36h-1.5Z"/>
</svg>
