<svg xmlns="http://www.w3.org/2000/svg" width="24" height="24" fill="none" viewBox="0 0 24 24">
  <path fill="color(display-p3 .7686 .8941 .3373)" d="M14 14a2 2 0 1 1-4 0 2 2 0 0 1 4 0Z"/>
  <path stroke="#000" stroke-linecap="round" stroke-linejoin="round" stroke-width="1.5" d="M3 18.1v-7.533a3 3 0 0 1 1.158-2.368l6-4.667a3 3 0 0 1 3.684 0l6 4.667A3 3 0 0 1 21 10.567V18.1a3 3 0 0 1-3 3H6a3 3 0 0 1-3-3Z"/>
  <path stroke="#000" stroke-linecap="round" stroke-linejoin="round" stroke-width="1.5" d="M9 15.1v6h6v-6a3 3 0 0 0-6 0Z"/>
</svg>
