<svg xmlns="http://www.w3.org/2000/svg" width="24" height="24" fill="none" viewBox="0 0 24 24">
  <circle cx="16" cy="13" r="2" fill="color(display-p3 .7686 .8941 .3373)"/>
  <path fill="#000" d="M13 3.75a.75.75 0 0 0 0-1.5v1.5Zm7.625 10.95.468-.586-.468.586Zm-3.959-3.167.469-.586-.469.586Zm-1.297.04-.505-.554.505.555ZM16.53 4.47a.75.75 0 1 0-1.06 1.06l1.06-1.06Zm.97 2.03-.53.53a.75.75 0 0 0 1.06 0l-.53-.53Zm4.03-2.97a.75.75 0 0 0-1.06-1.06l1.06 1.06ZM13 2.25H6v1.5h7v-1.5ZM2.25 6v13h1.5V6h-1.5Zm19.5 12v-2.52h-1.5V18h1.5Zm-.657-3.886-3.958-3.167-.937 1.172 3.958 3.166.937-1.17ZM5 21.75h13v-1.5H5v1.5Zm9.864-10.731L4.495 20.445l1.01 1.11 10.368-9.426-1.009-1.11Zm2.27-.072a1.75 1.75 0 0 0-2.27.072l1.01 1.11a.25.25 0 0 1 .324-.01l.937-1.172Zm4.616 4.534a1.75 1.75 0 0 0-.657-1.367l-.937 1.171a.25.25 0 0 1 .094.196h1.5ZM20.25 18A2.25 2.25 0 0 1 18 20.25v1.5A3.75 3.75 0 0 0 21.75 18h-1.5Zm-18 1A2.75 2.75 0 0 0 5 21.75v-1.5c-.69 0-1.25-.56-1.25-1.25h-1.5ZM6 2.25A3.75 3.75 0 0 0 2.25 6h1.5A2.25 2.25 0 0 1 6 3.75v-1.5Zm4.25 6.25a1.75 1.75 0 0 1-1.75 1.75v1.5a3.25 3.25 0 0 0 3.25-3.25h-1.5ZM8.5 10.25A1.75 1.75 0 0 1 6.75 8.5h-1.5a3.25 3.25 0 0 0 3.25 3.25v-1.5ZM6.75 8.5c0-.966.784-1.75 1.75-1.75v-1.5A3.25 3.25 0 0 0 5.25 8.5h1.5ZM8.5 6.75c.966 0 1.75.784 1.75 1.75h1.5A3.25 3.25 0 0 0 8.5 5.25v1.5Zm6.97-1.22 1.5 1.5 1.06-1.06-1.5-1.5-1.06 1.06Zm2.56 1.5 3.5-3.5-1.06-1.06-3.5 3.5 1.06 1.06Z"/>
</svg>
