<svg xmlns="http://www.w3.org/2000/svg" width="24" height="24" fill="none" viewBox="0 0 24 24">
  <circle cx="18" cy="14" r="2" fill="color(display-p3 .7686 .8941 .3373)"/>
  <path fill="#000" d="M3.97 19.97a.75.75 0 1 0 1.06 1.06l-1.06-1.06ZM12 13l.53-.53a.75.75 0 0 0-1.06 0L12 13Zm6.97 8.03a.75.75 0 1 0 1.06-1.06l-1.06 1.06Zm-5.5-6.56a.75.75 0 1 0 1.06 1.06l-1.06-1.06ZM18 11l.53-.53a.75.75 0 0 0-1.06 0L18 11Zm3.47 4.53a.75.75 0 1 0 1.06-1.06l-1.06 1.06ZM5 3.75h14v-1.5H5v1.5ZM21.25 6v12h1.5V6h-1.5ZM19 20.25H5v1.5h14v-1.5ZM2.75 18V6h-1.5v12h1.5ZM5 20.25A2.25 2.25 0 0 1 2.75 18h-1.5A3.75 3.75 0 0 0 5 21.75v-1.5ZM21.25 18A2.25 2.25 0 0 1 19 20.25v1.5A3.75 3.75 0 0 0 22.75 18h-1.5ZM19 3.75A2.25 2.25 0 0 1 21.25 6h1.5A3.75 3.75 0 0 0 19 2.25v1.5ZM5 2.25A3.75 3.75 0 0 0 1.25 6h1.5A2.25 2.25 0 0 1 5 3.75v-1.5Zm.03 18.78 7.5-7.5-1.06-1.06-7.5 7.5 1.06 1.06Zm6.44-7.5 7.5 7.5 1.06-1.06-7.5-7.5-1.06 1.06Zm3.06 2 4-4-1.06-1.06-4 4 1.06 1.06Zm2.94-4 4 4 1.06-1.06-4-4-1.06 1.06ZM9.25 8.5a1.75 1.75 0 0 1-1.75 1.75v1.5a3.25 3.25 0 0 0 3.25-3.25h-1.5ZM7.5 10.25A1.75 1.75 0 0 1 5.75 8.5h-1.5a3.25 3.25 0 0 0 3.25 3.25v-1.5ZM5.75 8.5c0-.966.784-1.75 1.75-1.75v-1.5A3.25 3.25 0 0 0 4.25 8.5h1.5ZM7.5 6.75c.966 0 1.75.784 1.75 1.75h1.5A3.25 3.25 0 0 0 7.5 5.25v1.5Z"/>
</svg>
