<svg xmlns="http://www.w3.org/2000/svg" width="24" height="24" fill="none" viewBox="0 0 24 24">
  <circle cx="19" cy="15.5" r="2" fill="color(display-p3 .7686 .8941 .3373)"/>
  <path fill="#000" d="M5.85 10.625a.75.75 0 0 0 1.5 0h-1.5Zm1.5-.01a.75.75 0 0 0-1.5 0h1.5Zm.3 2.677a.75.75 0 0 0 1.5 0h-1.5Zm1.5-.01a.75.75 0 0 0-1.5 0h1.5Zm2.1.01a.75.75 0 0 0 1.5 0h-1.5Zm1.5-.01a.75.75 0 0 0-1.5 0h1.5Zm2.1.01a.75.75 0 0 0 1.5 0h-1.5Zm1.5-.01a.75.75 0 0 0-1.5 0h1.5Zm-6.9-2.657a.75.75 0 0 0 1.5 0h-1.5Zm1.5-.01a.75.75 0 0 0-1.5 0h1.5Zm2.1.01a.75.75 0 0 0 1.5 0h-1.5Zm1.5-.01a.75.75 0 0 0-1.5 0h1.5Zm2.1.01a.75.75 0 0 0 1.5 0h-1.5Zm1.5-.01a.75.75 0 0 0-1.5 0h1.5Zm-10.8.01v-.01h-1.5v.01h1.5Zm1.8 2.667v-.01h-1.5v.01h1.5Zm3.6 0v-.01h-1.5v.01h1.5Zm3.6 0v-.01h-1.5v.01h1.5Zm-5.4-2.667v-.01h-1.5v.01h1.5Zm3.6 0v-.01h-1.5v.01h1.5Zm3.6 0v-.01h-1.5v.01h1.5ZM5.7 7.25h12.6v-1.5H5.7v1.5Zm14.55 2v5.5h1.5v-5.5h-1.5Zm-1.95 7.5H5.7v1.5h12.6v-1.5Zm-14.55-2v-5.5h-1.5v5.5h1.5Zm1.95 2c-1.064 0-1.95-.882-1.95-2h-1.5c0 1.92 1.532 3.5 3.45 3.5v-1.5Zm14.55-2c0 1.118-.886 2-1.95 2v1.5c1.918 0 3.45-1.58 3.45-3.5h-1.5Zm-1.95-7.5c1.064 0 1.95.882 1.95 2h1.5c0-1.92-1.532-3.5-3.45-3.5v1.5ZM5.7 5.75c-1.918 0-3.45 1.58-3.45 3.5h1.5c0-1.118.886-2 1.95-2v-1.5Z"/>
</svg>
