<svg xmlns="http://www.w3.org/2000/svg" width="24" height="24" fill="none" viewBox="0 0 24 24">
  <circle cx="12" cy="14" r="2" fill="color(display-p3 .7686 .8941 .3373)"/>
  <path stroke="#000" stroke-linecap="round" stroke-width="1.5" d="M18.364 13c1.259.573 2.116 1.304 2.463 2.1.347.795.17 1.62-.512 2.369-.681.749-1.835 1.39-3.315 1.84-1.48.45-3.22.691-5 .691-1.78 0-3.52-.24-5-.691-1.48-.45-2.634-1.091-3.315-1.84-.681-.75-.86-1.574-.512-2.37.347-.795 1.204-1.526 2.463-2.099M13.8 8.427a1.79 1.79 0 0 1-1.8 1.78 1.79 1.79 0 0 1-1.8-1.78c0-.983.806-1.78 1.8-1.78s1.8.797 1.8 1.78Zm-1.764 8.239s-5.84-5.94-4.231-9.774c1.61-3.834 6.7-3.862 8.353-.045 1.652 3.816-4.122 9.819-4.122 9.819Z"/>
</svg>
