<svg xmlns="http://www.w3.org/2000/svg" width="24" height="24" fill="none" viewBox="0 0 24 24">
  <path fill="color(display-p3 .7686 .8941 .3373)" d="M6.892 18.324a1.946 1.946 0 1 1-3.892 0 1.946 1.946 0 0 1 3.892 0Z"/>
  <path stroke="#000" stroke-linecap="round" stroke-linejoin="round" stroke-width="1.5" d="M7.378 8.108h4.865m-4.865 3.405h7.784M6.405 2.758h11.676A2.919 2.919 0 0 1 21 5.676v8.756a2.919 2.919 0 0 1-2.92 2.92H9.376a2.92 2.92 0 0 0-1.823.639l-4.066 3.252V5.676a2.919 2.919 0 0 1 2.92-2.92Z"/>
</svg>
