<svg xmlns="http://www.w3.org/2000/svg" width="24" height="24" fill="none" viewBox="0 0 24 24">
  <path fill="color(display-p3 .7686 .8941 .3373)" d="M10.583 17.972a1.889 1.889 0 1 1-3.777 0 1.889 1.889 0 0 1 3.777 0Z"/>
  <path stroke="#000" stroke-linecap="round" stroke-linejoin="round" stroke-width="1.5" d="M12 6.806v3.777m0 1.89v.471M6.333 3.028h11.334A2.833 2.833 0 0 1 20.5 5.86v8.5a2.833 2.833 0 0 1-2.833 2.834h-4.673c-.643 0-1.268.218-1.77.62l-3.946 3.157v-1.889a1.889 1.889 0 0 0-1.89-1.888 1.889 1.889 0 0 1-1.888-1.89V5.862a2.833 2.833 0 0 1 2.833-2.833Z"/>
</svg>
