<svg xmlns="http://www.w3.org/2000/svg" width="24" height="24" fill="none" viewBox="0 0 24 24">
  <path fill="color(display-p3 .7686 .8941 .3373)" d="M10.5 18.5a2 2 0 1 1-4 0 2 2 0 0 1 4 0Z"/>
  <path stroke="#000" stroke-linecap="round" stroke-linejoin="round" stroke-width="1.5" d="m12.025 8.95.575-.575a1.626 1.626 0 1 1 2.3 2.3l-2.875 2.876-2.875-2.876a1.626 1.626 0 0 1 2.3-2.3l.575.575Z"/>
  <path stroke="#000" stroke-linecap="round" stroke-linejoin="round" stroke-width="1.5" d="M18 2.5H6a3 3 0 0 0-3 3v10a2 2 0 0 0 2 2 2 2 0 0 1 2 2v2l4.178-3.343a3 3 0 0 1 1.874-.657H18a3 3 0 0 0 3-3v-9a3 3 0 0 0-3-3Z"/>
</svg>
