<svg xmlns="http://www.w3.org/2000/svg" width="24" height="24" fill="none" viewBox="0 0 24 24">
  <circle cx="12" cy="5" r="2" fill="color(display-p3 .7686 .8941 .3373)"/>
  <path fill="#000" d="M13.95 10.2a.75.75 0 0 0 1.5 0h-1.5Zm-5.4-4.95a.75.75 0 0 0 1.5 0h-1.5Zm10.5 4.5a.75.75 0 0 0-1.5 0h1.5Zm-12.6 0a.75.75 0 0 0-1.5 0h1.5Zm1.95 10.5a.75.75 0 0 0 0 1.5v-1.5Zm7.2 1.5a.75.75 0 0 0 0-1.5v1.5ZM3.53 2.47a.75.75 0 0 0-1.06 1.06l1.06-1.06Zm16.94 19.06a.75.75 0 1 0 1.06-1.06l-1.06 1.06Zm-7.306-7.58h-.682v1.5h.682v-1.5Zm-3.114-2.432V9.3h-1.5v2.218h1.5Zm2.432 2.432a2.432 2.432 0 0 1-2.432-2.432h-1.5a3.932 3.932 0 0 0 3.932 3.932v-1.5Zm1.238-.23a.787.787 0 0 1-.556.23v1.5a2.28 2.28 0 0 0 1.616-.67l-1.06-1.06Zm-2.17-9.97H12v-1.5h-.45v1.5Zm2.4 1.95v4.5h1.5V5.7h-1.5ZM12 3.75a1.95 1.95 0 0 1 1.95 1.95h1.5A3.45 3.45 0 0 0 12 2.25v1.5Zm-.45-1.5a3 3 0 0 0-3 3h1.5a1.5 1.5 0 0 1 1.5-1.5v-1.5Zm6 7.5V12h1.5V9.75h-1.5ZM6.45 12V9.75h-1.5V12h1.5Zm4.8 6.3V21h1.5v-2.7h-1.5Zm.75 1.95H8.4v1.5H12v-1.5Zm0 1.5h3.6v-1.5H12v1.5ZM4.95 12A7.05 7.05 0 0 0 12 19.05v-1.5A5.55 5.55 0 0 1 6.45 12h-1.5Zm12.6 0A5.55 5.55 0 0 1 12 17.55v1.5A7.05 7.05 0 0 0 19.05 12h-1.5ZM2.47 3.53l18 18 1.06-1.06-18-18-1.06 1.06Z"/>
</svg>
