<svg xmlns="http://www.w3.org/2000/svg" width="24" height="24" fill="none" viewBox="0 0 24 24">
  <path fill="color(display-p3 .7686 .8941 .3373)" d="M19.25 20.25a2 2 0 1 1-4 0 2 2 0 0 1 4 0Z"/>
  <path stroke="#000" stroke-linecap="round" stroke-linejoin="round" stroke-width="1.5" d="M4.75 3.75a2 2 0 0 1 2-2h10a2 2 0 0 1 2 2v16a2 2 0 0 1-2 2h-10a2 2 0 0 1-2-2v-16Z"/>
  <path stroke="#000" stroke-linecap="round" stroke-linejoin="round" stroke-width="1.5" d="M8.75 3.75v-1a1 1 0 0 1 1-1h4a1 1 0 0 1 1 1v1a1 1 0 0 1-1 1h-4a1 1 0 0 1-1-1Z"/>
</svg>
