<svg xmlns="http://www.w3.org/2000/svg" width="24" height="24" fill="none" viewBox="0 0 24 24">
  <circle cx="10" cy="12" r="2" fill="color(display-p3 .7686 .8941 .3373)"/>
  <path fill="#000" d="m3 20-.622-.42A.75.75 0 0 0 3 20.75V20Zm7.2-10.667.61-.437a.75.75 0 0 0-1.232.018l.622.42ZM17.85 20v.75a.75.75 0 0 0 .61-1.187l-.61.437Zm-3.15-4.444-.622-.42a.75.75 0 0 0-.019.809l.641-.39Zm1.8-2.667.634-.401a.75.75 0 0 0-1.256-.019l.622.42ZM21 20v.75a.75.75 0 0 0 .634-1.151L21 20Zm-3.6 0-.641.39a.75.75 0 0 0 .641.36V20Zm-13.778.42 7.2-10.667-1.244-.84-7.2 10.667 1.244.84ZM9.59 9.77l7.65 10.667 1.218-.874-7.65-10.667-1.218.874Zm8.259 9.48H3v1.5h14.85v-1.5Zm-2.528-3.275 1.8-2.666-1.244-.84-1.8 2.667 1.244.84Zm.544-2.685 4.5 7.111 1.268-.802-4.5-7.111-1.268.802ZM21 19.25h-3.6v1.5H21v-1.5Zm-2.959.36-2.7-4.444-1.282.779 2.7 4.444 1.282-.778ZM19.35 6.668c0 1.05-.864 1.916-1.95 1.916v1.5c1.897 0 3.45-1.52 3.45-3.416h-1.5ZM17.4 8.583c-1.086 0-1.95-.867-1.95-1.916h-1.5c0 1.895 1.553 3.416 3.45 3.416v-1.5Zm-1.95-1.916c0-1.05.864-1.917 1.95-1.917v-1.5c-1.897 0-3.45 1.52-3.45 3.417h1.5ZM17.4 4.75c1.086 0 1.95.867 1.95 1.917h1.5c0-1.896-1.553-3.417-3.45-3.417v1.5Z"/>
</svg>
