<svg xmlns="http://www.w3.org/2000/svg" width="24" height="24" fill="none" viewBox="0 0 24 24">
  <path fill="color(display-p3 .7686 .8941 .3373)" d="M15.626 4.982a2 2 0 1 1-4 0 2 2 0 0 1 4 0Z"/>
  <path stroke="#000" stroke-linejoin="round" stroke-width="1.5" d="M14.824 6.306c0-.304.163-.58.351-.822.194-.248.306-.543.306-.86 0-.887-.882-1.607-1.97-1.607-1.09 0-1.971.72-1.971 1.607 0 .317.112.612.305.86.188.243.351.518.351.822v.834a.38.38 0 0 1-.383.377c-1.65 0-3.278-.093-4.878-.274a40.7 40.7 0 0 1 .28 4.774v.027l-.862.005c-.31.001-.593-.157-.841-.34a1.464 1.464 0 0 0-.88-.294c-.907.005-1.638.872-1.632 1.937.006 1.065.746 1.925 1.653 1.92.323-.002.624-.113.877-.304.246-.185.527-.346.838-.348a.696.696 0 0 1 .71.742 40.283 40.283 0 0 1-.794 5.303 43.47 43.47 0 0 0 5.529.352.38.38 0 0 0 .383-.377v-.834c0-.304-.162-.58-.35-.822a1.393 1.393 0 0 1-.306-.86c0-.887.882-1.607 1.97-1.607 1.089 0 1.971.72 1.971 1.608 0 .316-.112.61-.306.86-.188.242-.35.517-.35.821v.072a.959.959 0 0 0 1.053.95 42.819 42.819 0 0 0 4.3-.625 40.47 40.47 0 0 0 .7-4.91.702.702 0 0 0-.716-.747c-.31.002-.591.163-.837.349-.253.19-.554.302-.877.303-.907.005-1.648-.854-1.653-1.92-.006-1.065.724-1.932 1.631-1.937.323-.002.625.107.88.294.249.184.53.341.842.34.476-.003.862-.382.852-.848a40.57 40.57 0 0 0-.35-4.52c-1.56.327-3.153.568-4.772.72a.959.959 0 0 1-1.054-.949v-.072Z"/>
</svg>
