<svg xmlns="http://www.w3.org/2000/svg" width="24" height="24" fill="none" viewBox="0 0 24 24">
  <path fill="color(display-p3 .7686 .8941 .3373)" d="M12 14a2 2 0 1 1-4 0 2 2 0 0 1 4 0Z"/>
  <path stroke="#000" stroke-linecap="round" stroke-linejoin="round" stroke-width="1.5" d="M15.13 14.066a5.23 5.23 0 0 1-5.092 6.434v-4.185m5.092-2.25A13.06 13.06 0 0 0 20.5 3.5c-4.34 0-8.187 2.115-10.566 5.37m5.196 5.196a13.012 13.012 0 0 1-5.091 2.25m0 0-.08.015a13.148 13.148 0 0 1-2.343-2.006c.021-.121.044-.243.069-.364m2.25-5.091A5.23 5.23 0 0 0 3.5 13.962h4.184m2.25-5.092a13.013 13.013 0 0 0-2.25 5.091m.23 4.358a3.917 3.917 0 0 1-3.714 1.48 3.918 3.918 0 0 1 1.63-3.823m10.746-7.245a1.308 1.308 0 1 1-2.616 0 1.308 1.308 0 0 1 2.616 0Z"/>
</svg>
