<svg xmlns="http://www.w3.org/2000/svg" width="24" height="24" fill="none" viewBox="0 0 24 24">
  <path fill="color(display-p3 .7686 .8941 .3373)" d="M17.675 4.75a2 2 0 1 1-4 0 2 2 0 0 1 4 0Z"/>
  <path stroke="#000" stroke-linecap="round" stroke-linejoin="round" stroke-width="1.5" d="M18.205 5.525h.27a1.85 1.85 0 0 1 1.85 1.85v2.14a1.85 1.85 0 0 1-1.85 1.85h-4.78a1.85 1.85 0 0 0-1.85 1.85v1.745m0 0h-.77a.925.925 0 0 0-.925.925v4.44c0 .51.414.925.925.925h1.542c.51 0 .924-.414.924-.925v-4.44a.925.925 0 0 0-.925-.925h-.77Zm-6.32-7.585H15.7a1.85 1.85 0 0 0 1.85-1.85V4.6a1.85 1.85 0 0 0-1.85-1.85H5.525a1.85 1.85 0 0 0-1.85 1.85v.925a1.85 1.85 0 0 0 1.85 1.85Z"/>
</svg>
