<svg xmlns="http://www.w3.org/2000/svg" width="24" height="24" fill="none" viewBox="0 0 24 24">
  <path fill="color(display-p3 .7686 .8941 .3373)" d="M16.655 18.75a2 2 0 1 1-4 0 2 2 0 0 1 4 0Z"/>
  <path fill="#000" d="M10 8.7a.5.5 0 1 1-1 0 .5.5 0 0 1 1 0Zm6 6a.5.5 0 1 1-1 0 .5.5 0 0 1 1 0Z"/>
  <path stroke="#000" stroke-linecap="round" stroke-width="1.5" d="m16 8.2-7 7M8.34 4.98l-.494-.08a2 2 0 0 0-2.313 1.942l-.009.5a2 2 0 0 1-.97 1.68l-.429.257a2 2 0 0 0-.524 2.974l.315.388a2 2 0 0 1 .337 1.91l-.163.473A2 2 0 0 0 5.6 17.64l.49.096a2 2 0 0 1 1.486 1.247l.18.466a2 2 0 0 0 2.837 1.033l.437-.242a2 2 0 0 1 1.94 0l.437.242a2 2 0 0 0 2.838-1.033l.179-.466a2 2 0 0 1 1.486-1.247l.49-.096a2 2 0 0 0 1.51-2.615l-.163-.472a2 2 0 0 1 .337-1.91l.315-.39a2 2 0 0 0-.524-2.973l-.429-.257a2 2 0 0 1-.97-1.68l-.008-.5A2 2 0 0 0 16.154 4.9l-.493.078a2 2 0 0 1-1.823-.663l-.328-.378a2 2 0 0 0-3.02 0l-.328.378a2 2 0 0 1-1.823.663ZM10 8.7a.5.5 0 1 1-1 0 .5.5 0 0 1 1 0Zm6 6a.5.5 0 1 1-1 0 .5.5 0 0 1 1 0Z"/>
</svg>
