<svg xmlns="http://www.w3.org/2000/svg" width="24" height="24" fill="none" viewBox="0 0 24 24">
  <circle cx="19" cy="19" r="2" fill="color(display-p3 .7686 .8941 .3373)"/>
  <path fill="#000" d="M4.5 11.25a.75.75 0 0 0 0 1.5v-1.5Zm.01 1.5a.75.75 0 0 0 0-1.5v1.5Zm4.99-1.5a.75.75 0 0 0 0 1.5v-1.5Zm.01 1.5a.75.75 0 0 0 0-1.5v1.5Zm4.99-1.5a.75.75 0 0 0 0 1.5v-1.5Zm.01 1.5a.75.75 0 0 0 0-1.5v1.5Zm4.99-1.5a.75.75 0 0 0 0 1.5v-1.5Zm.01 1.5a.75.75 0 0 0 0-1.5v1.5ZM16 2.25a.75.75 0 0 0 0 1.5v-1.5ZM20.25 8a.75.75 0 0 0 1.5 0h-1.5ZM8 3.75a.75.75 0 0 0 0-1.5v1.5ZM2.25 8a.75.75 0 0 0 1.5 0h-1.5Zm19.5 8a.75.75 0 0 0-1.5 0h1.5ZM16 20.25a.75.75 0 0 0 0 1.5v-1.5ZM3.75 16a.75.75 0 0 0-1.5 0h1.5ZM8 21.75a.75.75 0 0 0 0-1.5v1.5Zm-3.5-9h.01v-1.5H4.5v1.5ZM4.25 12a.25.25 0 0 1 .25-.25v1.5c.69 0 1.25-.56 1.25-1.25h-1.5Zm.25-.25a.25.25 0 0 1 .25.25h-1.5c0 .69.56 1.25 1.25 1.25v-1.5Zm.25.25a.25.25 0 0 1-.25.25v-1.5c-.69 0-1.25.56-1.25 1.25h1.5Zm-.25.25a.25.25 0 0 1-.25-.25h1.5c0-.69-.56-1.25-1.25-1.25v1.5Zm5 .5h.01v-1.5H9.5v1.5ZM9.25 12a.25.25 0 0 1 .25-.25v1.5c.69 0 1.25-.56 1.25-1.25h-1.5Zm.25-.25a.25.25 0 0 1 .25.25h-1.5c0 .69.56 1.25 1.25 1.25v-1.5Zm.25.25a.25.25 0 0 1-.25.25v-1.5c-.69 0-1.25.56-1.25 1.25h1.5Zm-.25.25a.25.25 0 0 1-.25-.25h1.5c0-.69-.56-1.25-1.25-1.25v1.5Zm5 .5h.01v-1.5h-.01v1.5Zm-.25-.75a.25.25 0 0 1 .25-.25v1.5c.69 0 1.25-.56 1.25-1.25h-1.5Zm.25-.25a.25.25 0 0 1 .25.25h-1.5c0 .69.56 1.25 1.25 1.25v-1.5Zm.25.25a.25.25 0 0 1-.25.25v-1.5c-.69 0-1.25.56-1.25 1.25h1.5Zm-.25.25a.25.25 0 0 1-.25-.25h1.5c0-.69-.56-1.25-1.25-1.25v1.5Zm5 .5h.01v-1.5h-.01v1.5Zm-.25-.75a.25.25 0 0 1 .25-.25v1.5c.69 0 1.25-.56 1.25-1.25h-1.5Zm.25-.25a.25.25 0 0 1 .25.25h-1.5c0 .69.56 1.25 1.25 1.25v-1.5Zm.25.25a.25.25 0 0 1-.25.25v-1.5c-.69 0-1.25.56-1.25 1.25h1.5Zm-.25.25a.25.25 0 0 1-.25-.25h1.5c0-.69-.56-1.25-1.25-1.25v1.5ZM16 3.75h4v-1.5h-4v1.5Zm4.25.25v4h1.5V4h-1.5ZM20 3.75a.25.25 0 0 1 .25.25h1.5A1.75 1.75 0 0 0 20 2.25v1.5ZM8 2.25H4v1.5h4v-1.5ZM2.25 4v4h1.5V4h-1.5ZM4 2.25A1.75 1.75 0 0 0 2.25 4h1.5A.25.25 0 0 1 4 3.75v-1.5ZM20.25 16v4h1.5v-4h-1.5ZM20 20.25h-4v1.5h4v-1.5Zm.25-.25a.25.25 0 0 1-.25.25v1.5A1.75 1.75 0 0 0 21.75 20h-1.5Zm-18-4v4h1.5v-4h-1.5ZM4 21.75h4v-1.5H4v1.5ZM2.25 20c0 .966.784 1.75 1.75 1.75v-1.5a.25.25 0 0 1-.25-.25h-1.5Z"/>
</svg>
