<svg xmlns="http://www.w3.org/2000/svg" width="24" height="24" fill="none" viewBox="0 0 24 24">
  <circle cx="5.5" cy="18" r="2" fill="color(display-p3 .7686 .8941 .3373)"/>
  <path fill="#000" d="M5.329 14.003a.75.75 0 0 0 .699 1.327l-.699-1.327Zm14.205-5.784a.75.75 0 1 0-.7-1.327l.7 1.327Zm-.7 8.89a.75.75 0 1 0 .7-1.328l-.7 1.327ZM6.029 8.668a.75.75 0 1 0-.699 1.328l.699-1.327ZM16.57 11.25a.75.75 0 0 0 0 1.5v-1.5Zm.009 1.5a.75.75 0 0 0 0-1.5v1.5Zm3.912-1.5a.75.75 0 0 0 0 1.5v-1.5Zm.009 1.5a.75.75 0 0 0 0-1.5v1.5ZM7.978 6.667c0 1.072-.848 1.916-1.864 1.916v1.5c1.872 0 3.364-1.544 3.364-3.416h-1.5ZM6.114 8.583c-1.015 0-1.864-.844-1.864-1.916h-1.5c0 1.872 1.492 3.416 3.364 3.416v-1.5ZM4.25 6.667c0-1.073.849-1.917 1.864-1.917v-1.5c-1.872 0-3.364 1.544-3.364 3.417h1.5ZM6.114 4.75c1.016 0 1.864.844 1.864 1.917h1.5c0-1.873-1.492-3.417-3.364-3.417v1.5Zm1.864 12.583c0 1.073-.848 1.917-1.864 1.917v1.5c1.872 0 3.364-1.544 3.364-3.417h-1.5ZM6.114 19.25c-1.015 0-1.864-.844-1.864-1.917h-1.5c0 1.873 1.492 3.417 3.364 3.417v-1.5ZM4.25 17.333c0-1.072.849-1.916 1.864-1.916v-1.5c-1.872 0-3.364 1.543-3.364 3.416h1.5Zm1.864-1.916c1.016 0 1.864.844 1.864 1.916h1.5c0-1.872-1.492-3.416-3.364-3.416v1.5Zm-.086-.087 13.506-7.11-.7-1.328L5.33 14.003l.699 1.327Zm13.506.45L6.028 8.67l-.699 1.327 13.506 7.111.699-1.327Zm-2.964-3.03h.009v-1.5h-.009v1.5Zm3.921 0h.009v-1.5h-.009v1.5Z"/>
</svg>
