<svg xmlns="http://www.w3.org/2000/svg" width="24" height="24" fill="none" viewBox="0 0 24 24">
  <circle cx="18" cy="12" r="2" fill="color(display-p3 .7686 .8941 .3373)"/>
  <path fill="#000" d="M7.074 19.788a.75.75 0 1 0 0 1.5v-1.5Zm.009 1.5a.75.75 0 0 0 0-1.5v1.5Zm9.044-1.5a.75.75 0 1 0 0 1.5v-1.5Zm.009 1.5a.75.75 0 1 0 0-1.5v1.5ZM3 2.25a.75.75 0 0 0 0 1.5v-1.5Zm15.39 16.27a.75.75 0 1 0 0-1.5v1.5ZM5.663 16.903l.748-.046-.748.046Zm14.627-3.648.746.081-.746-.081Zm.704-6.462-.745-.081.745.081ZM4.864 3.866l-.749.045.749-.046Zm.116 1.903-.748.046.748-.046Zm2.094 15.52h.009v-1.5h-.01v1.5Zm-.297-.75c0-.146.119-.289.297-.289v1.5c.678 0 1.203-.556 1.203-1.212h-1.5Zm.297-.289c.178 0 .297.143.297.288h-1.5c0 .656.525 1.212 1.203 1.212v-1.5Zm.297.288c0 .146-.12.289-.297.289v-1.5c-.678 0-1.203.556-1.203 1.211h1.5Zm-.297.289a.293.293 0 0 1-.297-.289h1.5c0-.655-.525-1.211-1.203-1.211v1.5Zm9.053.461h.009v-1.5h-.01v1.5Zm-.297-.75c0-.145.119-.288.297-.288v1.5c.678 0 1.203-.556 1.203-1.212h-1.5Zm.297-.288c.178 0 .297.143.297.288h-1.5c0 .656.525 1.212 1.203 1.212v-1.5Zm.297.288c0 .146-.12.289-.297.289v-1.5c-.678 0-1.203.556-1.203 1.211h1.5Zm-.297.289a.293.293 0 0 1-.297-.289h1.5c0-.655-.525-1.211-1.203-1.211v1.5ZM3 3.75h.96v-1.5H3v1.5Zm3.566 14.77H18.39v-1.5H6.566v1.5Zm-1.825-4.397.173 2.827 1.497-.092-.173-2.827-1.497.092Zm.749.704h13.9v-1.5H5.49v1.5Zm15.546-1.49.704-6.462-1.491-.162-.704 6.462 1.49.162ZM4.116 3.911l.116 1.904 1.497-.092-.117-1.903-1.497.091Zm.116 1.904.509 8.308 1.497-.092-.51-8.308-1.496.092Zm15.863-.796H4.98v1.5h15.115v-1.5Zm-.704 9.808c.855 0 1.554-.653 1.645-1.49l-1.491-.162c-.011.098-.088.152-.155.152v1.5ZM6.566 17.019c-.069 0-.148-.058-.155-.161l-1.497.092c.054.87.766 1.57 1.652 1.57v-1.5ZM21.74 6.875c.106-.974-.643-1.856-1.645-1.856v1.5c.077 0 .167.075.154.194l1.49.162ZM3.96 3.75c.07 0 .149.058.155.161l1.497-.091A1.663 1.663 0 0 0 3.96 2.25v1.5Z"/>
</svg>
