<svg xmlns="http://www.w3.org/2000/svg" width="24" height="24" fill="none" viewBox="0 0 24 24">
  <path fill="color(display-p3 .7686 .8941 .3373)" d="M14 13.5a2 2 0 1 1-4 0 2 2 0 0 1 4 0Z"/>
  <path fill="#000" d="M9.333 10.35a.75.75 0 0 0 0 1.5v-1.5Zm4.445.75.533.527a.75.75 0 0 0-.533-1.277v.75Zm-4.445 4.5-.533-.527a.75.75 0 0 0 .533 1.277v-.75Zm4.445.75a.75.75 0 0 0 0-1.5v1.5ZM16.8 6.073a.75.75 0 0 0 1.067 1.054L16.8 6.073Zm1.956-2.7a.75.75 0 1 0-1.067 1.054l1.067-1.054Zm.71 2.854a.75.75 0 1 0 1.068-1.054l-1.068 1.054ZM9.333 2.25a.75.75 0 0 0 0 1.5v-1.5Zm4.445 1.5a.75.75 0 0 0 0-1.5v1.5Zm5.472 9.15c0 4.068-3.255 7.35-7.25 7.35v1.5c4.841 0 8.75-3.971 8.75-8.85h-1.5ZM12 20.25c-3.995 0-7.25-3.282-7.25-7.35h-1.5c0 4.879 3.909 8.85 8.75 8.85v-1.5ZM4.75 12.9c0-4.068 3.255-7.35 7.25-7.35v-1.5c-4.841 0-8.75 3.971-8.75 8.85h1.5ZM12 5.55c3.995 0 7.25 3.282 7.25 7.35h1.5c0-4.879-3.909-8.85-8.75-8.85v1.5Zm-2.667 6.3h4.445v-1.5H9.333v1.5Zm3.911-1.277-4.444 4.5 1.067 1.054 4.444-4.5-1.067-1.054Zm-3.91 5.777h4.444v-1.5H9.333v1.5Zm8.533-9.223 1.778-1.8-1.067-1.054-1.778 1.8 1.067 1.054Zm1.778-2.854-.89-.9-1.066 1.054.889.9 1.067-1.054Zm-1.067 1.054.888.9 1.068-1.054-.89-.9-1.066 1.054ZM9.333 3.75h4.445v-1.5H9.333v1.5Z"/>
</svg>
