<svg xmlns="http://www.w3.org/2000/svg" width="24" height="24" fill="none" viewBox="0 0 24 24">
  <path fill="color(display-p3 .7686 .8941 .3373)" d="M18.236 7.75a2 2 0 1 1-4 0 2 2 0 0 1 4 0Z"/>
  <path fill="#000" d="M3.514 8.111a.75.75 0 0 0-1.5 0h1.5Zm-.75.972h-.75c0 .415.335.75.75.75v-.75Zm2.916.75a.75.75 0 1 0 0-1.5v1.5Zm16.306-1.722a.75.75 0 0 0-1.5 0h1.5Zm-.75.972v.75a.75.75 0 0 0 .75-.75h-.75Zm-2.917-.75a.75.75 0 0 0 0 1.5v-1.5ZM7.625 13.194a.75.75 0 0 0 0 1.5v-1.5Zm.02 1.5a.75.75 0 1 0 0-1.5v1.5Zm8.73-1.5a.75.75 0 0 0 0 1.5v-1.5Zm.02 1.5a.75.75 0 1 0 0-1.5v1.5ZM6.43 10.056v-3.89h-1.5v3.89h1.5ZM8.597 4h6.806V2.5H8.597V4Zm8.972 2.167v3.889h1.5v-3.89h-1.5Zm.75 3.139H5.68v1.5h12.64v-1.5ZM15.403 4c1.196 0 2.166.97 2.166 2.167h1.5A3.667 3.667 0 0 0 15.403 2.5V4ZM6.43 6.167C6.43 4.97 7.4 4 8.597 4V2.5A3.667 3.667 0 0 0 4.93 6.167h1.5ZM3.514 17.979v-5.007h-1.5v5.007h1.5Zm16.972-5.007v5.007h1.5v-5.007h-1.5ZM18.466 20h-1.313v1.5h1.312V20Zm-4.23-2.917H9.764v1.5h4.472v-1.5ZM6.847 20H5.535v1.5h1.312V20Zm.708-.708a.708.708 0 0 1-.708.708v1.5c1.22 0 2.208-.989 2.208-2.208h-1.5Zm2.209-2.209c-1.22 0-2.209.989-2.209 2.209h1.5c0-.392.317-.709.709-.709v-1.5Zm6.68 2.209c0-1.22-.988-2.209-2.208-2.209v1.5c.391 0 .708.318.708.709h1.5Zm.709.708a.708.708 0 0 1-.709-.708h-1.5c0 1.22.989 2.208 2.209 2.208V20Zm3.333-2.02a2.02 2.02 0 0 1-2.02 2.02v1.5a3.52 3.52 0 0 0 3.52-3.52h-1.5Zm-2.167-7.174c1.197 0 2.167.97 2.167 2.166h1.5a3.667 3.667 0 0 0-3.667-3.666v1.5ZM3.514 12.972c0-1.196.97-2.166 2.166-2.166v-1.5a3.667 3.667 0 0 0-3.666 3.666h1.5Zm-1.5 5.007a3.52 3.52 0 0 0 3.52 3.521V20a2.02 2.02 0 0 1-2.02-2.02h-1.5Zm0-9.868v.972h1.5v-.972h-1.5Zm.75 1.722H5.68v-1.5H2.764v1.5Zm17.722-1.722v.972h1.5v-.972h-1.5Zm.75.222h-2.917v1.5h2.917v-1.5ZM7.625 14.694h.02v-1.5h-.02v1.5Zm.222-.75c0 .123-.1.223-.222.223v1.5c.951 0 1.722-.771 1.722-1.723h-1.5Zm-.222.223a.222.222 0 0 1-.222-.223h-1.5c0 .952.77 1.723 1.722 1.723v-1.5Zm-.222-.223c0-.122.1-.222.222-.222v-1.5c-.951 0-1.722.771-1.722 1.722h1.5Zm.222-.222c.123 0 .222.1.222.222h1.5c0-.95-.771-1.722-1.722-1.722v1.5Zm8.75.972h.02v-1.5h-.02v1.5Zm.222-.75c0 .123-.1.223-.222.223v1.5c.95 0 1.722-.771 1.722-1.723h-1.5Zm-.222.223a.222.222 0 0 1-.222-.223h-1.5c0 .952.77 1.723 1.722 1.723v-1.5Zm-.222-.223c0-.122.1-.222.222-.222v-1.5c-.951 0-1.722.771-1.722 1.722h1.5Zm.222-.222c.122 0 .222.1.222.222h1.5c0-.95-.771-1.722-1.722-1.722v1.5Z"/>
</svg>
