<svg xmlns="http://www.w3.org/2000/svg" width="24" height="24" fill="none" viewBox="0 0 24 24">
  <circle cx="17" cy="11" r="2" fill="color(display-p3 .7686 .8941 .3373)"/>
  <path fill="#000" d="M8.938 15.3a.75.75 0 0 0 0 1.5v-1.5Zm.008 1.5a.75.75 0 0 0 0-1.5v1.5Zm6.117-1.5a.75.75 0 0 0 0 1.5v-1.5Zm.008 1.5a.75.75 0 1 0 0-1.5v1.5ZM5 12.9h-.75c0 .414.336.75.75.75v-.75Zm14 0v.75a.75.75 0 0 0 .75-.75H19ZM6.075 20.672a.75.75 0 0 0 1.35.656l-1.35-.656Zm10.5.656a.75.75 0 0 0 1.35-.656l-1.35.656ZM5.533 3.233a.75.75 0 1 0 .686 1.334l-.686-1.334Zm1.539.052-.343-.667.343.667Zm8.898-.092-.285.694.285-.694Zm1.433 1.4a.75.75 0 0 0 .57-1.387l-.57 1.388Zm-7.353-1.92a.75.75 0 1 0-1.349.655l1.35-.656Zm.402 4.255a.75.75 0 1 0 1.348-.656l-1.348.656Zm4.848-3.6a.75.75 0 0 0-1.348-.656l1.348.656Zm-3.098 2.944a.75.75 0 0 0 1.348.656l-1.348-.656ZM8.937 16.8h.01v-1.5h-.01v1.5Zm-.312-.75c0-.146.12-.3.313-.3v1.5c.675 0 1.187-.557 1.187-1.2h-1.5Zm.313-.3c.192 0 .312.154.312.3h-1.5c0 .643.512 1.2 1.188 1.2v-1.5Zm.312.3c0 .146-.12.3-.313.3v-1.5c-.675 0-1.187.557-1.187 1.2h1.5Zm-.313.3a.306.306 0 0 1-.312-.3h1.5c0-.643-.512-1.2-1.188-1.2v1.5Zm6.126.45h.008v-1.5h-.008v1.5Zm-.313-.75c0-.146.12-.3.313-.3v1.5c.675 0 1.187-.557 1.187-1.2h-1.5Zm.313-.3c.192 0 .312.154.312.3h-1.5c0 .643.512 1.2 1.188 1.2v-1.5Zm.312.3c0 .146-.12.3-.313.3v-1.5c-.675 0-1.187.557-1.187 1.2h1.5Zm-.313.3a.306.306 0 0 1-.312-.3h1.5c0-.643-.512-1.2-1.188-1.2v1.5Zm-7.437-9h8.75v-1.5h-8.75v1.5ZM18.25 9.3v7.2h1.5V9.3h-1.5Zm-1.875 9.15h-8.75v1.5h8.75v-1.5ZM5.75 16.5V9.3h-1.5v7.2h1.5Zm1.875 1.95c-1.016 0-1.875-.853-1.875-1.95h-1.5c0 1.885 1.491 3.45 3.375 3.45v-1.5ZM18.25 16.5c0 1.097-.86 1.95-1.875 1.95v1.5c1.884 0 3.375-1.565 3.375-3.45h-1.5Zm-1.875-9.15c1.016 0 1.875.853 1.875 1.95h1.5c0-1.885-1.491-3.45-3.375-3.45v1.5Zm-8.75-1.5C5.741 5.85 4.25 7.415 4.25 9.3h1.5c0-1.097.86-1.95 1.875-1.95v-1.5ZM5 13.65h14v-1.5H5v1.5Zm14.75-.75V9.3h-1.5v3.6h1.5ZM4.25 9.3v3.6h1.5V9.3h-1.5Zm3.175 12.028.875-1.8-1.35-.656-.875 1.8 1.35.656Zm10.5-.656-.876-1.8-1.348.656.875 1.8 1.348-.656ZM6.217 4.567l1.196-.615-.686-1.334-1.196.615.686 1.334Zm2.027-.817h6.75v-1.5h-6.75v1.5Zm7.439.137 1.718.707.57-1.388-1.717-.706-.571 1.387Zm-.69-.137c.236 0 .47.046.69.137l.57-1.387a3.3 3.3 0 0 0-1.26-.25v1.5Zm-7.58.202c.259-.133.543-.202.83-.202v-1.5a3.31 3.31 0 0 0-1.516.368l.686 1.334ZM8.7 3.328l1.75 3.6 1.35-.656-1.75-3.6-1.35.656Zm5.25-.656-1.75 3.6 1.35.656 1.75-3.6-1.35-.656Z"/>
</svg>
