<svg xmlns="http://www.w3.org/2000/svg" width="24" height="24" fill="none" viewBox="0 0 24 24">
  <circle cx="9.5" cy="9" r="2" fill="color(display-p3 .7686 .8941 .3373)"/>
  <path stroke="#000" stroke-linecap="round" stroke-linejoin="round" stroke-width="1.5" d="M3.5 20v-2.823a2.829 2.829 0 0 1 2.833-2.824H12a2.828 2.828 0 0 1 2.833 2.824V20m.945-13.647h2.36m0 0H20.5m-2.361 0V4m0 2.353v2.353m-5.195-.941a3.771 3.771 0 0 1-3.777 3.764 3.771 3.771 0 0 1-3.778-3.764A3.771 3.771 0 0 1 9.167 4a3.771 3.771 0 0 1 3.777 3.765Z"/>
</svg>
