<svg xmlns="http://www.w3.org/2000/svg" width="24" height="24" fill="none" viewBox="0 0 24 24">
  <path fill="color(display-p3 .7686 .8941 .3373)" d="M14 13a2 2 0 1 1-4 0 2 2 0 0 1 4 0Z"/>
  <path stroke="#000" stroke-linecap="round" stroke-linejoin="round" stroke-width="1.5" d="M2 8.5V7a3 3 0 0 1 3-3h14a3 3 0 0 1 3 3v1.5m-20 0h20m-20 0v4m20-4v4m0 0V17a3 3 0 0 1-3 3H5a3 3 0 0 1-3-3v-4.5m20 0h-3.948a3 3 0 0 0-1.874.657l-.856.686a3 3 0 0 1-1.874.657h-2.705a3 3 0 0 1-2.122-.879l-.242-.242a3 3 0 0 0-2.122-.879H2"/>
</svg>
