<svg xmlns="http://www.w3.org/2000/svg" width="24" height="24" fill="none" viewBox="0 0 24 24">
  <path fill="#000" fill-rule="evenodd" d="M17.802 2.228a.777.777 0 0 0 0 1.1l2.869 2.866a.78.78 0 0 0 1.1-1.1l-2.868-2.866a.78.78 0 0 0-1.101 0Zm-11.604 1.1a.777.777 0 1 0-1.101-1.1L2.228 5.094a.778.778 0 1 0 1.101 1.1L6.2 3.328Zm15.206 9.143c0 2.51-1.033 4.782-2.705 6.434l1.833 1.794a.75.75 0 0 1 0 1.078.79.79 0 0 1-1.101 0l-1.92-1.879a9.442 9.442 0 0 1-5.451 1.716 9.438 9.438 0 0 1-5.636-1.85l-2.056 2.013a.791.791 0 0 1-1.102 0 .75.75 0 0 1 0-1.078l1.997-1.954a9.007 9.007 0 0 1-2.547-6.274c0-5.05 4.183-9.143 9.344-9.143 5.16 0 9.344 4.094 9.344 9.143Zm-12.412.594 2.263 2.264a.392.392 0 0 0 .554 0l4.295-4.296a.718.718 0 1 0-1.016-1.016l-3.556 3.556-1.524-1.524a.719.719 0 0 0-1.016 1.016Z" clip-rule="evenodd"/>
</svg>
