<svg xmlns="http://www.w3.org/2000/svg" width="24" height="24" fill="none" viewBox="0 0 24 24">
  <path fill="#000" d="M5.803 3.207a.71.71 0 0 1 0 1.002L3.204 6.817a.704.704 0 0 1-.997 0 .71.71 0 0 1 0-1.002l2.599-2.608a.704.704 0 0 1 .997 0Z"/>
  <path fill="#000" fill-rule="evenodd" d="M18.074 18.125a8.484 8.484 0 0 0 2.45-5.979c0-4.692-3.79-8.495-8.465-8.495s-8.465 3.803-8.465 8.495c0 2.257.877 4.309 2.308 5.83l-1.81 1.815a.71.71 0 0 0 0 1.002.704.704 0 0 0 .998 0l1.863-1.87a8.41 8.41 0 0 0 5.106 1.719 8.407 8.407 0 0 0 4.938-1.595l1.74 1.746a.704.704 0 0 0 .998 0 .71.71 0 0 0 0-1.002l-1.661-1.666Zm-6.015-2.44a.707.707 0 0 1-.705-.707v-2.36H9.002a.707.707 0 0 1-.705-.708c0-.39.316-.708.705-.708h2.352v-2.36c0-.39.316-.708.705-.708.39 0 .706.317.706.708v2.36h2.351c.39 0 .706.317.706.708a.707.707 0 0 1-.706.708h-2.351v2.36a.707.707 0 0 1-.706.708Z" clip-rule="evenodd"/>
  <path fill="#000" d="M18.197 4.209a.71.71 0 0 1 0-1.002.704.704 0 0 1 .998 0l2.598 2.609a.71.71 0 0 1 0 1 .704.704 0 0 1-.997 0l-2.6-2.607Z"/>
</svg>
