<svg xmlns="http://www.w3.org/2000/svg" width="24" height="24" fill="none" viewBox="0 0 24 24">
  <path fill="#000" d="M3.324 2.71a.73.73 0 0 0 0 1.016l.284.29a.717.717 0 0 0-.056.052l-.846.865a.73.73 0 0 0 0 1.016c.274.28.72.28.994 0l.846-.865a.717.717 0 0 0 .05-.057L5.694 6.15a8.645 8.645 0 0 0-1.637 2.595 8.788 8.788 0 0 0 0 6.598 8.643 8.643 0 0 0 1.657 2.617l-2.263 2.314a.73.73 0 0 0 0 1.016c.275.28.72.28.994 0l2.317-2.37c.57.441 1.195.807 1.859 1.088a8.272 8.272 0 0 0 6.453 0 8.414 8.414 0 0 0 2.539-1.673l2.688 2.748c.274.28.719.28.993 0a.73.73 0 0 0 0-1.016L4.318 2.71a.692.692 0 0 0-.994 0Zm13.7 1.28a.73.73 0 0 1 0-1.017c.274-.28.72-.28.994 0l2.588 2.647a.73.73 0 0 1 0 1.016.692.692 0 0 1-.994 0l-2.588-2.647Zm-8.504.146c1.48-.492 3.19-.825 4.645-.5a8.979 8.979 0 0 1 4.457 2.49 9.328 9.328 0 0 1 2.444 4.56c.322 1.49.14 3.394-.298 4.955a.439.439 0 0 1-.746.183L8.346 4.909c-.24-.247-.151-.666.174-.773Z"/>
</svg>
