<svg xmlns="http://www.w3.org/2000/svg" width="24" height="24" fill="none" viewBox="0 0 24 24">
  <path fill="#000" fill-rule="evenodd" d="M8.414 2h7.172a1 1 0 0 1 .707.293l5.414 5.414a1 1 0 0 1 .293.707v7.172a1 1 0 0 1-.293.707l-5.414 5.414a1 1 0 0 1-.707.293H8.414a1 1 0 0 1-.707-.293l-5.414-5.414A1 1 0 0 1 2 15.586V8.414a1 1 0 0 1 .293-.707l5.414-5.414A1 1 0 0 1 8.414 2Zm2.475 5.278a.833.833 0 1 1 1.667 0v6.11a.833.833 0 0 1-1.667 0v-6.11Zm0 8.61c0-.306.249-.555.555-.555H12c.307 0 .556.25.556.556V17a.556.556 0 0 1-.556.556h-.556A.556.556 0 0 1 10.89 17v-1.111Z" clip-rule="evenodd"/>
</svg>
