<svg xmlns="http://www.w3.org/2000/svg" width="24" height="24" fill="none" viewBox="0 0 24 24">
  <path fill="#000" fill-rule="evenodd" d="m11.466 1.89-8.16 4.593a1.089 1.089 0 0 0-.555.948v9.137c0 .394.212.756.555.95l8.162 4.592c.33.187.735.187 1.066 0l8.162-4.593c.343-.192.555-.555.555-.948V7.43c0-.393-.212-.756-.555-.948L12.533 1.89a1.088 1.088 0 0 0-1.066 0Zm-.333 5.194a.867.867 0 1 1 1.734 0v6.362a.867.867 0 1 1-1.734 0V7.084Zm0 8.965c0-.32.259-.579.578-.579h.578c.32 0 .578.26.578.579v1.156c0 .32-.259.579-.578.579h-.578a.578.578 0 0 1-.578-.579V16.05Z" clip-rule="evenodd"/>
</svg>
