<svg xmlns="http://www.w3.org/2000/svg" width="24" height="24" fill="none" viewBox="0 0 24 24">
  <path fill="#000" fill-rule="evenodd" d="M12.918 3.537a1.053 1.053 0 0 0-1.836 0L2.137 19.43c-.395.702.112 1.57.918 1.57h17.89c.806 0 1.313-.868.918-1.57L12.918 3.537ZM11.235 8.8c0-.44.347-.796.776-.796.429 0 .776.357.776.796v5.834c0 .44-.347.796-.776.796a.786.786 0 0 1-.776-.796V8.801Zm0 8.221c0-.293.232-.53.517-.53h.518c.286 0 .517.237.517.53v1.06a.524.524 0 0 1-.517.531h-.518a.524.524 0 0 1-.517-.53v-1.06Z" clip-rule="evenodd"/>
</svg>
