<svg xmlns="http://www.w3.org/2000/svg" width="24" height="24" fill="none" viewBox="0 0 24 24">
  <path fill="#000" d="M3 5.778c0-.43.345-.778.771-.778H20.23c.426 0 .771.348.771.778 0 .43-.345.778-.771.778H3.77A.775.775 0 0 1 3 5.778Zm3.872 4.148c0-.43.346-.778.772-.778h12.585c.426 0 .771.348.771.778 0 .43-.345.778-.771.778H7.644a.775.775 0 0 1-.772-.778ZM3 14.074c0-.43.345-.778.771-.778H20.23c.426 0 .771.349.771.778 0 .43-.345.778-.771.778H3.77a.775.775 0 0 1-.77-.778Zm3.872 4.148c0-.43.346-.778.772-.778h12.585c.426 0 .771.349.771.778 0 .43-.345.778-.771.778H7.644a.775.775 0 0 1-.772-.778Z"/>
</svg>
