<svg xmlns="http://www.w3.org/2000/svg" width="24" height="24" fill="none" viewBox="0 0 24 24">
  <path fill="#000" d="M2 5.778c0-.43.344-.778.77-.778h18.46c.426 0 .77.348.77.778 0 .43-.344.778-.77.778H2.77A.774.774 0 0 1 2 5.778Zm3.077 4.148c0-.43.344-.778.77-.778h12.307c.425 0 .77.348.77.778 0 .43-.345.778-.77.778H5.846a.774.774 0 0 1-.77-.778ZM2 14.074c0-.43.344-.778.77-.778h18.46c.426 0 .77.349.77.778 0 .43-.344.778-.77.778H2.77a.774.774 0 0 1-.77-.778Zm3.077 4.148c0-.43.344-.778.77-.778h12.307c.425 0 .77.349.77.778 0 .43-.345.778-.77.778H5.846a.774.774 0 0 1-.77-.778Z"/>
</svg>
