<svg xmlns="http://www.w3.org/2000/svg" width="24" height="24" fill="none" viewBox="0 0 24 24">
  <path fill="#000" fill-rule="evenodd" d="M5.333 2h13.334C20.507 2 22 3.52 22 5.396v9.057c0 1.875-1.492 3.396-3.333 3.396H17c-1.05 0-2.037.503-2.667 1.358l-1.889 2.567a.55.55 0 0 1-.888 0l-1.89-2.567A3.313 3.313 0 0 0 7 17.85H5.333C3.493 17.85 2 16.33 2 14.453V5.396C2 3.521 3.492 2 5.333 2Zm3.47 5.046c.975-.846 2.271-.598 3.049.327.777-.925 2.057-1.164 3.048-.327a2.366 2.366 0 0 1 .347 3.263c-.455.596-1.57 1.663-2.398 2.43-.342.318-.513.476-.719.54a.957.957 0 0 1-.556 0c-.206-.064-.377-.222-.719-.54-.828-.767-1.943-1.835-2.398-2.43a2.383 2.383 0 0 1 .347-3.263Z" clip-rule="evenodd"/>
</svg>
