<svg xmlns="http://www.w3.org/2000/svg" width="24" height="24" fill="none" viewBox="0 0 24 24">
  <path fill="#000" d="M1.167 5.5v-.542A2.708 2.708 0 0 1 3.875 2.25h16.25a2.708 2.708 0 0 1 2.708 2.708V5.5c0 1.197-.97 2.167-2.166 2.167H3.332A2.167 2.167 0 0 1 1.166 5.5Z"/>
  <path fill="#000" fill-rule="evenodd" d="M3.333 9.292h17.334V18.5a3.25 3.25 0 0 1-3.25 3.25H6.582a3.25 3.25 0 0 1-3.25-3.25V9.292Zm5.146 1.625a.812.812 0 1 0 0 1.625h7.042a.813.813 0 0 0 0-1.625H8.479Z" clip-rule="evenodd"/>
</svg>
