<svg xmlns="http://www.w3.org/2000/svg" width="24" height="24" fill="none" viewBox="0 0 24 24">
  <path fill="#000" d="M20.81 11.264c.572 0 1.027-.484.923-1.042a9.681 9.681 0 0 0-2.713-5.116c-3.836-3.808-10.056-3.808-13.893 0a9.698 9.698 0 0 0 0 13.788c3.837 3.808 10.056 3.808 13.893 0a9.682 9.682 0 0 0 2.715-5.127c.103-.557-.352-1.04-.923-1.04h-9.966l-.007-.001 2.013 1.998a.69.69 0 0 1 .204.488c0 .614-.748.922-1.186.488l-3.53-3.505a.273.273 0 0 1 0-.388l3.53-3.504c.438-.434 1.186-.126 1.186.488a.687.687 0 0 1-.204.487l-2 1.986h9.958Z"/>
</svg>
