<svg xmlns="http://www.w3.org/2000/svg" width="24" height="24" fill="none" viewBox="0 0 24 24">
  <path fill="#000" d="M21 12c0 .382-.31.692-.692.692H3.692a.692.692 0 1 1 0-1.384h16.616c.382 0 .692.31.692.692Zm-5.741-6.028c.27.27.27.709 0 .98l-2.77 2.768a.692.692 0 0 1-.979 0L8.742 6.951a.692.692 0 0 1 .98-.979l1.587 1.587V3.692a.692.692 0 1 1 1.384 0V7.56l1.588-1.587c.27-.27.708-.27.979 0Zm0 12.056a.692.692 0 0 1-.98 0l-1.587-1.587v3.867a.692.692 0 1 1-1.384 0V16.44L9.72 18.028a.692.692 0 1 1-.979-.98l2.77-2.768c.27-.27.708-.27.979 0l2.769 2.769c.27.27.27.709 0 .979Z"/>
</svg>
