<svg xmlns="http://www.w3.org/2000/svg" width="24" height="24" fill="none" viewBox="0 0 24 24">
  <path fill="#000" d="M11.264 3.329c0-.567-.484-1.02-1.042-.916a9.705 9.705 0 0 0-5.116 2.693c-3.808 3.807-3.808 9.98 0 13.788 3.807 3.808 9.98 3.808 13.788 0 3.808-3.807 3.808-9.98 0-13.788a9.705 9.705 0 0 0-5.127-2.695c-.557-.103-1.04.35-1.04.916v9.892l-.001.006 1.998-1.998a.69.69 0 0 1 .975.975l-3.504 3.504a.274.274 0 0 1-.388 0l-3.504-3.504a.69.69 0 1 1 .975-.975l1.986 1.985V3.33Zm.74-1.079h-.008.008Z"/>
</svg>
