<svg xmlns="http://www.w3.org/2000/svg" width="24" height="24" fill="none" viewBox="0 0 24 24">
  <path fill="#000" fill-rule="evenodd" d="M18.5 2.25h-13c-1.795 0-3.25 1.343-3.25 3v5c0 .889.418 1.687 1.083 2.236v6.264c0 1.657 1.455 3 3.25 3h10.834c1.795 0 3.25-1.343 3.25-3v-6.264c.665-.55 1.083-1.348 1.083-2.236v-5c0-1.657-1.455-3-3.25-3ZM5.26 19.45v-6.208c.079.005.159.008.24.008h13c.081 0 .161-.003.24-.008v6.208c0 .276-.242.5-.54.5H5.8c-.298 0-.54-.224-.54-.5ZM9 8.75a.75.75 0 0 0 0 1.5h6.5a.75.75 0 0 0 0-1.5H9Z" clip-rule="evenodd"/>
</svg>
