<svg xmlns="http://www.w3.org/2000/svg" width="24" height="24" fill="none" viewBox="0 0 24 24">
  <path fill="#000" d="M10.25 11.967c0-.993.78-1.805 1.75-1.805s1.75.812 1.75 1.805c0 .993-.78 1.804-1.75 1.804s-1.75-.811-1.75-1.804Z"/>
  <path fill="#000" fill-rule="evenodd" d="M4.5 5.25C3.12 5.25 2 6.412 2 7.846v8.308c0 1.434 1.12 2.596 2.5 2.596h15c1.38 0 2.5-1.162 2.5-2.596V7.846c0-1.434-1.12-2.596-2.5-2.596h-15ZM12 8.605c-1.791 0-3.25 1.501-3.25 3.362 0 1.86 1.459 3.362 3.25 3.362s3.25-1.502 3.25-3.362S13.791 8.605 12 8.605ZM7.023 9.91c0-.43-.335-.78-.75-.78-.414 0-.75.35-.75.78v4.133c0 .43.336.779.75.779.415 0 .75-.349.75-.78v-4.13Zm11.5 0c0-.43-.335-.78-.75-.78-.414 0-.75.35-.75.78v4.133c0 .43.336.779.75.779.415 0 .75-.349.75-.78v-4.13Z" clip-rule="evenodd"/>
</svg>
