<svg xmlns="http://www.w3.org/2000/svg" width="24" height="24" fill="none" viewBox="0 0 24 24">
  <path fill="#000" fill-rule="evenodd" d="M2.461 5.392v2.33c0 .585.475 1.06 1.06 1.06h.265v8.479h-.265a1.06 1.06 0 0 0-1.06 1.06v2.12a1.06 1.06 0 0 0 1.06 1.059H20.48a1.06 1.06 0 0 0 1.06-1.06v-2.12a1.06 1.06 0 0 0-1.06-1.06h-.265V8.783h.265a1.06 1.06 0 0 0 1.06-1.06v-2.33a1.06 1.06 0 0 0-.83-1.034l-8.02-1.783a3.18 3.18 0 0 0-1.38 0L3.291 4.358a1.06 1.06 0 0 0-.83 1.034Zm16.163 3.39h-3.18v8.479h3.18V8.78Zm-4.769 0h-3.71v8.479h3.71V8.78Zm-5.3 0H5.377v8.479h3.18V8.78Z" clip-rule="evenodd"/>
</svg>
