<svg xmlns="http://www.w3.org/2000/svg" width="24" height="24" fill="none" viewBox="0 0 24 24">
  <path fill="#000" d="M15.167 4.611c0 .08-.005.158-.013.236l2.597 1.598a2.111 2.111 0 1 1-.46 1.097l-2.598-1.598a2.107 2.107 0 0 1-2.807.425l-5.297 3.837a2.111 2.111 0 1 1-.726-.961l5.23-3.854a2.111 2.111 0 1 1 4.074-.78ZM4.347 15.167a.792.792 0 0 0-.791.791v4.75a.792.792 0 1 0 1.583 0v-4.75a.792.792 0 0 0-.792-.791Z"/>
  <path fill="#000" d="M10.944 9.625a.792.792 0 0 1 1.584 0v11.083a.792.792 0 1 1-1.584 0V9.625ZM19.125 12a.792.792 0 0 0-.792.792v7.916a.792.792 0 1 0 1.584 0v-7.916a.792.792 0 0 0-.792-.792Z"/>
</svg>
