<svg xmlns="http://www.w3.org/2000/svg" width="24" height="24" fill="none" viewBox="0 0 24 24">
  <path fill="#000" fill-rule="evenodd" d="M5.5 2.25A3.25 3.25 0 0 0 2.25 5.5v13a3.25 3.25 0 0 0 3.25 3.25h13a3.25 3.25 0 0 0 3.25-3.25v-13a3.25 3.25 0 0 0-3.25-3.25h-13Zm6.23 3.25a.812.812 0 0 0-.813.813v11.375a.812.812 0 1 0 1.625 0V6.313a.813.813 0 0 0-.813-.813ZM7.395 12a.813.813 0 0 0-.813.813v4.874a.813.813 0 0 0 1.625 0v-4.875A.813.813 0 0 0 7.396 12Zm7.854-.27a.812.812 0 1 1 1.625 0v5.957a.813.813 0 0 1-1.625 0V11.73Z" clip-rule="evenodd"/>
</svg>
