<svg xmlns="http://www.w3.org/2000/svg" width="24" height="24" fill="none" viewBox="0 0 24 24">
  <path fill="#000" fill-rule="evenodd" d="M5.25 2.25a3 3 0 0 0-3 3v13.5a3 3 0 0 0 3 3h13.5a3 3 0 0 0 3-3V5.25a3 3 0 0 0-3-3H5.25Zm10 4.063a.813.813 0 0 1 1.625 0v11.375a.813.813 0 0 1-1.625 0V6.313Zm-3.52 3.52a.812.812 0 0 0-.813.813v7.041a.812.812 0 1 0 1.625 0v-7.041a.813.813 0 0 0-.813-.813Zm-4.334 4.334a.812.812 0 0 0-.813.812v2.709a.813.813 0 0 0 1.625 0v-2.709a.812.812 0 0 0-.812-.812Z" clip-rule="evenodd"/>
</svg>
