<svg xmlns="http://www.w3.org/2000/svg" width="24" height="24" fill="none" viewBox="0 0 24 24">
  <path fill="#000" fill-rule="evenodd" d="M7 3v2a1 1 0 0 0 1 1v4.558a3 3 0 0 1-1.126 2.343l-2.748 2.198A3 3 0 0 0 3 17.442V19a3 3 0 0 0 3 3h12a3 3 0 0 0 3-3v-1.472a3 3 0 0 0-1.235-2.426l-3.03-2.204a3 3 0 0 1-1.235-2.426V6h.5a1 1 0 0 0 1-1V3a1 1 0 0 0-1-1H8a1 1 0 0 0-1 1Zm7 3H9.5v4.653C9.5 11.51 8.64 13.43 8 14l-2 1.5a5.08 5.08 0 0 0-.551.55c.178-.033.363-.05.551-.05h12l.144.003a14.63 14.63 0 0 0-.35-.274 15.528 15.528 0 0 1-.294-.229l-2-1.5c-.712-.57-1.5-2.53-1.5-3.442V6Z" clip-rule="evenodd"/>
</svg>
