<svg xmlns="http://www.w3.org/2000/svg" width="24" height="24" fill="none" viewBox="0 0 24 24">
  <path fill="#000" d="M16.956 4.104a6.219 6.219 0 0 1 1.821 4.398c0 2.177.28 3.888.672 5.216L9.07 3.354a6.22 6.22 0 0 1 7.887.75ZM4.628 15.348c.903-1.45 1.711-3.643 1.711-6.846 0-.499.06-.991.176-1.468L3.938 4.458a.777.777 0 1 1 1.1-1.1l15.234 15.235a.777.777 0 1 1-1.1 1.1l-1.86-1.863H5.705c-1.24 0-1.86 0-1.998-.102-.152-.113-.192-.185-.208-.374-.014-.17.367-.782 1.128-2.006Z"/>
  <path fill="#000" d="M8.355 19.389a.777.777 0 0 1 1.098-.069 3.353 3.353 0 0 0 2.228.843c.855 0 1.633-.318 2.228-.843a.777.777 0 1 1 1.028 1.166 4.908 4.908 0 0 1-3.256 1.231 4.908 4.908 0 0 1-3.257-1.23.777.777 0 0 1-.069-1.098Z"/>
</svg>
