<svg xmlns="http://www.w3.org/2000/svg" width="24" height="24" fill="none" viewBox="0 0 24 24">
  <path fill="#000" fill-rule="evenodd" d="M10.327 5.303a5.825 5.825 0 0 1 1.542-.206h.262a5.85 5.85 0 0 1 1.542.206v-.206a1.673 1.673 0 0 0-3.346 0v.206Zm5.02.762a5.813 5.813 0 0 1 2.603 4.85 9.12 9.12 0 0 0 .77 3.67l1.872 4.258a.54.54 0 0 1-.493.756h-4.033a.638.638 0 0 1-.045.124 4.463 4.463 0 0 1-8.022.04.63.63 0 0 1-.055-.164H3.901a.54.54 0 0 1-.494-.756l1.872-4.257a9.121 9.121 0 0 0 .771-3.67 5.813 5.813 0 0 1 2.603-4.85v-.97a3.347 3.347 0 0 1 6.694 0v.97ZM9.706 19.6a2.924 2.924 0 0 0 4.588 0H9.706Z" clip-rule="evenodd"/>
</svg>
