<svg xmlns="http://www.w3.org/2000/svg" width="24" height="24" fill="none" viewBox="0 0 24 24">
  <path fill="#000" d="M10 5.5a1 1 0 0 1 1-1h2.5a1 1 0 0 1 1 1V6h4.237a1.499 1.499 0 0 1 2.763.81 1.5 1.5 0 0 1-2.832.69h-1.402A8.92 8.92 0 0 1 19 9.174 9.415 9.415 0 0 1 21 15a1 1 0 0 1 1 1v2.5a1 1 0 0 1-1 1h-2.5a1 1 0 0 1-1-1V16a1 1 0 0 1 1-1h.845a7.637 7.637 0 0 0-1.623-4.725A7.106 7.106 0 0 0 14.5 7.958V8a1 1 0 0 1-1 1H11a1 1 0 0 1-1-1v-.196a7.075 7.075 0 0 0-3.708 2.454A7.635 7.635 0 0 0 4.655 15H3c0-2.136.714-4.204 2.018-5.847A8.919 8.919 0 0 1 6.733 7.5H5.308a1.5 1.5 0 1 1-.01-1.5H10v-.5Z"/>
  <path fill="#000" d="M3 15a1 1 0 0 0-1 1v2.5a1 1 0 0 0 1 1h2.5a1 1 0 0 0 1-1V16a1 1 0 0 0-1-1H3Z"/>
</svg>
