<svg xmlns="http://www.w3.org/2000/svg" width="24" height="24" fill="none" viewBox="0 0 24 24">
  <path fill="#000" fill-rule="evenodd" d="M10.85 3.942c1.173.963 2.641 2.178 3.635 3.002a.75.75 0 0 1-.005 1.158l-4.789 3.912 4.79 3.912a.75.75 0 0 1 0 1.162l-5.5 4.493A.75.75 0 0 1 7.755 21v-7.405L3.48 17.088a.75.75 0 0 1-.949-1.162l4.79-3.912-4.79-3.912a.75.75 0 1 1 .95-1.162l4.275 3.493V3.19a.75.75 0 0 1 1.184-.788l.067.05c.085.064.223.172.394.31.346.278.862.699 1.448 1.18Zm-1.594 9.653 3.564 2.912-3.564 2.912v-5.824Zm0-3.162V4.576l.642.526c.918.753 2.017 1.66 2.928 2.415l-3.57 2.916Zm-.225-7.94a.234.234 0 0 1 .002 0H9.03Zm-.95 1.14Z" clip-rule="evenodd"/>
  <path fill="#000" d="M18.504 5.443a.75.75 0 0 1 1.06.055c1.687 1.876 3.885 6.978.073 12.908a.75.75 0 0 1-1.262-.812c3.388-5.27 1.385-9.635.073-11.092a.75.75 0 0 1 .056-1.06Zm-2.978 2.981a.75.75 0 0 1 1.056.096c.494.593 1.062 1.62 1.23 2.854.17 1.262-.082 2.728-1.23 4.106a.75.75 0 1 1-1.152-.96c.851-1.022 1.016-2.056.895-2.944-.124-.917-.556-1.689-.895-2.096a.75.75 0 0 1 .096-1.056Z"/>
</svg>
