<svg xmlns="http://www.w3.org/2000/svg" width="24" height="24" fill="none" viewBox="0 0 24 24">
  <path fill="#000" fill-rule="evenodd" d="M14.344 3.942c1.174.963 2.641 2.178 3.635 3.002a.75.75 0 0 1-.005 1.158l-4.789 3.912 4.79 3.912a.75.75 0 0 1 0 1.162l-5.5 4.493A.75.75 0 0 1 11.25 21v-7.405l-4.275 3.493a.75.75 0 0 1-.95-1.162l4.79-3.912-4.79-3.912a.75.75 0 1 1 .95-1.162l4.275 3.493V3.19a.758.758 0 0 1 .053-.521.75.75 0 0 1 .814-.406.692.692 0 0 1 .181.06c.07.032.13.074.136.08l.067.048c.085.065.223.173.394.31.347.28.862.7 1.449 1.181Zm-1.594 9.653 3.564 2.912-3.564 2.912v-5.824Zm0-3.162V4.576l.642.526c.918.753 2.017 1.66 2.928 2.415l-3.57 2.916Zm-.225-7.94c-.007-.007-.005-.006.002 0h-.002Zm-.95 1.14a.135.135 0 0 1-.002-.003l.003.002Z" clip-rule="evenodd"/>
</svg>
