<svg xmlns="http://www.w3.org/2000/svg" width="24" height="24" fill="none" viewBox="0 0 24 24">
  <path fill="#000" d="M13.431 10.634a1.743 1.743 0 0 1-1.19.463h-2.65v-3.16h2.648c.447 0 .876.167 1.191.463.316.296.494.698.494 1.117 0 .419-.178.82-.494 1.117Zm-3.839 5.428v-3.61h2.889c.51 0 1 .19 1.361.528.361.339.564.798.564 1.277 0 .479-.203.938-.564 1.276a1.994 1.994 0 0 1-1.361.529H9.592Z"/>
  <path fill="#000" fill-rule="evenodd" d="M2.25 5.5A3.25 3.25 0 0 1 5.5 2.25h13a3.25 3.25 0 0 1 3.25 3.25v13a3.25 3.25 0 0 1-3.25 3.25h-13a3.25 3.25 0 0 1-3.25-3.25v-13Zm5.558 1.216a.437.437 0 0 0-.141.319v9.93a.432.432 0 0 0 .141.32.5.5 0 0 0 .34.132h4.815c.72 0 1.42-.216 2-.616a3.173 3.173 0 0 0 1.219-1.608 2.98 2.98 0 0 0-.035-1.973 3.193 3.193 0 0 0-1.278-1.568 2.9 2.9 0 0 0 .908-1.5 2.76 2.76 0 0 0-.147-1.718 2.974 2.974 0 0 0-1.15-1.345 3.278 3.278 0 0 0-1.758-.506H8.148a.497.497 0 0 0-.34.133Z" clip-rule="evenodd"/>
</svg>
