<svg xmlns="http://www.w3.org/2000/svg" width="24" height="24" fill="none" viewBox="0 0 24 24">
  <path fill="#000" fill-rule="evenodd" d="M12.313 3H5.5a1 1 0 0 0-1 1v8.643h7.813C14.9 12.643 17 10.484 17 7.82 17 5.16 14.901 3 12.312 3ZM12 4.5H6V11h6c1.726 0 3.5-1.403 3.5-3.179C15.5 6.046 13.726 4.5 12 4.5Z" clip-rule="evenodd"/>
  <path fill="#000" fill-rule="evenodd" d="M14.5 11h-10v9a1 1 0 0 0 1 1h9c2.761 0 5-2.302 5-5.143 0-2.84-2.239-4.857-5-4.857Zm0 1.643H6V19.5h8.5c1.726 0 3.284-1.868 3.284-3.643 0-1.775-1.558-3.214-3.284-3.214Z" clip-rule="evenodd"/>
</svg>
