<svg xmlns="http://www.w3.org/2000/svg" width="24" height="24" fill="none" viewBox="0 0 24 24">
  <path fill="#000" fill-rule="evenodd" d="M16.422 2.25H7.578a3.316 3.316 0 0 0-3.316 3.316v15.63c0 .425.458.69.827.48l6.637-3.792a.553.553 0 0 1 .548 0l6.638 3.792a.553.553 0 0 0 .827-.48V5.566a3.317 3.317 0 0 0-3.317-3.316Zm-2.328 6.114a.83.83 0 0 1 1.173 1.172l-1.954 1.955 1.954 1.954a.83.83 0 0 1-1.173 1.172l-1.954-1.954-1.954 1.954a.83.83 0 1 1-1.173-1.172l1.954-1.954-1.954-1.955a.83.83 0 0 1 1.173-1.172l1.954 1.954 1.954-1.954Z" clip-rule="evenodd"/>
</svg>
