<svg xmlns="http://www.w3.org/2000/svg" width="24" height="24" fill="none" viewBox="0 0 24 24">
  <path fill="#000" d="M6.042 2.25a3.25 3.25 0 0 0-3.25 3.25h2.437a.812.812 0 1 1 0 1.625H2.791V8.75H5.23a.812.812 0 1 1 0 1.625H2.791V12H5.23a.813.813 0 0 1 0 1.625H2.791V18.5a3.25 3.25 0 0 0 3.25 3.25h1.084V2.25H6.042Z"/>
  <path fill="#000" fill-rule="evenodd" d="M17.958 21.75H8.75V2.25h9.208a3.25 3.25 0 0 1 3.25 3.25v13a3.25 3.25 0 0 1-3.25 3.25Zm-6.5-15.98a.812.812 0 1 0 0 1.626h6.5a.813.813 0 0 0 0-1.625h-6.5Zm-.812 4.063c0-.448.363-.812.812-.812h6.5a.813.813 0 0 1 0 1.625h-6.5a.812.812 0 0 1-.812-.813Zm.541 5.417a.813.813 0 0 0 0 1.625h7.042a.813.813 0 0 0 0-1.625h-7.042Z" clip-rule="evenodd"/>
</svg>
