<svg xmlns="http://www.w3.org/2000/svg" width="24" height="24" fill="none" viewBox="0 0 24 24">
  <path fill="#000" d="M2.55 2c-.58 0-1.05.471-1.05 1.053v2.105c0 .581.47 1.053 1.05 1.053h18.9c.58 0 1.05-.472 1.05-1.053V3.053A1.05 1.05 0 0 0 21.45 2H2.55Zm6.3 9.21a.263.263 0 0 0-.262.264v3.158c0 .145.117.263.262.263h6.563V11.21H8.85Z"/>
  <path fill="#000" fill-rule="evenodd" d="M2.55 7.263h18.9v11.58A3.154 3.154 0 0 1 18.3 22H5.7a3.154 3.154 0 0 1-3.15-3.158V7.263Zm4.463 4.21a1.84 1.84 0 0 1 1.837-1.84h6.037c1.16 0 2.1.942 2.1 2.105v2.631c0 1.163-.94 2.106-2.1 2.106H8.85a1.84 1.84 0 0 1-1.837-1.842v-3.158Z" clip-rule="evenodd"/>
</svg>
