<svg xmlns="http://www.w3.org/2000/svg" width="24" height="24" fill="none" viewBox="0 0 24 24">
  <path fill="#000" fill-rule="evenodd" d="m4.213 5.24 8.625-2.588a1 1 0 0 1 1.287.958v6.093H19.5a1 1 0 0 1 1 1v9.688a1 1 0 0 1-1 1h-8.031v-2.125a2.656 2.656 0 0 0-5.313 0v2.125H4.5a1 1 0 0 1-1-1V6.197a1 1 0 0 1 .713-.958Zm6.459 1.276a.797.797 0 0 0 0 1.593h.531a.797.797 0 1 0 0-1.593h-.531Zm4.515 7.172c0-.44.357-.797.797-.797h1.594a.797.797 0 0 1 0 1.594h-1.594a.797.797 0 0 1-.796-.797Zm-4.515-3.985a.797.797 0 0 0 0 1.594h.531a.797.797 0 0 0 0-1.594h-.531Zm4.515 7.172c0-.44.357-.797.797-.797h1.594a.797.797 0 0 1 0 1.594h-1.594a.797.797 0 0 1-.796-.797ZM6.422 6.515a.797.797 0 1 0 0 1.594h.531a.797.797 0 1 0 0-1.593h-.531ZM5.625 10.5c0-.44.357-.797.797-.797h.531a.797.797 0 0 1 0 1.594h-.531a.797.797 0 0 1-.797-.797Zm.797 2.39a.797.797 0 0 0 0 1.595h4.781a.797.797 0 0 0 0-1.594H6.422Z" clip-rule="evenodd"/>
  <path fill="#000" d="M10.406 19.266v2.125H7.22v-2.125a1.594 1.594 0 0 1 3.187 0Z"/>
</svg>
