<svg xmlns="http://www.w3.org/2000/svg" width="24" height="24" fill="none" viewBox="0 0 24 24">
  <path fill="#000" fill-rule="evenodd" d="M5.667 2.5A3.167 3.167 0 0 0 2.5 5.667v12.666A3.167 3.167 0 0 0 5.667 21.5h12.666a3.167 3.167 0 0 0 3.167-3.167V5.667A3.167 3.167 0 0 0 18.333 2.5H5.667ZM19.79 4.115a.792.792 0 0 0-1.12 0L4.115 18.67a.792.792 0 0 0 1.12 1.12L19.79 5.235a.792.792 0 0 0 0-1.12Zm-10.957.496a.633.633 0 0 0-.633.633v1.9H6.3a.633.633 0 0 0 0 1.267h1.9v1.9a.633.633 0 1 0 1.267 0v-1.9h1.9a.633.633 0 1 0 0-1.267h-1.9v-1.9a.633.633 0 0 0-.634-.633ZM19.39 15.958a.792.792 0 0 0-.792-.791h-5.805a.792.792 0 1 0 0 1.583h5.805a.792.792 0 0 0 .792-.792Z" clip-rule="evenodd"/>
</svg>
