<svg xmlns="http://www.w3.org/2000/svg" width="24" height="24" fill="none" viewBox="0 0 24 24">
  <path fill="#000" fill-rule="evenodd" d="M7.75 2a.75.75 0 0 0-.75.75V4H6a3 3 0 0 0-3 3v12a3 3 0 0 0 3 3h12a3 3 0 0 0 3-3V7a3 3 0 0 0-3-3h-.5V2.75a.75.75 0 0 0-1.5 0V4H8.5V2.75A.75.75 0 0 0 7.75 2ZM16 6.25V5.5H8.5v.75a.75.75 0 1 1-1.5 0V5.5H5.5a1 1 0 0 0-1 1V10h15V6.5a1 1 0 0 0-1-1h-1v.75a.75.75 0 0 1-1.5 0ZM12 15a1 1 0 1 0 0-2 1 1 0 0 0 0 2Zm6-1a1 1 0 1 1-2 0 1 1 0 0 1 2 0ZM7 19a1 1 0 1 0 0-2 1 1 0 0 0 0 2Zm6-1a1 1 0 1 1-2 0 1 1 0 0 1 2 0Zm4 1a1 1 0 1 0 0-2 1 1 0 0 0 0 2Z" clip-rule="evenodd"/>
</svg>
