<svg xmlns="http://www.w3.org/2000/svg" width="24" height="24" fill="none" viewBox="0 0 24 24">
  <path fill="#000" fill-rule="evenodd" d="M9.263 3.255c0-.417-.323-.755-.72-.755-.398 0-.721.338-.721.755V4.31H6.814C4.984 4.31 3.5 5.865 3.5 7.782V18.75c0 1.519 1.936 2.75 3.434 2.75h10.853c1.498 0 2.713-.981 2.713-2.5V7.783c0-1.917-1.483-3.472-3.314-3.472h-1.008V3.255c0-.417-.323-.755-.72-.755-.398 0-.72.338-.72.755V4.31H9.262V3.255Zm9.796 7.245V7.783c0-1.084-.838-1.962-1.873-1.962h-1.008v1.056c0 .417-.323.755-.72.755-.398 0-.72-.338-.72-.755V5.821H9.262v1.056c0 .417-.323.755-.72.755-.398 0-.721-.338-.721-.755V5.821H6.814c-1.035 0-1.873.878-1.873 1.962V10.5h14.118Zm-5.559 3a1 1 0 0 1 1-1h.01a1 1 0 1 1 0 2h-.01a1 1 0 0 1-1-1Zm-6 3a1 1 0 1 0 0 2h.01a1 1 0 1 0 0-2H7.5Zm2.49 1a1 1 0 0 1 1-1H11a1 1 0 1 1 0 2h-.01a1 1 0 0 1-1-1Zm4.51-1a1 1 0 1 0 0 2h.01a1 1 0 1 0 0-2h-.01Zm2.5 1a1 1 0 0 1 1-1h.01a1 1 0 1 1 0 2H18a1 1 0 0 1-1-1Zm.99-5a1 1 0 1 0 0 2H18a1 1 0 1 0 0-2h-.01Z" clip-rule="evenodd"/>
</svg>
