<svg xmlns="http://www.w3.org/2000/svg" width="24" height="24" fill="none" viewBox="0 0 24 24">
  <path fill="#000" fill-rule="evenodd" d="M6.636 2.75a.75.75 0 1 1 1.5 0V4h7.5V2.75a.75.75 0 0 1 1.5 0V4h.5a3 3 0 0 1 3 3v8h-6a1 1 0 0 0-1 1v5a1 1 0 0 0 1 1h-9a3 3 0 0 1-3-3V7a3 3 0 0 1 3-3h1V2.75ZM4.136 10h15V6.5a1 1 0 0 0-1-1h-1v.75a.75.75 0 1 1-1.5 0V5.5h-7.5v.75a.75.75 0 1 1-1.5 0V5.5h-1.5a1 1 0 0 0-1 1V10Z" clip-rule="evenodd"/>
  <path fill="#000" d="m17.042 20.792-1.947-1.855a.604.604 0 0 1 .832-.874l1.334 1.27 3.084-2.937a.603.603 0 1 1 .832.874l-3.698 3.522a.317.317 0 0 1-.437 0Z"/>
</svg>
