<svg xmlns="http://www.w3.org/2000/svg" width="24" height="24" fill="none" viewBox="0 0 24 24">
  <path fill="#000" fill-rule="evenodd" d="M7.078 3.89c.41-.41.967-.64 1.547-.64h6.75c.58 0 1.137.23 1.547.64l1.546 1.547h1.188a2.187 2.187 0 0 1 2.188 2.188v10.938a2.187 2.187 0 0 1-2.188 2.187H4.344a2.188 2.188 0 0 1-2.188-2.188V7.626a2.188 2.188 0 0 1 2.188-2.188h1.188l1.546-1.546ZM9.812 12a2.188 2.188 0 1 1 4.376 0 2.188 2.188 0 0 1-4.376 0ZM12 7.625a4.375 4.375 0 1 0 0 8.75 4.375 4.375 0 0 0 0-8.75Z" clip-rule="evenodd"/>
</svg>
