<svg xmlns="http://www.w3.org/2000/svg" width="24" height="24" fill="none" viewBox="0 0 24 24">
  <path fill="#000" fill-rule="evenodd" d="m3.01 9.132 1.592-4.138A1.941 1.941 0 0 1 6.414 3.75h11.604a1.94 1.94 0 0 1 1.855 1.37l1.207 3.921 1.033-1.033a.753.753 0 0 1 1.064 1.065l-1.251 1.251c.444.445.72 1.059.72 1.737v4.995a3.194 3.194 0 0 1-3.194 3.194h-2.13a1.065 1.065 0 0 1-1.064-1.064c0-.588-.477-1.065-1.064-1.065H8.806c-.588 0-1.064.477-1.064 1.065 0 .587-.477 1.064-1.065 1.064H4.548a3.194 3.194 0 0 1-3.193-3.194v-4.995c0-.678.275-1.292.72-1.737L.822 9.073a.753.753 0 0 1 1.064-1.065L3.01 9.132Zm1.964.473h14.584l-1.46-3.648a.97.97 0 0 0-.9-.61H7.334a.97.97 0 0 0-.9.61l-1.46 3.648Zm2.236 5.322H5.08a1.065 1.065 0 0 1 0-2.129h2.13a1.065 1.065 0 0 1 0 2.13Zm9.58 0h2.13a1.065 1.065 0 0 0 0-2.129h-2.13a1.065 1.065 0 0 0 0 2.13Z" clip-rule="evenodd"/>
</svg>
