<svg xmlns="http://www.w3.org/2000/svg" width="24" height="24" fill="none" viewBox="0 0 24 24">
  <path fill="#000" fill-rule="evenodd" d="M12 21.75c5.385 0 9.75-4.365 9.75-9.75S17.385 2.25 12 2.25 2.25 6.615 2.25 12s4.365 9.75 9.75 9.75Zm0-6.5a3.25 3.25 0 1 0 0-6.5 3.25 3.25 0 0 0 0 6.5Zm6.863-3.792c.398 0 .724-.323.684-.72a7.042 7.042 0 0 0-9.584-5.832c-.37.146-.508.584-.325.938.183.353.617.487.99.35a5.6 5.6 0 0 1 7.468 4.546c.05.394.369.718.767.718Zm-14.41 1.803c-.04-.396.286-.72.684-.72.398 0 .716.325.767.72a5.6 5.6 0 0 0 7.467 4.544c.374-.136.808-.002.991.351.183.354.046.792-.325.938a7.041 7.041 0 0 1-9.583-5.833Z" clip-rule="evenodd"/>
</svg>
