<svg xmlns="http://www.w3.org/2000/svg" width="24" height="24" fill="none" viewBox="0 0 24 24">
  <path fill="#000" fill-rule="evenodd" d="M18.73 6.5H3.655c-1.19 0-2.154.985-2.154 2.2v6.6c0 1.215.964 2.2 2.154 2.2H18.73c1.19 0 2.154-.985 2.154-2.2v-.223a2.195 2.195 0 0 0 1.615-2.13v-1.893c0-1.008-.67-1.882-1.615-2.13V8.7c0-1.215-.965-2.2-2.154-2.2Zm-7.42 1.587-2.81 4.33c-.095.146.008.341.18.341h2.81c.118 0 .215.099.215.22v2.573c0 .218.276.304.395.122l2.613-4.003c.095-.146-.008-.342-.18-.342H11.92a.218.218 0 0 1-.215-.22v-2.9c0-.218-.277-.303-.395-.121Z" clip-rule="evenodd"/>
</svg>
