<svg xmlns="http://www.w3.org/2000/svg" width="24" height="24" fill="none" viewBox="0 0 24 24">
  <path fill="#000" fill-rule="evenodd" d="M1.167 5.5a3.25 3.25 0 0 1 3.25-3.25h15.166a3.25 3.25 0 0 1 3.25 3.25v13a3.25 3.25 0 0 1-3.25 3.25H4.417a3.25 3.25 0 0 1-3.25-3.25v-13Zm3.255 14.108a1.09 1.09 0 1 0 .025-2.18 1.09 1.09 0 0 0-.025 2.18Zm7.365-.172c.375.024.702-.26.693-.635a7.583 7.583 0 0 0-9.543-7.144c-.363.097-.543.49-.414.843.129.352.519.53.883.44a6.223 6.223 0 0 1 7.71 5.772c.017.375.297.7.671.724Zm-2.657-.382c.025.365-.295.643-.661.62-.366-.025-.637-.343-.68-.707a3.587 3.587 0 0 0-4.156-3.11c-.361.06-.743-.11-.869-.454-.126-.345.05-.73.408-.81a4.918 4.918 0 0 1 5.52 2.747 4.89 4.89 0 0 1 .438 1.714Z" clip-rule="evenodd"/>
</svg>
