<svg xmlns="http://www.w3.org/2000/svg" width="24" height="24" fill="none" viewBox="0 0 24 24">
  <path fill="#000" d="M12 22.75c5.937 0 10.75-4.813 10.75-10.75S17.937 1.25 12 1.25c-5.566 0-10.144 4.23-10.694 9.65a10.752 10.752 0 0 1 5.319-8.212A10.746 10.746 0 0 1 12 12c0 3.98-2.162 7.453-5.375 9.312A10.701 10.701 0 0 0 12 22.75Z"/>
  <path fill="#000" d="M5.317 20.052a9.479 9.479 0 0 0 4.067-7.788 9.479 9.479 0 0 0-4.067-7.789 9.479 9.479 0 0 0-4.067 7.789 9.479 9.479 0 0 0 4.067 7.788Z"/>
</svg>
