<svg xmlns="http://www.w3.org/2000/svg" width="24" height="24" fill="none" viewBox="0 0 24 24">
  <path fill="#000" fill-rule="evenodd" d="M7.078 3.063c0-1.001.812-1.813 1.814-1.813h6.216c1.002 0 1.814.812 1.814 1.813v1.069c.083-.021.17-.033.259-.033h1.036c1.145 0 2.072.928 2.072 2.073v13.47a3.108 3.108 0 0 1-3.108 3.108H6.819a3.108 3.108 0 0 1-3.108-3.108V6.172c0-1.145.928-2.073 2.072-2.073H6.82c.09 0 .177.012.26.033V3.063Zm1.814-.259a.259.259 0 0 0-.26.26v2.072a.26.26 0 0 0 .26.259h6.216a.26.26 0 0 0 .26-.26V3.064a.26.26 0 0 0-.26-.259H8.892ZM13.21 8.5a2.25 2.25 0 0 0-2.25 2.25v4.5a.75.75 0 0 0 1.5 0v-4.5a.75.75 0 0 1 1.5 0v5a2.25 2.25 0 1 1-4.5 0v-4.5a.75.75 0 0 0-1.5 0v4.5a3.75 3.75 0 1 0 7.5 0v-5a2.25 2.25 0 0 0-2.25-2.25Z" clip-rule="evenodd"/>
</svg>
