<svg xmlns="http://www.w3.org/2000/svg" width="24" height="24" fill="none" viewBox="0 0 24 24">
  <path fill="#000" fill-rule="evenodd" d="M8.892 1.25a1.813 1.813 0 0 0-1.814 1.813v1.069a1.038 1.038 0 0 0-.259-.033H5.783a2.072 2.072 0 0 0-2.072 2.073v13.47a3.108 3.108 0 0 0 3.108 3.108h10.362a3.108 3.108 0 0 0 3.108-3.108V6.172a2.072 2.072 0 0 0-2.072-2.073h-1.036c-.09 0-.176.012-.26.033V3.063a1.813 1.813 0 0 0-1.813-1.813H8.892Zm-.26 1.813a.26.26 0 0 1 .26-.259h6.216a.26.26 0 0 1 .26.26v2.072a.26.26 0 0 1-.26.259H8.892a.259.259 0 0 1-.26-.26V3.064Z" clip-rule="evenodd"/>
</svg>
