<svg xmlns="http://www.w3.org/2000/svg" width="24" height="24" fill="none" viewBox="0 0 24 24">
  <path fill="#000" fill-rule="evenodd" d="M14.66 2.234H9.663a.75.75 0 1 0 0 1.5h1.75v.546a8.75 8.75 0 1 0 1.5.043v-.589h1.745a.75.75 0 0 0 0-1.5Zm-2.34 6.708v3.667l2.101 1.302a.796.796 0 0 1 .227 1.14.79.79 0 0 1-1.08.199l-2.484-1.65a.39.39 0 0 1-.175-.326V8.942a.707.707 0 1 1 1.412 0Z" clip-rule="evenodd"/>
  <path fill="#000" d="M17.44 3.825a.75.75 0 1 1 1.06-1.06l2.122 2.12a.75.75 0 1 1-1.061 1.061l-2.122-2.121Zm-10.819 0a.75.75 0 1 0-1.06-1.06l-2.122 2.12A.75.75 0 1 0 4.5 5.947l2.121-2.121Z"/>
</svg>
