<svg xmlns="http://www.w3.org/2000/svg" width="24" height="24" fill="none" viewBox="0 0 24 24">
  <path fill="#000" fill-rule="evenodd" d="M18.934 13.594c.534 0 .96-.402.948-.938l-.005-.23v-.002a19.612 19.612 0 0 1-.008-.424c0-4.694-3.793-8.5-8.47-8.5-4.679 0-8.471 3.806-8.471 8.5s3.792 8.5 8.47 8.5a8.43 8.43 0 0 0 2.505-.378c.412-.127.672-.523.672-.956v-4.51a1.06 1.06 0 0 1 1.059-1.062h3.3Zm.373 2.288H16.39a.612.612 0 0 1 0-1.226h3.856a.828.828 0 0 1 .52 1.475l-3.223 2.612h2.92a.612.612 0 0 1 0 1.226h-3.857a.828.828 0 0 1-.52-1.475l3.222-2.612ZM11.34 7.208v3.667l2.1 1.302c.39.242.495.766.227 1.14a.79.79 0 0 1-1.08.199l-2.485-1.65a.39.39 0 0 1-.174-.326V7.208a.707.707 0 1 1 1.411 0Z" clip-rule="evenodd"/>
</svg>
