<svg xmlns="http://www.w3.org/2000/svg" width="24" height="24" fill="none" viewBox="0 0 24 24">
  <path fill="#000" d="M17.09 22c2.16 0 3.91-1.68 3.91-3.753 0-2.073-1.75-3.753-3.91-3.753a.079.079 0 0 1-.076-.064c-.4-2.098-2.314-3.688-4.615-3.688-2.3 0-4.215 1.59-4.614 3.688a.079.079 0 0 1-.077.065c-2.159 0-3.91 1.68-3.91 3.752C3.799 20.32 5.55 22 7.709 22h9.383ZM15.007 8.99c.366-.149.548-.576.348-.921a4.813 4.813 0 0 0-1.886-1.832 4.71 4.71 0 0 0-3.258-.449 4.77 4.77 0 0 0-2.773 1.797 4.906 4.906 0 0 0-.956 2.467c-.039.399.302.708.696.688.394-.02.69-.364.753-.76a3.433 3.433 0 0 1 .643-1.514 3.344 3.344 0 0 1 1.943-1.26 3.302 3.302 0 0 1 2.285.315c.488.262.902.642 1.208 1.1.221.333.631.52.997.37Zm-6.43-6.262c0-.402.32-.728.717-.728.395 0 .716.326.716.728V3.7c0 .402-.32.728-.716.728a.723.723 0 0 1-.717-.728v-.972Zm-4.271 2.76a.737.737 0 0 1 0-1.03.709.709 0 0 1 1.013 0l.676.686c.28.285.28.746 0 1.03a.709.709 0 0 1-1.014 0l-.675-.686Zm10.289-1.943a.737.737 0 0 0 0-1.03.709.709 0 0 0-1.013 0l-.676.687a.737.737 0 0 0 0 1.03.709.709 0 0 0 1.014 0l.675-.687ZM3.717 9.93A.723.723 0 0 1 3 9.2c0-.402.32-.728.717-.728h.955c.396 0 .717.326.717.728 0 .403-.32.729-.717.729h-.955Zm13.714-3.39a.735.735 0 0 0 .263-.995.71.71 0 0 0-.98-.267l-.827.486a.735.735 0 0 0-.262.995.71.71 0 0 0 .979.267l.827-.486Z"/>
</svg>
