<svg xmlns="http://www.w3.org/2000/svg" width="24" height="24" fill="none" viewBox="0 0 24 24">
  <path fill="#000" d="M2.5 5.118C2.5 3.948 3.445 3 4.611 3h3.061c.059 0 .106.047.106.106v17.788a.106.106 0 0 1-.106.106h-3.06A2.114 2.114 0 0 1 2.5 18.882V5.118Zm13.722-2.012c0-.059.047-.106.106-.106h3.06c1.167 0 2.112.948 2.112 2.118v13.764c0 1.17-.945 2.118-2.111 2.118h-3.061a.106.106 0 0 1-.106-.106V3.106Zm-7.389.424A.53.53 0 0 1 9.361 3h5.278a.53.53 0 0 1 .528.53v16.94a.53.53 0 0 1-.528.53H9.36a.529.529 0 0 1-.528-.53V3.53Z"/>
</svg>
