<svg xmlns="http://www.w3.org/2000/svg" width="24" height="24" fill="none" viewBox="0 0 24 24">
  <path fill="#000" fill-rule="evenodd" d="M12 21.75c5.385 0 9.75-4.365 9.75-9.75S17.385 2.25 12 2.25 2.25 6.615 2.25 12s4.365 9.75 9.75 9.75Zm0-19.013a.731.731 0 0 0-.731.732V4.93a.731.731 0 0 0 1.462 0V3.47A.731.731 0 0 0 12 2.737Zm0 15.113a.731.731 0 0 0-.731.731v1.755a.731.731 0 0 0 1.462 0v-1.755a.731.731 0 0 0-.731-.73Zm.183-9.256.87 2.353 2.353.87c.17.063.17.303 0 .366l-2.353.87-.87 2.353a.195.195 0 0 1-.366 0l-.87-2.353-2.353-.87a.195.195 0 0 1 0-.366l2.353-.87.87-2.353a.195.195 0 0 1 .366 0Zm5.423-2.99a.731.731 0 1 1 1.034 1.033l-1.034 1.035a.731.731 0 0 1-1.034-1.035l1.034-1.034Zm-10.725 0a.731.731 0 0 0-1.034 1.033l1.034 1.035a.731.731 0 1 0 1.034-1.035L6.881 5.603Zm13.407 5.177a.731.731 0 1 1 0 1.463h-1.463a.731.731 0 1 1 0-1.463h1.463Zm-14.626 0a.731.731 0 0 1 0 1.463H4.2a.731.731 0 1 1 0-1.463h1.462Zm1.22 5.547a.731.731 0 1 1 1.033 1.034l-1.034 1.035a.731.731 0 0 1-1.034-1.035l1.034-1.034Zm10.724 0a.731.731 0 1 0-1.034 1.034l1.034 1.035a.731.731 0 0 0 1.034-1.035l-1.034-1.034Z" clip-rule="evenodd"/>
</svg>
