<svg xmlns="http://www.w3.org/2000/svg" width="24" height="24" fill="none" viewBox="0 0 24 24">
  <path fill="#000" fill-rule="evenodd" d="M12 21.5a9.5 9.5 0 1 0 0-19 9.5 9.5 0 0 0 0 19ZM9.889 6.986a.792.792 0 1 0 0 1.583h1.32c.5 0 .825.19 1.04.449.077.092.144.198.198.314H9.89a.792.792 0 0 0 0 1.583h2.558c-.054.116-.12.222-.197.314-.216.258-.542.449-1.042.449h-1.32a.792.792 0 0 0-.56 1.35l3.738 3.753a.792.792 0 1 0 1.122-1.117l-2.437-2.447a2.795 2.795 0 0 0 1.715-.974c.325-.39.536-.85.645-1.328h1.056a.792.792 0 1 0 0-1.583H14.11a3.3 3.3 0 0 0-.274-.763h1.33a.792.792 0 0 0 0-1.583H9.889Z" clip-rule="evenodd"/>
</svg>
