<svg xmlns="http://www.w3.org/2000/svg" width="24" height="24" fill="none" viewBox="0 0 24 24">
  <path fill="#000" fill-rule="evenodd" d="M6.333 3.5A2.833 2.833 0 0 0 3.5 6.333v11.334A2.833 2.833 0 0 0 6.333 20.5h11.334a2.833 2.833 0 0 0 2.833-2.833V6.333A2.833 2.833 0 0 0 17.667 3.5H6.333ZM7.75 6.667a1.25 1.25 0 1 0 0 2.5 1.25 1.25 0 0 0 0-2.5Zm7.41 1.25a1.25 1.25 0 1 1 2.5 0 1.25 1.25 0 0 1-2.5 0ZM7.75 14.8a1.25 1.25 0 1 0 0 2.5 1.25 1.25 0 0 0 0-2.5Zm7.41 1.308a1.25 1.25 0 1 1 2.5 0 1.25 1.25 0 0 1-2.5 0ZM6.5 11.892a1.25 1.25 0 1 1 2.5 0 1.25 1.25 0 0 1-2.5 0Zm9.91-1.25a1.25 1.25 0 1 0 0 2.5 1.25 1.25 0 0 0 0-2.5Z" clip-rule="evenodd"/>
</svg>
