<svg xmlns="http://www.w3.org/2000/svg" width="24" height="24" fill="none" viewBox="0 0 24 24">
  <path fill="#000" fill-rule="evenodd" d="M3.5 5.625c0-1.174.951-2.125 2.125-2.125h12.75c1.174 0 2.125.951 2.125 2.125v12.75a2.125 2.125 0 0 1-2.125 2.125H5.625A2.125 2.125 0 0 1 3.5 18.375V5.625ZM15.188 7.75c0-.587.475-1.063 1.062-1.063h.01a1.063 1.063 0 0 1 0 2.125h-.01a1.063 1.063 0 0 1-1.063-1.062ZM7.75 15.188a1.063 1.063 0 0 0 0 2.124h.01a1.063 1.063 0 0 0 0-2.125h-.01Z" clip-rule="evenodd"/>
</svg>
