<svg xmlns="http://www.w3.org/2000/svg" width="24" height="24" fill="none" viewBox="0 0 24 24">
  <path fill="#000" fill-rule="evenodd" d="M5.5 3.5a2 2 0 0 0-2 2v13a2 2 0 0 0 2 2h13a2 2 0 0 0 2-2v-13a2 2 0 0 0-2-2h-13Zm10.75 3.25a1 1 0 1 0 0 2h.01a1 1 0 1 0 0-2h-.01ZM11 12a1 1 0 0 1 1-1h.01a1 1 0 1 1 0 2H12a1 1 0 0 1-1-1ZM7.75 6.75a1 1 0 0 0 0 2h.01a1 1 0 0 0 0-2h-.01Zm-1 9.5a1 1 0 0 1 1-1h.01a1 1 0 1 1 0 2h-.01a1 1 0 0 1-1-1Zm9.5-1a1 1 0 1 0 0 2h.01a1 1 0 1 0 0-2h-.01Z" clip-rule="evenodd"/>
</svg>
