<svg xmlns="http://www.w3.org/2000/svg" width="24" height="24" fill="none" viewBox="0 0 24 24">
  <path fill="#000" d="M2.5 2.81c0 .449.354.812.792.812h17.416a.801.801 0 0 0 .792-.811.801.801 0 0 0-.792-.811H3.292a.801.801 0 0 0-.792.81Zm15.833 5.676c1.166 0 2.111.969 2.111 2.163v2.162c0 1.194-.945 2.162-2.11 2.162H5.666c-1.166 0-2.111-.968-2.111-2.162v-2.162c0-1.194.945-2.163 2.11-2.163h12.667ZM3.292 22a.801.801 0 0 1-.792-.81c0-.449.354-.812.792-.812h17.416c.438 0 .792.363.792.811a.801.801 0 0 1-.792.811H3.292Z"/>
</svg>
