<svg xmlns="http://www.w3.org/2000/svg" width="24" height="24" fill="none" viewBox="0 0 24 24">
  <path fill="#000" fill-rule="evenodd" d="M20.2 9.174c0-.17-.014-.34-.042-.505H14.05a.769.769 0 0 1-.769-.769V1.792a3.076 3.076 0 0 0-.505-.042H6.875A3.075 3.075 0 0 0 3.8 4.825v14.35a3.075 3.075 0 0 0 3.075 3.075h10.25a3.075 3.075 0 0 0 3.075-3.075V9.174ZM14.819 7.13V2.526c.045.04.089.082.131.125l4.35 4.348c.042.043.084.087.123.132H14.82ZM7.644 12a.769.769 0 0 0 0 1.537h8.712a.769.769 0 0 0 0-1.537H7.644Zm0 4.1a.769.769 0 0 0 0 1.537h6.662a.769.769 0 0 0 0-1.537H7.644Z" clip-rule="evenodd"/>
</svg>
