<svg xmlns="http://www.w3.org/2000/svg" width="24" height="24" fill="none" viewBox="0 0 24 24">
  <path fill="#000" d="M5.5 6.99a1.25 1.25 0 1 1-2.5 0 1.25 1.25 0 0 1 2.5 0Zm.02 5.02a1.25 1.25 0 1 1-2.5 0 1.25 1.25 0 0 1 2.5 0Zm-.005 5a1.25 1.25 0 1 1-2.5 0 1.25 1.25 0 0 1 2.5 0ZM7 7.018a.75.75 0 0 1 .75-.75h12.5a.75.75 0 0 1 0 1.5H7.75a.75.75 0 0 1-.75-.75Zm0 5.037a.75.75 0 0 1 .75-.75h12.5a.75.75 0 0 1 0 1.5H7.75a.75.75 0 0 1-.75-.75Zm0 4.955a.75.75 0 0 1 .75-.75h12.5a.75.75 0 0 1 0 1.5H7.75a.75.75 0 0 1-.75-.75Z"/>
</svg>
