<svg xmlns="http://www.w3.org/2000/svg" width="24" height="24" fill="none" viewBox="0 0 24 24">
  <path fill="#000" d="M8.276 15.724h3.138l9.936-9.936a2.219 2.219 0 0 0-3.138-3.138l-9.936 9.936v3.138Z"/>
  <path fill="#000" d="M5.138 3.173A3.138 3.138 0 0 0 2 6.31v12.551A3.138 3.138 0 0 0 5.138 22h12.551a3.138 3.138 0 0 0 3.138-3.138V9.033c0-.28-.338-.42-.536-.222l-7.74 7.74a.313.313 0 0 1-.221.092H7.544a.314.314 0 0 1-.314-.313v-4.786a.31.31 0 0 1 .092-.222l6.092-6.092a.314.314 0 0 0 .091-.222V3.487a.314.314 0 0 0-.313-.314H5.138Z"/>
</svg>
