<svg xmlns="http://www.w3.org/2000/svg" width="24" height="24" fill="none" viewBox="0 0 24 24">
  <path fill="#000" d="M3 2.25h6a.75.75 0 0 1 0 1.5H4.81l4.72 4.72a.75.75 0 0 1-1.06 1.06L3.75 4.81V9a.75.75 0 0 1-1.5 0V3A.75.75 0 0 1 3 2.25Zm12 1.5a.75.75 0 0 1 0-1.5h6a.75.75 0 0 1 .75.75v6a.75.75 0 0 1-1.5 0V4.81l-4.72 4.72a.75.75 0 1 1-1.06-1.06l4.72-4.72H15ZM2.25 15a.75.75 0 0 1 1.5 0v4.19l4.72-4.72a.75.75 0 0 1 1.06 1.06l-4.72 4.72H9a.75.75 0 0 1 0 1.5H3a.75.75 0 0 1-.75-.75v-6Zm16.94 5.25-4.72-4.72a.75.75 0 1 1 1.06-1.06l4.72 4.72V15a.75.75 0 0 1 1.5 0v6a.75.75 0 0 1-.75.75h-6a.75.75 0 0 1 0-1.5h4.19Z"/>
</svg>
