<svg xmlns="http://www.w3.org/2000/svg" width="24" height="24" fill="none" viewBox="0 0 24 24">
  <path fill="#000" d="M4.698 3.92a.653.653 0 0 0-.898.016.629.629 0 0 0-.016.881l15.518 15.231a.646.646 0 0 0 .462.202.658.658 0 0 0 .468-.186.633.633 0 0 0 .19-.46.623.623 0 0 0-.206-.453L4.698 3.921Zm16.506 8.532a9.489 9.489 0 0 1-2.268 3.647l-2.672-2.622a4.366 4.366 0 0 0 .153-2.469 4.42 4.42 0 0 0-1.215-2.167 4.55 4.55 0 0 0-2.207-1.193 4.607 4.607 0 0 0-2.516.151L8.344 5.703a9.83 9.83 0 0 1 3.657-.7c4.284 0 7.918 2.728 9.203 6.507.103.307.103.637 0 .942Z"/>
  <path fill="#000" d="M15.233 11.984c0 .152-.011.302-.032.449l-3.659-3.59a3.291 3.291 0 0 1 1.37.096c.445.129.856.35 1.206.647.35.298.63.667.823 1.08.192.414.292.864.292 1.318Zm-2.776 3.142-3.658-3.591a3.125 3.125 0 0 0 .915 2.693 3.258 3.258 0 0 0 2.744.897h-.001Z"/>
  <path fill="#000" d="M7.474 11.984c0-.524.092-1.026.262-1.492L5.064 7.868a9.49 9.49 0 0 0-2.268 3.647 1.47 1.47 0 0 0 0 .943c1.284 3.78 4.918 6.507 9.203 6.507a9.837 9.837 0 0 0 3.657-.7l-2.135-2.096a4.605 4.605 0 0 1-4.13-.553 4.47 4.47 0 0 1-1.41-1.587 4.376 4.376 0 0 1-.507-2.045Z"/>
</svg>
