<svg xmlns="http://www.w3.org/2000/svg" width="24" height="24" fill="none" viewBox="0 0 24 24">
  <path fill="#000" d="m2.004 14.359.557-5.119a5.012 5.012 0 0 1 2.68-3.93l.427-.219a.838.838 0 0 1 1.194.562l.06.247a.619.619 0 0 1-.468.757c-1.028.21-1.806 1.073-1.928 2.137l-.402 3.492a3.69 3.69 0 0 1 2.483-.96c1.812 0 3.324 1.314 3.675 3.061.774-.368 2.183-.611 3.899.033.338-1.764 1.858-3.094 3.681-3.094.722 0 1.397.209 1.97.57l-.358-3.102c-.122-1.064-.9-1.927-1.928-2.137a.619.619 0 0 1-.468-.757l.06-.247a.838.838 0 0 1 1.194-.562l.428.219a5.012 5.012 0 0 1 2.68 3.93l.556 5.119a.728.728 0 0 1-.383.725l.001.079c0 2.12-1.68 3.837-3.752 3.837-1.825 0-3.346-1.333-3.682-3.099a.534.534 0 0 1-.266-.001c-1.281-.339-2.558-.193-3.394.02-.08.02-.16.02-.235.003C9.94 17.678 8.425 19 6.607 19c-2.072 0-3.752-1.718-3.752-3.837h-.147a.718.718 0 0 1-.704-.804Z"/>
</svg>
