<svg xmlns="http://www.w3.org/2000/svg" width="24" height="24" fill="none" viewBox="0 0 24 24">
  <path fill="#000" d="M15.023 12c0 1.657-1.354 3-3.023 3-1.67 0-3.023-1.343-3.023-3S10.33 9 12 9c1.67 0 3.023 1.343 3.023 3Z"/>
  <path fill="#000" fill-rule="evenodd" d="M2.201 12.744a1.474 1.474 0 0 1 0-1.488C4.314 7.635 7.914 5.25 12 5.25c4.086 0 7.686 2.385 9.799 6.006.268.46.268 1.027 0 1.488-2.113 3.621-5.713 6.006-9.799 6.006-4.086 0-7.686-2.385-9.799-6.006ZM16.535 12c0 2.485-2.03 4.5-4.535 4.5-2.504 0-4.535-2.015-4.535-4.5S9.495 7.5 12 7.5c2.504 0 4.535 2.015 4.535 4.5Z" clip-rule="evenodd"/>
</svg>
