<svg xmlns="http://www.w3.org/2000/svg" width="24" height="24" fill="none" viewBox="0 0 24 24">
  <path fill="#000" fill-rule="evenodd" d="M12 21.75c5.385 0 9.75-4.365 9.75-9.75S17.385 2.25 12 2.25 2.25 6.615 2.25 12s4.365 9.75 9.75 9.75ZM7.218 8.242a.813.813 0 1 0-1.27 1.016c.4.497 1.136 1.132 2.082 1.324 1.036.211 2.144-.144 3.088-1.324a.813.813 0 0 0-1.27-1.016c-.615.77-1.133.821-1.494.748-.451-.092-.884-.433-1.136-.748Zm6.825 0a.812.812 0 1 0-1.27 1.016c.4.497 1.136 1.132 2.082 1.324 1.036.211 2.144-.144 3.088-1.324a.813.813 0 0 0-1.27-1.016c-.615.77-1.133.821-1.494.748-.452-.092-.885-.433-1.136-.748Zm-5.356 4.884a.812.812 0 0 0-1.283.998c.658.845 1.891 1.863 3.503 2.164 1.67.313 3.598-.173 5.513-2.088a.812.812 0 1 0-1.149-1.15c-1.594 1.595-2.998 1.84-4.066 1.641-1.126-.21-2.038-.948-2.518-1.565Z" clip-rule="evenodd"/>
</svg>
