<svg xmlns="http://www.w3.org/2000/svg" width="24" height="24" fill="none" viewBox="0 0 24 24">
  <path fill="#000" fill-rule="evenodd" d="M12 21.5a9.5 9.5 0 1 0 0-19 9.5 9.5 0 0 0 0 19ZM8.833 7.778a1.056 1.056 0 0 0 0 2.11h.01a1.056 1.056 0 1 0 0-2.11h-.01Zm5.278 1.055c0-.583.473-1.055 1.056-1.055h.01a1.056 1.056 0 1 1 0 2.11h-.01a1.056 1.056 0 0 1-1.056-1.055Zm-5.246 4.718a.792.792 0 0 0-1.12 1.12c.706.705 1.959 1.544 3.481 1.792 1.572.255 3.368-.132 5.028-1.792a.792.792 0 1 0-1.12-1.12c-1.295 1.296-2.577 1.524-3.653 1.349-1.125-.183-2.09-.822-2.616-1.349Z" clip-rule="evenodd"/>
</svg>
