<svg xmlns="http://www.w3.org/2000/svg" width="24" height="24" fill="none" viewBox="0 0 24 24">
  <path fill="#000" fill-rule="evenodd" d="M12 21.5a9.5 9.5 0 1 0 0-19 9.5 9.5 0 0 0 0 19Zm-3.175-5.214c.468-.601 1.356-1.32 2.454-1.525 1.04-.194 2.408.045 3.961 1.599a.792.792 0 1 0 1.12-1.12c-1.867-1.866-3.745-2.34-5.372-2.035-1.57.293-2.772 1.285-3.413 2.109a.792.792 0 1 0 1.25.972ZM7.778 8.833c0-.583.472-1.055 1.055-1.055h.01a1.056 1.056 0 1 1 0 2.11h-.01a1.056 1.056 0 0 1-1.055-1.055Zm7.389-1.055a1.056 1.056 0 1 0 0 2.11h.01a1.056 1.056 0 1 0 0-2.11h-.01Z" clip-rule="evenodd"/>
</svg>
