<svg xmlns="http://www.w3.org/2000/svg" width="24" height="24" fill="none" viewBox="0 0 24 24">
  <path fill="#000" d="M2.25 4c0-.966.784-1.75 1.75-1.75h4a.75.75 0 0 1 0 1.5H4a.25.25 0 0 0-.25.25v4a.75.75 0 0 1-1.5 0V4Zm13-1a.75.75 0 0 1 .75-.75h4c.966 0 1.75.784 1.75 1.75v4a.75.75 0 0 1-1.5 0V4a.25.25 0 0 0-.25-.25h-4a.75.75 0 0 1-.75-.75ZM7.5 7.25a.75.75 0 0 1 .75.75v2a.75.75 0 0 1-1.5 0V8a.75.75 0 0 1 .75-.75Zm5 0a.75.75 0 0 1 .75.75v4a1.75 1.75 0 0 1-1.75 1.75H11a.75.75 0 0 1 0-1.5h.5a.25.25 0 0 0 .25-.25V8a.75.75 0 0 1 .75-.75Zm4 0a.75.75 0 0 1 .75.75v2a.75.75 0 0 1-1.5 0V8a.75.75 0 0 1 .75-.75Zm-13.5 8a.75.75 0 0 1 .75.75v4c0 .138.112.25.25.25h4a.75.75 0 0 1 0 1.5H4A1.75 1.75 0 0 1 2.25 20v-4a.75.75 0 0 1 .75-.75Zm4.97.22a.75.75 0 0 1 1.06 0c.499.498 1.412 1.104 2.478 1.277 1.02.166 2.235-.05 3.462-1.277a.75.75 0 1 1 1.06 1.06c-1.573 1.573-3.274 1.94-4.763 1.698-1.443-.235-2.63-1.03-3.297-1.698a.75.75 0 0 1 0-1.06ZM21 15.25a.75.75 0 0 1 .75.75v4A1.75 1.75 0 0 1 20 21.75h-4a.75.75 0 0 1 0-1.5h4a.25.25 0 0 0 .25-.25v-4a.75.75 0 0 1 .75-.75Z"/>
</svg>
