<svg xmlns="http://www.w3.org/2000/svg" width="24" height="24" fill="none" viewBox="0 0 24 24">
  <path fill="#000" fill-rule="evenodd" d="M12 21.5a9.5 9.5 0 1 0 0-19 9.5 9.5 0 0 0 0 19ZM8.675 10.1a1.425 1.425 0 1 0 0-2.85 1.425 1.425 0 0 0 0 2.85Zm8.075-1.425a1.425 1.425 0 1 1-2.85 0 1.425 1.425 0 0 1 2.85 0Zm-.781 5.935c.179-.272.056-.628-.236-.772-.292-.143-.641-.02-.831.245a3.572 3.572 0 0 1-5.766.05c-.195-.26-.546-.378-.836-.229-.289.15-.406.507-.222.776a4.75 4.75 0 0 0 7.891-.07Z" clip-rule="evenodd"/>
</svg>
