<svg xmlns="http://www.w3.org/2000/svg" width="24" height="24" fill="none" viewBox="0 0 24 24">
  <path fill="#000" d="M15.357 15.195c.132-.328.218-.672.256-1.024H8.387c.038.352.124.696.255 1.024.183.453.45.865.788 1.212a3.6 3.6 0 0 0 1.18.81 3.546 3.546 0 0 0 2.78 0 3.6 3.6 0 0 0 1.18-.81c.337-.347.605-.759.787-1.212Z"/>
  <path fill="#000" fill-rule="evenodd" d="M12 21.5a9.5 9.5 0 1 0 0-19 9.5 9.5 0 0 0 0 19ZM8.675 10.1a1.425 1.425 0 1 0 0-2.85 1.425 1.425 0 0 0 0 2.85Zm8.075-1.425a1.425 1.425 0 1 1-2.85 0 1.425 1.425 0 0 1 2.85 0ZM8.042 12.95a.803.803 0 0 0-.792.814v.245c0 .018.003.037.009.053.032.54.15 1.071.353 1.572a4.898 4.898 0 0 0 1.03 1.585c.44.454.964.814 1.54 1.06a4.636 4.636 0 0 0 3.636 0 4.743 4.743 0 0 0 1.54-1.06 4.872 4.872 0 0 0 1.03-1.585 5 5 0 0 0 .353-1.572.165.165 0 0 0 .009-.053v-.245a.803.803 0 0 0-.792-.814H8.042Z" clip-rule="evenodd"/>
</svg>
