<svg xmlns="http://www.w3.org/2000/svg" width="24" height="24" fill="none" viewBox="0 0 24 24">
  <path fill="#000" fill-rule="evenodd" d="M20.328 9.174c0-.17-.014-.34-.042-.505h-6.204a.775.775 0 0 1-.78-.769V1.792a3.171 3.171 0 0 0-.514-.042H6.795c-1.725 0-3.123 1.377-3.123 3.075v14.35c0 1.698 1.398 3.075 3.123 3.075h10.41c1.725 0 3.123-1.377 3.123-3.075V9.174Zm-6.785 3.043a.74.74 0 1 1 1.046 1.045l-1.743 1.742 1.743 1.742a.74.74 0 0 1-1.046 1.046l-1.742-1.743-1.742 1.743a.74.74 0 0 1-1.046-1.046l1.743-1.742-1.743-1.742a.74.74 0 1 1 1.046-1.046L11.8 13.96l1.742-1.742Z" clip-rule="evenodd"/>
  <path fill="#000" d="M14.863 7.131V2.526c.046.04.09.082.134.125l4.416 4.348c.044.043.086.087.127.132h-4.677Z"/>
</svg>
