<svg xmlns="http://www.w3.org/2000/svg" width="24" height="24" fill="none" viewBox="0 0 24 24">
  <path fill="#000" d="M13.346 11.614H11.04v1.853h2.307v-1.853Zm.924 3.243v2.316h-4.155v-2.316h4.154Z"/>
  <path fill="#000" fill-rule="evenodd" d="M20.5 9.105c0-.175-.015-.348-.043-.518h-6.332a.792.792 0 0 1-.797-.787V1.543a3.224 3.224 0 0 0-.523-.043H6.688C4.928 1.5 3.5 2.91 3.5 4.65v14.7c0 1.74 1.427 3.15 3.188 3.15h10.625c1.76 0 3.187-1.41 3.187-3.15V9.105ZM9.654 13.546v-1.932c0-.512.413-.927.923-.927h3.23c.043 0 .084.003.124.009a.694.694 0 0 1 .8.687v2.163c.537.19.923.706.923 1.31v2.317c0 .767-.62 1.39-1.385 1.39h-4.154a1.387 1.387 0 0 1-1.384-1.39v-2.316c0-.605.385-1.12.923-1.311Z" clip-rule="evenodd"/>
  <path fill="#000" d="M14.922 7.013V2.295c.047.041.092.084.137.128l4.507 4.454c.045.044.088.09.13.136h-4.774Z"/>
</svg>
