<svg xmlns="http://www.w3.org/2000/svg" width="24" height="24" fill="none" viewBox="0 0 24 24">
  <path fill="#000" fill-rule="evenodd" d="M6.875 1.75A3.075 3.075 0 0 0 3.8 4.825v14.35a3.075 3.075 0 0 0 3.075 3.075h10.25a3.075 3.075 0 0 0 3.075-3.075V4.825a3.075 3.075 0 0 0-3.075-3.075H6.875Zm.769 4.1a.769.769 0 0 0 0 1.538h8.712a.769.769 0 0 0 0-1.538H7.644Zm-.77 4.869a.77.77 0 0 1 .77-.769h6.662a.769.769 0 0 1 0 1.538H7.644a.769.769 0 0 1-.77-.77Zm.77 3.331a.769.769 0 0 0 0 1.537h3.587a.769.769 0 0 0 0-1.537H7.644Z" clip-rule="evenodd"/>
</svg>
