<svg xmlns="http://www.w3.org/2000/svg" width="24" height="24" fill="none" viewBox="0 0 24 24">
  <path fill="#000" fill-rule="evenodd" d="M6.75 1.5A3.15 3.15 0 0 0 3.6 4.65v14.7a3.15 3.15 0 0 0 3.15 3.15h10.5a3.15 3.15 0 0 0 3.15-3.15V4.65a3.15 3.15 0 0 0-3.15-3.15H6.75ZM13.575 6a2.325 2.325 0 0 0-2.325 2.325v4.725a.75.75 0 0 0 1.5 0V8.325a.825.825 0 0 1 1.65 0v5.25a2.4 2.4 0 1 1-4.8 0V8.85a.75.75 0 0 0-1.5 0v4.725a3.9 3.9 0 0 0 7.8 0v-5.25A2.325 2.325 0 0 0 13.575 6Z" clip-rule="evenodd"/>
</svg>
