<svg xmlns="http://www.w3.org/2000/svg" width="24" height="24" fill="none" viewBox="0 0 24 24">
  <path fill="#000" fill-rule="evenodd" d="M19.778 9.243c0-.167-.014-.331-.04-.493h-5.794a.74.74 0 0 1-.729-.75V2.04a2.837 2.837 0 0 0-.479-.04H7.14C5.528 2 4.222 3.343 4.222 5v14c0 1.657 1.306 3 2.917 3h9.722c1.61 0 2.917-1.343 2.917-3V9.243Zm-8.89 1.368a.833.833 0 0 1 1.668 0v8.333a.833.833 0 1 1-1.667 0v-8.333Zm-4.444 4.445a.833.833 0 1 1 1.667 0v3.888a.833.833 0 1 1-1.667 0v-3.888ZM16.167 12a.833.833 0 0 0-.834.833v6.111a.833.833 0 1 0 1.667 0v-6.11a.833.833 0 0 0-.833-.834Z" clip-rule="evenodd"/>
  <path fill="#000" d="M14.674 7.25V2.757c.042.04.084.08.125.122l4.125 4.242c.04.042.08.085.117.129h-4.367Z"/>
</svg>
