<svg xmlns="http://www.w3.org/2000/svg" width="24" height="24" fill="none" viewBox="0 0 24 24">
  <path fill="#000" fill-rule="evenodd" d="M1 4.882C1 2.738 2.642 1 4.667 1h14.666C21.358 1 23 2.738 23 4.882v14.236C23 21.262 21.358 23 19.333 23H4.667C2.642 23 1 21.262 1 19.118V4.882Zm1.222 2.589v3.882H5.89V7.47H2.222Zm3.667 5.176H2.222v3.882H5.89v-3.882Zm-3.667 5.176v1.295c0 1.43 1.095 2.588 2.445 2.588h1.222v-3.883H2.222Zm15.89 0h3.666v1.295c0 1.43-1.095 2.588-2.445 2.588h-1.222v-3.883Zm3.666-1.294H18.11v-3.882h3.667v3.882Zm0-5.176H18.11V7.47h3.667v3.882ZM5.888 6.176V2.294h-1.22c-1.35 0-2.445 1.159-2.445 2.588v1.294H5.89Zm15.89 0H18.11V2.294h1.222c1.35 0 2.445 1.159 2.445 2.588v1.294Z" clip-rule="evenodd"/>
</svg>
