<svg xmlns="http://www.w3.org/2000/svg" width="24" height="24" fill="none" viewBox="0 0 24 24">
  <path fill="#000" fill-rule="evenodd" d="M2.331 3.008c-.212-.324.016-.758.399-.758h5.532c.172 0 .33.094.416.246l3.317 5.909 3.318-5.91a.478.478 0 0 1 .416-.245h5.541c.38 0 .61.43.401.754l-5.208 8.104a6.378 6.378 0 0 1 1.656 4.304c0 3.5-2.788 6.338-6.226 6.338-3.439 0-6.227-2.837-6.227-6.338 0-1.784.725-3.396 1.89-4.548a.48.48 0 0 1-.19-.168L2.332 3.008Zm11.146 6.274c.64.171 1.24.443 1.783.799l4.022-6.368H16.41l-2.932 5.569Zm-4.805.706a6.122 6.122 0 0 1 2.048-.8L7.582 3.711H4.71l3.963 6.276Zm1.9 4.678 1.177-.925v3.622H10.63a.483.483 0 0 0-.479.487c0 .27.215.487.48.487h3.299a.483.483 0 0 0 .479-.487.483.483 0 0 0-.48-.488h-1.117v-4.387a.483.483 0 0 0-.479-.487h-.537a.142.142 0 0 0-.087.03L9.976 13.88a.502.502 0 0 0-.112.663c.155.243.482.3.707.123Z" clip-rule="evenodd"/>
</svg>
