<svg xmlns="http://www.w3.org/2000/svg" width="24" height="24" fill="none" viewBox="0 0 24 24">
  <path fill="#000" fill-rule="evenodd" d="M1.149 5.23a2.98 2.98 0 0 1 2.98-2.98h6.243a2.98 2.98 0 0 1 2.665 1.647l1.343 2.686h5.221a3.25 3.25 0 0 1 3.25 3.25V18.5a3.25 3.25 0 0 1-3.25 3.25H4.434a3.25 3.25 0 0 1-3.25-3.25V7.634a.813.813 0 0 1-.035-.238V5.229Zm2.98-1.355c-.749 0-1.355.606-1.355 1.354v1.354h9.79l-.98-1.96a1.354 1.354 0 0 0-1.212-.748H4.128Zm10.844 8.776v.75h.75a.75.75 0 0 1 .75.75v4a.75.75 0 0 1-.75.75h-7a.75.75 0 0 1-.75-.75v-4a.75.75 0 0 1 .75-.75h.75v-.75a2.75 2.75 0 0 1 5.5 0Zm-4 0a1.25 1.25 0 1 1 2.5 0v.75h-2.5v-.75Zm-1.5 4.75v-2.5h5.5v2.5h-5.5Z" clip-rule="evenodd"/>
</svg>
