<svg xmlns="http://www.w3.org/2000/svg" width="24" height="24" fill="none" viewBox="0 0 24 24">
  <path fill="#000" d="M8.899 14.25c0-.626.177-1.21.483-1.706l4.473 4.473a3.25 3.25 0 0 1-4.956-2.767Zm6.017 1.706-4.473-4.473a3.25 3.25 0 0 1 4.473 4.473Z"/>
  <path fill="#000" fill-rule="evenodd" d="M1.149 5.23a2.98 2.98 0 0 1 2.98-2.98h6.243a2.98 2.98 0 0 1 2.665 1.647l1.343 2.686h5.221a3.25 3.25 0 0 1 3.25 3.25V18.5a3.25 3.25 0 0 1-3.25 3.25H4.434a3.25 3.25 0 0 1-3.25-3.25V7.634a.813.813 0 0 1-.035-.238V5.229Zm2.98-1.355c-.749 0-1.355.606-1.355 1.354v1.354h9.79l-.98-1.96a1.354 1.354 0 0 0-1.212-.748H4.128Zm8.02 5.625a4.75 4.75 0 1 0 0 9.5 4.75 4.75 0 0 0 0-9.5Z" clip-rule="evenodd"/>
</svg>
