<svg xmlns="http://www.w3.org/2000/svg" width="24" height="24" fill="none" viewBox="0 0 24 24">
  <path fill="#000" d="M22.672 13.3h-5.336c-.32 5.324-2.587 9.45-5.336 9.45s-5.015-4.126-5.336-9.45H1.328c.641 5.324 5.175 9.45 10.672 9.45 5.497 0 10.03-4.126 10.672-9.45Zm.073-1.613C22.58 5.895 17.832 1.25 12 1.25c-5.832 0-10.58 4.645-10.746 10.437h5.373C6.71 5.895 9.084 1.25 12 1.25c2.916 0 5.29 4.645 5.373 10.437h5.372Z"/>
  <path fill="#000" d="M12 21.157c1.904 0 3.484-4.014 3.787-7.857H8.213c.303 3.843 1.883 7.857 3.787 7.857Zm0-18.314c2.068 0 3.754 4.735 3.836 8.844H8.164C8.246 7.577 9.932 2.843 12 2.843Z"/>
</svg>
