<svg xmlns="http://www.w3.org/2000/svg" width="24" height="24" fill="none" viewBox="0 0 24 24">
  <path fill="#000" d="M22.503 14.3a10.821 10.821 0 0 0-.096-5.005l-.011.018h-5.19a21.319 21.319 0 0 1 .062 4.838h5.265l-.03.149Zm-.43 1.462h-5.036c-.763 4.082-2.73 6.988-5.037 6.988s-4.274-2.906-5.037-6.988H1.927C3.452 19.845 7.387 22.75 12 22.75s8.548-2.906 10.073-6.988ZM1.465 14.15a10.8 10.8 0 0 1 .124-4.838h5.205c-.11.86-.169 1.76-.169 2.688 0 .736.037 1.455.108 2.15H1.465Zm.679-6.45h4.928C7.902 3.903 9.796 1.25 12 1.25c2.204 0 4.098 2.653 4.928 6.45h4.927A10.752 10.752 0 0 0 12 1.25 10.753 10.753 0 0 0 2.144 7.7Z"/>
  <path fill="#000" d="M12 21.157c1.494 0 2.789-2.472 3.423-5.395H8.577c.634 2.923 1.929 5.395 3.423 5.395ZM15.84 12c0 .703-.05 1.429-.14 2.15H8.3A17.257 17.257 0 0 1 8.16 12c0-.878.077-1.792.216-2.688h7.248c.14.896.215 1.81.215 2.688ZM12 2.843c1.402 0 2.628 2.175 3.298 4.857H8.702c.67-2.682 1.896-4.857 3.298-4.857Z"/>
</svg>
