<svg xmlns="http://www.w3.org/2000/svg" width="24" height="24" fill="none" viewBox="0 0 24 24">
  <path fill="#000" fill-rule="evenodd" d="M12 22c5.523 0 10-4.477 10-10a9.954 9.954 0 0 0-1.314-4.96c.32-.967.412-1.941.052-2.781-.978-2.283-3.502-2.818-5.207-1.618A9.978 9.978 0 0 0 12 2C6.477 2 2 6.477 2 12s4.477 10 10 10Zm2.477-18.192A8.56 8.56 0 0 0 3.64 10.17c.262-.221.59-.376.948-.436l2.955-.492A2 2 0 0 1 9.66 10.32l1.068 2.137a2 2 0 0 0 .797.842l.902.516a2 2 0 0 1 .544 3.017l-.508.61A2 2 0 0 0 12 18.725v.054c0 .786-.454 1.457-1.087 1.71a8.556 8.556 0 0 0 9.001-11.745c-1.01 1.798-2.384 3.241-2.384 3.241s-4.546-4.672-3.293-7.69c.072-.171.152-.334.24-.486ZM17.5 7a1.5 1.5 0 1 0 0-3 1.5 1.5 0 0 0 0 3Z" clip-rule="evenodd"/>
</svg>
