<svg xmlns="http://www.w3.org/2000/svg" width="24" height="24" fill="none" viewBox="0 0 24 24">
  <path fill="#000" fill-rule="evenodd" d="M12 22.75c5.937 0 10.75-4.813 10.75-10.75S17.937 1.25 12 1.25 1.25 6.063 1.25 12 6.063 22.75 12 22.75Zm-1.83-1.734a9.239 9.239 0 0 0 5.055-.4v-1.091A3.225 3.225 0 0 1 18.45 16.3h1.683a9.159 9.159 0 0 0 1.065-4.3 9.161 9.161 0 0 0-.936-4.048 1.568 1.568 0 0 1-1.218.55 1.67 1.67 0 0 0-1.669 1.668v.481a2.15 2.15 0 0 1-2.15 2.15h-.537a2.15 2.15 0 0 1-2.15-2.15 2.15 2.15 0 0 0-2.15-2.15h-.27A2.419 2.419 0 0 1 7.7 6.082V3.867a9.204 9.204 0 0 0-4.834 7.041 2.626 2.626 0 0 1 3.759 2.37v.598a2.15 2.15 0 0 0 2.15 2.15 2.15 2.15 0 0 1 2.15 2.15v.893c0 .761-.288 1.466-.754 1.947Z" clip-rule="evenodd"/>
</svg>
