<svg xmlns="http://www.w3.org/2000/svg" width="24" height="24" fill="none" viewBox="0 0 24 24">
  <path fill="#000" d="M10.893 17.77h1.795v2.768h-1.795V17.77Zm6.283-8.308c0 3.568-2.813 6.461-6.283 6.461S4.61 13.03 4.61 9.462C4.61 5.892 7.423 3 10.893 3s6.283 2.893 6.283 6.462Z"/>
  <path fill="#000" d="M6.405 20.308c0-.383.302-.693.673-.693h9.425c.372 0 .673.31.673.693a.683.683 0 0 1-.673.692H7.078a.683.683 0 0 1-.673-.692Zm11.7-16.341a9.424 9.424 0 0 1 1.717 6.433 9.323 9.323 0 0 1-2.947 5.943 8.834 8.834 0 0 1-6.072 2.349 8.843 8.843 0 0 1-6.024-2.473l.712-.787a.271.271 0 0 1 .384-.018 7.54 7.54 0 0 0 4.942 1.925 7.539 7.539 0 0 0 5.181-2.004 7.957 7.957 0 0 0 2.516-5.072 8.05 8.05 0 0 0-1.309-5.265.29.29 0 0 1 .06-.39l.84-.64Z"/>
  <path fill="#000" d="m5.02 15.963.85.874-.844.868a.59.59 0 0 1-.85 0 .63.63 0 0 1 0-.874l.844-.868ZM18.733 5.021l-.662-1.032.997-.676a.591.591 0 0 1 .833.176.629.629 0 0 1-.171.856l-.997.676Z"/>
</svg>
