<svg xmlns="http://www.w3.org/2000/svg" width="24" height="24" fill="none" viewBox="0 0 24 24">
  <path fill="#000" d="M21.94 11.54a.655.655 0 0 0 .034-.261 10 10 0 1 0-9.809 10.72.683.683 0 0 0 .657-.757c-.035-.398-.386-.688-.785-.686a8.556 8.556 0 0 1-8.02-5.475c.187-.04.371-.122.539-.248.285-.214.641-.311.996-.272l.736.082A2.893 2.893 0 0 0 9.5 11.768c0-.503.131-.998.381-1.435l.622-1.089a3 3 0 0 0-.236-3.33l-.793-1.02a2.988 2.988 0 0 0-.86-.751 8.555 8.555 0 0 1 8.988 1.39c-.233.16-.437.38-.587.648l-.5.896a2 2 0 0 0-.042 1.869l1.037 2.073a2 2 0 0 0 1.581 1.095l2.909.303c0-.256-.02-.552-.06-.876Z"/>
  <path fill="#000" d="m20.595 16.421-5.985-2.464a.5.5 0 0 0-.653.653l2.464 5.985a.5.5 0 0 0 .948-.07l.558-2.234a.5.5 0 0 1 .364-.364l2.234-.558a.5.5 0 0 0 .07-.948Z"/>
</svg>
