<svg xmlns="http://www.w3.org/2000/svg" width="24" height="24" fill="none" viewBox="0 0 24 24">
  <path fill="#000" d="M12 22.5c5.796 0 10.495-4.697 10.5-10.492-.008 1.9-2.567 3.532-6.235 4.258C15.54 19.938 13.902 22.5 12 22.5Zm-.007 0c-1.9-.006-3.533-2.566-4.259-6.235C4.061 15.54 1.5 13.902 1.5 12c0 5.797 4.697 10.496 10.493 10.5Z"/>
  <path fill="#000" fill-rule="evenodd" d="M1.5 11.994C1.503 6.198 6.203 1.5 12 1.5Zm0 0c.005-1.9 2.565-3.534 6.234-4.26C8.461 4.061 10.098 1.5 12 1.5" clip-rule="evenodd"/>
  <path fill="#000" d="M22.5 12c0-1.902-2.561-3.539-6.235-4.266-.726-3.67-2.36-6.229-4.26-6.234C17.803 1.503 22.5 6.203 22.5 12ZM12 20.944c1.17 0 2.2-1.964 2.794-4.444-.89.108-1.827.167-2.794.167-.967 0-1.905-.059-2.794-.167.595 2.48 1.624 4.444 2.794 4.444ZM20.945 12c0 1.17-1.965 2.2-4.445 2.794.108-.89.167-1.826.167-2.794 0-.967-.059-1.905-.167-2.794 2.48.595 4.445 1.624 4.445 2.794Zm-5.612 0c0-1.007-.09-2.06-.255-3.078A19.536 19.536 0 0 0 12 8.667c-1.007 0-2.06.09-3.078.255A19.536 19.536 0 0 0 8.667 12c0 1.007.09 2.06.255 3.078 1.017.165 2.071.255 3.078.255 1.007 0 2.06-.09 3.078-.255.165-1.017.255-2.071.255-3.078ZM12 3.056c1.17 0 2.2 1.964 2.794 4.444A23.056 23.056 0 0 0 12 7.333c-.967 0-1.905.058-2.794.167C9.8 5.02 10.83 3.056 12 3.056ZM3.056 12c0-1.17 1.965-2.2 4.444-2.794-.109.89-.167 1.827-.167 2.794 0 .967.059 1.905.167 2.794C5.02 14.2 3.056 13.17 3.056 12Z"/>
</svg>
