<svg xmlns="http://www.w3.org/2000/svg" width="24" height="24" fill="none" viewBox="0 0 24 24">
  <path fill="#000" d="m3.428 7.702 7.309-3.654a2.824 2.824 0 0 1 2.526 0l7.308 3.654a.47.47 0 0 1 0 .842l-3.544 1.773-4.664-2.799a.706.706 0 0 0-.726 1.21l3.893 2.337-2.267 1.134a2.824 2.824 0 0 1-2.526 0L3.428 8.544a.47.47 0 0 1 0-.842Z"/>
  <path fill="#000" d="m16 12.242-3.79 1.895a.47.47 0 0 1-.42 0l-6.64-3.32a.47.47 0 0 0-.681.421v4.776c0 .356.201.682.52.842l6.59 3.295a.941.941 0 0 0 .842 0l6.59-3.295a.941.941 0 0 0 .52-.842v-4.776a.47.47 0 0 0-.681-.42l-1.437.718v2.236a.706.706 0 0 1-1.413 0v-1.53Z"/>
</svg>
