<svg xmlns="http://www.w3.org/2000/svg" width="24" height="24" fill="none" viewBox="0 0 24 24">
  <path fill="#000" d="M4.477 2A2.477 2.477 0 0 0 2 4.477v3.715a2.477 2.477 0 0 0 2.477 2.477h3.715a2.477 2.477 0 0 0 2.477-2.477V4.477A2.477 2.477 0 0 0 8.192 2H4.477Zm11.331 0a2.477 2.477 0 0 0-2.477 2.477v3.715a2.477 2.477 0 0 0 2.477 2.477h3.715A2.477 2.477 0 0 0 22 8.192V4.477A2.477 2.477 0 0 0 19.523 2h-3.715Zm-2.477 13.808a2.477 2.477 0 0 1 2.477-2.477h3.715A2.477 2.477 0 0 1 22 15.808v3.715A2.477 2.477 0 0 1 19.523 22h-3.715a2.477 2.477 0 0 1-2.477-2.477v-3.715Zm-8.854-2.477A2.477 2.477 0 0 0 2 15.808v3.715A2.477 2.477 0 0 0 4.477 22h3.715a2.477 2.477 0 0 0 2.477-2.477v-3.715a2.477 2.477 0 0 0-2.477-2.477H4.477Z"/>
</svg>
