<svg xmlns="http://www.w3.org/2000/svg" width="24" height="24" fill="none" viewBox="0 0 24 24">
  <path fill="#000" d="M7.467 6.596c0-1.245.863-2.285 2.014-2.536a.097.097 0 0 1 .117.096v7.062c0 .236.188.428.42.428a.425.425 0 0 0 .422-.428v-7.75c0-.441.203-.857.55-1.124l.117-.092a1.205 1.205 0 0 1 1.606.116c.226.233.352.546.352.872v7.978c0 .236.189.428.421.428a.425.425 0 0 0 .421-.428V4.147c0-.061.054-.108.114-.097 1.427.257 2.511 1.524 2.511 3.05v4.118c0 .236.189.428.422.428a.425.425 0 0 0 .42-.428V7.714c0-.061.055-.108.114-.097C18.916 7.874 20 9.14 20 10.667v3.2C20 18.36 16.418 22 12 22s-8-3.641-8-8.133v-.29c0-1.066.85-1.931 1.9-1.931h.625a.1.1 0 0 1 .1.1v3.039c0 .236.189.428.421.428a.425.425 0 0 0 .421-.428v-8.19Z"/>
</svg>
