<svg xmlns="http://www.w3.org/2000/svg" width="24" height="24" fill="none" viewBox="0 0 24 24">
  <path fill="#000" fill-rule="evenodd" d="M10.123 2.26a.75.75 0 0 1 .617.863l-.688 4.127h6.48l.728-4.373a.75.75 0 1 1 1.48.246l-.688 4.127H21a.75.75 0 0 1 0 1.5h-3.198l-1.083 6.5H20a.75.75 0 0 1 0 1.5h-3.531l-.73 4.373a.75.75 0 1 1-1.479-.246l.688-4.127h-6.48l-.728 4.373a.75.75 0 1 1-1.48-.246l.688-4.127H3a.75.75 0 0 1 0-1.5h4.198l1.083-6.5H4a.75.75 0 1 1 0-1.5h4.531l.73-4.373a.75.75 0 0 1 .862-.617Zm-.321 6.49-1.083 6.5h6.479l1.083-6.5H9.802Z" clip-rule="evenodd"/>
</svg>
