<svg xmlns="http://www.w3.org/2000/svg" width="24" height="24" fill="none" viewBox="0 0 24 24">
  <path fill="#000" fill-rule="evenodd" d="M12 21.75c5.385 0 9.75-4.365 9.75-9.75S17.385 2.25 12 2.25 2.25 6.615 2.25 12s4.365 9.75 9.75 9.75Zm.975-9.034a3.452 3.452 0 0 0 1.687-1.788 3.456 3.456 0 1 0-6.541-2.177c-.118.462.28.855.757.855s.846-.41 1.075-.829a1.72 1.72 0 0 1 .855-.768 1.728 1.728 0 0 1 1.49 3.113c-.419.229-.829.598-.829 1.075 0 .097.016.19.046.276a.7.7 0 0 0-.002.054v1.667a.731.731 0 0 0 1.462 0v-1.478Zm0 4.159a.975.975 0 1 1-1.95 0 .975.975 0 0 1 1.95 0Z" clip-rule="evenodd"/>
</svg>
