<svg xmlns="http://www.w3.org/2000/svg" width="24" height="24" fill="none" viewBox="0 0 24 24">
  <path fill="#000" d="M15.9 10.463a3.9 3.9 0 1 1-7.8 0 3.9 3.9 0 0 1 7.8 0Z"/>
  <path fill="#000" fill-rule="evenodd" d="M5.7 2.25A3.45 3.45 0 0 0 2.25 5.7v12.6a3.45 3.45 0 0 0 3.45 3.45h12.6a3.45 3.45 0 0 0 3.45-3.45V5.7a3.45 3.45 0 0 0-3.45-3.45H5.7ZM3.75 5.7A1.95 1.95 0 0 1 5.7 3.75h12.6a1.95 1.95 0 0 1 1.95 1.95v12.6a1.95 1.95 0 0 1-.907 1.648l-.851-1.916a3 3 0 0 0-2.742-1.782h-7.8a3 3 0 0 0-2.742 1.782l-.777 1.748a1.946 1.946 0 0 1-.681-1.48V5.7Z" clip-rule="evenodd"/>
</svg>
