<svg xmlns="http://www.w3.org/2000/svg" width="24" height="24" fill="none" viewBox="0 0 24 24">
  <path fill="#000" d="M2.25 5.999A3.75 3.75 0 0 1 6 2.249h7a.75.75 0 0 1 0 1.5H6a2.25 2.25 0 0 0-2.25 2.25v13c0 .69.56 1.25 1.25 1.25h1.83l8.746-7.951a1 1 0 0 1 1.298-.041l3.958 3.167a1 1 0 0 1 .376.78v2.52c0 1.657-1.343 3.027-3 3.027H6.5c-.017 0-.035 0-.051-.002H5a2.75 2.75 0 0 1-2.75-2.75v-13Z"/>
  <path fill="#000" d="M17.47 2.468a.75.75 0 0 1 1.06 0l3 3a.75.75 0 0 1-1.06 1.061l-1.72-1.72V9a.75.75 0 0 1-1.5 0V4.81l-1.72 1.72a.75.75 0 1 1-1.06-1.06l3-3Z"/>
  <path fill="#000" fill-rule="evenodd" d="M8.5 5.249a3.25 3.25 0 1 0 0 6.5 3.25 3.25 0 0 0 0-6.5Zm-1.75 3.25a1.75 1.75 0 1 1 3.5 0 1.75 1.75 0 0 1-3.5 0Z" clip-rule="evenodd"/>
</svg>
