<svg xmlns="http://www.w3.org/2000/svg" width="24" height="24" fill="none" viewBox="0 0 24 24">
  <path fill="#000" d="M2.406 6a3.75 3.75 0 0 1 3.75-3.75h7a.75.75 0 1 1 0 1.5h-7A2.25 2.25 0 0 0 3.906 6v13c0 .69.56 1.25 1.25 1.25h1.4l9.055-8.232c.386-.34.97-.359 1.378-.042l4.206 3.27c.252.196.399.492.399.806v2.6c0 1.711-1.427 3.098-3.188 3.098H5.156A2.75 2.75 0 0 1 2.406 19V6Z"/>
  <path fill="#000" d="M15.126 2.47a.75.75 0 0 1 1.06 0l1.97 1.97 1.97-1.97a.75.75 0 0 1 1.06 1.06l-1.97 1.97 1.97 1.97a.75.75 0 1 1-1.06 1.06l-1.97-1.97-1.97 1.97a.75.75 0 0 1-1.06-1.06l1.97-1.97-1.97-1.97a.75.75 0 0 1 0-1.06Z"/>
  <path fill="#000" fill-rule="evenodd" d="M8.656 5.25a3.25 3.25 0 1 0 0 6.5 3.25 3.25 0 0 0 0-6.5ZM6.906 8.5a1.75 1.75 0 1 1 3.5 0 1.75 1.75 0 0 1-3.5 0Z" clip-rule="evenodd"/>
</svg>
