<svg xmlns="http://www.w3.org/2000/svg" width="24" height="24" fill="none" viewBox="0 0 24 24">
  <path fill="#000" d="M17.47 1.856a.75.75 0 0 1 1.06 0l3 3a.75.75 0 0 1 0 1.06l-3 3a.75.75 0 1 1-1.06-1.06l1.72-1.72H15a.75.75 0 0 1 0-1.5h4.19l-1.72-1.72a.75.75 0 0 1 0-1.06Z"/>
  <path fill="#000" d="M2.25 6.6A3.75 3.75 0 0 1 6 2.85h7a.75.75 0 0 1 0 1.5H6A2.25 2.25 0 0 0 3.75 6.6v13c0 .69.56 1.25 1.25 1.25h2.29l8.704-7.913a1 1 0 0 1 1.297-.04l3.959 3.166a1 1 0 0 1 .375.781v2.52a3 3 0 0 1-3 3H6.92a.519.519 0 0 1-.12-.014H5a2.75 2.75 0 0 1-2.75-2.75v-13Z"/>
  <path fill="#000" fill-rule="evenodd" d="M8.5 5.636a3.25 3.25 0 1 0 0 6.5 3.25 3.25 0 0 0 0-6.5Zm-1.75 3.25a1.75 1.75 0 1 1 3.5 0 1.75 1.75 0 0 1-3.5 0Z" clip-rule="evenodd"/>
</svg>
