<svg xmlns="http://www.w3.org/2000/svg" width="24" height="24" fill="none" viewBox="0 0 24 24">
  <path fill="#000" d="M11.025 8.588a2.438 2.438 0 1 1-4.875 0 2.438 2.438 0 0 1 4.875 0Z"/>
  <path fill="#000" fill-rule="evenodd" d="M2.25 5.175A2.925 2.925 0 0 1 5.175 2.25h13.65a2.925 2.925 0 0 1 2.925 2.925v13.65a2.925 2.925 0 0 1-2.925 2.925H5.175a2.925 2.925 0 0 1-2.925-2.925V5.175Zm1.752.65a1.95 1.95 0 0 1 1.95-1.95h12.223a1.95 1.95 0 0 1 1.95 1.95v8.45l-3.502-3.502a.975.975 0 0 0-1.41.034L6.74 20.125h-.79A1.95 1.95 0 0 1 4 18.175V5.825Z" clip-rule="evenodd"/>
</svg>
