<svg xmlns="http://www.w3.org/2000/svg" width="24" height="24" fill="none" viewBox="0 0 24 24">
  <path fill="#000" fill-rule="evenodd" d="M20.4 3.5H3.6c-1.16 0-2.1.951-2.1 2.125v12.75c0 1.174.94 2.125 2.1 2.125h16.8c1.16 0 2.1-.951 2.1-2.125V5.625c0-1.174-.94-2.125-2.1-2.125ZM8.85 7.75c0-.587.47-1.063 1.05-1.063h.01c.58 0 1.05.476 1.05 1.063s-.47 1.063-1.05 1.063H9.9c-.58 0-1.05-.476-1.05-1.063ZM12 10.938c-.58 0-1.05.475-1.05 1.062 0 .587.47 1.063 1.05 1.063h.01c.58 0 1.05-.476 1.05-1.063s-.47-1.063-1.05-1.063H12Zm1.05-3.188c0-.587.47-1.063 1.05-1.063h.01c.58 0 1.05.476 1.05 1.063s-.47 1.063-1.05 1.063h-.01c-.58 0-1.05-.476-1.05-1.063Zm3.15 3.188c-.58 0-1.05.475-1.05 1.062 0 .587.47 1.063 1.05 1.063h.01c.58 0 1.05-.476 1.05-1.063s-.47-1.063-1.05-1.063h-.01Zm1.05-3.188c0-.587.47-1.063 1.05-1.063h.01c.58 0 1.05.476 1.05 1.063s-.47 1.063-1.05 1.063h-.01c-.58 0-1.05-.476-1.05-1.063ZM5.7 6.687c-.58 0-1.05.476-1.05 1.063s.47 1.063 1.05 1.063h.01c.58 0 1.05-.476 1.05-1.063s-.47-1.063-1.05-1.063H5.7Zm.263 9.563c0-.44.352-.797.787-.797h10.5c.435 0 .788.357.788.797 0 .44-.353.797-.788.797H6.75a.792.792 0 0 1-.787-.797ZM7.8 10.937c-.58 0-1.05.476-1.05 1.063s.47 1.063 1.05 1.063h.01c.58 0 1.05-.476 1.05-1.063s-.47-1.063-1.05-1.063H7.8Z" clip-rule="evenodd"/>
</svg>
