<svg xmlns="http://www.w3.org/2000/svg" width="24" height="24" fill="none" viewBox="0 0 24 24">
  <path fill="#000" fill-rule="evenodd" d="M5 6a3 3 0 0 0-3 3v6a3 3 0 0 0 3 3h14a3 3 0 0 0 3-3V9a3 3 0 0 0-3-3H5Zm.75 5.5a.75.75 0 1 0 0-1.5.75.75 0 0 0 0 1.5Zm4 0a.75.75 0 1 0 0-1.5.75.75 0 0 0 0 1.5Zm4.75-.75a.75.75 0 1 1-1.5 0 .75.75 0 0 1 1.5 0Zm3.25.75a.75.75 0 1 0 0-1.5.75.75 0 0 0 0 1.5Zm-1.25 2.25a.75.75 0 1 1-1.5 0 .75.75 0 0 1 1.5 0Zm-4.75.75a.75.75 0 1 0 0-1.5.75.75 0 0 0 0 1.5Zm-3.25-.75a.75.75 0 1 1-1.5 0 .75.75 0 0 1 1.5 0Z" clip-rule="evenodd"/>
</svg>
