<svg xmlns="http://www.w3.org/2000/svg" width="24" height="24" fill="none" viewBox="0 0 24 24">
  <path fill="#000" d="M11.568 2.991a.5.5 0 0 1 .864 0l2.252 3.864a.5.5 0 0 0 .43.249l4.472.018a.5.5 0 0 1 .432.748l-2.221 3.882a.5.5 0 0 0 0 .496l2.22 3.882a.5.5 0 0 1-.431.748l-4.472.018a.5.5 0 0 0-.43.248l-2.252 3.865a.5.5 0 0 1-.864 0l-2.252-3.864a.5.5 0 0 0-.43-.249l-4.472-.018a.5.5 0 0 1-.432-.748l2.221-3.882a.5.5 0 0 0 0-.496L3.983 7.87a.5.5 0 0 1 .431-.748l4.472-.018a.5.5 0 0 0 .43-.249l2.252-3.864Z"/>
</svg>
