<svg xmlns="http://www.w3.org/2000/svg" width="24" height="24" fill="none" viewBox="0 0 24 24">
  <path fill="#000" d="M5.5 2.25A3.25 3.25 0 0 0 2.25 5.5v2.167h19.5V5.5a3.25 3.25 0 0 0-3.25-3.25h-13Z"/>
  <path fill="#000" fill-rule="evenodd" d="M21.75 9.292H2.25V18.5a3.25 3.25 0 0 0 3.25 3.25h13a3.25 3.25 0 0 0 3.25-3.25V9.292ZM5.5 12.812c0-.448.364-.812.813-.812h11.375a.813.813 0 0 1 0 1.625H6.313a.813.813 0 0 1-.813-.813Zm.813 3.521a.813.813 0 0 0 0 1.625h11.375a.812.812 0 1 0 0-1.625H6.313Z" clip-rule="evenodd"/>
</svg>
