<svg xmlns="http://www.w3.org/2000/svg" width="24" height="24" fill="none" viewBox="0 0 24 24">
  <path fill="#000" fill-rule="evenodd" d="M12.75 2a.75.75 0 0 0-1.5 0v1a.75.75 0 0 0 1.5 0V2ZM5.03 3.97a.75.75 0 0 0-1.06 1.06l1 1a.75.75 0 0 0 1.06-1.06l-1-1Zm15 1.06a.75.75 0 0 0-1.06-1.06l-1 1a.75.75 0 0 0 1.06 1.06l1-1ZM2 11.25a.75.75 0 0 0 0 1.5h1a.75.75 0 0 0 0-1.5H2Zm19 0a.75.75 0 0 0 0 1.5h1a.75.75 0 0 0 0-1.5h-1Zm-2.668 1.25a6.25 6.25 0 0 1-3.582 5.654V20a2.75 2.75 0 1 1-5.5 0v-1.927a6.25 6.25 0 1 1 9.082-5.573Zm-6.25 6.25H12c-.427 0-.845-.04-1.25-.116V20a1.25 1.25 0 1 0 2.5 0v-1.359a6.28 6.28 0 0 1-1.168.109Z" clip-rule="evenodd"/>
</svg>
