<svg xmlns="http://www.w3.org/2000/svg" width="24" height="24" fill="none" viewBox="0 0 24 24">
  <path fill="#000" d="M3 2.25a.75.75 0 0 1 .75.75v15A2.25 2.25 0 0 0 6 20.25h15a.75.75 0 0 1 0 1.5H6A3.75 3.75 0 0 1 2.25 18V3A.75.75 0 0 1 3 2.25Z"/>
  <path fill="#000" d="M16.25 7a.75.75 0 0 1 .75-.75h4a.75.75 0 0 1 .75.75v4a.75.75 0 0 1-1.5 0V8.81l-4.72 4.72a.75.75 0 0 1-1.06 0L12 11.06l-4.47 4.47a.75.75 0 0 1-1.06-1.06l5-5a.75.75 0 0 1 1.06 0L15 11.94l4.19-4.19H17a.75.75 0 0 1-.75-.75Z"/>
</svg>
