<svg xmlns="http://www.w3.org/2000/svg" width="24" height="24" fill="none" viewBox="0 0 24 24">
  <path fill="#000" fill-rule="evenodd" d="M11.968 3.706a5.787 5.787 0 1 1 8.028 8.338l-2.533 2.44a.75.75 0 1 1-1.04-1.081l2.533-2.44a4.288 4.288 0 0 0-5.947-6.176l-2.671 2.571a.75.75 0 1 1-1.04-1.08l2.67-2.572Zm3.88 4.581a.75.75 0 0 1 0 1.061l-6.5 6.5a.75.75 0 1 1-1.06-1.06l6.5-6.5a.75.75 0 0 1 1.06 0ZM7.858 9.3a.75.75 0 0 1-.021 1.06L5.05 13.03a4.287 4.287 0 0 0 5.934 6.19l2.94-2.818a.75.75 0 1 1 1.038 1.082l-2.94 2.819a5.787 5.787 0 1 1-8.01-8.356L6.8 9.277a.75.75 0 0 1 1.06.022Z" clip-rule="evenodd"/>
</svg>
