<svg xmlns="http://www.w3.org/2000/svg" width="24" height="24" fill="none" viewBox="0 0 24 24">
  <path fill="#000" d="M12 1.25a.75.75 0 0 1 .75.75v4a.75.75 0 0 1-1.5 0V2a.75.75 0 0 1 .75-.75ZM4.47 4.47a.75.75 0 0 1 1.06 0l3 3a.75.75 0 0 1-1.06 1.06l-3-3a.75.75 0 0 1 0-1.06Zm15.06 0a.75.75 0 0 1 0 1.06l-3 3a.75.75 0 1 1-1.06-1.06l3-3a.75.75 0 0 1 1.06 0ZM1.25 12a.75.75 0 0 1 .75-.75h4a.75.75 0 0 1 0 1.5H2a.75.75 0 0 1-.75-.75Zm16 0a.75.75 0 0 1 .75-.75h4a.75.75 0 0 1 0 1.5h-4a.75.75 0 0 1-.75-.75Zm-8.72 3.47a.75.75 0 0 1 0 1.06l-3 3a.75.75 0 0 1-1.06-1.06l3-3a.75.75 0 0 1 1.06 0Zm6.94 0a.75.75 0 0 1 1.06 0l3 3a.75.75 0 1 1-1.06 1.06l-3-3a.75.75 0 0 1 0-1.06ZM12 17.25a.75.75 0 0 1 .75.75v4a.75.75 0 0 1-1.5 0v-4a.75.75 0 0 1 .75-.75Z"/>
</svg>
