<svg xmlns="http://www.w3.org/2000/svg" width="24" height="24" fill="none" viewBox="0 0 24 24">
  <path fill="#000" d="M12.016 11.09a2.103 2.103 0 0 1-2.107-2.1c0-1.16.943-2.1 2.107-2.1 1.163 0 2.107.94 2.107 2.1 0 1.16-.944 2.1-2.107 2.1Z"/>
  <path fill="#000" fill-rule="evenodd" d="M5.44 6.567C2.917 12.622 12.072 22 12.072 22s9.052-9.478 6.462-15.505C15.944.468 7.964.512 5.44 6.567Zm6.576 6.44a4.023 4.023 0 0 0 4.03-4.017 4.023 4.023 0 0 0-4.03-4.016A4.023 4.023 0 0 0 7.985 8.99a4.023 4.023 0 0 0 4.03 4.016Z" clip-rule="evenodd"/>
</svg>
