<svg xmlns="http://www.w3.org/2000/svg" width="24" height="24" fill="none" viewBox="0 0 24 24">
  <path fill="#000" fill-rule="evenodd" d="M5.84 7.984v2.576a7.108 7.108 0 0 0-1.34 4.155C4.5 18.738 7.858 22 12 22c4.142 0 7.5-3.262 7.5-7.285a7.108 7.108 0 0 0-1.34-4.155V7.984C18.16 4.679 15.403 2 12 2S5.84 4.679 5.84 7.984ZM12 3.56c-2.515 0-4.554 1.98-4.554 4.423v.943A7.611 7.611 0 0 1 12 7.43c1.713 0 3.291.557 4.554 1.496v-.943c0-2.443-2.04-4.423-4.554-4.423Zm.804 10.114c0-.431-.36-.78-.804-.78a.792.792 0 0 0-.804.78v2.081c0 .431.36.78.804.78a.792.792 0 0 0 .804-.78v-2.081Z" clip-rule="evenodd"/>
</svg>
