<svg xmlns="http://www.w3.org/2000/svg" width="24" height="24" fill="none" viewBox="0 0 24 24">
  <path fill="#000" fill-rule="evenodd" d="M5.85 1.75A2.05 2.05 0 0 0 3.8 3.8v14.35a2.05 2.05 0 0 0 2.05 2.05H7.9v1.281a.769.769 0 1 0 1.537 0V20.2h5.638v1.281a.769.769 0 1 0 1.537 0V20.2h1.538a2.05 2.05 0 0 0 2.05-2.05V3.8a2.05 2.05 0 0 0-2.05-2.05H5.85Zm2.306 5.381a.769.769 0 0 1 1.538 0v7.688a.769.769 0 1 1-1.538 0V7.13Zm6.09 0a.769.769 0 0 1 1.537 0v7.688a.769.769 0 1 1-1.537 0V7.13Z" clip-rule="evenodd"/>
</svg>
