<svg xmlns="http://www.w3.org/2000/svg" width="24" height="24" fill="none" viewBox="0 0 24 24">
  <path fill="#000" d="M2.25 6.44a.5.5 0 0 1 .252-.434l5.094-2.91a.5.5 0 0 1 .748.433v14.449a.5.5 0 0 1-.252.434l-5.094 2.91a.5.5 0 0 1-.748-.434V6.44Zm12.919 14.03a.5.5 0 0 1-.748.435l-4.363-2.493a.5.5 0 0 1-.252-.434V3.529a.5.5 0 0 1 .748-.434l4.363 2.493a.5.5 0 0 1 .252.434v14.449Zm1.462-.142a.5.5 0 0 0 .778.416l4.118-2.746a.5.5 0 0 0 .223-.416V3.184a.5.5 0 0 0-.777-.416l-4.12 2.746a.5.5 0 0 0-.222.416v14.398Z"/>
</svg>
