<svg xmlns="http://www.w3.org/2000/svg" width="24" height="24" fill="none" viewBox="0 0 24 24">
  <path fill="#000" d="M12 14.277a2.277 2.277 0 1 1 0-4.554 2.277 2.277 0 0 1 0 4.554Z"/>
  <path fill="#000" fill-rule="evenodd" d="M11.767 1.75a.699.699 0 0 0-.699.699v1.216a8.39 8.39 0 0 0-7.403 7.403H2.449a.699.699 0 1 0 0 1.398h1.177a8.388 8.388 0 0 0 7.442 7.87v1.215a.699.699 0 1 0 1.398 0v-1.177a8.387 8.387 0 0 0 7.908-7.908h1.177a.699.699 0 1 0 0-1.398h-1.216a8.388 8.388 0 0 0-7.87-7.442V2.45a.699.699 0 0 0-.698-.699ZM12 15.727a3.727 3.727 0 1 0 0-7.454 3.727 3.727 0 0 0 0 7.454Z" clip-rule="evenodd"/>
</svg>
