<svg xmlns="http://www.w3.org/2000/svg" width="24" height="24" fill="none" viewBox="0 0 24 24">
  <path fill="#000" d="M12.015 9.537a1.351 1.351 0 1 1 0-2.702 1.351 1.351 0 0 1 0 2.702Z"/>
  <path fill="#000" fill-rule="evenodd" d="M7.314 6.524c-1.802 4.34 4.738 11.063 4.738 11.063s6.465-6.794 4.615-11.115c-1.85-4.32-7.55-4.289-9.353.052Zm4.701 4.413a2.75 2.75 0 1 0 0-5.5 2.75 2.75 0 0 0 0 5.5Z" clip-rule="evenodd"/>
  <path fill="#000" d="M18.342 12.788a.616.616 0 0 0-.507.037.732.732 0 0 0-.342.418.834.834 0 0 0 .015.566c.07.179.201.32.364.395 1.4.576 2.27 1.348 2.27 2.016 0 1.261-3.097 3.02-8.142 3.02s-8.143-1.759-8.143-3.02c0-.668.87-1.44 2.27-2.015a.718.718 0 0 0 .365-.395.834.834 0 0 0 .015-.566.732.732 0 0 0-.342-.418.616.616 0 0 0-.507-.037C3.62 13.624 2.5 14.844 2.5 16.22c0 2.943 4.895 4.53 9.5 4.53s9.5-1.587 9.5-4.53c0-1.376-1.121-2.596-3.158-3.432Z"/>
</svg>
