<svg xmlns="http://www.w3.org/2000/svg" width="24" height="24" fill="none" viewBox="0 0 24 24">
  <path fill="#000" d="M12.75 10.412a3.501 3.501 0 0 0-.75-6.92 3.5 3.5 0 0 0-.75 6.92v6.192a.75.75 0 0 0 1.5 0v-6.192Z"/>
  <path fill="#000" d="M21.5 16.427c0 2.65-4.895 4.08-9.5 4.08s-9.5-1.43-9.5-4.08c0-.658.323-1.626 1.866-2.5 1.04-.59 2.47-1.043 4.137-1.31a.678.678 0 0 1 .777.566.683.683 0 0 1-.565.779c-1.488.24-2.8.648-3.683 1.152-.747.42-1.175.9-1.175 1.313 0 1.136 3.098 2.72 8.143 2.72 5.045 0 8.143-1.584 8.143-2.72 0-.413-.428-.893-1.175-1.317-.887-.503-2.195-.912-3.683-1.152a.678.678 0 0 1-.582-.782.68.68 0 0 1 .798-.56c1.666.268 3.096.721 4.136 1.31 1.54.875 1.863 1.843 1.863 2.5Z"/>
</svg>
