<svg xmlns="http://www.w3.org/2000/svg" width="24" height="24" fill="none" viewBox="0 0 24 24">
  <path fill="#000" d="M2.25 5A2.75 2.75 0 0 1 5 2.25h3a.75.75 0 0 1 0 1.5H5c-.69 0-1.25.56-1.25 1.25v3a.75.75 0 0 1-1.5 0V5Zm13-2a.75.75 0 0 1 .75-.75h3A2.75 2.75 0 0 1 21.75 5v3a.75.75 0 0 1-1.5 0V5c0-.69-.56-1.25-1.25-1.25h-3a.75.75 0 0 1-.75-.75ZM3 15.25a.75.75 0 0 1 .75.75v3c0 .69.56 1.25 1.25 1.25h3a.75.75 0 0 1 0 1.5H5A2.75 2.75 0 0 1 2.25 19v-3a.75.75 0 0 1 .75-.75Zm18 0a.75.75 0 0 1 .75.75v3A2.75 2.75 0 0 1 19 21.75h-3a.75.75 0 0 1 0-1.5h3c.69 0 1.25-.56 1.25-1.25v-3a.75.75 0 0 1 .75-.75Z"/>
</svg>
