<svg xmlns="http://www.w3.org/2000/svg" width="24" height="24" fill="none" viewBox="0 0 24 24">
  <path fill="#000" fill-rule="evenodd" d="M3.771 16.247a9.392 9.392 0 0 1-.785-6.309 9.486 9.486 0 0 1 3.457-5.415 9.703 9.703 0 0 1 6.151-2.02 9.693 9.693 0 0 1 6.054 2.29 9.472 9.472 0 0 1 3.207 5.563 9.396 9.396 0 0 1-1.095 6.31 9.587 9.587 0 0 1-4.9 4.19 9.738 9.738 0 0 1-6.48.17l-1.248-.568a.108.108 0 0 0-.063-.008l-5.446.896a.53.53 0 0 1-.584-.716l1.736-4.297a.105.105 0 0 0-.004-.086Zm4.33-5.303c-.59 0-1.068.473-1.068 1.056 0 .583.478 1.056 1.069 1.056h.01c.59 0 1.07-.473 1.07-1.056 0-.583-.48-1.056-1.07-1.056h-.01ZM11.31 12c0-.583.479-1.056 1.07-1.056h.01c.59 0 1.069.473 1.069 1.056 0 .583-.479 1.056-1.07 1.056h-.01c-.59 0-1.069-.473-1.069-1.056Zm5.345-1.056c-.59 0-1.069.473-1.069 1.056 0 .583.48 1.056 1.07 1.056h.01c.59 0 1.07-.473 1.07-1.056 0-.583-.48-1.056-1.07-1.056h-.01Z" clip-rule="evenodd"/>
</svg>
