<svg xmlns="http://www.w3.org/2000/svg" width="24" height="24" fill="none" viewBox="0 0 24 24">
  <path fill="#000" fill-rule="evenodd" d="M3.909 16.402a9.98 9.98 0 0 1-.797-6.518 9.785 9.785 0 0 1 3.413-5.558 9.342 9.342 0 0 1 6.073-2.074 9.362 9.362 0 0 1 5.977 2.352 9.814 9.814 0 0 1 3.167 5.709 9.971 9.971 0 0 1-1.081 6.475 9.578 9.578 0 0 1-4.838 4.301 9.271 9.271 0 0 1-6.399.175l-1.261-.597L2.7 21.6a.5.5 0 0 1-.55-.674l1.759-4.525Zm7.684-8.96v4.875c0 .449.355.813.792.813a.802.802 0 0 0 .792-.813V7.442a.802.802 0 0 0-.792-.812.802.802 0 0 0-.792.812Zm.792 6.77a.802.802 0 0 0-.792.813v.542c0 .449.355.813.792.813a.802.802 0 0 0 .792-.813v-.542a.802.802 0 0 0-.792-.812Z" clip-rule="evenodd"/>
</svg>
