<svg xmlns="http://www.w3.org/2000/svg" width="24" height="24" fill="none" viewBox="0 0 24 24">
  <path fill="#000" fill-rule="evenodd" d="M5.662 2.25h12.676a3.169 3.169 0 0 1 3.169 3.169v9.507a3.169 3.169 0 0 1-3.17 3.168h-5.226a3.17 3.17 0 0 0-1.98.695l-3.555 2.844a.528.528 0 0 1-.858-.412v-2.07c0-.584-.473-1.056-1.056-1.056a3.169 3.169 0 0 1-3.169-3.17V5.42a3.169 3.169 0 0 1 3.17-3.169Zm7.394 8.45a1.056 1.056 0 1 0-2.112 0 1.056 1.056 0 0 0 2.112 0ZM7.775 9.644a1.056 1.056 0 1 1 0 2.113 1.056 1.056 0 0 1 0-2.113ZM17.28 10.7a1.056 1.056 0 1 0-2.112 0 1.056 1.056 0 0 0 2.112 0Z" clip-rule="evenodd"/>
</svg>
