<svg xmlns="http://www.w3.org/2000/svg" width="24" height="24" fill="none" viewBox="0 0 24 24">
  <path fill="#000" fill-rule="evenodd" d="M6.063 2.66h11.875A3.563 3.563 0 0 1 21.5 6.223v7.875a3.562 3.562 0 0 1-3.563 3.562h-4.74c-.776 0-1.532.254-2.151.723L7.23 21.275a.317.317 0 0 1-.508-.252V19.77a2.111 2.111 0 0 0-2.11-2.111 2.111 2.111 0 0 1-2.112-2.11V6.223A3.563 3.563 0 0 1 6.063 2.66Zm1.715 6.333a1.056 1.056 0 1 0 0 2.111h.01a1.056 1.056 0 0 0 0-2.11h-.01Zm3.166 1.056c0-.583.473-1.056 1.056-1.056h.01a1.056 1.056 0 0 1 0 2.111H12a1.056 1.056 0 0 1-1.056-1.055Zm5.278-1.056a1.056 1.056 0 0 0 0 2.111h.01a1.056 1.056 0 0 0 0-2.11h-.01Z" clip-rule="evenodd"/>
</svg>
