<svg xmlns="http://www.w3.org/2000/svg" width="24" height="24" fill="none" viewBox="0 0 24 24">
  <path fill="#000" fill-rule="evenodd" d="M18.338 2.25H5.662a3.169 3.169 0 0 0-3.169 3.169V21.22c0 .443.512.689.858.412l3.556-2.844a3.169 3.169 0 0 1 1.98-.695h9.45a3.169 3.169 0 0 0 3.17-3.168V5.419a3.169 3.169 0 0 0-3.17-3.169ZM6.718 8.324c0-.438.355-.792.793-.792h4.753a.792.792 0 0 1 0 1.584H7.511a.792.792 0 0 1-.793-.792Zm.793 2.376a.792.792 0 1 0 0 1.585h8.978a.792.792 0 0 0 0-1.585H7.511Z" clip-rule="evenodd"/>
</svg>
