<svg xmlns="http://www.w3.org/2000/svg" width="24" height="24" fill="none" viewBox="0 0 24 24">
  <path fill="#000" d="M20.493 17.772H3.507c-.364 0-.609-.356-.465-.676l1.896-4.234a10.13 10.13 0 0 0 .888-4.142C5.826 5.561 8.502 3 11.803 3h.394c3.3 0 5.977 2.561 5.977 5.72 0 1.424.302 2.833.888 4.142l1.896 4.234c.144.32-.101.676-.465.676Zm-5.328 1.969a.717.717 0 0 0 .1-1.04.796.796 0 0 0-1.088-.095c-1.067.852-2.047.996-2.825.884-.814-.117-1.466-.523-1.795-.838a.796.796 0 0 0-1.091 0 .716.716 0 0 0 0 1.044c.528.506 1.472 1.084 2.656 1.255 1.22.175 2.64-.091 4.043-1.21Z"/>
</svg>
