<svg xmlns="http://www.w3.org/2000/svg" width="24" height="24" fill="none" viewBox="0 0 24 24">
  <path fill="#000" fill-rule="evenodd" d="M18.227 2.509a2.026 2.026 0 0 1 2.86 2.86l-7.763 8.776-3.873-3.873 8.776-7.763ZM7.833 11.703l4.06 4.06-1.182 1.336a1.078 1.078 0 0 1-1.57.048l-.854-.855c.084.097.16.195.224.294 1.288 1.976-1.163 4.512-2.617 4.963-.436.15-1.745.451-3.49.451.437-1.053.54-3.234.437-4.511-.103-1.277.853-2.29 2.259-2.497.983-.145 2.141.34 2.891 1.005l-1.542-1.542a1.078 1.078 0 0 1 .048-1.57l1.336-1.182Z" clip-rule="evenodd"/>
</svg>
