<svg xmlns="http://www.w3.org/2000/svg" width="24" height="24" fill="none" viewBox="0 0 24 24">
  <path fill="#000" d="M5.47 3.47a.75.75 0 0 1 1.06 0l3 3a.75.75 0 0 1-1.06 1.06L6.75 5.81v12.38l1.72-1.72a.75.75 0 0 1 1.06 1.06l-3 3a.75.75 0 0 1-1.06 0l-3-3a.75.75 0 1 1 1.06-1.06l1.72 1.72V5.81L3.53 7.53a.75.75 0 0 1-1.06-1.06l3-3ZM12.25 6a.75.75 0 0 1 .75-.75h8a.75.75 0 0 1 0 1.5h-8a.75.75 0 0 1-.75-.75Zm0 4a.75.75 0 0 1 .75-.75h8a.75.75 0 0 1 0 1.5h-8a.75.75 0 0 1-.75-.75Zm0 4a.75.75 0 0 1 .75-.75h8a.75.75 0 0 1 0 1.5h-8a.75.75 0 0 1-.75-.75Zm0 4a.75.75 0 0 1 .75-.75h8a.75.75 0 0 1 0 1.5h-8a.75.75 0 0 1-.75-.75Z"/>
</svg>
