<svg xmlns="http://www.w3.org/2000/svg" width="24" height="24" fill="none" viewBox="0 0 24 24">
  <path fill="#000" d="M10.059 8.925a1.941 1.941 0 1 0 3.882 0 1.941 1.941 0 0 0-3.882 0Z"/>
  <path fill="#000" fill-rule="evenodd" d="M3.8 4.825A3.075 3.075 0 0 1 6.875 1.75h10.25A3.075 3.075 0 0 1 20.2 4.825v14.35a3.075 3.075 0 0 1-3.075 3.075H6.875A3.075 3.075 0 0 1 3.8 19.175V4.825Zm11.275 4.1a3.075 3.075 0 1 1-6.15 0 3.075 3.075 0 0 1 6.15 0ZM9.694 16.1a.769.769 0 0 0 0 1.537h4.612a.769.769 0 0 0 0-1.537H9.694Z" clip-rule="evenodd"/>
</svg>
