<svg xmlns="http://www.w3.org/2000/svg" width="24" height="24" fill="none" viewBox="0 0 24 24">
  <path fill="#000" d="m13.958 20.755.663.664a1.132 1.132 0 0 0 1.6 0l5.191-5.191a1.132 1.132 0 0 0 0-1.601l-.663-.663a1.132 1.132 0 0 0-1.6 0l-5.191 5.19a1.132 1.132 0 0 0 0 1.601Zm-.801-9.855a2.264 2.264 0 1 1-4.528 0 2.264 2.264 0 0 1 4.528 0Z"/>
  <path fill="#000" fill-rule="evenodd" d="M18.534 7.223a2.264 2.264 0 0 0-1.688-1.756L3.655 2.283c-.827-.2-1.57.55-1.364 1.374l3.185 12.74c.2.798.817 1.426 1.613 1.638l7.2 1.92 5.66-5.66-1.415-7.072Zm-1.981.28L4.102 4.109l3.395 11.885 5.66 1.698 4.528-4.528-1.132-5.66Z" clip-rule="evenodd"/>
  <path fill="#000" d="M3.57 4.777a.849.849 0 1 1 1.2-1.2l5.203 5.202a.849.849 0 0 1-1.2 1.2L3.57 4.777Z"/>
</svg>
