<svg xmlns="http://www.w3.org/2000/svg" width="24" height="24" fill="none" viewBox="0 0 24 24">
  <path fill="#000" d="M20.49 11.869c.353.095.72-.115.78-.476a7.001 7.001 0 0 0-8.658-7.94c-.354.091-.531.475-.406.819.124.344.504.517.86.433a5.674 5.674 0 0 1 6.917 6.344c-.053.362.153.725.506.82ZM8.137 4.998l-.616-.616a2.338 2.338 0 0 0-3.306 0l-.79.79a2.706 2.706 0 0 0-.726 2.514A17.14 17.14 0 0 0 14.19 20.21l1.304.418a3 3 0 0 0 3.172-.882l.62-.708a2.38 2.38 0 0 0-.243-3.376l-.509-.436a1.657 1.657 0 0 0-2.25.087 1.657 1.657 0 0 1-2.024.249l-1.517-.91a12.998 12.998 0 0 1-3.962-3.692L7.706 9.426a1.558 1.558 0 0 1 .303-2.11c.725-.58.785-1.661.128-2.318Z"/>
  <path fill="#000" d="M18.256 10.606c-.002.37-.35.621-.716.565-.366-.057-.608-.402-.63-.771a3.163 3.163 0 0 0-3.265-2.975c-.37.012-.735-.197-.826-.556-.09-.36.128-.729.496-.765a4.5 4.5 0 0 1 4.94 4.502Z"/>
</svg>
