<svg xmlns="http://www.w3.org/2000/svg" width="24" height="24" fill="none" viewBox="0 0 24 24">
  <path fill="#000" d="M17.487 8.877c.312-.149.442-.517.26-.805A6.547 6.547 0 0 0 15.66 6.01a6.767 6.767 0 0 0-3.429-1.009 6.778 6.778 0 0 0-3.468.873 6.568 6.568 0 0 0-2.171 1.978c-.194.28-.079.653.226.814.305.162.684.05.884-.226a5.33 5.33 0 0 1 1.692-1.508 5.495 5.495 0 0 1 2.812-.708c.986.02 1.948.302 2.78.818.655.406 1.21.943 1.628 1.574.189.283.562.41.873.261Zm1.506 9.96h.79c1.225 0 2.217-.966 2.217-2.157v-.938c0-.914-.493-1.76-1.297-2.23a17.313 17.313 0 0 0-16.89-.28l-.376.203a2.698 2.698 0 0 0-1.43 2.554l.065.96c.083 1.22 1.173 2.138 2.425 2.044l.595-.044c.84-.063 1.49-.745 1.49-1.565 0-.688.46-1.296 1.134-1.5l1.004-.302a12.65 12.65 0 0 1 6.361-.244l1.245.274c.75.164 1.252.851 1.168 1.595-.1.87.6 1.63 1.499 1.63Z"/>
  <path fill="#000" d="M15.683 9.656c.206.277.08.654-.231.81-.312.158-.69.033-.914-.23a2.974 2.974 0 0 0-.75-.634 3.058 3.058 0 0 0-3.107-.01 2.975 2.975 0 0 0-.754.63c-.225.262-.605.384-.915.226-.311-.16-.434-.537-.227-.812a4.226 4.226 0 0 1 1.24-1.103 4.354 4.354 0 0 1 2.214-.595 4.35 4.35 0 0 1 2.211.608c.485.288.903.666 1.233 1.11Z"/>
</svg>
