<svg xmlns="http://www.w3.org/2000/svg" width="24" height="24" fill="none" viewBox="0 0 24 24">
  <path fill="#000" d="m7.962 3.184.588.588a1.635 1.635 0 0 1-.135 2.432 1.635 1.635 0 0 0-.255 2.298l.06.075c.587.734.96 2.061.195 2.607l-1.354 1.5c-.516.37-1.801-.567-2.085-1.134L3.12 7.835a3 3 0 0 1 .315-3.183l.97-1.246a2.378 2.378 0 0 1 3.558-.222ZM19.75 14.791l.55.472a2.574 2.574 0 0 1 .261 3.649l-.672.768a3 3 0 0 1-3.372.81l-2.063-.825a13 13 0 0 1-2.582-1.389l-2.913-2.02-4.38 5a.75.75 0 1 1-1.13-.988L18.277 3.344a.75.75 0 1 1 1.128.988l-7.687 8.776 3.411 2.046a1.792 1.792 0 0 0 2.189-.269 1.791 1.791 0 0 1 2.432-.094Z"/>
</svg>
