<svg xmlns="http://www.w3.org/2000/svg" width="24" height="24" fill="none" viewBox="0 0 24 24">
  <path fill="#000" d="m8.567 3.948-.679-.686a2.559 2.559 0 0 0-3.643 0l-.871.88a3.031 3.031 0 0 0-.8 2.796C4.055 13.52 8.87 18.82 15.236 20.877l1.436.464a3.285 3.285 0 0 0 3.496-.981l.683-.788a2.667 2.667 0 0 0-.267-3.756l-.56-.485a1.813 1.813 0 0 0-2.48.096 1.813 1.813 0 0 1-2.231.277l-1.672-1.012a14.38 14.38 0 0 1-4.365-4.11L8.092 8.876a1.745 1.745 0 0 1 .334-2.348 1.745 1.745 0 0 0 .141-2.58Z"/>
</svg>
