<svg xmlns="http://www.w3.org/2000/svg" width="24" height="24" fill="none" viewBox="0 0 24 24">
  <path fill="#000" d="M6 6.75A.75.75 0 0 1 6.75 6h.75a.75.75 0 0 1 .75.75v.75a.75.75 0 0 1-.75.75h-.75A.75.75 0 0 1 6 7.5v-.75Z"/>
  <path fill="#000" fill-rule="evenodd" d="M3 4.875C3 3.84 3.84 3 4.875 3h4.5c1.035 0 1.875.84 1.875 1.875v4.5c0 1.035-.84 1.875-1.875 1.875h-4.5A1.875 1.875 0 0 1 3 9.375v-4.5ZM4.875 4.5a.375.375 0 0 0-.375.375v4.5a.375.375 0 0 0 .375.375h4.5a.375.375 0 0 0 .375-.375v-4.5a.375.375 0 0 0-.375-.375h-4.5Z" clip-rule="evenodd"/>
  <path fill="#000" d="M15.75 6.75A.75.75 0 0 1 16.5 6h.75a.75.75 0 0 1 .75.75v.75a.75.75 0 0 1-.75.75h-.75a.75.75 0 0 1-.75-.75v-.75Z"/>
  <path fill="#000" fill-rule="evenodd" d="M12.75 4.875C12.75 3.84 13.59 3 14.625 3h4.5C20.16 3 21 3.84 21 4.875v4.5c0 1.035-.84 1.875-1.875 1.875h-4.5a1.875 1.875 0 0 1-1.875-1.875v-4.5Zm1.875-.375a.375.375 0 0 0-.375.375v4.5a.375.375 0 0 0 .375.375h4.5a.375.375 0 0 0 .375-.375v-4.5a.375.375 0 0 0-.375-.375h-4.5Z" clip-rule="evenodd"/>
  <path fill="#000" d="M6 16.5a.75.75 0 0 1 .75-.75h.75a.75.75 0 0 1 .75.75v.75a.75.75 0 0 1-.75.75h-.75a.75.75 0 0 1-.75-.75v-.75Z"/>
  <path fill="#000" fill-rule="evenodd" d="M3 14.625c0-1.035.84-1.875 1.875-1.875h4.5c1.035 0 1.875.84 1.875 1.875v4.5c0 1.035-.84 1.875-1.875 1.875h-4.5A1.875 1.875 0 0 1 3 19.125v-4.5Zm1.875-.375a.375.375 0 0 0-.375.375v4.5a.375.375 0 0 0 .375.375h4.5a.375.375 0 0 0 .375-.375v-4.5a.375.375 0 0 0-.375-.375h-4.5Z" clip-rule="evenodd"/>
  <path fill="#000" d="M12.75 13.5a.75.75 0 0 1 .75-.75h.75a.75.75 0 0 1 .75.75v.75a.75.75 0 0 1-.75.75h-.75a.75.75 0 0 1-.75-.75v-.75Zm6 0a.75.75 0 0 1 .75-.75h.75a.75.75 0 0 1 .75.75v.75a.75.75 0 0 1-.75.75h-.75a.75.75 0 0 1-.75-.75v-.75Zm-3 3a.75.75 0 0 1 .75-.75h.75a.75.75 0 0 1 .75.75v.75a.75.75 0 0 1-.75.75h-.75a.75.75 0 0 1-.75-.75v-.75Zm-3 3a.75.75 0 0 1 .75-.75h.75a.75.75 0 0 1 .75.75v.75a.75.75 0 0 1-.75.75h-.75a.75.75 0 0 1-.75-.75v-.75Zm6 0a.75.75 0 0 1 .75-.75h.75a.75.75 0 0 1 .75.75v.75a.75.75 0 0 1-.75.75h-.75a.75.75 0 0 1-.75-.75v-.75Z"/>
</svg>
