<svg xmlns="http://www.w3.org/2000/svg" width="24" height="24" fill="none" viewBox="0 0 24 24">
  <path fill="#000" fill-rule="evenodd" d="M3.333 2.25h6.5c.599 0 1.084.485 1.084 1.083v6.5c0 .599-.485 1.084-1.084 1.084h-6.5A1.083 1.083 0 0 1 2.25 9.833v-6.5c0-.598.485-1.083 1.083-1.083Zm4.572 4.063a1.354 1.354 0 1 1-2.709 0 1.354 1.354 0 0 1 2.709 0Zm6.262-4.063h6.5c.598 0 1.083.485 1.083 1.083v6.5c0 .599-.485 1.084-1.083 1.084h-6.5a1.083 1.083 0 0 1-1.084-1.084v-6.5c0-.598.485-1.083 1.084-1.083Zm3.52 5.417a1.354 1.354 0 1 0 0-2.709 1.354 1.354 0 0 0 0 2.709Zm-7.854 5.416h-6.5c-.598 0-1.083.485-1.083 1.084v6.5c0 .598.485 1.083 1.083 1.083h6.5c.599 0 1.084-.485 1.084-1.083v-6.5c0-.599-.485-1.084-1.084-1.084Zm-1.928 4.334a1.354 1.354 0 1 1-2.708 0 1.354 1.354 0 0 1 2.708 0Z" clip-rule="evenodd"/>
  <path fill="#000" d="M13.083 16.604v4.334a.813.813 0 0 0 1.625 0v-4.334a.812.812 0 1 0-1.625 0Zm7.584 5.146h-3.521a.813.813 0 0 1 0-1.625h2.437c.3 0 .542-.242.542-.542v-2.437a.813.813 0 0 1 1.625 0v3.52c0 .599-.485 1.084-1.083 1.084Zm-3.521-8.667h3.791a.813.813 0 0 1 0 1.625h-3.791a.812.812 0 1 1 0-1.625ZM13.083 12a1.083 1.083 0 1 1-2.166 0 1.083 1.083 0 0 1 2.166 0Z"/>
  <path fill="#000" d="M19.313 17.66a1.354 1.354 0 1 1-2.709 0 1.354 1.354 0 0 1 2.709 0Z"/>
</svg>
