<svg xmlns="http://www.w3.org/2000/svg" width="24" height="24" fill="none" viewBox="0 0 24 24">
  <path fill="#000" d="M21.293 8.806c.162.407-.076.853-.495.982-.42.13-.86-.107-1.029-.512A8.412 8.412 0 0 0 4.6 8.5h3.15a.75.75 0 1 1 0 1.5H3.045a.545.545 0 0 1-.545-.545V4.75a.75.75 0 1 1 1.5 0V6.5a10 10 0 0 1 17.293 2.306ZM19.4 15.5a8.412 8.412 0 0 1-15.17-.776c-.168-.405-.609-.642-1.028-.513-.419.13-.657.576-.495.983A10 10 0 0 0 20 17.5v1.75a.75.75 0 0 0 1.5 0v-4.705a.545.545 0 0 0-.546-.545H16.25a.75.75 0 0 0 0 1.5h3.15Z"/>
</svg>
