<svg xmlns="http://www.w3.org/2000/svg" width="24" height="24" fill="none" viewBox="0 0 24 24">
  <path fill="#000" d="M16.47 1.47a.75.75 0 0 1 1.06 0l4 4a.75.75 0 0 1 0 1.06l-4 4a.75.75 0 1 1-1.06-1.06l2.72-2.72H6A2.25 2.25 0 0 0 3.75 9v2a.75.75 0 0 1-1.5 0V9A3.75 3.75 0 0 1 6 5.25h13.19l-2.72-2.72a.75.75 0 0 1 0-1.06ZM20.25 15v-2a.75.75 0 0 1 1.5 0v2A3.75 3.75 0 0 1 18 18.75H4.81l2.72 2.72a.75.75 0 1 1-1.06 1.06l-4-4a.75.75 0 0 1 0-1.06l4-4a.75.75 0 0 1 1.06 1.06l-2.72 2.72H18A2.25 2.25 0 0 0 20.25 15Z"/>
</svg>
