<svg xmlns="http://www.w3.org/2000/svg" width="24" height="24" fill="none" viewBox="0 0 24 24">
  <path fill="#000" fill-rule="evenodd" d="M9.57 8.005A14.225 14.225 0 0 1 20.822 2.5a.679.679 0 0 1 .679.679c0 4.574-2.156 8.645-5.505 11.251a6.107 6.107 0 0 1-6.03 7.07.679.679 0 0 1-.68-.679v-3.737a14.335 14.335 0 0 1-2.368-2.37H3.179a.678.678 0 0 1-.679-.678 6.107 6.107 0 0 1 7.07-6.031Zm5.144-.755a2.036 2.036 0 1 0 0 4.072 2.036 2.036 0 0 0 0-4.072Z" clip-rule="evenodd"/>
  <path fill="#000" d="M5.902 16.743a.68.68 0 0 0-.812-1.089 4.744 4.744 0 0 0-1.854 4.544.678.678 0 0 0 .565.567 4.743 4.743 0 0 0 4.544-1.855.679.679 0 1 0-1.088-.812 3.387 3.387 0 0 1-2.721 1.366c0-1.113.535-2.101 1.366-2.721Z"/>
</svg>
