<svg xmlns="http://www.w3.org/2000/svg" width="24" height="24" fill="none" viewBox="0 0 24 24">
  <path fill="#000" fill-rule="evenodd" d="M2.986 4c0-1.105.91-2 2.033-2h11.18c1.123 0 2.033.895 2.033 2v.25c1.525 0 2.782 1.22 2.782 2.75v2.314c0 1.53-1.257 2.75-2.783 2.75h-5.25c-.72 0-1.284.571-1.284 1.25V15.2h.098c.561 0 1.016.448 1.016 1V21c0 .552-.455 1-1.016 1H10.1a1.008 1.008 0 0 1-1.017-1v-4.8c0-.552.455-1 1.017-1h.096v-1.886c0-1.53 1.258-2.75 2.783-2.75h5.251c.72 0 1.283-.57 1.283-1.25V7c0-.679-.563-1.25-1.283-1.25a.754.754 0 0 1-.142-.013A2.033 2.033 0 0 1 16.2 7H5.019c-1.123 0-2.033-.895-2.033-2V4Z" clip-rule="evenodd"/>
</svg>
