<svg xmlns="http://www.w3.org/2000/svg" width="24" height="24" fill="none" viewBox="0 0 24 24">
  <path fill="#000" fill-rule="evenodd" d="M13.57 3.224a2.063 2.063 0 0 0-3.14 0l-.42.49a2.066 2.066 0 0 1-1.895.697l-.632-.101c-1.249-.2-2.384.763-2.405 2.042L5.067 7a2.11 2.11 0 0 1-1.01 1.768L3.51 9.1a2.12 2.12 0 0 0-.545 3.13l.403.503c.452.564.584 1.324.35 2.01l-.208.612c-.412 1.21.329 2.508 1.57 2.752l.628.123a2.086 2.086 0 0 1 1.545 1.313l.23.604a2.07 2.07 0 0 0 2.95 1.087l.56-.314a2.058 2.058 0 0 1 2.017 0l.56.314a2.07 2.07 0 0 0 2.95-1.087l.229-.604a2.086 2.086 0 0 1 1.545-1.313l.629-.123c1.24-.244 1.981-1.542 1.57-2.752l-.21-.612a2.124 2.124 0 0 1 .351-2.01l.403-.504a2.12 2.12 0 0 0-.545-3.129l-.549-.333A2.11 2.11 0 0 1 18.933 7l-.01-.648C18.9 5.073 17.765 4.11 16.516 4.31l-.632.101a2.066 2.066 0 0 1-1.895-.698l-.42-.489Zm2.253 5.137a.796.796 0 0 0-1.136 0l-6.434 6.511a.82.82 0 0 0 0 1.15.796.796 0 0 0 1.136 0l6.434-6.512a.82.82 0 0 0 0-1.15Zm-5.212.93c0 .598-.48 1.083-1.07 1.083A1.077 1.077 0 0 1 8.47 9.29c0-.598.48-1.083 1.07-1.083.592 0 1.071.485 1.071 1.083Zm5.353 5.416c0 .599-.48 1.084-1.07 1.084a1.077 1.077 0 0 1-1.071-1.084c0-.598.479-1.083 1.07-1.083.591 0 1.07.485 1.07 1.083Z" clip-rule="evenodd"/>
</svg>
