<svg xmlns="http://www.w3.org/2000/svg" width="24" height="24" fill="none" viewBox="0 0 24 24">
  <path fill="#000" d="M2.25 4c0-.966.784-1.75 1.75-1.75h4a.75.75 0 0 1 0 1.5H4a.25.25 0 0 0-.25.25v4a.75.75 0 0 1-1.5 0V4Zm13-1a.75.75 0 0 1 .75-.75h4c.966 0 1.75.784 1.75 1.75v4a.75.75 0 0 1-1.5 0V4a.25.25 0 0 0-.25-.25h-4a.75.75 0 0 1-.75-.75ZM3 15.25a.75.75 0 0 1 .75.75v4c0 .138.112.25.25.25h4a.75.75 0 0 1 0 1.5H4A1.75 1.75 0 0 1 2.25 20v-4a.75.75 0 0 1 .75-.75Zm18 0a.75.75 0 0 1 .75.75v4A1.75 1.75 0 0 1 20 21.75h-4a.75.75 0 0 1 0-1.5h4a.25.25 0 0 0 .25-.25v-4a.75.75 0 0 1 .75-.75ZM3.5 12a1 1 0 0 1 1-1h.01a1 1 0 1 1 0 2H4.5a1 1 0 0 1-1-1ZM15 11a1 1 0 1 0 0 2h.01a1 1 0 1 0 0-2H15Zm-6 1a1 1 0 0 1 1-1h.01a1 1 0 1 1 0 2H10a1 1 0 0 1-1-1Zm11-1a1 1 0 1 0 0 2h.01a1 1 0 1 0 0-2H20Z"/>
</svg>
