<svg xmlns="http://www.w3.org/2000/svg" width="24" height="24" fill="none" viewBox="0 0 24 24">
  <path fill="#000" fill-rule="evenodd" d="M14.638 3.826c-.926-2.435-4.35-2.435-5.276 0a2.822 2.822 0 0 1-3.083 1.79c-2.56-.411-4.272 2.57-2.638 4.594a2.852 2.852 0 0 1 0 3.58c-1.634 2.023.078 5.006 2.638 4.594a2.822 2.822 0 0 1 3.083 1.79c.926 2.435 4.35 2.435 5.276 0a2.822 2.822 0 0 1 3.083-1.79c2.56.412 4.272-2.57 2.638-4.594a2.852 2.852 0 0 1 0-3.58c1.634-2.023-.078-5.005-2.638-4.594a2.822 2.822 0 0 1-3.083-1.79ZM12 15.238A3.23 3.23 0 0 0 15.22 12 3.23 3.23 0 0 0 12 8.762 3.23 3.23 0 0 0 8.78 12 3.23 3.23 0 0 0 12 15.24Z" clip-rule="evenodd"/>
</svg>
