<svg xmlns="http://www.w3.org/2000/svg" width="24" height="24" fill="none" viewBox="0 0 24 24">
  <path fill="#000" fill-rule="evenodd" d="M18.556 3.126A2.799 2.799 0 0 0 16.33 2H7.67a2.8 2.8 0 0 0-2.226 1.126l-2.74 3.606a1 1 0 0 0-.204.605V19c0 1.657 1.418 3 3.167 3h12.666c1.75 0 3.167-1.343 3.167-3V7.337a1 1 0 0 0-.204-.605l-2.74-3.606Zm-1.379.914a1.398 1.398 0 0 0-1.094-.54H7.917c-.422 0-.824.198-1.094.54L4.875 6.5h14.25l-1.948-2.46ZM6.314 11.764c-.053-.42.294-.764.717-.764s.76.345.831.762a4.469 4.469 0 0 0 8.807 0c.072-.417.408-.762.831-.762s.77.344.717.764a6 6 0 0 1-11.903 0Z" clip-rule="evenodd"/>
</svg>
