<svg xmlns="http://www.w3.org/2000/svg" width="24" height="24" fill="none" viewBox="0 0 24 24">
  <path fill="#000" d="M19.488 2.93a.75.75 0 1 0-.976 1.14c1.058.906 2.349 2.656 2.723 4.903.368 2.208-.133 4.986-2.8 8.033a.75.75 0 1 0 1.13.988c2.933-3.352 3.598-6.575 3.15-9.267-.442-2.653-1.951-4.703-3.227-5.796Z"/>
  <path fill="#000" d="M16.53 4.97a.75.75 0 0 0-1.06 1.06c.652.652 1.465 1.91 1.7 3.493.231 1.55-.083 3.463-1.75 5.502a.75.75 0 1 0 1.16.95c1.932-2.361 2.368-4.698 2.074-6.673-.289-1.942-1.276-3.484-2.124-4.332Zm-11-.94a.75.75 0 0 0-1.06-1.06C3.218 4.22 1.724 6.458 1.285 9.155c-.447 2.743.212 5.902 3.185 8.875a.75.75 0 0 0 1.06-1.06c-2.627-2.627-3.135-5.301-2.765-7.574.378-2.32 1.684-4.284 2.766-5.366Z"/>
  <path fill="#000" d="M8.53 4.97a.75.75 0 0 1 0 1.06c-.651.652-1.465 1.91-1.7 3.493-.231 1.55.083 3.463 1.75 5.502a.75.75 0 1 1-1.16.95c-1.932-2.361-2.368-4.698-2.074-6.673.29-1.942 1.276-3.484 2.124-4.332a.75.75 0 0 1 1.06 0Zm2.72 7.89a2.25 2.25 0 1 1 1.5-.004V20.5a.75.75 0 0 1-1.5 0v-7.64Z"/>
</svg>
