<svg xmlns="http://www.w3.org/2000/svg" width="24" height="24" fill="none" viewBox="0 0 24 24">
  <path fill="#000" d="M6.187 2.5a.75.75 0 1 0-1.5 0v1.75h-1.75a.75.75 0 0 0 0 1.5h1.75V7.5a.75.75 0 0 0 1.5 0V5.75h1.75a.75.75 0 1 0 0-1.5h-1.75V2.5Zm0 14a.75.75 0 0 0-1.5 0v1.75h-1.75a.75.75 0 0 0 0 1.5h1.75v1.75a.75.75 0 0 0 1.5 0v-1.75h1.75a.75.75 0 0 0 0-1.5h-1.75V16.5Zm7.687-12.616a.5.5 0 0 0-.925 0l-2.133 5.222a.5.5 0 0 1-.274.274L5.32 11.512a.5.5 0 0 0 0 .926l5.223 2.132a.5.5 0 0 1 .273.274l2.133 5.222a.5.5 0 0 0 .925 0l2.132-5.222a.5.5 0 0 1 .274-.274l5.223-2.132a.5.5 0 0 0 0-.926L16.28 9.38a.5.5 0 0 1-.274-.274l-2.132-5.222Z"/>
</svg>
