<svg xmlns="http://www.w3.org/2000/svg" width="24" height="24" fill="none" viewBox="0 0 24 24">
  <path fill="#000" d="M17.378 12.007a5.662 5.662 0 1 1-11.323 0 5.662 5.662 0 0 1 11.323 0ZM12.85 3.798V2.099a.85.85 0 0 0-1.7 0v1.699a.85.85 0 1 0 1.7 0Zm5.93 3.285 1.2-1.2a.85.85 0 0 0-1.2-1.202l-1.202 1.201a.85.85 0 0 0 1.201 1.201Zm1.146 6.339h1.699a.85.85 0 0 0 0-1.698h-1.699a.85.85 0 1 0 0 1.698Zm-2.734 5.945 1.201 1.201a.85.85 0 0 0 1.201-1.2l-1.2-1.202a.85.85 0 1 0-1.202 1.201Zm-6.339.835v1.699a.85.85 0 0 0 1.699 0v-1.699a.85.85 0 0 0-1.699 0Zm-5.364-2.719-1.201 1.2a.85.85 0 1 0 1.201 1.202l1.201-1.201a.85.85 0 1 0-1.201-1.201ZM4.074 11.44H2.375a.85.85 0 1 0 0 1.7h1.699a.85.85 0 0 0 0-1.7Zm2.719-5.958L5.592 4.281a.85.85 0 1 0-1.201 1.201l1.201 1.201a.85.85 0 1 0 1.201-1.201Z"/>
</svg>
