<svg xmlns="http://www.w3.org/2000/svg" width="24" height="24" fill="none" viewBox="0 0 24 24">
  <path fill="#000" fill-rule="evenodd" d="M2.416 11.338c.123.202.296.375.642.72l7.669 7.67c1.188 1.187 1.782 1.781 2.467 2.004a3.001 3.001 0 0 0 1.854 0c.685-.223 1.28-.817 2.467-2.005l2.212-2.212c1.188-1.188 1.782-1.782 2.005-2.467a3 3 0 0 0 0-1.854c-.223-.685-.817-1.279-2.005-2.467L12.058 3.06c-.345-.346-.518-.52-.72-.643a2.001 2.001 0 0 0-.578-.24c-.23-.055-.475-.055-.964-.055H5.32c-1.12 0-1.68 0-2.108.218a2 2 0 0 0-.874.874c-.218.428-.218.988-.218 2.108v4.475c0 .489 0 .734.055.964a2 2 0 0 0 .24.578ZM8.12 6.62a1.5 1.5 0 1 0 0 3 1.5 1.5 0 0 0 0-3Z" clip-rule="evenodd"/>
</svg>
