<svg xmlns="http://www.w3.org/2000/svg" width="24" height="24" fill="none" viewBox="0 0 24 24">
  <path fill="#000" d="M9.75 12a2.25 2.25 0 1 1 4.5 0 2.25 2.25 0 0 1-4.5 0Z"/>
  <path fill="#000" fill-rule="evenodd" d="M12 1.25a.75.75 0 0 1 .75.75v2.035a8.002 8.002 0 0 1 7.215 7.215H22a.75.75 0 0 1 0 1.5h-2.035a8.002 8.002 0 0 1-7.215 7.215V22a.75.75 0 0 1-1.5 0v-2.035a8.002 8.002 0 0 1-7.215-7.215H2a.75.75 0 0 1 0-1.5h2.035a8.002 8.002 0 0 1 7.215-7.215V2a.75.75 0 0 1 .75-.75Zm0 7a3.75 3.75 0 1 0 0 7.5 3.75 3.75 0 0 0 0-7.5Z" clip-rule="evenodd"/>
</svg>
