<svg xmlns="http://www.w3.org/2000/svg" width="24" height="24" fill="none" viewBox="0 0 24 24">
  <path fill="#000" fill-rule="evenodd" d="M14.995 2.25h-6.75a3.31 3.31 0 0 0-1.517.368l-1.196.615a.75.75 0 1 0 .686 1.334l1.196-.615c.259-.133.543-.202.83-.202h.662l1.02 2.1H7.625C5.741 5.85 4.25 7.415 4.25 9.3v7.2c0 1.496.939 2.79 2.269 3.26l-.443.912a.75.75 0 0 0 1.348.656l.67-1.378h7.812l.67 1.378a.75.75 0 1 0 1.348-.656l-.443-.911c1.33-.47 2.269-1.765 2.269-3.261V9.3c0-1.885-1.491-3.45-3.375-3.45h-2.301l1.02-2.097c.201.01.4.056.59.134l1.718.706a.75.75 0 1 0 .57-1.387L16.256 2.5c-.4-.164-.828-.25-1.26-.25Zm-1.569 1.5h-2.852l1.02 2.1h.812l1.02-2.1ZM18.25 9.3c0-1.097-.86-1.95-1.875-1.95h-8.75c-1.016 0-1.875.853-1.875 1.95v4.2h12.5V9.3Zm-9.813 5.95c-.675 0-1.187.557-1.187 1.2 0 .643.512 1.2 1.188 1.2.675 0 1.187-.557 1.187-1.2 0-.643-.512-1.2-1.188-1.2Zm7.126 0c-.676 0-1.188.557-1.188 1.2 0 .643.512 1.2 1.188 1.2.675 0 1.187-.557 1.187-1.2 0-.643-.512-1.2-1.188-1.2Z" clip-rule="evenodd"/>
</svg>
