<svg xmlns="http://www.w3.org/2000/svg" width="24" height="24" fill="none" viewBox="0 0 24 24">
  <path fill="#000" d="M7.146 3.09a.75.75 0 0 1 1.5 0v1.25h6.75a.75.75 0 0 1 0 1.5h-3.838a.646.646 0 0 1 .015.243c-.361 2.899-1.577 5.314-3.03 7.246.481.232.96.373 1.388.446.392.068.715.387.715.784 0 .42-.362.754-.776.68a6.915 6.915 0 0 1-2.232-.796c-1.405 1.602-2.905 2.792-4.016 3.572a.69.69 0 0 1-.885-.083.72.72 0 0 1 .086-1.085c1.463-1.097 2.653-2.208 3.614-3.292-1.262-1.179-1.909-2.713-2.168-3.907-.093-.43.254-.808.695-.808.387 0 .706.295.78.675.26 1.355.857 2.314 1.571 2.978 1.992-2.59 2.71-4.93 2.826-6.401a.853.853 0 0 1 .06-.252H2.895a.75.75 0 0 1 0-1.5h4.25V3.09Z"/>
  <path fill="#000" fill-rule="evenodd" d="m19.05 17.84 1.6 3.454a.631.631 0 0 0 1.15-.52l-4.506-10.216a.73.73 0 0 0-.225-.287.993.993 0 0 0-1.525.354l-4.61 9.918a.745.745 0 1 0 1.355.62l1.491-3.323h5.27Zm-.695-1.5-1.982-4.277-1.92 4.277h3.902Z" clip-rule="evenodd"/>
</svg>
