<svg xmlns="http://www.w3.org/2000/svg" width="24" height="24" fill="none" viewBox="0 0 24 24">
  <path fill="#000" fill-rule="evenodd" d="m8.25 3.75.474-.947a1 1 0 0 1 .894-.553h4.764a1 1 0 0 1 .894.553l.474.947H17a3 3 0 0 1 3 3v10a3.001 3.001 0 0 1-2.007 2.832A2 2 0 1 1 14 19.75h-3.501a2 2 0 0 1-3.999-.041A3 3 0 0 1 4 16.75v-10a3 3 0 0 1 3-3h1.25Zm10.417 10H5.333v-7.5a1 1 0 0 1 1-1h11.334a1 1 0 0 1 1 1v7.5Zm-10.917 3h1.5a.75.75 0 0 0 0-1.5h-1.5a.75.75 0 0 0 0 1.5Zm7 0h1.5a.75.75 0 0 0 0-1.5h-1.5a.75.75 0 0 0 0 1.5Z" clip-rule="evenodd"/>
</svg>
