<svg xmlns="http://www.w3.org/2000/svg" width="24" height="24" fill="none" viewBox="0 0 24 24">
  <path fill="#000" fill-rule="evenodd" d="M4.963 3.25h6.353c1.328 0 2.455.863 2.85 2.059h2.31a1 1 0 0 1 .707.293l4.561 4.561a1 1 0 0 1 .293.707v5.762h-1.72a3.088 3.088 0 1 1-5.825 0h-4.33a3.603 3.603 0 1 1-7.127-.037 1.391 1.391 0 0 1-1.072-1.353V6.25a3 3 0 0 1 3-3Zm15.53 11.838h-1.38a3.074 3.074 0 0 0-1.708-.514c-.632 0-1.219.189-1.708.514h-1.38V6.853h1.13a1 1 0 0 1 .706.293l4.047 4.046a1 1 0 0 1 .293.707v3.19Zm-4.862 2.574a1.774 1.774 0 1 0 3.547 0 1.774 1.774 0 0 0-3.547 0Zm-9.035 1.554a2.07 2.07 0 1 1 0-4.138 2.07 2.07 0 0 1 0 4.138Z" clip-rule="evenodd"/>
</svg>
