<svg xmlns="http://www.w3.org/2000/svg" width="24" height="24" fill="none" viewBox="0 0 24 24">
  <path fill="#000" fill-rule="evenodd" d="M5.28 3.5C3.745 3.5 2.5 4.769 2.5 6.333v6.611c0 1.493 1.132 2.715 2.569 2.826a2.853 2.853 0 0 0-.715 1.897c0 1.564 1.244 2.833 2.78 2.833 1.536 0 2.78-1.268 2.78-2.833 0-.726-.267-1.388-.707-1.89h6.05a2.853 2.853 0 0 0-.708 1.89c0 1.564 1.245 2.833 2.78 2.833 1.536 0 2.78-1.269 2.78-2.833 0-.726-.267-1.388-.707-1.89h1.635a.468.468 0 0 0 .463-.471v-4.98a.476.476 0 0 0-.158-.356l-3.418-3.048a.458.458 0 0 0-.305-.116h-2.143v-.473c0-1.564-1.245-2.833-2.78-2.833H5.28Zm10.196 4.722v5.796h4.17a.468.468 0 0 0 .464-.473v-2.74a.476.476 0 0 0-.167-.363l-2.485-2.11a.458.458 0 0 0-.296-.11h-1.686Zm3.47 9.551c0 .913-.726 1.653-1.622 1.653-.895 0-1.622-.74-1.622-1.653s.727-1.653 1.622-1.653c.896 0 1.622.74 1.622 1.653ZM7.134 19.32c.896 0 1.622-.74 1.622-1.652 0-.913-.726-1.653-1.622-1.653-.896 0-1.622.74-1.622 1.653 0 .912.726 1.652 1.622 1.652Z" clip-rule="evenodd"/>
</svg>
