<svg xmlns="http://www.w3.org/2000/svg" width="24" height="24" fill="none" viewBox="0 0 24 24">
  <path fill="#000" d="M12.81 7.235c0 2.34-1.935 4.236-4.324 4.236-2.388 0-4.324-1.897-4.324-4.236C4.162 4.896 6.098 3 8.486 3c2.389 0 4.325 1.896 4.325 4.235ZM2 15.706c0-1.462 1.21-2.647 2.703-2.647h7.567c1.493 0 2.703 1.185 2.703 2.647v5.082a.214.214 0 0 1-.216.212H2.217A.214.214 0 0 1 2 20.788v-5.082ZM15.585 6.33h4.284l-1.62-1.723a.66.66 0 0 1 0-.893.569.569 0 0 1 .815-.025l2.728 2.64c.285.269.27.883 0 1.17l-2.74 2.733a.553.553 0 0 1-.815 0 .641.641 0 0 1 0-.867l1.632-1.735h-4.284c-.338 0-.612-.291-.612-.65 0-.36.274-.65.612-.65Z"/>
</svg>
