<svg xmlns="http://www.w3.org/2000/svg" width="24" height="24" fill="none" viewBox="0 0 24 24">
  <path fill="#000" d="M4.257 8.796v6.408c0 .59.478 1.068 1.068 1.068h2.794c.264 0 .518.098.714.274l3.253 2.928c.688.618 1.783.13 1.783-.794V5.32c0-.925-1.095-1.412-1.783-.794L8.833 7.454c-.196.176-.45.274-.714.274H5.325c-.59 0-1.068.478-1.068 1.068Zm13.473 8.306c-.34.366-.916.313-1.237-.07-.321-.383-.265-.95.062-1.327a5.666 5.666 0 0 0-.202-7.63c-.346-.361-.432-.924-.132-1.323.301-.4.873-.482 1.233-.136a7.475 7.475 0 0 1 .277 10.486Z"/>
</svg>
