<svg xmlns="http://www.w3.org/2000/svg" width="24" height="24" fill="none" viewBox="0 0 24 24">
  <path fill="#000" d="M4.65 3.5h14.7c1.74 0 3.15 1.427 3.15 3.188v.53h-21v-.53C1.5 4.928 2.91 3.5 4.65 3.5ZM1.5 8.813V12h4.9c.227 0 .448.075.63.213l1.54 1.168c.182.138.403.213.63.213h5.6c.227 0 .448-.075.63-.213l1.54-1.168c.182-.138.403-.213.63-.213h4.9V8.812h-21Zm16.1 4.781h4.9v3.719c0 1.76-1.41 3.187-3.15 3.187H4.65c-1.74 0-3.15-1.427-3.15-3.188v-3.718h4.9c.227 0 .448.074.63.212l1.54 1.169c.182.138.403.213.63.213h5.6c.227 0 .448-.075.63-.213l1.54-1.169c.182-.138.403-.212.63-.212Z"/>
</svg>
