<svg xmlns="http://www.w3.org/2000/svg" width="24" height="24" fill="none" viewBox="0 0 24 24">
  <path fill="#000" d="M20.799 7.41a4.43 4.43 0 0 0-3.383.24 5.93 5.93 0 0 1-4.854.203l-.485-.194a5.592 5.592 0 0 0-4.154 0l-.254.102a7.777 7.777 0 0 1-5.348.157l-.558-.186a.75.75 0 0 1 .474-1.423l.558.186a6.277 6.277 0 0 0 4.317-.127l.254-.102a7.093 7.093 0 0 1 5.268 0l.485.194a4.43 4.43 0 0 0 3.627-.15 5.93 5.93 0 0 1 4.527-.323l.964.322a.75.75 0 0 1-.474 1.423l-.964-.322Zm0 5a4.43 4.43 0 0 0-3.383.24 5.93 5.93 0 0 1-4.854.203l-.485-.194a5.593 5.593 0 0 0-4.154 0l-.254.102a7.778 7.778 0 0 1-5.348.157l-.558-.186a.75.75 0 1 1 .474-1.423l.558.186a6.277 6.277 0 0 0 4.317-.127l.254-.102a7.092 7.092 0 0 1 5.268 0l.485.194a4.43 4.43 0 0 0 3.627-.15 5.93 5.93 0 0 1 4.527-.323l.964.322a.75.75 0 0 1-.474 1.423l-.964-.322Zm0 5a4.43 4.43 0 0 0-3.383.24 5.93 5.93 0 0 1-4.854.203l-.485-.194a5.593 5.593 0 0 0-4.154 0l-.254.102a7.778 7.778 0 0 1-5.348.157l-.558-.186a.75.75 0 1 1 .474-1.423l.558.186a6.277 6.277 0 0 0 4.317-.127l.254-.102a7.092 7.092 0 0 1 5.268 0l.485.194a4.43 4.43 0 0 0 3.627-.15 5.93 5.93 0 0 1 4.527-.323l.964.322a.75.75 0 0 1-.474 1.423l-.964-.322Z"/>
</svg>
