<svg xmlns="http://www.w3.org/2000/svg" width="24" height="24" fill="none" viewBox="0 0 24 24">
  <path fill="#000" d="M22.5 4.941c0 1.625-4.701 2.941-10.5 2.941S1.5 6.566 1.5 4.942C1.5 3.316 6.201 2 12 2s10.5 1.317 10.5 2.941ZM19.664 9.6c-5.322 2.344-11.987 1.107-15.725-.094-.62-.199-1.272.258-1.272.915 0 .4.253.759.633.878 7.047 2.21 13.901 1.126 17.197.084.48-.151.73-.665.59-1.15-.173-.602-.855-.884-1.423-.634Zm-1.136 4.793c-4.54 2.184-10.141 1.048-13.4-.115-.619-.22-1.295.23-1.295.891 0 .379.231.72.585.847 6.154 2.195 12.135 1.114 15.015.074.43-.156.652-.62.54-1.066-.156-.62-.871-.907-1.445-.631Zm-1.133 4.815c-3.76 1.986-8.31.972-11.08-.14-.613-.246-1.315.194-1.315.86 0 .35.203.67.524.803 5.273 2.185 10.394 1.1 12.856.061.372-.157.56-.566.475-.964-.137-.637-.887-.923-1.46-.62Z"/>
</svg>
